M48
; DRILL file {KiCad 9.0.9-9.0.9~ubuntu24.04.1} date 2026-07-14T15:03:22+0200
; FORMAT={-:-/ absolute / metric / decimal}
; #@! TF.CreationDate,2026-07-14T15:03:22+02:00
; #@! TF.GenerationSoftware,Kicad,Pcbnew,9.0.9-9.0.9~ubuntu24.04.1
; #@! TF.FileFunction,MixedPlating,1,2
FMAT,2
METRIC
; #@! TA.AperFunction,Plated,PTH,ViaDrill
T1C0.600
; #@! TA.AperFunction,Plated,PTH,ComponentDrill
T2C0.700
; #@! TA.AperFunction,Plated,PTH,ComponentDrill
T3C0.800
; #@! TA.AperFunction,Plated,PTH,ComponentDrill
T4C1.000
; #@! TA.AperFunction,Plated,PTH,ComponentDrill
T5C1.100
; #@! TA.AperFunction,Plated,PTH,ComponentDrill
T6C1.520
; #@! TA.AperFunction,NonPlated,NPTH,ComponentDrill
T7C3.500
%
G90
G05
T1
X30.48Y-106.045
X31.899Y-109.071
X32.407Y-99.419
X32.428Y-68.41
X32.478Y-71.035
X32.478Y-73.617
X32.512Y-60.706
X33.02Y-77.47
X33.02Y-112.465
X33.782Y-39.37
X43.18Y-136.398
X46.482Y-76.2
X47.498Y-116.078
X47.625Y-78.613
X48.26Y-137.922
X50.8Y-138.176
X51.308Y-77.47
X51.308Y-90.458
X52.07Y-87.63
X52.578Y-85.09
X52.832Y-39.37
X58.674Y-133.35
X59.69Y-140.97
X65.532Y-81.28
X66.04Y-142.494
X66.548Y-83.89
X67.056Y-86.43
X67.818Y-88.97
X68.58Y-77.47
X68.834Y-39.37
X70.578Y-34.29
X70.866Y-72.39
X71.882Y-21.59
X71.882Y-59.69
X71.882Y-110.998
X86.36Y-135.128
X86.868Y-74.676
X86.995Y-113.157
X88.138Y-69.596
X88.195Y-107.385
X89.281Y-66.675
X89.408Y-104.902
X89.662Y-140.97
X90.678Y-64.262
X90.678Y-102.362
X90.678Y-116.332
X91.948Y-132.08
X91.948Y-134.366
X95.25Y-137.16
X97.536Y-137.414
X99.314Y-137.414
X100.838Y-137.668
X103.378Y-132.08
X103.378Y-134.62
X104.14Y-82.55
X104.14Y-121.285
X105.41Y-79.756
X105.41Y-117.856
X108.458Y-77.47
X109.728Y-39.37
X124.46Y-101.092
X125.476Y-103.378
X125.73Y-62.738
X126.654Y-77.47
X126.746Y-66.04
X127.786Y-39.092
X128.143Y-19.685
X128.27Y-58.42
X128.778Y-62.23
X129.032Y-24.13
X129.54Y-96.774
X139.954Y-111.76
X144.018Y-125.73
X145.034Y-99.822
X145.542Y-57.912
X145.796Y-126.238
X146.05Y-39.37
X146.05Y-134.62
X146.558Y-143.51
X147.32Y-112.325
X147.32Y-121.285
X147.574Y-104.394
X147.574Y-138.684
X147.828Y-39.37
X148.082Y-134.62
X148.336Y-132.334
X148.59Y-77.47
X149.152Y-127.034
X149.352Y-140.208
X150.368Y-132.334
X151.818Y-127.161
X152.908Y-129.286
X153.416Y-132.968
X154.432Y-129.286
X154.495Y-103.95
X154.686Y-115.062
X154.686Y-141.224
X157.734Y-132.842
X160.02Y-109.982
X160.528Y-108.458
X160.528Y-120.65
X161.798Y-39.37
X162.052Y-128.778
X162.086Y-132.715
X162.56Y-77.47
X162.814Y-25.4
X164.338Y-27.94
X164.846Y-63.5
X165.64Y-30.236
X166.37Y-66.04
X166.878Y-33.02
X167.386Y-68.58
X167.64Y-117.856
X167.64Y-140.716
X168.402Y-94.869
X168.656Y-71.12
X169.418Y-123.698
X170.743Y-94.797
X177.292Y-120.65
X178.562Y-92.456
X179.578Y-39.37
X179.578Y-77.47
X180.594Y-93.218
X182.118Y-73.66
X183.388Y-76.2
X184.404Y-38.17
X184.404Y-35.56
X184.637Y-40.49
X184.658Y-22.606
X184.658Y-78.706
X184.743Y-42.96
X185.928Y-31.75
X185.928Y-81.28
X187.198Y-60.96
X193.04Y-134.366
X194.53Y-108.655
X194.818Y-125.73
X195.199Y-103.378
X196.596Y-98.171
X196.884Y-116.298
X198.628Y-74.93
X199.898Y-67.31
X200.66Y-118.364
X201.168Y-64.77
X202.184Y-36.83
X202.184Y-83.566
X202.438Y-45.72
X202.946Y-48.26
X203.454Y-50.8
X203.454Y-86.36
X203.942Y-28.976
X204.216Y-39.37
X204.724Y-26.67
X204.724Y-88.9
X208.788Y-93.472
X210.566Y-93.472
X216.408Y-90.17
X217.505Y-51.92
X217.678Y-41.91
X217.678Y-44.45
X217.678Y-47.244
X217.678Y-49.53
X218.44Y-113.03
X218.44Y-116.078
X218.694Y-87.63
X220.218Y-85.09
X221.488Y-82.55
X221.996Y-61.722
X222.504Y-80.01
X223.774Y-24.13
X224.028Y-39.37
X225.298Y-91.694
X226.822Y-92.964
X238.506Y-91.694
X240.03Y-91.694
X240.284Y-77.47
X242.062Y-39.116
X261.874Y-39.37
X261.874Y-90.678
X263.398Y-90.678
T2
X223.774Y-98.806
X223.774Y-103.886
X226.314Y-101.346
T3
X22.86Y-19.05
X22.86Y-21.59
X22.86Y-24.13
X22.86Y-26.67
X22.86Y-29.21
X22.86Y-31.75
X22.86Y-34.29
X22.86Y-36.83
X22.86Y-39.37
X22.86Y-41.91
X22.86Y-44.45
X22.86Y-46.99
X22.86Y-49.53
X22.86Y-52.07
X22.86Y-57.15
X22.86Y-59.69
X22.86Y-62.23
X22.86Y-64.77
X22.86Y-67.31
X22.86Y-69.85
X22.86Y-72.39
X22.86Y-74.93
X22.86Y-77.47
X22.86Y-80.01
X22.86Y-82.55
X22.86Y-85.09
X22.86Y-87.63
X22.86Y-90.17
X22.86Y-95.885
X22.86Y-98.425
X22.86Y-100.965
X22.86Y-103.505
X22.86Y-106.045
X22.86Y-108.585
X22.86Y-111.125
X22.86Y-113.665
X22.86Y-116.205
X22.86Y-118.745
X22.86Y-121.285
X22.86Y-123.825
X22.86Y-126.365
X22.86Y-128.905
X34.798Y-133.39
X34.798Y-135.89
X38.1Y-19.05
X38.1Y-21.59
X38.1Y-24.13
X38.1Y-26.67
X38.1Y-29.21
X38.1Y-31.75
X38.1Y-34.29
X38.1Y-36.83
X38.1Y-39.37
X38.1Y-41.91
X38.1Y-44.45
X38.1Y-46.99
X38.1Y-49.53
X38.1Y-52.07
X38.1Y-57.15
X38.1Y-59.69
X38.1Y-62.23
X38.1Y-64.77
X38.1Y-67.31
X38.1Y-69.85
X38.1Y-72.39
X38.1Y-74.93
X38.1Y-77.47
X38.1Y-80.01
X38.1Y-82.55
X38.1Y-85.09
X38.1Y-87.63
X38.1Y-90.17
X38.1Y-95.885
X38.1Y-98.425
X38.1Y-100.965
X38.1Y-103.505
X38.1Y-106.045
X38.1Y-108.585
X38.1Y-111.125
X38.1Y-113.665
X38.1Y-116.205
X38.1Y-118.745
X38.1Y-121.285
X38.1Y-123.825
X38.1Y-126.365
X38.1Y-128.905
X38.1Y-133.35
X38.1Y-140.97
X38.608Y-55.118
X38.608Y-93.472
X40.376Y-53.35
X40.376Y-91.704
X40.64Y-133.35
X40.64Y-140.97
X41.91Y-19.05
X41.91Y-21.59
X41.91Y-24.13
X41.91Y-26.67
X41.91Y-29.21
X41.91Y-31.75
X41.91Y-34.29
X41.91Y-36.83
X41.91Y-39.37
X41.91Y-41.91
X41.91Y-44.45
X41.91Y-46.99
X41.91Y-49.53
X41.91Y-52.07
X41.91Y-57.15
X41.91Y-59.69
X41.91Y-62.23
X41.91Y-64.77
X41.91Y-67.31
X41.91Y-69.85
X41.91Y-72.39
X41.91Y-74.93
X41.91Y-77.47
X41.91Y-80.01
X41.91Y-82.55
X41.91Y-85.09
X41.91Y-87.63
X41.91Y-90.17
X41.91Y-95.885
X41.91Y-98.425
X41.91Y-100.965
X41.91Y-103.505
X41.91Y-106.045
X41.91Y-108.585
X41.91Y-111.125
X41.91Y-113.665
X41.91Y-116.205
X41.91Y-118.745
X41.91Y-121.285
X41.91Y-123.825
X41.91Y-126.365
X41.91Y-128.905
X43.18Y-133.35
X43.18Y-140.97
X45.72Y-133.35
X45.72Y-140.97
X48.26Y-133.35
X48.26Y-140.97
X50.8Y-133.35
X50.8Y-140.97
X53.34Y-133.35
X53.34Y-140.97
X55.88Y-133.35
X55.88Y-140.97
X57.15Y-19.05
X57.15Y-21.59
X57.15Y-24.13
X57.15Y-26.67
X57.15Y-29.21
X57.15Y-31.75
X57.15Y-34.29
X57.15Y-36.83
X57.15Y-39.37
X57.15Y-41.91
X57.15Y-44.45
X57.15Y-46.99
X57.15Y-49.53
X57.15Y-52.07
X57.15Y-57.15
X57.15Y-59.69
X57.15Y-62.23
X57.15Y-64.77
X57.15Y-67.31
X57.15Y-69.85
X57.15Y-72.39
X57.15Y-74.93
X57.15Y-77.47
X57.15Y-80.01
X57.15Y-82.55
X57.15Y-85.09
X57.15Y-87.63
X57.15Y-90.17
X57.15Y-95.885
X57.15Y-98.425
X57.15Y-100.965
X57.15Y-103.505
X57.15Y-106.045
X57.15Y-108.585
X57.15Y-111.125
X57.15Y-113.665
X57.15Y-116.205
X57.15Y-118.745
X57.15Y-121.285
X57.15Y-123.825
X57.15Y-126.365
X57.15Y-128.905
X57.658Y-55.118
X57.658Y-93.472
X59.426Y-53.35
X59.426Y-91.704
X60.96Y-19.05
X60.96Y-21.59
X60.96Y-24.13
X60.96Y-26.67
X60.96Y-29.21
X60.96Y-31.75
X60.96Y-34.29
X60.96Y-36.83
X60.96Y-39.37
X60.96Y-41.91
X60.96Y-44.45
X60.96Y-46.99
X60.96Y-49.53
X60.96Y-52.07
X60.96Y-57.15
X60.96Y-59.69
X60.96Y-62.23
X60.96Y-64.77
X60.96Y-67.31
X60.96Y-69.85
X60.96Y-72.39
X60.96Y-74.93
X60.96Y-77.47
X60.96Y-80.01
X60.96Y-82.55
X60.96Y-85.09
X60.96Y-87.63
X60.96Y-90.17
X60.96Y-95.885
X60.96Y-98.425
X60.96Y-100.965
X60.96Y-103.505
X60.96Y-106.045
X60.96Y-108.585
X60.96Y-111.125
X60.96Y-113.665
X60.96Y-116.205
X60.96Y-118.745
X60.96Y-121.285
X60.96Y-123.825
X60.96Y-126.365
X60.96Y-128.905
X62.23Y-133.35
X62.23Y-140.97
X64.77Y-133.35
X64.77Y-140.97
X67.31Y-133.35
X67.31Y-140.97
X69.85Y-133.35
X69.85Y-140.97
X72.39Y-133.35
X72.39Y-140.97
X74.93Y-133.35
X74.93Y-140.97
X76.2Y-19.05
X76.2Y-21.59
X76.2Y-24.13
X76.2Y-26.67
X76.2Y-29.21
X76.2Y-31.75
X76.2Y-34.29
X76.2Y-36.83
X76.2Y-39.37
X76.2Y-41.91
X76.2Y-44.45
X76.2Y-46.99
X76.2Y-49.53
X76.2Y-52.07
X76.2Y-57.15
X76.2Y-59.69
X76.2Y-62.23
X76.2Y-64.77
X76.2Y-67.31
X76.2Y-69.85
X76.2Y-72.39
X76.2Y-74.93
X76.2Y-77.47
X76.2Y-80.01
X76.2Y-82.55
X76.2Y-85.09
X76.2Y-87.63
X76.2Y-90.17
X76.2Y-95.885
X76.2Y-98.425
X76.2Y-100.965
X76.2Y-103.505
X76.2Y-106.045
X76.2Y-108.585
X76.2Y-111.125
X76.2Y-113.665
X76.2Y-116.205
X76.2Y-118.745
X76.2Y-121.285
X76.2Y-123.825
X76.2Y-126.365
X76.2Y-128.905
X76.708Y-55.118
X76.708Y-93.472
X77.47Y-133.35
X77.47Y-140.97
X78.476Y-53.35
X78.476Y-91.704
X80.01Y-19.05
X80.01Y-21.59
X80.01Y-24.13
X80.01Y-26.67
X80.01Y-29.21
X80.01Y-31.75
X80.01Y-34.29
X80.01Y-36.83
X80.01Y-39.37
X80.01Y-41.91
X80.01Y-44.45
X80.01Y-46.99
X80.01Y-49.53
X80.01Y-52.07
X80.01Y-57.15
X80.01Y-59.69
X80.01Y-62.23
X80.01Y-64.77
X80.01Y-67.31
X80.01Y-69.85
X80.01Y-72.39
X80.01Y-74.93
X80.01Y-77.47
X80.01Y-80.01
X80.01Y-82.55
X80.01Y-85.09
X80.01Y-87.63
X80.01Y-90.17
X80.01Y-95.885
X80.01Y-98.425
X80.01Y-100.965
X80.01Y-103.505
X80.01Y-106.045
X80.01Y-108.585
X80.01Y-111.125
X80.01Y-113.665
X80.01Y-116.205
X80.01Y-118.745
X80.01Y-121.285
X80.01Y-123.825
X80.01Y-126.365
X80.01Y-128.905
X80.01Y-133.35
X80.01Y-140.97
X82.55Y-133.35
X82.55Y-140.97
X85.09Y-133.35
X85.09Y-140.97
X95.25Y-19.05
X95.25Y-21.59
X95.25Y-24.13
X95.25Y-26.67
X95.25Y-29.21
X95.25Y-31.75
X95.25Y-34.29
X95.25Y-36.83
X95.25Y-39.37
X95.25Y-41.91
X95.25Y-44.45
X95.25Y-46.99
X95.25Y-49.53
X95.25Y-52.07
X95.25Y-57.15
X95.25Y-59.69
X95.25Y-62.23
X95.25Y-64.77
X95.25Y-67.31
X95.25Y-69.85
X95.25Y-72.39
X95.25Y-74.93
X95.25Y-77.47
X95.25Y-80.01
X95.25Y-82.55
X95.25Y-85.09
X95.25Y-87.63
X95.25Y-90.17
X95.25Y-95.885
X95.25Y-98.425
X95.25Y-100.965
X95.25Y-103.505
X95.25Y-106.045
X95.25Y-108.585
X95.25Y-111.125
X95.25Y-113.665
X95.25Y-116.205
X95.25Y-118.745
X95.25Y-121.285
X95.25Y-123.825
X95.25Y-126.365
X95.25Y-128.905
X95.758Y-55.108
X95.758Y-93.462
X97.526Y-53.34
X97.526Y-91.694
X99.06Y-19.05
X99.06Y-21.59
X99.06Y-24.13
X99.06Y-26.67
X99.06Y-29.21
X99.06Y-31.75
X99.06Y-34.29
X99.06Y-36.83
X99.06Y-39.37
X99.06Y-41.91
X99.06Y-44.45
X99.06Y-46.99
X99.06Y-49.53
X99.06Y-52.07
X99.06Y-57.15
X99.06Y-59.69
X99.06Y-62.23
X99.06Y-64.77
X99.06Y-67.31
X99.06Y-69.85
X99.06Y-72.39
X99.06Y-74.93
X99.06Y-77.47
X99.06Y-80.01
X99.06Y-82.55
X99.06Y-85.09
X99.06Y-87.63
X99.06Y-90.17
X99.06Y-95.885
X99.06Y-98.425
X99.06Y-100.965
X99.06Y-103.505
X99.06Y-106.045
X99.06Y-108.585
X99.06Y-111.125
X99.06Y-113.665
X99.06Y-116.205
X99.06Y-118.745
X99.06Y-121.285
X99.06Y-123.825
X99.06Y-126.365
X99.06Y-128.905
X111.125Y-135.89
X111.125Y-143.51
X113.665Y-135.89
X113.665Y-143.51
X114.3Y-19.05
X114.3Y-21.59
X114.3Y-24.13
X114.3Y-26.67
X114.3Y-29.21
X114.3Y-31.75
X114.3Y-34.29
X114.3Y-36.83
X114.3Y-39.37
X114.3Y-41.91
X114.3Y-44.45
X114.3Y-46.99
X114.3Y-49.53
X114.3Y-52.07
X114.3Y-57.15
X114.3Y-59.69
X114.3Y-62.23
X114.3Y-64.77
X114.3Y-67.31
X114.3Y-69.85
X114.3Y-72.39
X114.3Y-74.93
X114.3Y-77.47
X114.3Y-80.01
X114.3Y-82.55
X114.3Y-85.09
X114.3Y-87.63
X114.3Y-90.17
X114.3Y-95.885
X114.3Y-98.425
X114.3Y-100.965
X114.3Y-103.505
X114.3Y-106.045
X114.3Y-108.585
X114.3Y-111.125
X114.3Y-113.665
X114.3Y-116.205
X114.3Y-118.745
X114.3Y-121.285
X114.3Y-123.825
X114.3Y-126.365
X114.3Y-128.905
X114.808Y-55.118
X114.808Y-93.472
X116.205Y-135.89
X116.205Y-143.51
X116.576Y-53.35
X116.576Y-91.704
X118.11Y-19.05
X118.11Y-21.59
X118.11Y-24.13
X118.11Y-26.67
X118.11Y-29.21
X118.11Y-31.75
X118.11Y-34.29
X118.11Y-36.83
X118.11Y-39.37
X118.11Y-41.91
X118.11Y-44.45
X118.11Y-46.99
X118.11Y-49.53
X118.11Y-52.07
X118.11Y-57.15
X118.11Y-59.69
X118.11Y-62.23
X118.11Y-64.77
X118.11Y-67.31
X118.11Y-69.85
X118.11Y-72.39
X118.11Y-74.93
X118.11Y-77.47
X118.11Y-80.01
X118.11Y-82.55
X118.11Y-85.09
X118.11Y-87.63
X118.11Y-90.17
X118.11Y-95.885
X118.11Y-98.425
X118.11Y-100.965
X118.11Y-103.505
X118.11Y-106.045
X118.11Y-108.585
X118.11Y-111.125
X118.11Y-113.665
X118.11Y-116.205
X118.11Y-118.745
X118.11Y-121.285
X118.11Y-123.825
X118.11Y-126.365
X118.11Y-128.905
X118.745Y-135.89
X118.745Y-143.51
X121.285Y-135.89
X121.285Y-143.51
X123.825Y-135.89
X123.825Y-143.51
X126.365Y-135.89
X126.365Y-143.51
X128.905Y-135.89
X128.905Y-143.51
X131.445Y-135.89
X131.445Y-143.51
X133.35Y-19.05
X133.35Y-21.59
X133.35Y-24.13
X133.35Y-26.67
X133.35Y-29.21
X133.35Y-31.75
X133.35Y-34.29
X133.35Y-36.83
X133.35Y-39.37
X133.35Y-41.91
X133.35Y-44.45
X133.35Y-46.99
X133.35Y-49.53
X133.35Y-52.07
X133.35Y-57.15
X133.35Y-59.69
X133.35Y-62.23
X133.35Y-64.77
X133.35Y-67.31
X133.35Y-69.85
X133.35Y-72.39
X133.35Y-74.93
X133.35Y-77.47
X133.35Y-80.01
X133.35Y-82.55
X133.35Y-85.09
X133.35Y-87.63
X133.35Y-90.17
X133.35Y-95.885
X133.35Y-98.425
X133.35Y-100.965
X133.35Y-103.505
X133.35Y-106.045
X133.35Y-108.585
X133.35Y-111.125
X133.35Y-113.665
X133.35Y-116.205
X133.35Y-118.745
X133.35Y-121.285
X133.35Y-123.825
X133.35Y-126.365
X133.35Y-128.905
X133.858Y-55.118
X133.858Y-93.472
X133.985Y-135.89
X133.985Y-143.51
X135.626Y-53.35
X135.626Y-91.704
X137.16Y-19.05
X137.16Y-21.59
X137.16Y-24.13
X137.16Y-26.67
X137.16Y-29.21
X137.16Y-31.75
X137.16Y-34.29
X137.16Y-36.83
X137.16Y-39.37
X137.16Y-41.91
X137.16Y-44.45
X137.16Y-46.99
X137.16Y-49.53
X137.16Y-52.07
X137.16Y-57.15
X137.16Y-59.69
X137.16Y-62.23
X137.16Y-64.77
X137.16Y-67.31
X137.16Y-69.85
X137.16Y-72.39
X137.16Y-74.93
X137.16Y-77.47
X137.16Y-80.01
X137.16Y-82.55
X137.16Y-85.09
X137.16Y-87.63
X137.16Y-90.17
X140.335Y-95.25
X142.875Y-98.425
X142.875Y-100.965
X142.875Y-103.505
X142.875Y-106.045
X142.875Y-108.585
X142.875Y-111.125
X142.875Y-113.665
X142.875Y-116.205
X142.875Y-118.745
X142.875Y-121.285
X150.495Y-95.25
X150.495Y-98.425
X150.495Y-100.965
X150.495Y-103.505
X150.495Y-106.045
X150.495Y-108.585
X150.495Y-111.125
X150.495Y-113.665
X150.495Y-116.205
X150.495Y-118.745
X150.495Y-121.285
X152.4Y-19.05
X152.4Y-21.59
X152.4Y-24.13
X152.4Y-26.67
X152.4Y-29.21
X152.4Y-31.75
X152.4Y-34.29
X152.4Y-36.83
X152.4Y-39.37
X152.4Y-41.91
X152.4Y-44.45
X152.4Y-46.99
X152.4Y-49.53
X152.4Y-52.07
X152.4Y-57.15
X152.4Y-59.69
X152.4Y-62.23
X152.4Y-64.77
X152.4Y-67.31
X152.4Y-69.85
X152.4Y-72.39
X152.4Y-74.93
X152.4Y-77.47
X152.4Y-80.01
X152.4Y-82.55
X152.4Y-85.09
X152.4Y-87.63
X152.4Y-90.17
X152.908Y-55.118
X154.676Y-53.35
X154.94Y-95.25
X156.21Y-19.05
X156.21Y-21.59
X156.21Y-24.13
X156.21Y-26.67
X156.21Y-29.21
X156.21Y-31.75
X156.21Y-34.29
X156.21Y-36.83
X156.21Y-39.37
X156.21Y-41.91
X156.21Y-44.45
X156.21Y-46.99
X156.21Y-49.53
X156.21Y-52.07
X156.21Y-57.15
X156.21Y-59.69
X156.21Y-62.23
X156.21Y-64.77
X156.21Y-67.31
X156.21Y-69.85
X156.21Y-72.39
X156.21Y-74.93
X156.21Y-77.47
X156.21Y-80.01
X156.21Y-82.55
X156.21Y-85.09
X156.21Y-87.63
X156.21Y-90.17
X157.48Y-98.425
X157.48Y-100.965
X157.48Y-103.505
X157.48Y-106.045
X157.48Y-108.585
X157.48Y-111.125
X157.48Y-113.665
X157.48Y-116.205
X165.1Y-95.25
X165.1Y-98.425
X165.1Y-100.965
X165.1Y-103.505
X165.1Y-106.045
X165.1Y-108.585
X165.1Y-111.125
X165.1Y-113.665
X165.1Y-116.205
X165.735Y-120.015
X165.735Y-122.555
X165.735Y-125.095
X165.735Y-127.635
X165.735Y-130.175
X165.735Y-132.715
X165.735Y-135.255
X165.735Y-137.795
X170.18Y-98.425
X170.18Y-108.585
X171.45Y-19.05
X171.45Y-21.59
X171.45Y-24.13
X171.45Y-26.67
X171.45Y-29.21
X171.45Y-31.75
X171.45Y-34.29
X171.45Y-36.83
X171.45Y-39.37
X171.45Y-41.91
X171.45Y-44.45
X171.45Y-46.99
X171.45Y-49.53
X171.45Y-52.07
X171.45Y-57.15
X171.45Y-59.69
X171.45Y-62.23
X171.45Y-64.77
X171.45Y-67.31
X171.45Y-69.85
X171.45Y-72.39
X171.45Y-74.93
X171.45Y-77.47
X171.45Y-80.01
X171.45Y-82.55
X171.45Y-85.09
X171.45Y-87.63
X171.45Y-90.17
X171.958Y-55.118
X173.228Y-116.586
X173.355Y-120.015
X173.355Y-122.555
X173.355Y-125.095
X173.355Y-127.635
X173.355Y-130.175
X173.355Y-132.715
X173.355Y-135.255
X173.355Y-137.795
X173.726Y-53.35
X175.26Y-19.05
X175.26Y-21.59
X175.26Y-24.13
X175.26Y-26.67
X175.26Y-29.21
X175.26Y-31.75
X175.26Y-34.29
X175.26Y-36.83
X175.26Y-39.37
X175.26Y-41.91
X175.26Y-44.45
X175.26Y-46.99
X175.26Y-49.53
X175.26Y-52.07
X175.26Y-57.15
X175.26Y-59.69
X175.26Y-62.23
X175.26Y-64.77
X175.26Y-67.31
X175.26Y-69.85
X175.26Y-72.39
X175.26Y-74.93
X175.26Y-77.47
X175.26Y-80.01
X175.26Y-82.55
X175.26Y-85.09
X175.26Y-87.63
X175.26Y-90.17
X175.26Y-98.425
X175.26Y-108.585
X175.728Y-116.586
X180.34Y-96.52
X180.34Y-99.06
X180.34Y-101.6
X180.34Y-104.14
X180.34Y-106.68
X180.34Y-109.22
X180.34Y-111.76
X180.34Y-114.3
X180.34Y-118.11
X180.34Y-120.65
X180.34Y-123.19
X180.34Y-125.73
X180.34Y-128.27
X180.34Y-130.81
X180.34Y-133.35
X180.34Y-135.89
X180.34Y-138.43
X180.34Y-140.97
X185.42Y-96.52
X185.42Y-99.06
X185.42Y-101.6
X185.42Y-104.14
X185.42Y-106.68
X185.42Y-109.22
X185.42Y-111.76
X185.42Y-114.3
X187.96Y-118.11
X187.96Y-120.65
X187.96Y-123.19
X187.96Y-125.73
X187.96Y-128.27
X187.96Y-130.81
X187.96Y-133.35
X187.96Y-135.89
X187.96Y-138.43
X187.96Y-140.97
X190.5Y-19.05
X190.5Y-21.59
X190.5Y-24.13
X190.5Y-26.67
X190.5Y-29.21
X190.5Y-31.75
X190.5Y-34.29
X190.5Y-36.83
X190.5Y-39.37
X190.5Y-41.91
X190.5Y-44.45
X190.5Y-46.99
X190.5Y-49.53
X190.5Y-52.07
X190.5Y-57.15
X190.5Y-59.69
X190.5Y-62.23
X190.5Y-64.77
X190.5Y-67.31
X190.5Y-69.85
X190.5Y-72.39
X190.5Y-74.93
X190.5Y-77.47
X190.5Y-80.01
X190.5Y-82.55
X190.5Y-85.09
X190.5Y-87.63
X190.5Y-90.17
X191.008Y-55.118
X191.77Y-97.155
X191.77Y-99.695
X191.77Y-102.235
X191.77Y-104.775
X191.77Y-107.315
X191.77Y-109.855
X191.77Y-112.395
X191.77Y-114.935
X191.77Y-117.602
X191.77Y-120.102
X192.532Y-129.794
X192.532Y-139.954
X192.776Y-53.35
X194.31Y-19.05
X194.31Y-21.59
X194.31Y-24.13
X194.31Y-26.67
X194.31Y-29.21
X194.31Y-31.75
X194.31Y-34.29
X194.31Y-36.83
X194.31Y-39.37
X194.31Y-41.91
X194.31Y-44.45
X194.31Y-46.99
X194.31Y-49.53
X194.31Y-52.07
X194.31Y-57.15
X194.31Y-59.69
X194.31Y-62.23
X194.31Y-64.77
X194.31Y-67.31
X194.31Y-69.85
X194.31Y-72.39
X194.31Y-74.93
X194.31Y-77.47
X194.31Y-80.01
X194.31Y-82.55
X194.31Y-85.09
X194.31Y-87.63
X194.31Y-90.17
X194.31Y-93.726
X196.81Y-93.726
X198.12Y-120.65
X198.12Y-123.19
X198.12Y-125.73
X198.12Y-128.27
X198.12Y-130.81
X198.12Y-133.35
X198.12Y-135.89
X198.12Y-138.43
X198.12Y-140.97
X198.12Y-143.51
X199.39Y-97.155
X199.39Y-99.695
X199.39Y-102.235
X199.39Y-104.775
X199.39Y-107.315
X199.39Y-109.855
X199.39Y-112.395
X199.39Y-114.935
X203.835Y-96.52
X203.835Y-99.06
X203.835Y-101.6
X203.835Y-104.14
X203.835Y-106.68
X203.835Y-109.22
X203.835Y-111.76
X203.835Y-114.3
X205.74Y-120.65
X205.74Y-123.19
X205.74Y-125.73
X205.74Y-128.27
X205.74Y-130.81
X205.74Y-133.35
X205.74Y-135.89
X205.74Y-138.43
X205.74Y-140.97
X205.74Y-143.51
X208.915Y-96.52
X208.915Y-99.06
X208.915Y-101.6
X208.915Y-104.14
X208.915Y-106.68
X208.915Y-109.22
X208.915Y-111.76
X208.915Y-114.3
X209.55Y-19.05
X209.55Y-21.59
X209.55Y-24.13
X209.55Y-26.67
X209.55Y-29.21
X209.55Y-31.75
X209.55Y-34.29
X209.55Y-36.83
X209.55Y-39.37
X209.55Y-41.91
X209.55Y-44.45
X209.55Y-46.99
X209.55Y-49.53
X209.55Y-52.07
X209.55Y-57.15
X209.55Y-59.69
X209.55Y-62.23
X209.55Y-64.77
X209.55Y-67.31
X209.55Y-69.85
X209.55Y-72.39
X209.55Y-74.93
X209.55Y-77.47
X209.55Y-80.01
X209.55Y-82.55
X209.55Y-85.09
X209.55Y-87.63
X209.55Y-90.17
X209.814Y-55.108
X210.185Y-120.65
X210.185Y-123.19
X210.185Y-125.73
X210.185Y-128.27
X210.185Y-130.81
X210.185Y-133.35
X210.185Y-135.89
X210.185Y-138.43
X210.185Y-140.97
X210.185Y-143.51
X211.582Y-53.34
X213.36Y-19.05
X213.36Y-21.59
X213.36Y-24.13
X213.36Y-26.67
X213.36Y-29.21
X213.36Y-31.75
X213.36Y-34.29
X213.36Y-36.83
X213.36Y-39.37
X213.36Y-41.91
X213.36Y-44.45
X213.36Y-46.99
X213.36Y-49.53
X213.36Y-52.07
X213.36Y-57.15
X213.36Y-59.69
X213.36Y-62.23
X213.36Y-64.77
X213.36Y-67.31
X213.36Y-69.85
X213.36Y-72.39
X213.36Y-74.93
X213.36Y-77.47
X213.36Y-80.01
X213.36Y-82.55
X213.36Y-85.09
X213.36Y-87.63
X213.36Y-90.17
X215.265Y-96.52
X215.265Y-99.06
X215.265Y-101.6
X215.265Y-104.14
X215.265Y-106.68
X215.265Y-109.22
X215.265Y-111.76
X215.265Y-114.3
X217.805Y-120.65
X217.805Y-123.19
X217.805Y-125.73
X217.805Y-128.27
X217.805Y-130.81
X217.805Y-133.35
X217.805Y-135.89
X217.805Y-138.43
X217.805Y-140.97
X217.805Y-143.51
X220.726Y-107.482
X220.726Y-109.982
X220.726Y-113.538
X220.726Y-123.698
X223.774Y-108.966
X223.774Y-111.506
X223.774Y-114.046
X223.774Y-116.586
X223.774Y-119.126
X223.774Y-121.666
X226.314Y-108.712
X226.314Y-118.872
X228.346Y-121.666
X228.6Y-19.05
X228.6Y-21.59
X228.6Y-24.13
X228.6Y-26.67
X228.6Y-29.21
X228.6Y-31.75
X228.6Y-34.29
X228.6Y-36.83
X228.6Y-39.37
X228.6Y-41.91
X228.6Y-44.45
X228.6Y-46.99
X228.6Y-49.53
X228.6Y-52.07
X228.6Y-57.15
X228.6Y-59.69
X228.6Y-62.23
X228.6Y-64.77
X228.6Y-67.31
X228.6Y-69.85
X228.6Y-72.39
X228.6Y-74.93
X228.6Y-77.47
X228.6Y-80.01
X228.6Y-82.55
X228.6Y-85.09
X228.6Y-87.63
X228.6Y-90.17
X229.108Y-55.118
X229.108Y-98.552
X229.108Y-103.632
X229.108Y-105.918
X229.108Y-108.458
X229.108Y-110.998
X229.362Y-100.838
X230.124Y-119.634
X230.876Y-53.35
X231.862Y-100.838
X232.41Y-19.05
X232.41Y-21.59
X232.41Y-24.13
X232.41Y-26.67
X232.41Y-29.21
X232.41Y-31.75
X232.41Y-34.29
X232.41Y-36.83
X232.41Y-39.37
X232.41Y-41.91
X232.41Y-44.45
X232.41Y-46.99
X232.41Y-49.53
X232.41Y-52.07
X232.41Y-57.15
X232.41Y-59.69
X232.41Y-62.23
X232.41Y-64.77
X232.41Y-67.31
X232.41Y-69.85
X232.41Y-72.39
X232.41Y-74.93
X232.41Y-77.47
X232.41Y-80.01
X232.41Y-82.55
X232.41Y-85.09
X232.41Y-87.63
X232.41Y-90.17
X238.506Y-100.838
X238.506Y-116.586
X238.506Y-121.666
X238.546Y-113.538
X239.268Y-98.552
X239.268Y-103.632
X239.268Y-105.918
X239.268Y-108.458
X239.268Y-110.998
X240.284Y-119.634
X241.006Y-100.838
X241.006Y-116.586
X241.046Y-113.538
X247.65Y-19.05
X247.65Y-21.59
X247.65Y-24.13
X247.65Y-26.67
X247.65Y-29.21
X247.65Y-31.75
X247.65Y-34.29
X247.65Y-36.83
X247.65Y-39.37
X247.65Y-41.91
X247.65Y-44.45
X247.65Y-46.99
X247.65Y-49.53
X247.65Y-52.07
X247.65Y-57.15
X247.65Y-59.69
X247.65Y-62.23
X247.65Y-64.77
X247.65Y-67.31
X247.65Y-69.85
X247.65Y-72.39
X247.65Y-74.93
X247.65Y-77.47
X247.65Y-80.01
X247.65Y-82.55
X247.65Y-85.09
X247.65Y-87.63
X247.65Y-90.17
X248.158Y-55.118
X249.926Y-53.35
X249.936Y-95.758
X251.206Y-147.32
X251.206Y-152.32
X251.46Y-19.05
X251.46Y-21.59
X251.46Y-24.13
X251.46Y-26.67
X251.46Y-29.21
X251.46Y-31.75
X251.46Y-34.29
X251.46Y-36.83
X251.46Y-39.37
X251.46Y-41.91
X251.46Y-44.45
X251.46Y-46.99
X251.46Y-49.53
X251.46Y-52.07
X251.46Y-57.15
X251.46Y-59.69
X251.46Y-62.23
X251.46Y-64.77
X251.46Y-67.31
X251.46Y-69.85
X251.46Y-72.39
X251.46Y-74.93
X251.46Y-77.47
X251.46Y-80.01
X251.46Y-82.55
X251.46Y-85.09
X251.46Y-87.63
X251.46Y-90.17
X259.334Y-149.9
X259.334Y-152.4
X260.096Y-95.758
X266.7Y-19.05
X266.7Y-21.59
X266.7Y-24.13
X266.7Y-26.67
X266.7Y-29.21
X266.7Y-31.75
X266.7Y-34.29
X266.7Y-36.83
X266.7Y-39.37
X266.7Y-41.91
X266.7Y-44.45
X266.7Y-46.99
X266.7Y-49.53
X266.7Y-52.07
X266.7Y-57.15
X266.7Y-59.69
X266.7Y-62.23
X266.7Y-64.77
X266.7Y-67.31
X266.7Y-69.85
X266.7Y-72.39
X266.7Y-74.93
X266.7Y-77.47
X266.7Y-80.01
X266.7Y-82.55
X266.7Y-85.09
X266.7Y-87.63
X266.7Y-90.17
T4
X102.235Y-143.51
X104.775Y-143.51
X107.315Y-143.51
X137.16Y-104.14
X137.16Y-106.68
X137.16Y-109.22
X138.43Y-140.97
X138.43Y-143.51
X139.7Y-104.14
X139.7Y-106.68
X139.7Y-109.22
X140.97Y-140.97
X140.97Y-143.51
X143.51Y-140.97
X143.51Y-143.51
X154.94Y-119.888
X154.94Y-122.428
X157.48Y-119.888
X157.48Y-122.428
X170.18Y-113.03
X172.72Y-113.03
X175.26Y-113.03
X222.25Y-127.0
X224.79Y-127.0
X229.616Y-114.046
X229.616Y-116.586
X232.156Y-114.046
X232.156Y-116.586
X234.95Y-114.046
X234.95Y-116.586
T5
X241.935Y-124.46
X244.475Y-124.46
X247.015Y-124.46
X262.89Y-100.33
X262.89Y-102.87
X262.89Y-105.41
X262.89Y-112.395
X262.89Y-114.935
X262.89Y-117.475
T6
X47.895Y-147.955
X51.855Y-147.955
X55.815Y-147.955
X59.775Y-147.955
X63.735Y-147.955
X67.695Y-147.955
X71.655Y-147.955
X75.615Y-147.955
X79.575Y-147.955
X83.535Y-147.955
X87.495Y-147.955
X91.455Y-147.955
X95.415Y-147.955
X99.375Y-147.955
X103.335Y-147.955
X107.295Y-147.955
X111.255Y-147.955
X115.215Y-147.955
X119.175Y-147.955
X123.135Y-147.955
X127.095Y-147.955
X131.055Y-147.955
X135.015Y-147.955
X138.975Y-147.955
X142.935Y-147.955
X146.895Y-147.955
X150.855Y-147.955
X154.815Y-147.955
X158.775Y-147.955
X162.735Y-147.955
X166.695Y-147.955
X170.655Y-147.955
X174.615Y-147.955
X178.575Y-147.955
X182.535Y-147.955
X186.495Y-147.955
X190.455Y-147.955
X194.415Y-147.955
X198.375Y-147.955
X202.335Y-147.955
X206.295Y-147.955
X210.255Y-147.955
X214.215Y-147.955
X218.175Y-147.955
X222.135Y-147.955
X226.095Y-147.955
X230.055Y-147.955
X234.015Y-147.955
X237.975Y-147.955
X241.935Y-147.955
T7
X244.475Y-141.12
X246.23Y-102.87
X246.23Y-114.935
M30
