%TF.GenerationSoftware,KiCad,Pcbnew,9.0.9-9.0.9~ubuntu24.04.1*%
%TF.CreationDate,2026-07-14T15:03:20+02:00*%
%TF.ProjectId,GIMIX 256k SRAM,47494d49-5820-4323-9536-6b205352414d,rev?*%
%TF.SameCoordinates,Original*%
%TF.FileFunction,Legend,Bot*%
%TF.FilePolarity,Positive*%
%FSLAX46Y46*%
G04 Gerber Fmt 4.6, Leading zero omitted, Abs format (unit mm)*
G04 Created by KiCad (PCBNEW 9.0.9-9.0.9~ubuntu24.04.1) date 2026-07-14 15:03:20*
%MOMM*%
%LPD*%
G01*
G04 APERTURE LIST*
%ADD10C,0.150000*%
%ADD11C,0.120000*%
G04 APERTURE END LIST*
D10*
X221218819Y-103022666D02*
X221933104Y-103022666D01*
X221933104Y-103022666D02*
X222075961Y-102975047D01*
X222075961Y-102975047D02*
X222171200Y-102879809D01*
X222171200Y-102879809D02*
X222218819Y-102736952D01*
X222218819Y-102736952D02*
X222218819Y-102641714D01*
X222218819Y-103498857D02*
X221218819Y-103498857D01*
X221218819Y-103498857D02*
X221218819Y-103879809D01*
X221218819Y-103879809D02*
X221266438Y-103975047D01*
X221266438Y-103975047D02*
X221314057Y-104022666D01*
X221314057Y-104022666D02*
X221409295Y-104070285D01*
X221409295Y-104070285D02*
X221552152Y-104070285D01*
X221552152Y-104070285D02*
X221647390Y-104022666D01*
X221647390Y-104022666D02*
X221695009Y-103975047D01*
X221695009Y-103975047D02*
X221742628Y-103879809D01*
X221742628Y-103879809D02*
X221742628Y-103498857D01*
X221552152Y-104927428D02*
X222218819Y-104927428D01*
X221171200Y-104689333D02*
X221885485Y-104451238D01*
X221885485Y-104451238D02*
X221885485Y-105070285D01*
X143551333Y-79442819D02*
X143551333Y-80157104D01*
X143551333Y-80157104D02*
X143598952Y-80299961D01*
X143598952Y-80299961D02*
X143694190Y-80395200D01*
X143694190Y-80395200D02*
X143837047Y-80442819D01*
X143837047Y-80442819D02*
X143932285Y-80442819D01*
X143075142Y-80442819D02*
X143075142Y-79442819D01*
X143075142Y-79442819D02*
X142694190Y-79442819D01*
X142694190Y-79442819D02*
X142598952Y-79490438D01*
X142598952Y-79490438D02*
X142551333Y-79538057D01*
X142551333Y-79538057D02*
X142503714Y-79633295D01*
X142503714Y-79633295D02*
X142503714Y-79776152D01*
X142503714Y-79776152D02*
X142551333Y-79871390D01*
X142551333Y-79871390D02*
X142598952Y-79919009D01*
X142598952Y-79919009D02*
X142694190Y-79966628D01*
X142694190Y-79966628D02*
X143075142Y-79966628D01*
X142170380Y-79442819D02*
X141551333Y-79442819D01*
X141551333Y-79442819D02*
X141884666Y-79823771D01*
X141884666Y-79823771D02*
X141741809Y-79823771D01*
X141741809Y-79823771D02*
X141646571Y-79871390D01*
X141646571Y-79871390D02*
X141598952Y-79919009D01*
X141598952Y-79919009D02*
X141551333Y-80014247D01*
X141551333Y-80014247D02*
X141551333Y-80252342D01*
X141551333Y-80252342D02*
X141598952Y-80347580D01*
X141598952Y-80347580D02*
X141646571Y-80395200D01*
X141646571Y-80395200D02*
X141741809Y-80442819D01*
X141741809Y-80442819D02*
X142027523Y-80442819D01*
X142027523Y-80442819D02*
X142122761Y-80395200D01*
X142122761Y-80395200D02*
X142170380Y-80347580D01*
X155388819Y-126166666D02*
X156103104Y-126166666D01*
X156103104Y-126166666D02*
X156245961Y-126119047D01*
X156245961Y-126119047D02*
X156341200Y-126023809D01*
X156341200Y-126023809D02*
X156388819Y-125880952D01*
X156388819Y-125880952D02*
X156388819Y-125785714D01*
X156388819Y-126642857D02*
X155388819Y-126642857D01*
X155388819Y-126642857D02*
X155388819Y-127023809D01*
X155388819Y-127023809D02*
X155436438Y-127119047D01*
X155436438Y-127119047D02*
X155484057Y-127166666D01*
X155484057Y-127166666D02*
X155579295Y-127214285D01*
X155579295Y-127214285D02*
X155722152Y-127214285D01*
X155722152Y-127214285D02*
X155817390Y-127166666D01*
X155817390Y-127166666D02*
X155865009Y-127119047D01*
X155865009Y-127119047D02*
X155912628Y-127023809D01*
X155912628Y-127023809D02*
X155912628Y-126642857D01*
X155388819Y-128119047D02*
X155388819Y-127642857D01*
X155388819Y-127642857D02*
X155865009Y-127595238D01*
X155865009Y-127595238D02*
X155817390Y-127642857D01*
X155817390Y-127642857D02*
X155769771Y-127738095D01*
X155769771Y-127738095D02*
X155769771Y-127976190D01*
X155769771Y-127976190D02*
X155817390Y-128071428D01*
X155817390Y-128071428D02*
X155865009Y-128119047D01*
X155865009Y-128119047D02*
X155960247Y-128166666D01*
X155960247Y-128166666D02*
X156198342Y-128166666D01*
X156198342Y-128166666D02*
X156293580Y-128119047D01*
X156293580Y-128119047D02*
X156341200Y-128071428D01*
X156341200Y-128071428D02*
X156388819Y-127976190D01*
X156388819Y-127976190D02*
X156388819Y-127738095D01*
X156388819Y-127738095D02*
X156341200Y-127642857D01*
X156341200Y-127642857D02*
X156293580Y-127595238D01*
X147028819Y-103814666D02*
X147743104Y-103814666D01*
X147743104Y-103814666D02*
X147885961Y-103767047D01*
X147885961Y-103767047D02*
X147981200Y-103671809D01*
X147981200Y-103671809D02*
X148028819Y-103528952D01*
X148028819Y-103528952D02*
X148028819Y-103433714D01*
X148028819Y-104290857D02*
X147028819Y-104290857D01*
X147028819Y-104290857D02*
X147028819Y-104671809D01*
X147028819Y-104671809D02*
X147076438Y-104767047D01*
X147076438Y-104767047D02*
X147124057Y-104814666D01*
X147124057Y-104814666D02*
X147219295Y-104862285D01*
X147219295Y-104862285D02*
X147362152Y-104862285D01*
X147362152Y-104862285D02*
X147457390Y-104814666D01*
X147457390Y-104814666D02*
X147505009Y-104767047D01*
X147505009Y-104767047D02*
X147552628Y-104671809D01*
X147552628Y-104671809D02*
X147552628Y-104290857D01*
X147124057Y-105243238D02*
X147076438Y-105290857D01*
X147076438Y-105290857D02*
X147028819Y-105386095D01*
X147028819Y-105386095D02*
X147028819Y-105624190D01*
X147028819Y-105624190D02*
X147076438Y-105719428D01*
X147076438Y-105719428D02*
X147124057Y-105767047D01*
X147124057Y-105767047D02*
X147219295Y-105814666D01*
X147219295Y-105814666D02*
X147314533Y-105814666D01*
X147314533Y-105814666D02*
X147457390Y-105767047D01*
X147457390Y-105767047D02*
X148028819Y-105195619D01*
X148028819Y-105195619D02*
X148028819Y-105814666D01*
X153124819Y-106862666D02*
X153839104Y-106862666D01*
X153839104Y-106862666D02*
X153981961Y-106815047D01*
X153981961Y-106815047D02*
X154077200Y-106719809D01*
X154077200Y-106719809D02*
X154124819Y-106576952D01*
X154124819Y-106576952D02*
X154124819Y-106481714D01*
X154124819Y-107338857D02*
X153124819Y-107338857D01*
X153124819Y-107338857D02*
X153124819Y-107719809D01*
X153124819Y-107719809D02*
X153172438Y-107815047D01*
X153172438Y-107815047D02*
X153220057Y-107862666D01*
X153220057Y-107862666D02*
X153315295Y-107910285D01*
X153315295Y-107910285D02*
X153458152Y-107910285D01*
X153458152Y-107910285D02*
X153553390Y-107862666D01*
X153553390Y-107862666D02*
X153601009Y-107815047D01*
X153601009Y-107815047D02*
X153648628Y-107719809D01*
X153648628Y-107719809D02*
X153648628Y-107338857D01*
X154124819Y-108862666D02*
X154124819Y-108291238D01*
X154124819Y-108576952D02*
X153124819Y-108576952D01*
X153124819Y-108576952D02*
X153267676Y-108481714D01*
X153267676Y-108481714D02*
X153362914Y-108386476D01*
X153362914Y-108386476D02*
X153410533Y-108291238D01*
D11*
%TO.C,JP4*%
X218464000Y-105356000D02*
X218464000Y-104756000D01*
X218764000Y-105056000D02*
X218464000Y-104756000D01*
X218764000Y-105056000D02*
X218464000Y-105356000D01*
X218964000Y-102456000D02*
X218964000Y-105256000D01*
X219664000Y-105906000D02*
X220264000Y-105906000D01*
X220264000Y-101806000D02*
X219664000Y-101806000D01*
X220964000Y-105256000D02*
X220964000Y-102456000D01*
X218964000Y-102506000D02*
G75*
G02*
X219664000Y-101806000I700000J0D01*
G01*
X219664000Y-105906000D02*
G75*
G02*
X218964000Y-105206000I-1J699999D01*
G01*
X220264000Y-101806000D02*
G75*
G02*
X220964000Y-102506000I0J-700000D01*
G01*
X220964000Y-105206000D02*
G75*
G02*
X220264000Y-105906000I-699999J-1D01*
G01*
%TO.C,JP3*%
X140668000Y-81488000D02*
X140668000Y-82088000D01*
X141318000Y-82788000D02*
X144118000Y-82788000D01*
X143918000Y-82988000D02*
X143618000Y-83288000D01*
X143918000Y-82988000D02*
X144218000Y-83288000D01*
X144118000Y-80788000D02*
X141318000Y-80788000D01*
X144218000Y-83288000D02*
X143618000Y-83288000D01*
X144768000Y-82088000D02*
X144768000Y-81488000D01*
X140668000Y-81488000D02*
G75*
G02*
X141368000Y-80788000I700000J0D01*
G01*
X141368000Y-82788000D02*
G75*
G02*
X140668000Y-82088000I0J700000D01*
G01*
X144068000Y-80788000D02*
G75*
G02*
X144768000Y-81488000I1J-699999D01*
G01*
X144768000Y-82088000D02*
G75*
G02*
X144068000Y-82788000I-699999J-1D01*
G01*
%TO.C,JP5*%
X156734000Y-125600000D02*
X156734000Y-128400000D01*
X157434000Y-129050000D02*
X158034000Y-129050000D01*
X158034000Y-124950000D02*
X157434000Y-124950000D01*
X158734000Y-128400000D02*
X158734000Y-125600000D01*
X158934000Y-125800000D02*
X159234000Y-125500000D01*
X158934000Y-125800000D02*
X159234000Y-126100000D01*
X159234000Y-125500000D02*
X159234000Y-126100000D01*
X156734000Y-125650000D02*
G75*
G02*
X157434000Y-124950000I699999J1D01*
G01*
X157434000Y-129050000D02*
G75*
G02*
X156734000Y-128350000I0J700000D01*
G01*
X158034000Y-124950000D02*
G75*
G02*
X158734000Y-125650000I1J-699999D01*
G01*
X158734000Y-128350000D02*
G75*
G02*
X158034000Y-129050000I-700000J0D01*
G01*
%TO.C,JP2*%
X146574000Y-107058000D02*
X146574000Y-109858000D01*
X147274000Y-110508000D02*
X147874000Y-110508000D01*
X147874000Y-106408000D02*
X147274000Y-106408000D01*
X148574000Y-109858000D02*
X148574000Y-107058000D01*
X148774000Y-107258000D02*
X149074000Y-106958000D01*
X148774000Y-107258000D02*
X149074000Y-107558000D01*
X149074000Y-106958000D02*
X149074000Y-107558000D01*
X146574000Y-107108000D02*
G75*
G02*
X147274000Y-106408000I699999J1D01*
G01*
X147274000Y-110508000D02*
G75*
G02*
X146574000Y-109808000I0J700000D01*
G01*
X147874000Y-106408000D02*
G75*
G02*
X148574000Y-107108000I1J-699999D01*
G01*
X148574000Y-109808000D02*
G75*
G02*
X147874000Y-110508000I-700000J0D01*
G01*
%TO.C,JP1*%
X152416000Y-109852000D02*
X152416000Y-112652000D01*
X153116000Y-113302000D02*
X153716000Y-113302000D01*
X153716000Y-109202000D02*
X153116000Y-109202000D01*
X154416000Y-112652000D02*
X154416000Y-109852000D01*
X154616000Y-110052000D02*
X154916000Y-109752000D01*
X154616000Y-110052000D02*
X154916000Y-110352000D01*
X154916000Y-109752000D02*
X154916000Y-110352000D01*
X152416000Y-109902000D02*
G75*
G02*
X153116000Y-109202000I699999J1D01*
G01*
X153116000Y-113302000D02*
G75*
G02*
X152416000Y-112602000I0J700000D01*
G01*
X153716000Y-109202000D02*
G75*
G02*
X154416000Y-109902000I1J-699999D01*
G01*
X154416000Y-112602000D02*
G75*
G02*
X153716000Y-113302000I-700000J0D01*
G01*
%TD*%
M02*
