M48
; DRILL file {KiCad 9.0.9-9.0.9~ubuntu24.04.1} date 2026-07-13T18:18:38+0200
; FORMAT={-:-/ absolute / metric / decimal}
; #@! TF.CreationDate,2026-07-13T18:18:38+02:00
; #@! TF.GenerationSoftware,Kicad,Pcbnew,9.0.9-9.0.9~ubuntu24.04.1
; #@! TF.FileFunction,MixedPlating,1,2
FMAT,2
METRIC
; #@! TA.AperFunction,Plated,PTH,ViaDrill
T1C0.600
; #@! TA.AperFunction,Plated,PTH,ComponentDrill
T2C0.800
; #@! TA.AperFunction,Plated,PTH,ComponentDrill
T3C1.000
; #@! TA.AperFunction,Plated,PTH,ComponentDrill
T4C1.200
; #@! TA.AperFunction,Plated,PTH,ComponentDrill
T5C1.520
; #@! TA.AperFunction,Plated,PTH,ComponentDrill
T6C1.524
; #@! TA.AperFunction,NonPlated,NPTH,ComponentDrill
T7C3.500
; #@! TA.AperFunction,NonPlated,NPTH,ComponentDrill
T8C4.300
%
G90
G05
T1
X30.48Y-119.888
X34.718Y-132.207
X34.732Y-161.417
X36.83Y-129.794
X37.973Y-127.762
X40.64Y-161.29
X43.18Y-55.372
X43.18Y-269.24
X58.42Y-55.372
X58.42Y-269.24
X81.28Y-55.372
X81.28Y-269.24
X101.6Y-55.372
X101.6Y-269.24
X121.92Y-55.372
X121.92Y-269.24
X142.24Y-55.372
X142.24Y-269.24
X165.1Y-55.372
X165.1Y-269.24
X185.42Y-55.372
X185.42Y-269.24
X213.36Y-55.372
X213.36Y-269.24
X231.14Y-55.372
X231.14Y-269.24
X251.46Y-55.372
X251.46Y-269.24
X274.32Y-55.372
X274.32Y-269.24
X294.64Y-55.372
X294.64Y-269.24
X317.5Y-55.372
X317.5Y-269.24
X340.36Y-55.372
X340.36Y-269.24
X353.06Y-145.542
X353.06Y-149.352
X353.06Y-153.416
X353.06Y-157.48
X353.06Y-161.29
X353.06Y-165.608
X358.902Y-223.52
X358.902Y-225.044
X358.918Y-220.456
X358.975Y-221.996
X359.888Y-176.781
X360.172Y-98.044
X360.172Y-102.108
X360.172Y-105.918
X360.172Y-109.982
X360.553Y-119.507
X360.968Y-129.794
X361.422Y-238.78
X362.624Y-237.968
X363.642Y-236.888
X364.49Y-235.712
X366.776Y-236.982
X368.08Y-176.784
X369.062Y-157.734
X370.332Y-138.43
X372.11Y-119.634
X372.11Y-237.744
X373.38Y-100.584
X373.634Y-237.744
X373.634Y-242.316
X374.142Y-81.534
X375.158Y-237.744
X379.998Y-212.852
X380.238Y-207.264
X380.492Y-205.232
X381.508Y-218.948
X384.556Y-218.948
X386.207Y-221.843
X388.112Y-222.25
X388.366Y-219.71
X390.144Y-219.71
X390.906Y-237.49
X391.807Y-219.743
X395.363Y-222.284
X397.133Y-222.277
X398.657Y-222.277
X399.542Y-240.572
X400.05Y-235.712
X400.192Y-252.042
X400.304Y-256.032
X400.435Y-222.277
X402.015Y-222.332
X406.4Y-239.014
X411.734Y-220.218
X411.988Y-261.112
X413.258Y-222.758
X413.766Y-237.744
X415.29Y-220.218
X417.576Y-203.454
X419.921Y-240.151
X421.153Y-239.388
X422.443Y-238.724
X423.421Y-208.66
X424.434Y-211.074
X426.138Y-212.399
X427.482Y-209.55
X429.26Y-219.202
X429.274Y-200.146
X430.242Y-201.168
X430.324Y-218.17
X431.122Y-216.96
X438.404Y-234.442
X438.519Y-235.932
X438.658Y-208.28
X439.928Y-205.232
X444.555Y-238.296
X444.754Y-223.52
X446.024Y-239.014
X446.258Y-221.508
X447.548Y-213.36
X447.548Y-215.9
X452.703Y-236.948
X453.136Y-200.152
X453.854Y-270.466
X453.979Y-236.178
X454.88Y-268.732
X455.578Y-237.803
X456.804Y-238.577
X456.946Y-200.152
X456.946Y-224.536
X459.232Y-235.712
X460.502Y-240.03
X461.22Y-243.034
X461.264Y-245.618
X461.264Y-248.158
X461.6Y-234.907
X463.042Y-234.442
X466.598Y-233.68
X468.63Y-222.25
X468.884Y-270.51
X469.138Y-215.9
X470.408Y-224.79
X472.186Y-233.172
X474.472Y-232.41
X474.726Y-208.534
X476.783Y-57.865
X478.028Y-231.902
X481.55Y-222.365
X482.854Y-208.28
X486.41Y-203.454
X487.68Y-207.01
X489.458Y-204.47
X489.966Y-201.93
X492.252Y-214.63
X492.506Y-208.28
X492.76Y-205.74
X493.014Y-220.98
X493.268Y-232.41
X494.284Y-200.914
X495.554Y-208.28
X498.094Y-59.944
X503.682Y-148.844
X503.682Y-151.384
X503.682Y-153.67
X506.73Y-198.628
T2
X32.893Y-88.392
X32.893Y-98.552
X33.528Y-123.19
X33.528Y-126.238
X33.528Y-129.286
X36.703Y-63.627
X36.703Y-66.167
X36.703Y-68.707
X36.703Y-71.247
X36.703Y-73.787
X36.703Y-76.327
X36.703Y-78.867
X36.703Y-81.407
X36.703Y-83.947
X36.703Y-86.487
X36.703Y-94.107
X36.703Y-96.647
X36.703Y-99.187
X36.703Y-101.727
X36.703Y-104.267
X36.703Y-106.807
X36.703Y-109.347
X36.703Y-111.887
X36.703Y-114.427
X36.703Y-116.967
X36.703Y-170.307
X36.703Y-172.847
X36.703Y-175.387
X36.703Y-177.927
X36.703Y-180.467
X36.703Y-183.007
X36.703Y-185.547
X36.703Y-188.087
X36.703Y-190.627
X36.703Y-193.167
X36.703Y-203.327
X36.703Y-205.867
X36.703Y-208.407
X36.703Y-210.947
X36.703Y-213.487
X36.703Y-216.027
X36.703Y-218.567
X36.703Y-221.107
X36.703Y-223.647
X36.703Y-226.187
X36.703Y-236.347
X36.703Y-238.887
X36.703Y-241.427
X36.703Y-243.967
X36.703Y-246.507
X36.703Y-249.047
X36.703Y-251.587
X36.703Y-254.127
X36.703Y-256.667
X36.703Y-259.207
X37.124Y-120.142
X37.124Y-196.342
X37.124Y-262.382
X37.338Y-89.662
X37.378Y-229.362
X39.624Y-120.142
X39.624Y-196.342
X39.624Y-262.382
X39.838Y-89.662
X39.878Y-229.362
X40.513Y-63.627
X40.513Y-66.167
X40.513Y-68.707
X40.513Y-71.247
X40.513Y-73.787
X40.513Y-76.327
X40.513Y-78.867
X40.513Y-81.407
X40.513Y-83.947
X40.513Y-86.487
X40.513Y-94.107
X40.513Y-96.647
X40.513Y-99.187
X40.513Y-101.727
X40.513Y-104.267
X40.513Y-106.807
X40.513Y-109.347
X40.513Y-111.887
X40.513Y-114.427
X40.513Y-116.967
X40.513Y-170.307
X40.513Y-172.847
X40.513Y-175.387
X40.513Y-177.927
X40.513Y-180.467
X40.513Y-183.007
X40.513Y-185.547
X40.513Y-188.087
X40.513Y-190.627
X40.513Y-193.167
X40.513Y-203.327
X40.513Y-205.867
X40.513Y-208.407
X40.513Y-210.947
X40.513Y-213.487
X40.513Y-216.027
X40.513Y-218.567
X40.513Y-221.107
X40.513Y-223.647
X40.513Y-226.187
X40.513Y-236.347
X40.513Y-238.887
X40.513Y-241.427
X40.513Y-243.967
X40.513Y-246.507
X40.513Y-249.047
X40.513Y-251.587
X40.513Y-254.127
X40.513Y-256.667
X40.513Y-259.207
X43.688Y-123.19
X43.688Y-126.238
X43.688Y-129.286
X364.49Y-266.994
X364.49Y-269.494
X367.538Y-202.946
X367.538Y-205.486
X367.538Y-208.026
X367.538Y-210.566
X367.538Y-213.106
X367.538Y-215.646
X367.538Y-218.186
X367.538Y-220.726
X367.792Y-246.634
X367.792Y-249.174
X367.792Y-251.714
X367.792Y-254.254
X367.792Y-256.794
X367.792Y-259.334
X367.792Y-261.874
X367.792Y-264.414
X367.792Y-266.954
X367.792Y-269.494
X375.158Y-202.946
X375.158Y-205.486
X375.158Y-208.026
X375.158Y-210.566
X375.158Y-213.106
X375.158Y-215.646
X375.158Y-218.186
X375.158Y-220.726
X375.412Y-246.634
X375.412Y-249.174
X375.412Y-251.714
X375.412Y-254.254
X375.412Y-256.794
X375.412Y-259.334
X375.412Y-261.874
X375.412Y-264.414
X375.412Y-266.954
X375.412Y-269.494
X378.206Y-217.464
X378.206Y-219.964
X379.984Y-248.666
X379.984Y-251.166
X385.318Y-243.332
X385.318Y-245.872
X385.318Y-248.412
X385.318Y-250.952
X385.318Y-253.492
X385.318Y-256.032
X385.318Y-258.572
X385.318Y-261.112
X385.318Y-263.652
X385.318Y-266.192
X392.938Y-243.332
X392.938Y-245.872
X392.938Y-248.412
X392.938Y-250.952
X392.938Y-253.492
X392.938Y-256.032
X392.938Y-258.572
X392.938Y-261.112
X392.938Y-263.652
X392.938Y-266.192
X396.748Y-243.332
X396.748Y-245.872
X396.748Y-248.412
X396.748Y-250.952
X396.748Y-253.492
X396.748Y-256.032
X396.748Y-258.572
X396.748Y-261.112
X396.748Y-263.652
X396.748Y-266.192
X404.368Y-243.332
X404.368Y-245.872
X404.368Y-248.412
X404.368Y-250.952
X404.368Y-253.492
X404.368Y-256.032
X404.368Y-258.572
X404.368Y-261.112
X404.368Y-263.652
X404.368Y-266.192
X407.67Y-243.332
X407.67Y-245.872
X407.67Y-248.412
X407.67Y-250.952
X407.67Y-253.492
X407.67Y-256.032
X407.67Y-258.572
X407.67Y-261.112
X407.67Y-263.652
X407.67Y-266.192
X411.988Y-52.324
X414.488Y-52.324
X415.29Y-243.332
X415.29Y-245.872
X415.29Y-248.412
X415.29Y-250.952
X415.29Y-253.492
X415.29Y-256.032
X415.29Y-258.572
X415.29Y-261.112
X415.29Y-263.652
X415.29Y-266.192
X417.322Y-52.324
X419.354Y-243.332
X419.354Y-245.872
X419.354Y-248.412
X419.354Y-250.952
X419.354Y-253.492
X419.354Y-256.032
X419.354Y-258.572
X419.354Y-261.112
X419.354Y-263.652
X419.354Y-266.192
X419.862Y-52.324
X422.402Y-52.324
X424.942Y-52.324
X426.974Y-243.332
X426.974Y-245.872
X426.974Y-248.412
X426.974Y-250.952
X426.974Y-253.492
X426.974Y-256.032
X426.974Y-258.572
X426.974Y-261.112
X426.974Y-263.652
X426.974Y-266.192
X427.482Y-52.324
X430.022Y-52.324
X432.562Y-52.324
X435.102Y-52.324
X437.642Y-52.324
X438.678Y-238.506
X440.182Y-52.324
X441.178Y-238.506
X441.452Y-243.078
X441.452Y-245.618
X441.452Y-248.158
X441.452Y-250.698
X441.452Y-253.238
X441.452Y-255.778
X441.452Y-258.318
X441.452Y-260.858
X441.452Y-263.398
X441.452Y-265.938
X442.214Y-212.09
X442.214Y-214.63
X442.214Y-217.17
X442.214Y-219.71
X442.214Y-222.25
X442.214Y-224.79
X442.214Y-227.33
X443.992Y-270.55
X443.992Y-273.05
X446.024Y-50.84
X446.024Y-53.34
X449.072Y-243.078
X449.072Y-245.618
X449.072Y-248.158
X449.072Y-250.698
X449.072Y-253.238
X449.072Y-255.778
X449.072Y-258.318
X449.072Y-260.858
X449.072Y-263.398
X449.072Y-265.938
X449.326Y-50.8
X449.326Y-53.975
X449.834Y-212.09
X449.834Y-214.63
X449.834Y-217.17
X449.834Y-219.71
X449.834Y-222.25
X449.834Y-224.79
X449.834Y-227.33
X451.866Y-50.8
X451.866Y-53.975
X452.374Y-243.078
X452.374Y-245.618
X452.374Y-248.158
X452.374Y-250.698
X452.374Y-253.238
X452.374Y-255.778
X452.374Y-258.318
X452.374Y-260.858
X452.374Y-263.398
X452.374Y-265.938
X452.628Y-272.542
X453.898Y-212.09
X453.898Y-214.63
X453.898Y-217.17
X453.898Y-219.71
X453.898Y-222.25
X453.898Y-224.79
X453.898Y-227.33
X454.406Y-50.8
X454.406Y-53.975
X456.946Y-50.8
X456.946Y-53.975
X457.962Y-243.078
X457.962Y-245.618
X457.962Y-248.158
X457.962Y-250.698
X457.962Y-253.238
X457.962Y-255.778
X457.962Y-258.318
X457.962Y-260.858
X457.962Y-263.398
X457.962Y-265.938
X459.486Y-50.8
X459.486Y-53.975
X460.502Y-237.236
X461.518Y-212.09
X461.518Y-214.63
X461.518Y-217.17
X461.518Y-219.71
X461.518Y-222.25
X461.518Y-224.79
X461.518Y-227.33
X462.026Y-50.8
X462.026Y-53.975
X462.788Y-272.542
X463.002Y-237.236
X464.566Y-50.8
X464.566Y-53.975
X465.074Y-212.09
X465.074Y-214.63
X465.074Y-217.17
X465.074Y-219.71
X465.074Y-222.25
X465.074Y-224.79
X465.074Y-227.33
X465.582Y-243.078
X465.582Y-245.618
X465.582Y-248.158
X465.582Y-250.698
X465.582Y-253.238
X465.582Y-255.778
X465.582Y-258.318
X465.582Y-260.858
X465.582Y-263.398
X465.582Y-265.938
X467.106Y-50.8
X467.106Y-53.975
X468.63Y-243.078
X468.63Y-245.618
X468.63Y-248.158
X468.63Y-250.698
X468.63Y-253.238
X468.63Y-255.778
X468.63Y-258.318
X468.63Y-260.858
X468.63Y-263.398
X468.63Y-265.938
X469.646Y-50.8
X469.646Y-53.975
X472.186Y-50.8
X472.186Y-53.975
X472.694Y-212.09
X472.694Y-214.63
X472.694Y-217.17
X472.694Y-219.71
X472.694Y-222.25
X472.694Y-224.79
X472.694Y-227.33
X476.504Y-212.09
X476.504Y-214.63
X476.504Y-217.17
X476.504Y-219.71
X476.504Y-222.25
X476.504Y-224.79
X476.504Y-227.33
X484.124Y-212.09
X484.124Y-214.63
X484.124Y-217.17
X484.124Y-219.71
X484.124Y-222.25
X484.124Y-224.79
X484.124Y-227.33
X487.934Y-212.09
X487.934Y-214.63
X487.934Y-217.17
X487.934Y-219.71
X487.934Y-222.25
X487.934Y-224.79
X487.934Y-227.33
X495.554Y-212.09
X495.554Y-214.63
X495.554Y-217.17
X495.554Y-219.71
X495.554Y-222.25
X495.554Y-224.79
X495.554Y-227.33
X496.824Y-196.342
X496.824Y-206.502
X496.864Y-232.156
X497.078Y-260.136
X497.078Y-262.636
X499.364Y-232.156
X499.618Y-212.09
X499.618Y-214.63
X499.618Y-217.17
X499.618Y-219.71
X499.618Y-222.25
X499.618Y-224.79
X499.618Y-227.33
X500.126Y-200.272
X500.126Y-207.772
X505.714Y-252.486
X505.714Y-256.286
X507.238Y-212.09
X507.238Y-214.63
X507.238Y-217.17
X507.238Y-219.71
X507.238Y-222.25
X507.238Y-224.79
X507.238Y-227.33
T3
X32.893Y-101.727
X32.893Y-104.267
X32.893Y-106.807
X32.893Y-109.347
X32.893Y-111.887
X32.893Y-114.427
X37.973Y-136.017
X37.973Y-138.557
X37.973Y-141.097
X37.973Y-143.637
X37.973Y-151.257
X37.973Y-153.797
X37.973Y-156.337
X37.973Y-158.877
X37.973Y-161.417
X360.172Y-61.468
X360.172Y-64.008
X360.172Y-66.548
X360.172Y-69.088
X360.172Y-71.628
X362.712Y-61.468
X362.712Y-64.008
X362.712Y-66.548
X362.712Y-69.088
X362.712Y-71.628
X363.093Y-118.237
X363.093Y-120.777
X363.093Y-123.317
X363.093Y-125.857
X363.093Y-128.397
X430.53Y-251.968
X430.53Y-254.508
X430.53Y-257.048
X430.53Y-259.588
X507.492Y-232.156
X507.492Y-234.696
X507.492Y-237.236
T4
X208.153Y-140.716
X210.058Y-147.447
X210.058Y-151.257
X210.058Y-159.512
X210.058Y-163.322
X211.963Y-140.716
X229.743Y-138.557
X231.648Y-147.447
X231.648Y-151.257
X231.648Y-159.512
X231.648Y-163.322
X233.553Y-138.557
X495.808Y-250.444
X495.808Y-252.984
X495.808Y-255.524
T5
X377.723Y-62.357
X377.723Y-81.407
X377.723Y-100.457
X377.723Y-119.507
X377.723Y-138.557
X377.723Y-157.607
X377.723Y-176.657
X377.723Y-195.707
X381.686Y-62.357
X381.686Y-81.407
X381.686Y-100.457
X381.686Y-119.507
X381.686Y-138.557
X381.686Y-157.607
X381.686Y-176.657
X381.686Y-195.707
X385.648Y-62.357
X385.648Y-81.407
X385.648Y-100.457
X385.648Y-119.507
X385.648Y-138.557
X385.648Y-157.607
X385.648Y-176.657
X385.648Y-195.707
X385.953Y-214.757
X389.611Y-62.357
X389.611Y-81.407
X389.611Y-100.457
X389.611Y-119.507
X389.611Y-138.557
X389.611Y-157.607
X389.611Y-176.657
X389.611Y-195.707
X389.915Y-214.757
X393.573Y-62.357
X393.573Y-81.407
X393.573Y-100.457
X393.573Y-119.507
X393.573Y-138.557
X393.573Y-157.607
X393.573Y-176.657
X393.573Y-195.707
X393.878Y-214.757
X397.535Y-62.357
X397.535Y-81.407
X397.535Y-100.457
X397.535Y-119.507
X397.535Y-138.557
X397.535Y-157.607
X397.535Y-176.657
X397.535Y-195.707
X397.84Y-214.757
X401.498Y-62.357
X401.498Y-81.407
X401.498Y-100.457
X401.498Y-119.507
X401.498Y-138.557
X401.498Y-157.607
X401.498Y-176.657
X401.498Y-195.707
X401.803Y-214.757
X405.46Y-62.357
X405.46Y-81.407
X405.46Y-100.457
X405.46Y-119.507
X405.46Y-138.557
X405.46Y-157.607
X405.46Y-176.657
X405.46Y-195.707
X405.765Y-214.757
X409.423Y-62.357
X409.423Y-81.407
X409.423Y-100.457
X409.423Y-119.507
X409.423Y-138.557
X409.423Y-157.607
X409.423Y-176.657
X409.423Y-195.707
X409.727Y-214.757
X413.385Y-62.357
X413.385Y-81.407
X413.385Y-100.457
X413.385Y-119.507
X413.385Y-138.557
X413.385Y-157.607
X413.385Y-176.657
X413.385Y-195.707
X413.69Y-214.757
X417.347Y-62.357
X417.347Y-81.407
X417.347Y-100.457
X417.347Y-119.507
X417.347Y-138.557
X417.347Y-157.607
X417.347Y-176.657
X417.347Y-195.707
X417.652Y-214.757
X421.31Y-62.357
X421.31Y-81.407
X421.31Y-100.457
X421.31Y-119.507
X421.31Y-138.557
X421.31Y-157.607
X421.31Y-176.657
X421.31Y-195.707
X421.615Y-214.757
X425.272Y-62.357
X425.272Y-81.407
X425.272Y-100.457
X425.272Y-119.507
X425.272Y-138.557
X425.272Y-157.607
X425.272Y-176.657
X425.272Y-195.707
X429.235Y-62.357
X429.235Y-81.407
X429.235Y-100.457
X429.235Y-119.507
X429.235Y-138.557
X429.235Y-157.607
X429.235Y-176.657
X429.235Y-195.707
X433.197Y-62.357
X433.197Y-81.407
X433.197Y-100.457
X433.197Y-119.507
X433.197Y-138.557
X433.197Y-157.607
X433.197Y-176.657
X433.197Y-195.707
X437.159Y-62.357
X437.159Y-81.407
X437.159Y-100.457
X437.159Y-119.507
X437.159Y-138.557
X437.159Y-157.607
X437.159Y-176.657
X437.159Y-195.707
X441.122Y-62.357
X441.122Y-81.407
X441.122Y-100.457
X441.122Y-119.507
X441.122Y-138.557
X441.122Y-157.607
X441.122Y-176.657
X441.122Y-195.707
X445.084Y-62.357
X445.084Y-81.407
X445.084Y-100.457
X445.084Y-119.507
X445.084Y-138.557
X445.084Y-157.607
X445.084Y-176.657
X445.084Y-195.707
X449.047Y-62.357
X449.047Y-81.407
X449.047Y-100.457
X449.047Y-119.507
X449.047Y-138.557
X449.047Y-157.607
X449.047Y-176.657
X449.047Y-195.707
X453.009Y-62.357
X453.009Y-81.407
X453.009Y-100.457
X453.009Y-119.507
X453.009Y-138.557
X453.009Y-157.607
X453.009Y-176.657
X453.009Y-195.707
X456.971Y-62.357
X456.971Y-81.407
X456.971Y-100.457
X456.971Y-119.507
X456.971Y-138.557
X456.971Y-157.607
X456.971Y-176.657
X456.971Y-195.707
X460.934Y-62.357
X460.934Y-81.407
X460.934Y-100.457
X460.934Y-119.507
X460.934Y-138.557
X460.934Y-157.607
X460.934Y-176.657
X460.934Y-195.707
X464.896Y-62.357
X464.896Y-81.407
X464.896Y-100.457
X464.896Y-119.507
X464.896Y-138.557
X464.896Y-157.607
X464.896Y-176.657
X464.896Y-195.707
X468.859Y-62.357
X468.859Y-81.407
X468.859Y-100.457
X468.859Y-119.507
X468.859Y-138.557
X468.859Y-157.607
X468.859Y-176.657
X468.859Y-195.707
X472.821Y-62.357
X472.821Y-81.407
X472.821Y-100.457
X472.821Y-119.507
X472.821Y-138.557
X472.821Y-157.607
X472.821Y-176.657
X472.821Y-195.707
X476.783Y-62.357
X476.783Y-81.407
X476.783Y-100.457
X476.783Y-119.507
X476.783Y-138.557
X476.783Y-157.607
X476.783Y-176.657
X476.783Y-195.707
X480.746Y-62.357
X480.746Y-81.407
X480.746Y-100.457
X480.746Y-119.507
X480.746Y-138.557
X480.746Y-157.607
X480.746Y-176.657
X480.746Y-195.707
X484.708Y-62.357
X484.708Y-81.407
X484.708Y-100.457
X484.708Y-119.507
X484.708Y-138.557
X484.708Y-157.607
X484.708Y-176.657
X484.708Y-195.707
X488.671Y-62.357
X488.671Y-81.407
X488.671Y-100.457
X488.671Y-119.507
X488.671Y-138.557
X488.671Y-157.607
X488.671Y-176.657
X488.671Y-195.707
X492.633Y-62.357
X492.633Y-81.407
X492.633Y-100.457
X492.633Y-119.507
X492.633Y-138.557
X492.633Y-157.607
X492.633Y-176.657
X492.633Y-195.707
T6
X47.498Y-66.319
X47.498Y-70.282
X47.498Y-74.244
X47.498Y-78.207
X47.498Y-82.169
X47.498Y-86.131
X47.498Y-90.094
X47.498Y-94.056
X47.498Y-98.019
X47.498Y-101.981
X47.498Y-105.943
X47.498Y-109.906
X47.498Y-113.868
X47.498Y-117.831
X47.498Y-121.793
X47.498Y-125.755
X47.498Y-129.718
X47.498Y-133.68
X47.498Y-137.643
X47.498Y-141.605
X47.498Y-145.567
X47.498Y-149.53
X47.498Y-153.492
X47.498Y-157.455
X47.498Y-161.417
X47.498Y-165.379
X47.498Y-169.342
X47.498Y-173.304
X47.498Y-177.267
X47.498Y-181.229
X47.498Y-185.191
X47.498Y-189.154
X47.498Y-193.116
X47.498Y-197.079
X47.498Y-201.041
X47.498Y-205.003
X47.498Y-208.966
X47.498Y-212.928
X47.498Y-216.891
X47.498Y-220.853
X47.498Y-224.815
X47.498Y-228.778
X47.498Y-232.74
X47.498Y-236.703
X47.498Y-240.665
X47.498Y-244.627
X47.498Y-248.59
X47.498Y-252.552
X47.498Y-256.515
X47.498Y-260.477
X69.088Y-66.319
X69.088Y-70.282
X69.088Y-74.244
X69.088Y-78.207
X69.088Y-82.169
X69.088Y-86.131
X69.088Y-90.094
X69.088Y-94.056
X69.088Y-98.019
X69.088Y-101.981
X69.088Y-105.943
X69.088Y-109.906
X69.088Y-113.868
X69.088Y-117.831
X69.088Y-121.793
X69.088Y-125.755
X69.088Y-129.718
X69.088Y-133.68
X69.088Y-137.643
X69.088Y-141.605
X69.088Y-145.567
X69.088Y-149.53
X69.088Y-153.492
X69.088Y-157.455
X69.088Y-161.417
X69.088Y-165.379
X69.088Y-169.342
X69.088Y-173.304
X69.088Y-177.267
X69.088Y-181.229
X69.088Y-185.191
X69.088Y-189.154
X69.088Y-193.116
X69.088Y-197.079
X69.088Y-201.041
X69.088Y-205.003
X69.088Y-208.966
X69.088Y-212.928
X69.088Y-216.891
X69.088Y-220.853
X69.088Y-224.815
X69.088Y-228.778
X69.088Y-232.74
X69.088Y-236.703
X69.088Y-240.665
X69.088Y-244.627
X69.088Y-248.59
X69.088Y-252.552
X69.088Y-256.515
X69.088Y-260.477
X90.678Y-66.167
X90.678Y-70.129
X90.678Y-74.092
X90.678Y-78.054
X90.678Y-82.017
X90.678Y-85.979
X90.678Y-89.941
X90.678Y-93.904
X90.678Y-97.866
X90.678Y-101.829
X90.678Y-105.791
X90.678Y-109.753
X90.678Y-113.716
X90.678Y-117.678
X90.678Y-121.641
X90.678Y-125.603
X90.678Y-129.565
X90.678Y-133.528
X90.678Y-137.49
X90.678Y-141.453
X90.678Y-145.415
X90.678Y-149.377
X90.678Y-153.34
X90.678Y-157.302
X90.678Y-161.265
X90.678Y-165.227
X90.678Y-169.189
X90.678Y-173.152
X90.678Y-177.114
X90.678Y-181.077
X90.678Y-185.039
X90.678Y-189.001
X90.678Y-192.964
X90.678Y-196.926
X90.678Y-200.889
X90.678Y-204.851
X90.678Y-208.813
X90.678Y-212.776
X90.678Y-216.738
X90.678Y-220.701
X90.678Y-224.663
X90.678Y-228.625
X90.678Y-232.588
X90.678Y-236.55
X90.678Y-240.513
X90.678Y-244.475
X90.678Y-248.437
X90.678Y-252.4
X90.678Y-256.362
X90.678Y-260.325
X112.268Y-66.167
X112.268Y-70.129
X112.268Y-74.092
X112.268Y-78.054
X112.268Y-82.017
X112.268Y-85.979
X112.268Y-89.941
X112.268Y-93.904
X112.268Y-97.866
X112.268Y-101.829
X112.268Y-105.791
X112.268Y-109.753
X112.268Y-113.716
X112.268Y-117.678
X112.268Y-121.641
X112.268Y-125.603
X112.268Y-129.565
X112.268Y-133.528
X112.268Y-137.49
X112.268Y-141.453
X112.268Y-145.415
X112.268Y-149.377
X112.268Y-153.34
X112.268Y-157.302
X112.268Y-161.265
X112.268Y-165.227
X112.268Y-169.189
X112.268Y-173.152
X112.268Y-177.114
X112.268Y-181.077
X112.268Y-185.039
X112.268Y-189.001
X112.268Y-192.964
X112.268Y-196.926
X112.268Y-200.889
X112.268Y-204.851
X112.268Y-208.813
X112.268Y-212.776
X112.268Y-216.738
X112.268Y-220.701
X112.268Y-224.663
X112.268Y-228.625
X112.268Y-232.588
X112.268Y-236.55
X112.268Y-240.513
X112.268Y-244.475
X112.268Y-248.437
X112.268Y-252.4
X112.268Y-256.362
X112.268Y-260.325
X133.858Y-66.167
X133.858Y-70.129
X133.858Y-74.092
X133.858Y-78.054
X133.858Y-82.017
X133.858Y-85.979
X133.858Y-89.941
X133.858Y-93.904
X133.858Y-97.866
X133.858Y-101.829
X133.858Y-105.791
X133.858Y-109.753
X133.858Y-113.716
X133.858Y-117.678
X133.858Y-121.641
X133.858Y-125.603
X133.858Y-129.565
X133.858Y-133.528
X133.858Y-137.49
X133.858Y-141.453
X133.858Y-145.415
X133.858Y-149.377
X133.858Y-153.34
X133.858Y-157.302
X133.858Y-161.265
X133.858Y-165.227
X133.858Y-169.189
X133.858Y-173.152
X133.858Y-177.114
X133.858Y-181.077
X133.858Y-185.039
X133.858Y-189.001
X133.858Y-192.964
X133.858Y-196.926
X133.858Y-200.889
X133.858Y-204.851
X133.858Y-208.813
X133.858Y-212.776
X133.858Y-216.738
X133.858Y-220.701
X133.858Y-224.663
X133.858Y-228.625
X133.858Y-232.588
X133.858Y-236.55
X133.858Y-240.513
X133.858Y-244.475
X133.858Y-248.437
X133.858Y-252.4
X133.858Y-256.362
X133.858Y-260.325
X155.448Y-66.167
X155.448Y-70.129
X155.448Y-74.092
X155.448Y-78.054
X155.448Y-82.017
X155.448Y-85.979
X155.448Y-89.941
X155.448Y-93.904
X155.448Y-97.866
X155.448Y-101.829
X155.448Y-105.791
X155.448Y-109.753
X155.448Y-113.716
X155.448Y-117.678
X155.448Y-121.641
X155.448Y-125.603
X155.448Y-129.565
X155.448Y-133.528
X155.448Y-137.49
X155.448Y-141.453
X155.448Y-145.415
X155.448Y-149.377
X155.448Y-153.34
X155.448Y-157.302
X155.448Y-161.265
X155.448Y-165.227
X155.448Y-169.189
X155.448Y-173.152
X155.448Y-177.114
X155.448Y-181.077
X155.448Y-185.039
X155.448Y-189.001
X155.448Y-192.964
X155.448Y-196.926
X155.448Y-200.889
X155.448Y-204.851
X155.448Y-208.813
X155.448Y-212.776
X155.448Y-216.738
X155.448Y-220.701
X155.448Y-224.663
X155.448Y-228.625
X155.448Y-232.588
X155.448Y-236.55
X155.448Y-240.513
X155.448Y-244.475
X155.448Y-248.437
X155.448Y-252.4
X155.448Y-256.362
X155.448Y-260.325
X177.038Y-66.167
X177.038Y-70.129
X177.038Y-74.092
X177.038Y-78.054
X177.038Y-82.017
X177.038Y-85.979
X177.038Y-89.941
X177.038Y-93.904
X177.038Y-97.866
X177.038Y-101.829
X177.038Y-105.791
X177.038Y-109.753
X177.038Y-113.716
X177.038Y-117.678
X177.038Y-121.641
X177.038Y-125.603
X177.038Y-129.565
X177.038Y-133.528
X177.038Y-137.49
X177.038Y-141.453
X177.038Y-145.415
X177.038Y-149.377
X177.038Y-153.34
X177.038Y-157.302
X177.038Y-161.265
X177.038Y-165.227
X177.038Y-169.189
X177.038Y-173.152
X177.038Y-177.114
X177.038Y-181.077
X177.038Y-185.039
X177.038Y-189.001
X177.038Y-192.964
X177.038Y-196.926
X177.038Y-200.889
X177.038Y-204.851
X177.038Y-208.813
X177.038Y-212.776
X177.038Y-216.738
X177.038Y-220.701
X177.038Y-224.663
X177.038Y-228.625
X177.038Y-232.588
X177.038Y-236.55
X177.038Y-240.513
X177.038Y-244.475
X177.038Y-248.437
X177.038Y-252.4
X177.038Y-256.362
X177.038Y-260.325
X198.628Y-66.167
X198.628Y-70.129
X198.628Y-74.092
X198.628Y-78.054
X198.628Y-82.017
X198.628Y-85.979
X198.628Y-89.941
X198.628Y-93.904
X198.628Y-97.866
X198.628Y-101.829
X198.628Y-105.791
X198.628Y-109.753
X198.628Y-113.716
X198.628Y-117.678
X198.628Y-121.641
X198.628Y-125.603
X198.628Y-129.565
X198.628Y-133.528
X198.628Y-137.49
X198.628Y-141.453
X198.628Y-145.415
X198.628Y-149.377
X198.628Y-153.34
X198.628Y-157.302
X198.628Y-161.265
X198.628Y-165.227
X198.628Y-169.189
X198.628Y-173.152
X198.628Y-177.114
X198.628Y-181.077
X198.628Y-185.039
X198.628Y-189.001
X198.628Y-192.964
X198.628Y-196.926
X198.628Y-200.889
X198.628Y-204.851
X198.628Y-208.813
X198.628Y-212.776
X198.628Y-216.738
X198.628Y-220.701
X198.628Y-224.663
X198.628Y-228.625
X198.628Y-232.588
X198.628Y-236.55
X198.628Y-240.513
X198.628Y-244.475
X198.628Y-248.437
X198.628Y-252.4
X198.628Y-256.362
X198.628Y-260.325
X220.218Y-66.319
X220.218Y-70.282
X220.218Y-74.244
X220.218Y-78.207
X220.218Y-82.169
X220.218Y-86.131
X220.218Y-90.094
X220.218Y-94.056
X220.218Y-98.019
X220.218Y-101.981
X220.218Y-105.943
X220.218Y-109.906
X220.218Y-113.868
X220.218Y-117.831
X220.218Y-121.793
X220.218Y-125.755
X220.218Y-129.718
X220.218Y-133.68
X220.218Y-137.643
X220.218Y-141.605
X220.218Y-145.567
X220.218Y-149.53
X220.218Y-153.492
X220.218Y-157.455
X220.218Y-161.417
X220.218Y-165.379
X220.218Y-169.342
X220.218Y-173.304
X220.218Y-177.267
X220.218Y-181.229
X220.218Y-185.191
X220.218Y-189.154
X220.218Y-193.116
X220.218Y-197.079
X220.218Y-201.041
X220.218Y-205.003
X220.218Y-208.966
X220.218Y-212.928
X220.218Y-216.891
X220.218Y-220.853
X220.218Y-224.815
X220.218Y-228.778
X220.218Y-232.74
X220.218Y-236.703
X220.218Y-240.665
X220.218Y-244.627
X220.218Y-248.59
X220.218Y-252.552
X220.218Y-256.515
X220.218Y-260.477
X241.808Y-66.319
X241.808Y-70.282
X241.808Y-74.244
X241.808Y-78.207
X241.808Y-82.169
X241.808Y-86.131
X241.808Y-90.094
X241.808Y-94.056
X241.808Y-98.019
X241.808Y-101.981
X241.808Y-105.943
X241.808Y-109.906
X241.808Y-113.868
X241.808Y-117.831
X241.808Y-121.793
X241.808Y-125.755
X241.808Y-129.718
X241.808Y-133.68
X241.808Y-137.643
X241.808Y-141.605
X241.808Y-145.567
X241.808Y-149.53
X241.808Y-153.492
X241.808Y-157.455
X241.808Y-161.417
X241.808Y-165.379
X241.808Y-169.342
X241.808Y-173.304
X241.808Y-177.267
X241.808Y-181.229
X241.808Y-185.191
X241.808Y-189.154
X241.808Y-193.116
X241.808Y-197.079
X241.808Y-201.041
X241.808Y-205.003
X241.808Y-208.966
X241.808Y-212.928
X241.808Y-216.891
X241.808Y-220.853
X241.808Y-224.815
X241.808Y-228.778
X241.808Y-232.74
X241.808Y-236.703
X241.808Y-240.665
X241.808Y-244.627
X241.808Y-248.59
X241.808Y-252.552
X241.808Y-256.515
X241.808Y-260.477
X263.398Y-66.319
X263.398Y-70.282
X263.398Y-74.244
X263.398Y-78.207
X263.398Y-82.169
X263.398Y-86.131
X263.398Y-90.094
X263.398Y-94.056
X263.398Y-98.019
X263.398Y-101.981
X263.398Y-105.943
X263.398Y-109.906
X263.398Y-113.868
X263.398Y-117.831
X263.398Y-121.793
X263.398Y-125.755
X263.398Y-129.718
X263.398Y-133.68
X263.398Y-137.643
X263.398Y-141.605
X263.398Y-145.567
X263.398Y-149.53
X263.398Y-153.492
X263.398Y-157.455
X263.398Y-161.417
X263.398Y-165.379
X263.398Y-169.342
X263.398Y-173.304
X263.398Y-177.267
X263.398Y-181.229
X263.398Y-185.191
X263.398Y-189.154
X263.398Y-193.116
X263.398Y-197.079
X263.398Y-201.041
X263.398Y-205.003
X263.398Y-208.966
X263.398Y-212.928
X263.398Y-216.891
X263.398Y-220.853
X263.398Y-224.815
X263.398Y-228.778
X263.398Y-232.74
X263.398Y-236.703
X263.398Y-240.665
X263.398Y-244.627
X263.398Y-248.59
X263.398Y-252.552
X263.398Y-256.515
X263.398Y-260.477
X284.988Y-66.319
X284.988Y-70.282
X284.988Y-74.244
X284.988Y-78.207
X284.988Y-82.169
X284.988Y-86.131
X284.988Y-90.094
X284.988Y-94.056
X284.988Y-98.019
X284.988Y-101.981
X284.988Y-105.943
X284.988Y-109.906
X284.988Y-113.868
X284.988Y-117.831
X284.988Y-121.793
X284.988Y-125.755
X284.988Y-129.718
X284.988Y-133.68
X284.988Y-137.643
X284.988Y-141.605
X284.988Y-145.567
X284.988Y-149.53
X284.988Y-153.492
X284.988Y-157.455
X284.988Y-161.417
X284.988Y-165.379
X284.988Y-169.342
X284.988Y-173.304
X284.988Y-177.267
X284.988Y-181.229
X284.988Y-185.191
X284.988Y-189.154
X284.988Y-193.116
X284.988Y-197.079
X284.988Y-201.041
X284.988Y-205.003
X284.988Y-208.966
X284.988Y-212.928
X284.988Y-216.891
X284.988Y-220.853
X284.988Y-224.815
X284.988Y-228.778
X284.988Y-232.74
X284.988Y-236.703
X284.988Y-240.665
X284.988Y-244.627
X284.988Y-248.59
X284.988Y-252.552
X284.988Y-256.515
X284.988Y-260.477
X306.578Y-66.319
X306.578Y-70.282
X306.578Y-74.244
X306.578Y-78.207
X306.578Y-82.169
X306.578Y-86.131
X306.578Y-90.094
X306.578Y-94.056
X306.578Y-98.019
X306.578Y-101.981
X306.578Y-105.943
X306.578Y-109.906
X306.578Y-113.868
X306.578Y-117.831
X306.578Y-121.793
X306.578Y-125.755
X306.578Y-129.718
X306.578Y-133.68
X306.578Y-137.643
X306.578Y-141.605
X306.578Y-145.567
X306.578Y-149.53
X306.578Y-153.492
X306.578Y-157.455
X306.578Y-161.417
X306.578Y-165.379
X306.578Y-169.342
X306.578Y-173.304
X306.578Y-177.267
X306.578Y-181.229
X306.578Y-185.191
X306.578Y-189.154
X306.578Y-193.116
X306.578Y-197.079
X306.578Y-201.041
X306.578Y-205.003
X306.578Y-208.966
X306.578Y-212.928
X306.578Y-216.891
X306.578Y-220.853
X306.578Y-224.815
X306.578Y-228.778
X306.578Y-232.74
X306.578Y-236.703
X306.578Y-240.665
X306.578Y-244.627
X306.578Y-248.59
X306.578Y-252.552
X306.578Y-256.515
X306.578Y-260.477
X328.168Y-66.319
X328.168Y-70.282
X328.168Y-74.244
X328.168Y-78.207
X328.168Y-82.169
X328.168Y-86.131
X328.168Y-90.094
X328.168Y-94.056
X328.168Y-98.019
X328.168Y-101.981
X328.168Y-105.943
X328.168Y-109.906
X328.168Y-113.868
X328.168Y-117.831
X328.168Y-121.793
X328.168Y-125.755
X328.168Y-129.718
X328.168Y-133.68
X328.168Y-137.643
X328.168Y-141.605
X328.168Y-145.567
X328.168Y-149.53
X328.168Y-153.492
X328.168Y-157.455
X328.168Y-161.417
X328.168Y-165.379
X328.168Y-169.342
X328.168Y-173.304
X328.168Y-177.267
X328.168Y-181.229
X328.168Y-185.191
X328.168Y-189.154
X328.168Y-193.116
X328.168Y-197.079
X328.168Y-201.041
X328.168Y-205.003
X328.168Y-208.966
X328.168Y-212.928
X328.168Y-216.891
X328.168Y-220.853
X328.168Y-224.815
X328.168Y-228.778
X328.168Y-232.74
X328.168Y-236.703
X328.168Y-240.665
X328.168Y-244.627
X328.168Y-248.59
X328.168Y-252.552
X328.168Y-256.515
X328.168Y-260.477
X349.758Y-66.319
X349.758Y-70.282
X349.758Y-74.244
X349.758Y-78.207
X349.758Y-82.169
X349.758Y-86.131
X349.758Y-90.094
X349.758Y-94.056
X349.758Y-98.019
X349.758Y-101.981
X349.758Y-105.943
X349.758Y-109.906
X349.758Y-113.868
X349.758Y-117.831
X349.758Y-121.793
X349.758Y-125.755
X349.758Y-129.718
X349.758Y-133.68
X349.758Y-137.643
X349.758Y-141.605
X349.758Y-145.567
X349.758Y-149.53
X349.758Y-153.492
X349.758Y-157.455
X349.758Y-161.417
X349.758Y-165.379
X349.758Y-169.342
X349.758Y-173.304
X349.758Y-177.267
X349.758Y-181.229
X349.758Y-185.191
X349.758Y-189.154
X349.758Y-193.116
X349.758Y-197.079
X349.758Y-201.041
X349.758Y-205.003
X349.758Y-208.966
X349.758Y-212.928
X349.758Y-216.891
X349.758Y-220.853
X349.758Y-224.815
X349.758Y-228.778
X349.758Y-232.74
X349.758Y-236.703
X349.758Y-240.665
X349.758Y-244.627
X349.758Y-248.59
X349.758Y-252.552
X349.758Y-256.515
X349.758Y-260.477
T7
X480.008Y-252.984
T8
X35.56Y-54.61
X35.56Y-270.51
X200.66Y-54.61
X200.66Y-270.51
X353.06Y-54.61
X353.06Y-270.51
X505.46Y-54.61
X505.46Y-270.51
M30
