%TF.GenerationSoftware,KiCad,Pcbnew,9.0.9-9.0.9~ubuntu24.04.1*%
%TF.CreationDate,2026-07-13T18:18:35+02:00*%
%TF.ProjectId,GIMIX Mainboard,47494d49-5820-44d6-9169-6e626f617264,rev?*%
%TF.SameCoordinates,Original*%
%TF.FileFunction,Soldermask,Bot*%
%TF.FilePolarity,Negative*%
%FSLAX46Y46*%
G04 Gerber Fmt 4.6, Leading zero omitted, Abs format (unit mm)*
G04 Created by KiCad (PCBNEW 9.0.9-9.0.9~ubuntu24.04.1) date 2026-07-13 18:18:35*
%MOMM*%
%LPD*%
G01*
G04 APERTURE LIST*
G04 Aperture macros list*
%AMRoundRect*
0 Rectangle with rounded corners*
0 $1 Rounding radius*
0 $2 $3 $4 $5 $6 $7 $8 $9 X,Y pos of 4 corners*
0 Add a 4 corners polygon primitive as box body*
4,1,4,$2,$3,$4,$5,$6,$7,$8,$9,$2,$3,0*
0 Add four circle primitives for the rounded corners*
1,1,$1+$1,$2,$3*
1,1,$1+$1,$4,$5*
1,1,$1+$1,$6,$7*
1,1,$1+$1,$8,$9*
0 Add four rect primitives between the rounded corners*
20,1,$1+$1,$2,$3,$4,$5,0*
20,1,$1+$1,$4,$5,$6,$7,0*
20,1,$1+$1,$6,$7,$8,$9,0*
20,1,$1+$1,$8,$9,$2,$3,0*%
G04 Aperture macros list end*
%ADD10R,1.700000X1.700000*%
%ADD11C,1.700000*%
%ADD12O,2.540000X3.000000*%
%ADD13O,3.000000X2.500000*%
%ADD14RoundRect,0.250000X0.550000X0.550000X-0.550000X0.550000X-0.550000X-0.550000X0.550000X-0.550000X0*%
%ADD15C,1.600000*%
%ADD16RoundRect,0.250000X-0.650000X-1.550000X0.650000X-1.550000X0.650000X1.550000X-0.650000X1.550000X0*%
%ADD17O,1.800000X3.600000*%
%ADD18R,1.600000X1.600000*%
%ADD19RoundRect,0.250000X1.550000X-0.650000X1.550000X0.650000X-1.550000X0.650000X-1.550000X-0.650000X0*%
%ADD20O,3.600000X1.800000*%
%ADD21RoundRect,0.250000X-0.550000X0.550000X-0.550000X-0.550000X0.550000X-0.550000X0.550000X0.550000X0*%
%ADD22C,4.300000*%
%ADD23C,3.500000*%
%ADD24R,2.000000X1.905000*%
%ADD25O,2.000000X1.905000*%
G04 APERTURE END LIST*
D10*
%TO.C,JA4*%
X430530000Y-251968000D03*
D11*
X430530000Y-254508000D03*
X430530000Y-257048000D03*
X430530000Y-259588000D03*
%TD*%
D12*
%TO.C,IO2*%
X492633000Y-100457000D03*
X488670600Y-100457000D03*
X484708200Y-100457000D03*
X480745800Y-100457000D03*
X476783400Y-100457000D03*
X472821000Y-100457000D03*
X468858600Y-100457000D03*
X464896200Y-100457000D03*
X460933800Y-100457000D03*
X456971400Y-100457000D03*
X453009000Y-100457000D03*
X449046600Y-100457000D03*
X445084200Y-100457000D03*
X441121800Y-100457000D03*
X437159400Y-100457000D03*
X433197000Y-100457000D03*
X429234600Y-100457000D03*
X425272200Y-100457000D03*
X421309800Y-100457000D03*
X417347400Y-100457000D03*
X413385000Y-100457000D03*
X409422600Y-100457000D03*
X405460200Y-100457000D03*
X401497800Y-100457000D03*
X397535400Y-100457000D03*
X393573000Y-100457000D03*
X389610600Y-100457000D03*
X385648200Y-100457000D03*
X381685800Y-100457000D03*
X377723400Y-100457000D03*
%TD*%
D13*
%TO.C,P7*%
X177038000Y-260324600D03*
X177038000Y-256362200D03*
X177038000Y-252399800D03*
X177038000Y-248437400D03*
X177038000Y-244475000D03*
X177038000Y-240512600D03*
X177038000Y-236550200D03*
X177038000Y-232587800D03*
X177038000Y-228625400D03*
X177038000Y-224663000D03*
X177038000Y-220700600D03*
X177038000Y-216738200D03*
X177038000Y-212775800D03*
X177038000Y-208813400D03*
X177038000Y-204851000D03*
X177038000Y-200888600D03*
X177038000Y-196926200D03*
X177038000Y-192963800D03*
X177038000Y-189001400D03*
X177038000Y-185039000D03*
X177038000Y-181076600D03*
X177038000Y-177114200D03*
X177038000Y-173151800D03*
X177038000Y-169189400D03*
X177038000Y-165227000D03*
X177038000Y-161264600D03*
X177038000Y-157302200D03*
X177038000Y-153339800D03*
X177038000Y-149377400D03*
X177038000Y-145415000D03*
X177038000Y-141452600D03*
X177038000Y-137490200D03*
X177038000Y-133527800D03*
X177038000Y-129565400D03*
X177038000Y-125603000D03*
X177038000Y-121640600D03*
X177038000Y-117678200D03*
X177038000Y-113715800D03*
X177038000Y-109753400D03*
X177038000Y-105791000D03*
X177038000Y-101828600D03*
X177038000Y-97866200D03*
X177038000Y-93903800D03*
X177038000Y-89941400D03*
X177038000Y-85979000D03*
X177038000Y-82016600D03*
X177038000Y-78054200D03*
X177038000Y-74091800D03*
X177038000Y-70129400D03*
X177038000Y-66167000D03*
%TD*%
D12*
%TO.C,IO4*%
X492633000Y-138557000D03*
X488670600Y-138557000D03*
X484708200Y-138557000D03*
X480745800Y-138557000D03*
X476783400Y-138557000D03*
X472821000Y-138557000D03*
X468858600Y-138557000D03*
X464896200Y-138557000D03*
X460933800Y-138557000D03*
X456971400Y-138557000D03*
X453009000Y-138557000D03*
X449046600Y-138557000D03*
X445084200Y-138557000D03*
X441121800Y-138557000D03*
X437159400Y-138557000D03*
X433197000Y-138557000D03*
X429234600Y-138557000D03*
X425272200Y-138557000D03*
X421309800Y-138557000D03*
X417347400Y-138557000D03*
X413385000Y-138557000D03*
X409422600Y-138557000D03*
X405460200Y-138557000D03*
X401497800Y-138557000D03*
X397535400Y-138557000D03*
X393573000Y-138557000D03*
X389610600Y-138557000D03*
X385648200Y-138557000D03*
X381685800Y-138557000D03*
X377723400Y-138557000D03*
%TD*%
D10*
%TO.C,JA1*%
X362712000Y-71628000D03*
D11*
X360172000Y-71628000D03*
X362712000Y-69088000D03*
X360172000Y-69088000D03*
X362712000Y-66548000D03*
X360172000Y-66548000D03*
X362712000Y-64008000D03*
X360172000Y-64008000D03*
X362712000Y-61468000D03*
X360172000Y-61468000D03*
%TD*%
D14*
%TO.C,U1*%
X375412000Y-269494000D03*
D15*
X375412000Y-266954000D03*
X375412000Y-264414000D03*
X375412000Y-261874000D03*
X375412000Y-259334000D03*
X375412000Y-256794000D03*
X375412000Y-254254000D03*
X375412000Y-251714000D03*
X375412000Y-249174000D03*
X375412000Y-246634000D03*
X367792000Y-246634000D03*
X367792000Y-249174000D03*
X367792000Y-251714000D03*
X367792000Y-254254000D03*
X367792000Y-256794000D03*
X367792000Y-259334000D03*
X367792000Y-261874000D03*
X367792000Y-264414000D03*
X367792000Y-266954000D03*
X367792000Y-269494000D03*
%TD*%
D16*
%TO.C,J7*%
X208153000Y-140716000D03*
D17*
X211963000Y-140716000D03*
%TD*%
D15*
%TO.C,R2*%
X496824000Y-196342000D03*
X496824000Y-206502000D03*
%TD*%
%TO.C,C5*%
X463002000Y-237236000D03*
X460502000Y-237236000D03*
%TD*%
%TO.C,C10*%
X378206000Y-219964000D03*
X378206000Y-217464000D03*
%TD*%
D14*
%TO.C,U11*%
X484124000Y-227330000D03*
D15*
X484124000Y-224790000D03*
X484124000Y-222250000D03*
X484124000Y-219710000D03*
X484124000Y-217170000D03*
X484124000Y-214630000D03*
X484124000Y-212090000D03*
X476504000Y-212090000D03*
X476504000Y-214630000D03*
X476504000Y-217170000D03*
X476504000Y-219710000D03*
X476504000Y-222250000D03*
X476504000Y-224790000D03*
X476504000Y-227330000D03*
%TD*%
D18*
%TO.C,RP6*%
X40513000Y-193167000D03*
D15*
X40513000Y-190627000D03*
X40513000Y-188087000D03*
X40513000Y-185547000D03*
X40513000Y-183007000D03*
X40513000Y-180467000D03*
X40513000Y-177927000D03*
X40513000Y-175387000D03*
X40513000Y-172847000D03*
X40513000Y-170307000D03*
%TD*%
D10*
%TO.C,JA5*%
X32893000Y-114427000D03*
D11*
X32893000Y-111887000D03*
X32893000Y-109347000D03*
X32893000Y-106807000D03*
X32893000Y-104267000D03*
X32893000Y-101727000D03*
%TD*%
D10*
%TO.C,CA1*%
X37973000Y-161417000D03*
D11*
X37973000Y-158877000D03*
X37973000Y-156337000D03*
X37973000Y-153797000D03*
X37973000Y-151257000D03*
%TD*%
D10*
%TO.C,CA2*%
X37973000Y-143637000D03*
D11*
X37973000Y-141097000D03*
X37973000Y-138557000D03*
X37973000Y-136017000D03*
%TD*%
D18*
%TO.C,RP3*%
X36703000Y-226187000D03*
D15*
X36703000Y-223647000D03*
X36703000Y-221107000D03*
X36703000Y-218567000D03*
X36703000Y-216027000D03*
X36703000Y-213487000D03*
X36703000Y-210947000D03*
X36703000Y-208407000D03*
X36703000Y-205867000D03*
X36703000Y-203327000D03*
%TD*%
D14*
%TO.C,SW1*%
X449072000Y-265938000D03*
D15*
X449072000Y-263398000D03*
X449072000Y-260858000D03*
X449072000Y-258318000D03*
X449072000Y-255778000D03*
X449072000Y-253238000D03*
X449072000Y-250698000D03*
X449072000Y-248158000D03*
X449072000Y-245618000D03*
X449072000Y-243078000D03*
X441452000Y-243078000D03*
X441452000Y-245618000D03*
X441452000Y-248158000D03*
X441452000Y-250698000D03*
X441452000Y-253238000D03*
X441452000Y-255778000D03*
X441452000Y-258318000D03*
X441452000Y-260858000D03*
X441452000Y-263398000D03*
X441452000Y-265938000D03*
%TD*%
D14*
%TO.C,U4*%
X415290000Y-266192000D03*
D15*
X415290000Y-263652000D03*
X415290000Y-261112000D03*
X415290000Y-258572000D03*
X415290000Y-256032000D03*
X415290000Y-253492000D03*
X415290000Y-250952000D03*
X415290000Y-248412000D03*
X415290000Y-245872000D03*
X415290000Y-243332000D03*
X407670000Y-243332000D03*
X407670000Y-245872000D03*
X407670000Y-248412000D03*
X407670000Y-250952000D03*
X407670000Y-253492000D03*
X407670000Y-256032000D03*
X407670000Y-258572000D03*
X407670000Y-261112000D03*
X407670000Y-263652000D03*
X407670000Y-266192000D03*
%TD*%
D18*
%TO.C,RP9*%
X36703000Y-86487000D03*
D15*
X36703000Y-83947000D03*
X36703000Y-81407000D03*
X36703000Y-78867000D03*
X36703000Y-76327000D03*
X36703000Y-73787000D03*
X36703000Y-71247000D03*
X36703000Y-68707000D03*
X36703000Y-66167000D03*
X36703000Y-63627000D03*
%TD*%
%TO.C,R6*%
X32893000Y-88392000D03*
X32893000Y-98552000D03*
%TD*%
%TO.C,R4*%
X33528000Y-126238000D03*
X43688000Y-126238000D03*
%TD*%
D14*
%TO.C,U10*%
X472694000Y-227330000D03*
D15*
X472694000Y-224790000D03*
X472694000Y-222250000D03*
X472694000Y-219710000D03*
X472694000Y-217170000D03*
X472694000Y-214630000D03*
X472694000Y-212090000D03*
X465074000Y-212090000D03*
X465074000Y-214630000D03*
X465074000Y-217170000D03*
X465074000Y-219710000D03*
X465074000Y-222250000D03*
X465074000Y-224790000D03*
X465074000Y-227330000D03*
%TD*%
%TO.C,R1*%
X462788000Y-272542000D03*
X452628000Y-272542000D03*
%TD*%
D10*
%TO.C,JA2*%
X363093000Y-128397000D03*
D11*
X363093000Y-125857000D03*
X363093000Y-123317000D03*
X363093000Y-120777000D03*
X363093000Y-118237000D03*
%TD*%
D15*
%TO.C,C11*%
X446024000Y-53340000D03*
X446024000Y-50840000D03*
%TD*%
D14*
%TO.C,U13*%
X507238000Y-227330000D03*
D15*
X507238000Y-224790000D03*
X507238000Y-222250000D03*
X507238000Y-219710000D03*
X507238000Y-217170000D03*
X507238000Y-214630000D03*
X507238000Y-212090000D03*
X499618000Y-212090000D03*
X499618000Y-214630000D03*
X499618000Y-217170000D03*
X499618000Y-219710000D03*
X499618000Y-222250000D03*
X499618000Y-224790000D03*
X499618000Y-227330000D03*
%TD*%
D19*
%TO.C,J3*%
X210058000Y-163322000D03*
D20*
X210058000Y-159512000D03*
%TD*%
D18*
%TO.C,RP8*%
X40513000Y-116967000D03*
D15*
X40513000Y-114427000D03*
X40513000Y-111887000D03*
X40513000Y-109347000D03*
X40513000Y-106807000D03*
X40513000Y-104267000D03*
X40513000Y-101727000D03*
X40513000Y-99187000D03*
X40513000Y-96647000D03*
X40513000Y-94107000D03*
%TD*%
%TO.C,C4*%
X499364000Y-232156000D03*
X496864000Y-232156000D03*
%TD*%
%TO.C,C12*%
X411988000Y-52324000D03*
X414488000Y-52324000D03*
%TD*%
D13*
%TO.C,P3*%
X90678000Y-260324600D03*
X90678000Y-256362200D03*
X90678000Y-252399800D03*
X90678000Y-248437400D03*
X90678000Y-244475000D03*
X90678000Y-240512600D03*
X90678000Y-236550200D03*
X90678000Y-232587800D03*
X90678000Y-228625400D03*
X90678000Y-224663000D03*
X90678000Y-220700600D03*
X90678000Y-216738200D03*
X90678000Y-212775800D03*
X90678000Y-208813400D03*
X90678000Y-204851000D03*
X90678000Y-200888600D03*
X90678000Y-196926200D03*
X90678000Y-192963800D03*
X90678000Y-189001400D03*
X90678000Y-185039000D03*
X90678000Y-181076600D03*
X90678000Y-177114200D03*
X90678000Y-173151800D03*
X90678000Y-169189400D03*
X90678000Y-165227000D03*
X90678000Y-161264600D03*
X90678000Y-157302200D03*
X90678000Y-153339800D03*
X90678000Y-149377400D03*
X90678000Y-145415000D03*
X90678000Y-141452600D03*
X90678000Y-137490200D03*
X90678000Y-133527800D03*
X90678000Y-129565400D03*
X90678000Y-125603000D03*
X90678000Y-121640600D03*
X90678000Y-117678200D03*
X90678000Y-113715800D03*
X90678000Y-109753400D03*
X90678000Y-105791000D03*
X90678000Y-101828600D03*
X90678000Y-97866200D03*
X90678000Y-93903800D03*
X90678000Y-89941400D03*
X90678000Y-85979000D03*
X90678000Y-82016600D03*
X90678000Y-78054200D03*
X90678000Y-74091800D03*
X90678000Y-70129400D03*
X90678000Y-66167000D03*
%TD*%
D12*
%TO.C,IO5*%
X492633000Y-157607000D03*
X488670600Y-157607000D03*
X484708200Y-157607000D03*
X480745800Y-157607000D03*
X476783400Y-157607000D03*
X472821000Y-157607000D03*
X468858600Y-157607000D03*
X464896200Y-157607000D03*
X460933800Y-157607000D03*
X456971400Y-157607000D03*
X453009000Y-157607000D03*
X449046600Y-157607000D03*
X445084200Y-157607000D03*
X441121800Y-157607000D03*
X437159400Y-157607000D03*
X433197000Y-157607000D03*
X429234600Y-157607000D03*
X425272200Y-157607000D03*
X421309800Y-157607000D03*
X417347400Y-157607000D03*
X413385000Y-157607000D03*
X409422600Y-157607000D03*
X405460200Y-157607000D03*
X401497800Y-157607000D03*
X397535400Y-157607000D03*
X393573000Y-157607000D03*
X389610600Y-157607000D03*
X385648200Y-157607000D03*
X381685800Y-157607000D03*
X377723400Y-157607000D03*
%TD*%
D21*
%TO.C,C2*%
X497078000Y-260136000D03*
D15*
X497078000Y-262636000D03*
%TD*%
D14*
%TO.C,U9*%
X461518000Y-227330000D03*
D15*
X461518000Y-224790000D03*
X461518000Y-222250000D03*
X461518000Y-219710000D03*
X461518000Y-217170000D03*
X461518000Y-214630000D03*
X461518000Y-212090000D03*
X453898000Y-212090000D03*
X453898000Y-214630000D03*
X453898000Y-217170000D03*
X453898000Y-219710000D03*
X453898000Y-222250000D03*
X453898000Y-224790000D03*
X453898000Y-227330000D03*
%TD*%
D14*
%TO.C,U2*%
X392938000Y-266192000D03*
D15*
X392938000Y-263652000D03*
X392938000Y-261112000D03*
X392938000Y-258572000D03*
X392938000Y-256032000D03*
X392938000Y-253492000D03*
X392938000Y-250952000D03*
X392938000Y-248412000D03*
X392938000Y-245872000D03*
X392938000Y-243332000D03*
X385318000Y-243332000D03*
X385318000Y-245872000D03*
X385318000Y-248412000D03*
X385318000Y-250952000D03*
X385318000Y-253492000D03*
X385318000Y-256032000D03*
X385318000Y-258572000D03*
X385318000Y-261112000D03*
X385318000Y-263652000D03*
X385318000Y-266192000D03*
%TD*%
D19*
%TO.C,J6*%
X231648000Y-151257000D03*
D20*
X231648000Y-147447000D03*
%TD*%
D10*
%TO.C,JA3*%
X507492000Y-232156000D03*
D11*
X507492000Y-234696000D03*
X507492000Y-237236000D03*
%TD*%
D12*
%TO.C,IO7*%
X492633000Y-195707000D03*
X488670600Y-195707000D03*
X484708200Y-195707000D03*
X480745800Y-195707000D03*
X476783400Y-195707000D03*
X472821000Y-195707000D03*
X468858600Y-195707000D03*
X464896200Y-195707000D03*
X460933800Y-195707000D03*
X456971400Y-195707000D03*
X453009000Y-195707000D03*
X449046600Y-195707000D03*
X445084200Y-195707000D03*
X441121800Y-195707000D03*
X437159400Y-195707000D03*
X433197000Y-195707000D03*
X429234600Y-195707000D03*
X425272200Y-195707000D03*
X421309800Y-195707000D03*
X417347400Y-195707000D03*
X413385000Y-195707000D03*
X409422600Y-195707000D03*
X405460200Y-195707000D03*
X401497800Y-195707000D03*
X397535400Y-195707000D03*
X393573000Y-195707000D03*
X389610600Y-195707000D03*
X385648200Y-195707000D03*
X381685800Y-195707000D03*
X377723400Y-195707000D03*
%TD*%
D22*
%TO.C,H3*%
X200660000Y-54610000D03*
%TD*%
%TO.C,H5*%
X353060000Y-54610000D03*
%TD*%
D13*
%TO.C,P8*%
X198628000Y-260324600D03*
X198628000Y-256362200D03*
X198628000Y-252399800D03*
X198628000Y-248437400D03*
X198628000Y-244475000D03*
X198628000Y-240512600D03*
X198628000Y-236550200D03*
X198628000Y-232587800D03*
X198628000Y-228625400D03*
X198628000Y-224663000D03*
X198628000Y-220700600D03*
X198628000Y-216738200D03*
X198628000Y-212775800D03*
X198628000Y-208813400D03*
X198628000Y-204851000D03*
X198628000Y-200888600D03*
X198628000Y-196926200D03*
X198628000Y-192963800D03*
X198628000Y-189001400D03*
X198628000Y-185039000D03*
X198628000Y-181076600D03*
X198628000Y-177114200D03*
X198628000Y-173151800D03*
X198628000Y-169189400D03*
X198628000Y-165227000D03*
X198628000Y-161264600D03*
X198628000Y-157302200D03*
X198628000Y-153339800D03*
X198628000Y-149377400D03*
X198628000Y-145415000D03*
X198628000Y-141452600D03*
X198628000Y-137490200D03*
X198628000Y-133527800D03*
X198628000Y-129565400D03*
X198628000Y-125603000D03*
X198628000Y-121640600D03*
X198628000Y-117678200D03*
X198628000Y-113715800D03*
X198628000Y-109753400D03*
X198628000Y-105791000D03*
X198628000Y-101828600D03*
X198628000Y-97866200D03*
X198628000Y-93903800D03*
X198628000Y-89941400D03*
X198628000Y-85979000D03*
X198628000Y-82016600D03*
X198628000Y-78054200D03*
X198628000Y-74091800D03*
X198628000Y-70129400D03*
X198628000Y-66167000D03*
%TD*%
%TO.C,P10*%
X241808000Y-260477000D03*
X241808000Y-256514600D03*
X241808000Y-252552200D03*
X241808000Y-248589800D03*
X241808000Y-244627400D03*
X241808000Y-240665000D03*
X241808000Y-236702600D03*
X241808000Y-232740200D03*
X241808000Y-228777800D03*
X241808000Y-224815400D03*
X241808000Y-220853000D03*
X241808000Y-216890600D03*
X241808000Y-212928200D03*
X241808000Y-208965800D03*
X241808000Y-205003400D03*
X241808000Y-201041000D03*
X241808000Y-197078600D03*
X241808000Y-193116200D03*
X241808000Y-189153800D03*
X241808000Y-185191400D03*
X241808000Y-181229000D03*
X241808000Y-177266600D03*
X241808000Y-173304200D03*
X241808000Y-169341800D03*
X241808000Y-165379400D03*
X241808000Y-161417000D03*
X241808000Y-157454600D03*
X241808000Y-153492200D03*
X241808000Y-149529800D03*
X241808000Y-145567400D03*
X241808000Y-141605000D03*
X241808000Y-137642600D03*
X241808000Y-133680200D03*
X241808000Y-129717800D03*
X241808000Y-125755400D03*
X241808000Y-121793000D03*
X241808000Y-117830600D03*
X241808000Y-113868200D03*
X241808000Y-109905800D03*
X241808000Y-105943400D03*
X241808000Y-101981000D03*
X241808000Y-98018600D03*
X241808000Y-94056200D03*
X241808000Y-90093800D03*
X241808000Y-86131400D03*
X241808000Y-82169000D03*
X241808000Y-78206600D03*
X241808000Y-74244200D03*
X241808000Y-70281800D03*
X241808000Y-66319400D03*
%TD*%
D14*
%TO.C,U7*%
X375158000Y-220726000D03*
D15*
X375158000Y-218186000D03*
X375158000Y-215646000D03*
X375158000Y-213106000D03*
X375158000Y-210566000D03*
X375158000Y-208026000D03*
X375158000Y-205486000D03*
X375158000Y-202946000D03*
X367538000Y-202946000D03*
X367538000Y-205486000D03*
X367538000Y-208026000D03*
X367538000Y-210566000D03*
X367538000Y-213106000D03*
X367538000Y-215646000D03*
X367538000Y-218186000D03*
X367538000Y-220726000D03*
%TD*%
D18*
%TO.C,RP1*%
X36703000Y-259207000D03*
D15*
X36703000Y-256667000D03*
X36703000Y-254127000D03*
X36703000Y-251587000D03*
X36703000Y-249047000D03*
X36703000Y-246507000D03*
X36703000Y-243967000D03*
X36703000Y-241427000D03*
X36703000Y-238887000D03*
X36703000Y-236347000D03*
%TD*%
D22*
%TO.C,H2*%
X35560000Y-270510000D03*
%TD*%
%TO.C,H8*%
X505460000Y-270510000D03*
%TD*%
D15*
%TO.C,C8*%
X379984000Y-251166000D03*
X379984000Y-248666000D03*
%TD*%
%TO.C,C13*%
X39838000Y-89662000D03*
X37338000Y-89662000D03*
%TD*%
D18*
%TO.C,RP4*%
X40513000Y-226187000D03*
D15*
X40513000Y-223647000D03*
X40513000Y-221107000D03*
X40513000Y-218567000D03*
X40513000Y-216027000D03*
X40513000Y-213487000D03*
X40513000Y-210947000D03*
X40513000Y-208407000D03*
X40513000Y-205867000D03*
X40513000Y-203327000D03*
%TD*%
%TO.C,C17*%
X39624000Y-262382000D03*
X37124000Y-262382000D03*
%TD*%
D14*
%TO.C,U8*%
X449834000Y-227330000D03*
D15*
X449834000Y-224790000D03*
X449834000Y-222250000D03*
X449834000Y-219710000D03*
X449834000Y-217170000D03*
X449834000Y-214630000D03*
X449834000Y-212090000D03*
X442214000Y-212090000D03*
X442214000Y-214630000D03*
X442214000Y-217170000D03*
X442214000Y-219710000D03*
X442214000Y-222250000D03*
X442214000Y-224790000D03*
X442214000Y-227330000D03*
%TD*%
D12*
%TO.C,IO3*%
X492633000Y-119507000D03*
X488670600Y-119507000D03*
X484708200Y-119507000D03*
X480745800Y-119507000D03*
X476783400Y-119507000D03*
X472821000Y-119507000D03*
X468858600Y-119507000D03*
X464896200Y-119507000D03*
X460933800Y-119507000D03*
X456971400Y-119507000D03*
X453009000Y-119507000D03*
X449046600Y-119507000D03*
X445084200Y-119507000D03*
X441121800Y-119507000D03*
X437159400Y-119507000D03*
X433197000Y-119507000D03*
X429234600Y-119507000D03*
X425272200Y-119507000D03*
X421309800Y-119507000D03*
X417347400Y-119507000D03*
X413385000Y-119507000D03*
X409422600Y-119507000D03*
X405460200Y-119507000D03*
X401497800Y-119507000D03*
X397535400Y-119507000D03*
X393573000Y-119507000D03*
X389610600Y-119507000D03*
X385648200Y-119507000D03*
X381685800Y-119507000D03*
X377723400Y-119507000D03*
%TD*%
D15*
%TO.C,C16*%
X39878000Y-229362000D03*
X37378000Y-229362000D03*
%TD*%
D18*
%TO.C,RP2*%
X40513000Y-259207000D03*
D15*
X40513000Y-256667000D03*
X40513000Y-254127000D03*
X40513000Y-251587000D03*
X40513000Y-249047000D03*
X40513000Y-246507000D03*
X40513000Y-243967000D03*
X40513000Y-241427000D03*
X40513000Y-238887000D03*
X40513000Y-236347000D03*
%TD*%
D18*
%TO.C,RP11*%
X417322000Y-52324000D03*
D15*
X419862000Y-52324000D03*
X422402000Y-52324000D03*
X424942000Y-52324000D03*
X427482000Y-52324000D03*
X430022000Y-52324000D03*
X432562000Y-52324000D03*
X435102000Y-52324000D03*
X437642000Y-52324000D03*
X440182000Y-52324000D03*
%TD*%
D12*
%TO.C,J1*%
X421614600Y-214757000D03*
X417652200Y-214757000D03*
X413689800Y-214757000D03*
X409727400Y-214757000D03*
X405765000Y-214757000D03*
X401802600Y-214757000D03*
X397840200Y-214757000D03*
X393877800Y-214757000D03*
X389915400Y-214757000D03*
X385953000Y-214757000D03*
%TD*%
D18*
%TO.C,RP10*%
X40513000Y-86487000D03*
D15*
X40513000Y-83947000D03*
X40513000Y-81407000D03*
X40513000Y-78867000D03*
X40513000Y-76327000D03*
X40513000Y-73787000D03*
X40513000Y-71247000D03*
X40513000Y-68707000D03*
X40513000Y-66167000D03*
X40513000Y-63627000D03*
%TD*%
D13*
%TO.C,P5*%
X133858000Y-260324600D03*
X133858000Y-256362200D03*
X133858000Y-252399800D03*
X133858000Y-248437400D03*
X133858000Y-244475000D03*
X133858000Y-240512600D03*
X133858000Y-236550200D03*
X133858000Y-232587800D03*
X133858000Y-228625400D03*
X133858000Y-224663000D03*
X133858000Y-220700600D03*
X133858000Y-216738200D03*
X133858000Y-212775800D03*
X133858000Y-208813400D03*
X133858000Y-204851000D03*
X133858000Y-200888600D03*
X133858000Y-196926200D03*
X133858000Y-192963800D03*
X133858000Y-189001400D03*
X133858000Y-185039000D03*
X133858000Y-181076600D03*
X133858000Y-177114200D03*
X133858000Y-173151800D03*
X133858000Y-169189400D03*
X133858000Y-165227000D03*
X133858000Y-161264600D03*
X133858000Y-157302200D03*
X133858000Y-153339800D03*
X133858000Y-149377400D03*
X133858000Y-145415000D03*
X133858000Y-141452600D03*
X133858000Y-137490200D03*
X133858000Y-133527800D03*
X133858000Y-129565400D03*
X133858000Y-125603000D03*
X133858000Y-121640600D03*
X133858000Y-117678200D03*
X133858000Y-113715800D03*
X133858000Y-109753400D03*
X133858000Y-105791000D03*
X133858000Y-101828600D03*
X133858000Y-97866200D03*
X133858000Y-93903800D03*
X133858000Y-89941400D03*
X133858000Y-85979000D03*
X133858000Y-82016600D03*
X133858000Y-78054200D03*
X133858000Y-74091800D03*
X133858000Y-70129400D03*
X133858000Y-66167000D03*
%TD*%
%TO.C,P1*%
X47498000Y-260477000D03*
X47498000Y-256514600D03*
X47498000Y-252552200D03*
X47498000Y-248589800D03*
X47498000Y-244627400D03*
X47498000Y-240665000D03*
X47498000Y-236702600D03*
X47498000Y-232740200D03*
X47498000Y-228777800D03*
X47498000Y-224815400D03*
X47498000Y-220853000D03*
X47498000Y-216890600D03*
X47498000Y-212928200D03*
X47498000Y-208965800D03*
X47498000Y-205003400D03*
X47498000Y-201041000D03*
X47498000Y-197078600D03*
X47498000Y-193116200D03*
X47498000Y-189153800D03*
X47498000Y-185191400D03*
X47498000Y-181229000D03*
X47498000Y-177266600D03*
X47498000Y-173304200D03*
X47498000Y-169341800D03*
X47498000Y-165379400D03*
X47498000Y-161417000D03*
X47498000Y-157454600D03*
X47498000Y-153492200D03*
X47498000Y-149529800D03*
X47498000Y-145567400D03*
X47498000Y-141605000D03*
X47498000Y-137642600D03*
X47498000Y-133680200D03*
X47498000Y-129717800D03*
X47498000Y-125755400D03*
X47498000Y-121793000D03*
X47498000Y-117830600D03*
X47498000Y-113868200D03*
X47498000Y-109905800D03*
X47498000Y-105943400D03*
X47498000Y-101981000D03*
X47498000Y-98018600D03*
X47498000Y-94056200D03*
X47498000Y-90093800D03*
X47498000Y-86131400D03*
X47498000Y-82169000D03*
X47498000Y-78206600D03*
X47498000Y-74244200D03*
X47498000Y-70281800D03*
X47498000Y-66319400D03*
%TD*%
D18*
%TO.C,RP13*%
X449326000Y-50800000D03*
D15*
X451866000Y-50800000D03*
X454406000Y-50800000D03*
X456946000Y-50800000D03*
X459486000Y-50800000D03*
X462026000Y-50800000D03*
X464566000Y-50800000D03*
X467106000Y-50800000D03*
X469646000Y-50800000D03*
X472186000Y-50800000D03*
%TD*%
D22*
%TO.C,H6*%
X353060000Y-270510000D03*
%TD*%
D13*
%TO.C,P15*%
X349758000Y-260477000D03*
X349758000Y-256514600D03*
X349758000Y-252552200D03*
X349758000Y-248589800D03*
X349758000Y-244627400D03*
X349758000Y-240665000D03*
X349758000Y-236702600D03*
X349758000Y-232740200D03*
X349758000Y-228777800D03*
X349758000Y-224815400D03*
X349758000Y-220853000D03*
X349758000Y-216890600D03*
X349758000Y-212928200D03*
X349758000Y-208965800D03*
X349758000Y-205003400D03*
X349758000Y-201041000D03*
X349758000Y-197078600D03*
X349758000Y-193116200D03*
X349758000Y-189153800D03*
X349758000Y-185191400D03*
X349758000Y-181229000D03*
X349758000Y-177266600D03*
X349758000Y-173304200D03*
X349758000Y-169341800D03*
X349758000Y-165379400D03*
X349758000Y-161417000D03*
X349758000Y-157454600D03*
X349758000Y-153492200D03*
X349758000Y-149529800D03*
X349758000Y-145567400D03*
X349758000Y-141605000D03*
X349758000Y-137642600D03*
X349758000Y-133680200D03*
X349758000Y-129717800D03*
X349758000Y-125755400D03*
X349758000Y-121793000D03*
X349758000Y-117830600D03*
X349758000Y-113868200D03*
X349758000Y-109905800D03*
X349758000Y-105943400D03*
X349758000Y-101981000D03*
X349758000Y-98018600D03*
X349758000Y-94056200D03*
X349758000Y-90093800D03*
X349758000Y-86131400D03*
X349758000Y-82169000D03*
X349758000Y-78206600D03*
X349758000Y-74244200D03*
X349758000Y-70281800D03*
X349758000Y-66319400D03*
%TD*%
D12*
%TO.C,IO1*%
X492633000Y-81407000D03*
X488670600Y-81407000D03*
X484708200Y-81407000D03*
X480745800Y-81407000D03*
X476783400Y-81407000D03*
X472821000Y-81407000D03*
X468858600Y-81407000D03*
X464896200Y-81407000D03*
X460933800Y-81407000D03*
X456971400Y-81407000D03*
X453009000Y-81407000D03*
X449046600Y-81407000D03*
X445084200Y-81407000D03*
X441121800Y-81407000D03*
X437159400Y-81407000D03*
X433197000Y-81407000D03*
X429234600Y-81407000D03*
X425272200Y-81407000D03*
X421309800Y-81407000D03*
X417347400Y-81407000D03*
X413385000Y-81407000D03*
X409422600Y-81407000D03*
X405460200Y-81407000D03*
X401497800Y-81407000D03*
X397535400Y-81407000D03*
X393573000Y-81407000D03*
X389610600Y-81407000D03*
X385648200Y-81407000D03*
X381685800Y-81407000D03*
X377723400Y-81407000D03*
%TD*%
D23*
%TO.C,U6*%
X480008000Y-252984000D03*
D24*
X495808000Y-255524000D03*
D25*
X495808000Y-252984000D03*
X495808000Y-250444000D03*
%TD*%
D15*
%TO.C,R5*%
X33528000Y-123190000D03*
X43688000Y-123190000D03*
%TD*%
D13*
%TO.C,P11*%
X263398000Y-260477000D03*
X263398000Y-256514600D03*
X263398000Y-252552200D03*
X263398000Y-248589800D03*
X263398000Y-244627400D03*
X263398000Y-240665000D03*
X263398000Y-236702600D03*
X263398000Y-232740200D03*
X263398000Y-228777800D03*
X263398000Y-224815400D03*
X263398000Y-220853000D03*
X263398000Y-216890600D03*
X263398000Y-212928200D03*
X263398000Y-208965800D03*
X263398000Y-205003400D03*
X263398000Y-201041000D03*
X263398000Y-197078600D03*
X263398000Y-193116200D03*
X263398000Y-189153800D03*
X263398000Y-185191400D03*
X263398000Y-181229000D03*
X263398000Y-177266600D03*
X263398000Y-173304200D03*
X263398000Y-169341800D03*
X263398000Y-165379400D03*
X263398000Y-161417000D03*
X263398000Y-157454600D03*
X263398000Y-153492200D03*
X263398000Y-149529800D03*
X263398000Y-145567400D03*
X263398000Y-141605000D03*
X263398000Y-137642600D03*
X263398000Y-133680200D03*
X263398000Y-129717800D03*
X263398000Y-125755400D03*
X263398000Y-121793000D03*
X263398000Y-117830600D03*
X263398000Y-113868200D03*
X263398000Y-109905800D03*
X263398000Y-105943400D03*
X263398000Y-101981000D03*
X263398000Y-98018600D03*
X263398000Y-94056200D03*
X263398000Y-90093800D03*
X263398000Y-86131400D03*
X263398000Y-82169000D03*
X263398000Y-78206600D03*
X263398000Y-74244200D03*
X263398000Y-70281800D03*
X263398000Y-66319400D03*
%TD*%
%TO.C,P14*%
X328168000Y-260477000D03*
X328168000Y-256514600D03*
X328168000Y-252552200D03*
X328168000Y-248589800D03*
X328168000Y-244627400D03*
X328168000Y-240665000D03*
X328168000Y-236702600D03*
X328168000Y-232740200D03*
X328168000Y-228777800D03*
X328168000Y-224815400D03*
X328168000Y-220853000D03*
X328168000Y-216890600D03*
X328168000Y-212928200D03*
X328168000Y-208965800D03*
X328168000Y-205003400D03*
X328168000Y-201041000D03*
X328168000Y-197078600D03*
X328168000Y-193116200D03*
X328168000Y-189153800D03*
X328168000Y-185191400D03*
X328168000Y-181229000D03*
X328168000Y-177266600D03*
X328168000Y-173304200D03*
X328168000Y-169341800D03*
X328168000Y-165379400D03*
X328168000Y-161417000D03*
X328168000Y-157454600D03*
X328168000Y-153492200D03*
X328168000Y-149529800D03*
X328168000Y-145567400D03*
X328168000Y-141605000D03*
X328168000Y-137642600D03*
X328168000Y-133680200D03*
X328168000Y-129717800D03*
X328168000Y-125755400D03*
X328168000Y-121793000D03*
X328168000Y-117830600D03*
X328168000Y-113868200D03*
X328168000Y-109905800D03*
X328168000Y-105943400D03*
X328168000Y-101981000D03*
X328168000Y-98018600D03*
X328168000Y-94056200D03*
X328168000Y-90093800D03*
X328168000Y-86131400D03*
X328168000Y-82169000D03*
X328168000Y-78206600D03*
X328168000Y-74244200D03*
X328168000Y-70281800D03*
X328168000Y-66319400D03*
%TD*%
D15*
%TO.C,C14*%
X39624000Y-120142000D03*
X37124000Y-120142000D03*
%TD*%
D19*
%TO.C,J5*%
X210058000Y-151257000D03*
D20*
X210058000Y-147447000D03*
%TD*%
D13*
%TO.C,P6*%
X155448000Y-260324600D03*
X155448000Y-256362200D03*
X155448000Y-252399800D03*
X155448000Y-248437400D03*
X155448000Y-244475000D03*
X155448000Y-240512600D03*
X155448000Y-236550200D03*
X155448000Y-232587800D03*
X155448000Y-228625400D03*
X155448000Y-224663000D03*
X155448000Y-220700600D03*
X155448000Y-216738200D03*
X155448000Y-212775800D03*
X155448000Y-208813400D03*
X155448000Y-204851000D03*
X155448000Y-200888600D03*
X155448000Y-196926200D03*
X155448000Y-192963800D03*
X155448000Y-189001400D03*
X155448000Y-185039000D03*
X155448000Y-181076600D03*
X155448000Y-177114200D03*
X155448000Y-173151800D03*
X155448000Y-169189400D03*
X155448000Y-165227000D03*
X155448000Y-161264600D03*
X155448000Y-157302200D03*
X155448000Y-153339800D03*
X155448000Y-149377400D03*
X155448000Y-145415000D03*
X155448000Y-141452600D03*
X155448000Y-137490200D03*
X155448000Y-133527800D03*
X155448000Y-129565400D03*
X155448000Y-125603000D03*
X155448000Y-121640600D03*
X155448000Y-117678200D03*
X155448000Y-113715800D03*
X155448000Y-109753400D03*
X155448000Y-105791000D03*
X155448000Y-101828600D03*
X155448000Y-97866200D03*
X155448000Y-93903800D03*
X155448000Y-89941400D03*
X155448000Y-85979000D03*
X155448000Y-82016600D03*
X155448000Y-78054200D03*
X155448000Y-74091800D03*
X155448000Y-70129400D03*
X155448000Y-66167000D03*
%TD*%
D15*
%TO.C,C9*%
X364490000Y-269494000D03*
X364490000Y-266994000D03*
%TD*%
%TO.C,C6*%
X438678000Y-238506000D03*
X441178000Y-238506000D03*
%TD*%
D14*
%TO.C,U12*%
X495554000Y-227330000D03*
D15*
X495554000Y-224790000D03*
X495554000Y-222250000D03*
X495554000Y-219710000D03*
X495554000Y-217170000D03*
X495554000Y-214630000D03*
X495554000Y-212090000D03*
X487934000Y-212090000D03*
X487934000Y-214630000D03*
X487934000Y-217170000D03*
X487934000Y-219710000D03*
X487934000Y-222250000D03*
X487934000Y-224790000D03*
X487934000Y-227330000D03*
%TD*%
%TO.C,C3*%
X500126000Y-207772000D03*
X500126000Y-200272000D03*
%TD*%
D14*
%TO.C,U5*%
X426974000Y-266192000D03*
D15*
X426974000Y-263652000D03*
X426974000Y-261112000D03*
X426974000Y-258572000D03*
X426974000Y-256032000D03*
X426974000Y-253492000D03*
X426974000Y-250952000D03*
X426974000Y-248412000D03*
X426974000Y-245872000D03*
X426974000Y-243332000D03*
X419354000Y-243332000D03*
X419354000Y-245872000D03*
X419354000Y-248412000D03*
X419354000Y-250952000D03*
X419354000Y-253492000D03*
X419354000Y-256032000D03*
X419354000Y-258572000D03*
X419354000Y-261112000D03*
X419354000Y-263652000D03*
X419354000Y-266192000D03*
%TD*%
D12*
%TO.C,IO6*%
X492633000Y-176657000D03*
X488670600Y-176657000D03*
X484708200Y-176657000D03*
X480745800Y-176657000D03*
X476783400Y-176657000D03*
X472821000Y-176657000D03*
X468858600Y-176657000D03*
X464896200Y-176657000D03*
X460933800Y-176657000D03*
X456971400Y-176657000D03*
X453009000Y-176657000D03*
X449046600Y-176657000D03*
X445084200Y-176657000D03*
X441121800Y-176657000D03*
X437159400Y-176657000D03*
X433197000Y-176657000D03*
X429234600Y-176657000D03*
X425272200Y-176657000D03*
X421309800Y-176657000D03*
X417347400Y-176657000D03*
X413385000Y-176657000D03*
X409422600Y-176657000D03*
X405460200Y-176657000D03*
X401497800Y-176657000D03*
X397535400Y-176657000D03*
X393573000Y-176657000D03*
X389610600Y-176657000D03*
X385648200Y-176657000D03*
X381685800Y-176657000D03*
X377723400Y-176657000D03*
%TD*%
D14*
%TO.C,U3*%
X404368000Y-266192000D03*
D15*
X404368000Y-263652000D03*
X404368000Y-261112000D03*
X404368000Y-258572000D03*
X404368000Y-256032000D03*
X404368000Y-253492000D03*
X404368000Y-250952000D03*
X404368000Y-248412000D03*
X404368000Y-245872000D03*
X404368000Y-243332000D03*
X396748000Y-243332000D03*
X396748000Y-245872000D03*
X396748000Y-248412000D03*
X396748000Y-250952000D03*
X396748000Y-253492000D03*
X396748000Y-256032000D03*
X396748000Y-258572000D03*
X396748000Y-261112000D03*
X396748000Y-263652000D03*
X396748000Y-266192000D03*
%TD*%
D14*
%TO.C,SW2*%
X465582000Y-265938000D03*
D15*
X465582000Y-263398000D03*
X465582000Y-260858000D03*
X465582000Y-258318000D03*
X465582000Y-255778000D03*
X465582000Y-253238000D03*
X465582000Y-250698000D03*
X465582000Y-248158000D03*
X465582000Y-245618000D03*
X465582000Y-243078000D03*
X457962000Y-243078000D03*
X457962000Y-245618000D03*
X457962000Y-248158000D03*
X457962000Y-250698000D03*
X457962000Y-253238000D03*
X457962000Y-255778000D03*
X457962000Y-258318000D03*
X457962000Y-260858000D03*
X457962000Y-263398000D03*
X457962000Y-265938000D03*
%TD*%
D18*
%TO.C,RP7*%
X36703000Y-116967000D03*
D15*
X36703000Y-114427000D03*
X36703000Y-111887000D03*
X36703000Y-109347000D03*
X36703000Y-106807000D03*
X36703000Y-104267000D03*
X36703000Y-101727000D03*
X36703000Y-99187000D03*
X36703000Y-96647000D03*
X36703000Y-94107000D03*
%TD*%
D12*
%TO.C,IO0*%
X492633000Y-62357000D03*
X488670600Y-62357000D03*
X484708200Y-62357000D03*
X480745800Y-62357000D03*
X476783400Y-62357000D03*
X472821000Y-62357000D03*
X468858600Y-62357000D03*
X464896200Y-62357000D03*
X460933800Y-62357000D03*
X456971400Y-62357000D03*
X453009000Y-62357000D03*
X449046600Y-62357000D03*
X445084200Y-62357000D03*
X441121800Y-62357000D03*
X437159400Y-62357000D03*
X433197000Y-62357000D03*
X429234600Y-62357000D03*
X425272200Y-62357000D03*
X421309800Y-62357000D03*
X417347400Y-62357000D03*
X413385000Y-62357000D03*
X409422600Y-62357000D03*
X405460200Y-62357000D03*
X401497800Y-62357000D03*
X397535400Y-62357000D03*
X393573000Y-62357000D03*
X389610600Y-62357000D03*
X385648200Y-62357000D03*
X381685800Y-62357000D03*
X377723400Y-62357000D03*
%TD*%
D18*
%TO.C,RP12*%
X449326000Y-53975000D03*
D15*
X451866000Y-53975000D03*
X454406000Y-53975000D03*
X456946000Y-53975000D03*
X459486000Y-53975000D03*
X462026000Y-53975000D03*
X464566000Y-53975000D03*
X467106000Y-53975000D03*
X469646000Y-53975000D03*
X472186000Y-53975000D03*
%TD*%
D13*
%TO.C,P12*%
X284988000Y-260477000D03*
X284988000Y-256514600D03*
X284988000Y-252552200D03*
X284988000Y-248589800D03*
X284988000Y-244627400D03*
X284988000Y-240665000D03*
X284988000Y-236702600D03*
X284988000Y-232740200D03*
X284988000Y-228777800D03*
X284988000Y-224815400D03*
X284988000Y-220853000D03*
X284988000Y-216890600D03*
X284988000Y-212928200D03*
X284988000Y-208965800D03*
X284988000Y-205003400D03*
X284988000Y-201041000D03*
X284988000Y-197078600D03*
X284988000Y-193116200D03*
X284988000Y-189153800D03*
X284988000Y-185191400D03*
X284988000Y-181229000D03*
X284988000Y-177266600D03*
X284988000Y-173304200D03*
X284988000Y-169341800D03*
X284988000Y-165379400D03*
X284988000Y-161417000D03*
X284988000Y-157454600D03*
X284988000Y-153492200D03*
X284988000Y-149529800D03*
X284988000Y-145567400D03*
X284988000Y-141605000D03*
X284988000Y-137642600D03*
X284988000Y-133680200D03*
X284988000Y-129717800D03*
X284988000Y-125755400D03*
X284988000Y-121793000D03*
X284988000Y-117830600D03*
X284988000Y-113868200D03*
X284988000Y-109905800D03*
X284988000Y-105943400D03*
X284988000Y-101981000D03*
X284988000Y-98018600D03*
X284988000Y-94056200D03*
X284988000Y-90093800D03*
X284988000Y-86131400D03*
X284988000Y-82169000D03*
X284988000Y-78206600D03*
X284988000Y-74244200D03*
X284988000Y-70281800D03*
X284988000Y-66319400D03*
%TD*%
%TO.C,P9*%
X220218000Y-260477000D03*
X220218000Y-256514600D03*
X220218000Y-252552200D03*
X220218000Y-248589800D03*
X220218000Y-244627400D03*
X220218000Y-240665000D03*
X220218000Y-236702600D03*
X220218000Y-232740200D03*
X220218000Y-228777800D03*
X220218000Y-224815400D03*
X220218000Y-220853000D03*
X220218000Y-216890600D03*
X220218000Y-212928200D03*
X220218000Y-208965800D03*
X220218000Y-205003400D03*
X220218000Y-201041000D03*
X220218000Y-197078600D03*
X220218000Y-193116200D03*
X220218000Y-189153800D03*
X220218000Y-185191400D03*
X220218000Y-181229000D03*
X220218000Y-177266600D03*
X220218000Y-173304200D03*
X220218000Y-169341800D03*
X220218000Y-165379400D03*
X220218000Y-161417000D03*
X220218000Y-157454600D03*
X220218000Y-153492200D03*
X220218000Y-149529800D03*
X220218000Y-145567400D03*
X220218000Y-141605000D03*
X220218000Y-137642600D03*
X220218000Y-133680200D03*
X220218000Y-129717800D03*
X220218000Y-125755400D03*
X220218000Y-121793000D03*
X220218000Y-117830600D03*
X220218000Y-113868200D03*
X220218000Y-109905800D03*
X220218000Y-105943400D03*
X220218000Y-101981000D03*
X220218000Y-98018600D03*
X220218000Y-94056200D03*
X220218000Y-90093800D03*
X220218000Y-86131400D03*
X220218000Y-82169000D03*
X220218000Y-78206600D03*
X220218000Y-74244200D03*
X220218000Y-70281800D03*
X220218000Y-66319400D03*
%TD*%
D22*
%TO.C,H4*%
X200660000Y-270510000D03*
%TD*%
D18*
%TO.C,RP5*%
X36703000Y-193167000D03*
D15*
X36703000Y-190627000D03*
X36703000Y-188087000D03*
X36703000Y-185547000D03*
X36703000Y-183007000D03*
X36703000Y-180467000D03*
X36703000Y-177927000D03*
X36703000Y-175387000D03*
X36703000Y-172847000D03*
X36703000Y-170307000D03*
%TD*%
D22*
%TO.C,H1*%
X35560000Y-54610000D03*
%TD*%
D13*
%TO.C,P13*%
X306578000Y-260477000D03*
X306578000Y-256514600D03*
X306578000Y-252552200D03*
X306578000Y-248589800D03*
X306578000Y-244627400D03*
X306578000Y-240665000D03*
X306578000Y-236702600D03*
X306578000Y-232740200D03*
X306578000Y-228777800D03*
X306578000Y-224815400D03*
X306578000Y-220853000D03*
X306578000Y-216890600D03*
X306578000Y-212928200D03*
X306578000Y-208965800D03*
X306578000Y-205003400D03*
X306578000Y-201041000D03*
X306578000Y-197078600D03*
X306578000Y-193116200D03*
X306578000Y-189153800D03*
X306578000Y-185191400D03*
X306578000Y-181229000D03*
X306578000Y-177266600D03*
X306578000Y-173304200D03*
X306578000Y-169341800D03*
X306578000Y-165379400D03*
X306578000Y-161417000D03*
X306578000Y-157454600D03*
X306578000Y-153492200D03*
X306578000Y-149529800D03*
X306578000Y-145567400D03*
X306578000Y-141605000D03*
X306578000Y-137642600D03*
X306578000Y-133680200D03*
X306578000Y-129717800D03*
X306578000Y-125755400D03*
X306578000Y-121793000D03*
X306578000Y-117830600D03*
X306578000Y-113868200D03*
X306578000Y-109905800D03*
X306578000Y-105943400D03*
X306578000Y-101981000D03*
X306578000Y-98018600D03*
X306578000Y-94056200D03*
X306578000Y-90093800D03*
X306578000Y-86131400D03*
X306578000Y-82169000D03*
X306578000Y-78206600D03*
X306578000Y-74244200D03*
X306578000Y-70281800D03*
X306578000Y-66319400D03*
%TD*%
D21*
%TO.C,C1*%
X505714000Y-252486000D03*
D15*
X505714000Y-256286000D03*
%TD*%
D19*
%TO.C,J4*%
X231648000Y-163322000D03*
D20*
X231648000Y-159512000D03*
%TD*%
D16*
%TO.C,J2*%
X229743000Y-138557000D03*
D17*
X233553000Y-138557000D03*
%TD*%
D22*
%TO.C,H7*%
X505460000Y-54610000D03*
%TD*%
D13*
%TO.C,P4*%
X112268000Y-260324600D03*
X112268000Y-256362200D03*
X112268000Y-252399800D03*
X112268000Y-248437400D03*
X112268000Y-244475000D03*
X112268000Y-240512600D03*
X112268000Y-236550200D03*
X112268000Y-232587800D03*
X112268000Y-228625400D03*
X112268000Y-224663000D03*
X112268000Y-220700600D03*
X112268000Y-216738200D03*
X112268000Y-212775800D03*
X112268000Y-208813400D03*
X112268000Y-204851000D03*
X112268000Y-200888600D03*
X112268000Y-196926200D03*
X112268000Y-192963800D03*
X112268000Y-189001400D03*
X112268000Y-185039000D03*
X112268000Y-181076600D03*
X112268000Y-177114200D03*
X112268000Y-173151800D03*
X112268000Y-169189400D03*
X112268000Y-165227000D03*
X112268000Y-161264600D03*
X112268000Y-157302200D03*
X112268000Y-153339800D03*
X112268000Y-149377400D03*
X112268000Y-145415000D03*
X112268000Y-141452600D03*
X112268000Y-137490200D03*
X112268000Y-133527800D03*
X112268000Y-129565400D03*
X112268000Y-125603000D03*
X112268000Y-121640600D03*
X112268000Y-117678200D03*
X112268000Y-113715800D03*
X112268000Y-109753400D03*
X112268000Y-105791000D03*
X112268000Y-101828600D03*
X112268000Y-97866200D03*
X112268000Y-93903800D03*
X112268000Y-89941400D03*
X112268000Y-85979000D03*
X112268000Y-82016600D03*
X112268000Y-78054200D03*
X112268000Y-74091800D03*
X112268000Y-70129400D03*
X112268000Y-66167000D03*
%TD*%
%TO.C,P2*%
X69088000Y-260477000D03*
X69088000Y-256514600D03*
X69088000Y-252552200D03*
X69088000Y-248589800D03*
X69088000Y-244627400D03*
X69088000Y-240665000D03*
X69088000Y-236702600D03*
X69088000Y-232740200D03*
X69088000Y-228777800D03*
X69088000Y-224815400D03*
X69088000Y-220853000D03*
X69088000Y-216890600D03*
X69088000Y-212928200D03*
X69088000Y-208965800D03*
X69088000Y-205003400D03*
X69088000Y-201041000D03*
X69088000Y-197078600D03*
X69088000Y-193116200D03*
X69088000Y-189153800D03*
X69088000Y-185191400D03*
X69088000Y-181229000D03*
X69088000Y-177266600D03*
X69088000Y-173304200D03*
X69088000Y-169341800D03*
X69088000Y-165379400D03*
X69088000Y-161417000D03*
X69088000Y-157454600D03*
X69088000Y-153492200D03*
X69088000Y-149529800D03*
X69088000Y-145567400D03*
X69088000Y-141605000D03*
X69088000Y-137642600D03*
X69088000Y-133680200D03*
X69088000Y-129717800D03*
X69088000Y-125755400D03*
X69088000Y-121793000D03*
X69088000Y-117830600D03*
X69088000Y-113868200D03*
X69088000Y-109905800D03*
X69088000Y-105943400D03*
X69088000Y-101981000D03*
X69088000Y-98018600D03*
X69088000Y-94056200D03*
X69088000Y-90093800D03*
X69088000Y-86131400D03*
X69088000Y-82169000D03*
X69088000Y-78206600D03*
X69088000Y-74244200D03*
X69088000Y-70281800D03*
X69088000Y-66319400D03*
%TD*%
D18*
%TO.C,RP14*%
X452374000Y-265938000D03*
D15*
X452374000Y-263398000D03*
X452374000Y-260858000D03*
X452374000Y-258318000D03*
X452374000Y-255778000D03*
X452374000Y-253238000D03*
X452374000Y-250698000D03*
X452374000Y-248158000D03*
X452374000Y-245618000D03*
X452374000Y-243078000D03*
%TD*%
%TO.C,C7*%
X443992000Y-270550000D03*
X443992000Y-273050000D03*
%TD*%
%TO.C,R3*%
X33528000Y-129286000D03*
X43688000Y-129286000D03*
%TD*%
%TO.C,C15*%
X39624000Y-196342000D03*
X37124000Y-196342000D03*
%TD*%
D18*
%TO.C,RP15*%
X468630000Y-265938000D03*
D15*
X468630000Y-263398000D03*
X468630000Y-260858000D03*
X468630000Y-258318000D03*
X468630000Y-255778000D03*
X468630000Y-253238000D03*
X468630000Y-250698000D03*
X468630000Y-248158000D03*
X468630000Y-245618000D03*
X468630000Y-243078000D03*
%TD*%
M02*
