%TF.GenerationSoftware,KiCad,Pcbnew,9.0.9-9.0.9~ubuntu24.04.1*%
%TF.CreationDate,2026-07-13T18:18:35+02:00*%
%TF.ProjectId,GIMIX Mainboard,47494d49-5820-44d6-9169-6e626f617264,rev?*%
%TF.SameCoordinates,Original*%
%TF.FileFunction,Legend,Bot*%
%TF.FilePolarity,Positive*%
%FSLAX46Y46*%
G04 Gerber Fmt 4.6, Leading zero omitted, Abs format (unit mm)*
G04 Created by KiCad (PCBNEW 9.0.9-9.0.9~ubuntu24.04.1) date 2026-07-13 18:18:35*
%MOMM*%
%LPD*%
G01*
G04 APERTURE LIST*
%ADD10C,0.200000*%
G04 APERTURE END LIST*
D10*
X233699279Y-131060600D02*
X232556422Y-131060600D01*
X233127850Y-131632028D02*
X233127850Y-130489171D01*
X231056421Y-131632028D02*
X231913564Y-131632028D01*
X231484993Y-131632028D02*
X231484993Y-130132028D01*
X231484993Y-130132028D02*
X231627850Y-130346314D01*
X231627850Y-130346314D02*
X231770707Y-130489171D01*
X231770707Y-130489171D02*
X231913564Y-130560600D01*
X229699279Y-130132028D02*
X230413565Y-130132028D01*
X230413565Y-130132028D02*
X230484993Y-130846314D01*
X230484993Y-130846314D02*
X230413565Y-130774885D01*
X230413565Y-130774885D02*
X230270708Y-130703457D01*
X230270708Y-130703457D02*
X229913565Y-130703457D01*
X229913565Y-130703457D02*
X229770708Y-130774885D01*
X229770708Y-130774885D02*
X229699279Y-130846314D01*
X229699279Y-130846314D02*
X229627850Y-130989171D01*
X229627850Y-130989171D02*
X229627850Y-131346314D01*
X229627850Y-131346314D02*
X229699279Y-131489171D01*
X229699279Y-131489171D02*
X229770708Y-131560600D01*
X229770708Y-131560600D02*
X229913565Y-131632028D01*
X229913565Y-131632028D02*
X230270708Y-131632028D01*
X230270708Y-131632028D02*
X230413565Y-131560600D01*
X230413565Y-131560600D02*
X230484993Y-131489171D01*
X229199279Y-130132028D02*
X228699279Y-131632028D01*
X228699279Y-131632028D02*
X228199279Y-130132028D01*
X212617279Y-132838600D02*
X211474422Y-132838600D01*
X209974421Y-133410028D02*
X210831564Y-133410028D01*
X210402993Y-133410028D02*
X210402993Y-131910028D01*
X210402993Y-131910028D02*
X210545850Y-132124314D01*
X210545850Y-132124314D02*
X210688707Y-132267171D01*
X210688707Y-132267171D02*
X210831564Y-132338600D01*
X208617279Y-131910028D02*
X209331565Y-131910028D01*
X209331565Y-131910028D02*
X209402993Y-132624314D01*
X209402993Y-132624314D02*
X209331565Y-132552885D01*
X209331565Y-132552885D02*
X209188708Y-132481457D01*
X209188708Y-132481457D02*
X208831565Y-132481457D01*
X208831565Y-132481457D02*
X208688708Y-132552885D01*
X208688708Y-132552885D02*
X208617279Y-132624314D01*
X208617279Y-132624314D02*
X208545850Y-132767171D01*
X208545850Y-132767171D02*
X208545850Y-133124314D01*
X208545850Y-133124314D02*
X208617279Y-133267171D01*
X208617279Y-133267171D02*
X208688708Y-133338600D01*
X208688708Y-133338600D02*
X208831565Y-133410028D01*
X208831565Y-133410028D02*
X209188708Y-133410028D01*
X209188708Y-133410028D02*
X209331565Y-133338600D01*
X209331565Y-133338600D02*
X209402993Y-133267171D01*
X208117279Y-131910028D02*
X207617279Y-133410028D01*
X207617279Y-133410028D02*
X207117279Y-131910028D01*
X235613457Y-160532435D02*
X235542028Y-160389578D01*
X235542028Y-160389578D02*
X235542028Y-160175292D01*
X235542028Y-160175292D02*
X235613457Y-159961006D01*
X235613457Y-159961006D02*
X235756314Y-159818149D01*
X235756314Y-159818149D02*
X235899171Y-159746720D01*
X235899171Y-159746720D02*
X236184885Y-159675292D01*
X236184885Y-159675292D02*
X236399171Y-159675292D01*
X236399171Y-159675292D02*
X236684885Y-159746720D01*
X236684885Y-159746720D02*
X236827742Y-159818149D01*
X236827742Y-159818149D02*
X236970600Y-159961006D01*
X236970600Y-159961006D02*
X237042028Y-160175292D01*
X237042028Y-160175292D02*
X237042028Y-160318149D01*
X237042028Y-160318149D02*
X236970600Y-160532435D01*
X236970600Y-160532435D02*
X236899171Y-160603863D01*
X236899171Y-160603863D02*
X236399171Y-160603863D01*
X236399171Y-160603863D02*
X236399171Y-160318149D01*
X237042028Y-161246720D02*
X235542028Y-161246720D01*
X235542028Y-161246720D02*
X237042028Y-162103863D01*
X237042028Y-162103863D02*
X235542028Y-162103863D01*
X237042028Y-162818149D02*
X235542028Y-162818149D01*
X235542028Y-162818149D02*
X235542028Y-163175292D01*
X235542028Y-163175292D02*
X235613457Y-163389578D01*
X235613457Y-163389578D02*
X235756314Y-163532435D01*
X235756314Y-163532435D02*
X235899171Y-163603864D01*
X235899171Y-163603864D02*
X236184885Y-163675292D01*
X236184885Y-163675292D02*
X236399171Y-163675292D01*
X236399171Y-163675292D02*
X236684885Y-163603864D01*
X236684885Y-163603864D02*
X236827742Y-163532435D01*
X236827742Y-163532435D02*
X236970600Y-163389578D01*
X236970600Y-163389578D02*
X237042028Y-163175292D01*
X237042028Y-163175292D02*
X237042028Y-162818149D01*
X236724600Y-143998720D02*
X236724600Y-145141578D01*
X237296028Y-144570149D02*
X236153171Y-144570149D01*
X236438885Y-146070149D02*
X236367457Y-145927292D01*
X236367457Y-145927292D02*
X236296028Y-145855863D01*
X236296028Y-145855863D02*
X236153171Y-145784435D01*
X236153171Y-145784435D02*
X236081742Y-145784435D01*
X236081742Y-145784435D02*
X235938885Y-145855863D01*
X235938885Y-145855863D02*
X235867457Y-145927292D01*
X235867457Y-145927292D02*
X235796028Y-146070149D01*
X235796028Y-146070149D02*
X235796028Y-146355863D01*
X235796028Y-146355863D02*
X235867457Y-146498721D01*
X235867457Y-146498721D02*
X235938885Y-146570149D01*
X235938885Y-146570149D02*
X236081742Y-146641578D01*
X236081742Y-146641578D02*
X236153171Y-146641578D01*
X236153171Y-146641578D02*
X236296028Y-146570149D01*
X236296028Y-146570149D02*
X236367457Y-146498721D01*
X236367457Y-146498721D02*
X236438885Y-146355863D01*
X236438885Y-146355863D02*
X236438885Y-146070149D01*
X236438885Y-146070149D02*
X236510314Y-145927292D01*
X236510314Y-145927292D02*
X236581742Y-145855863D01*
X236581742Y-145855863D02*
X236724600Y-145784435D01*
X236724600Y-145784435D02*
X237010314Y-145784435D01*
X237010314Y-145784435D02*
X237153171Y-145855863D01*
X237153171Y-145855863D02*
X237224600Y-145927292D01*
X237224600Y-145927292D02*
X237296028Y-146070149D01*
X237296028Y-146070149D02*
X237296028Y-146355863D01*
X237296028Y-146355863D02*
X237224600Y-146498721D01*
X237224600Y-146498721D02*
X237153171Y-146570149D01*
X237153171Y-146570149D02*
X237010314Y-146641578D01*
X237010314Y-146641578D02*
X236724600Y-146641578D01*
X236724600Y-146641578D02*
X236581742Y-146570149D01*
X236581742Y-146570149D02*
X236510314Y-146498721D01*
X236510314Y-146498721D02*
X236438885Y-146355863D01*
X235796028Y-147070149D02*
X237296028Y-147570149D01*
X237296028Y-147570149D02*
X235796028Y-148070149D01*
X237296028Y-149713005D02*
X236296028Y-149713005D01*
X236581742Y-149713005D02*
X236438885Y-149784434D01*
X236438885Y-149784434D02*
X236367457Y-149855863D01*
X236367457Y-149855863D02*
X236296028Y-149998720D01*
X236296028Y-149998720D02*
X236296028Y-150141577D01*
X237296028Y-150641576D02*
X236296028Y-150641576D01*
X235796028Y-150641576D02*
X235867457Y-150570148D01*
X235867457Y-150570148D02*
X235938885Y-150641576D01*
X235938885Y-150641576D02*
X235867457Y-150713005D01*
X235867457Y-150713005D02*
X235796028Y-150641576D01*
X235796028Y-150641576D02*
X235938885Y-150641576D01*
X236296028Y-151998720D02*
X237510314Y-151998720D01*
X237510314Y-151998720D02*
X237653171Y-151927291D01*
X237653171Y-151927291D02*
X237724600Y-151855862D01*
X237724600Y-151855862D02*
X237796028Y-151713005D01*
X237796028Y-151713005D02*
X237796028Y-151498720D01*
X237796028Y-151498720D02*
X237724600Y-151355862D01*
X237224600Y-151998720D02*
X237296028Y-151855862D01*
X237296028Y-151855862D02*
X237296028Y-151570148D01*
X237296028Y-151570148D02*
X237224600Y-151427291D01*
X237224600Y-151427291D02*
X237153171Y-151355862D01*
X237153171Y-151355862D02*
X237010314Y-151284434D01*
X237010314Y-151284434D02*
X236581742Y-151284434D01*
X236581742Y-151284434D02*
X236438885Y-151355862D01*
X236438885Y-151355862D02*
X236367457Y-151427291D01*
X236367457Y-151427291D02*
X236296028Y-151570148D01*
X236296028Y-151570148D02*
X236296028Y-151855862D01*
X236296028Y-151855862D02*
X236367457Y-151998720D01*
X237296028Y-152713005D02*
X235796028Y-152713005D01*
X237296028Y-153355863D02*
X236510314Y-153355863D01*
X236510314Y-153355863D02*
X236367457Y-153284434D01*
X236367457Y-153284434D02*
X236296028Y-153141577D01*
X236296028Y-153141577D02*
X236296028Y-152927291D01*
X236296028Y-152927291D02*
X236367457Y-152784434D01*
X236367457Y-152784434D02*
X236438885Y-152713005D01*
X236296028Y-153855863D02*
X236296028Y-154427291D01*
X235796028Y-154070148D02*
X237081742Y-154070148D01*
X237081742Y-154070148D02*
X237224600Y-154141577D01*
X237224600Y-154141577D02*
X237296028Y-154284434D01*
X237296028Y-154284434D02*
X237296028Y-154427291D01*
X214880600Y-145522720D02*
X214880600Y-146665578D01*
X215452028Y-146094149D02*
X214309171Y-146094149D01*
X214594885Y-147594149D02*
X214523457Y-147451292D01*
X214523457Y-147451292D02*
X214452028Y-147379863D01*
X214452028Y-147379863D02*
X214309171Y-147308435D01*
X214309171Y-147308435D02*
X214237742Y-147308435D01*
X214237742Y-147308435D02*
X214094885Y-147379863D01*
X214094885Y-147379863D02*
X214023457Y-147451292D01*
X214023457Y-147451292D02*
X213952028Y-147594149D01*
X213952028Y-147594149D02*
X213952028Y-147879863D01*
X213952028Y-147879863D02*
X214023457Y-148022721D01*
X214023457Y-148022721D02*
X214094885Y-148094149D01*
X214094885Y-148094149D02*
X214237742Y-148165578D01*
X214237742Y-148165578D02*
X214309171Y-148165578D01*
X214309171Y-148165578D02*
X214452028Y-148094149D01*
X214452028Y-148094149D02*
X214523457Y-148022721D01*
X214523457Y-148022721D02*
X214594885Y-147879863D01*
X214594885Y-147879863D02*
X214594885Y-147594149D01*
X214594885Y-147594149D02*
X214666314Y-147451292D01*
X214666314Y-147451292D02*
X214737742Y-147379863D01*
X214737742Y-147379863D02*
X214880600Y-147308435D01*
X214880600Y-147308435D02*
X215166314Y-147308435D01*
X215166314Y-147308435D02*
X215309171Y-147379863D01*
X215309171Y-147379863D02*
X215380600Y-147451292D01*
X215380600Y-147451292D02*
X215452028Y-147594149D01*
X215452028Y-147594149D02*
X215452028Y-147879863D01*
X215452028Y-147879863D02*
X215380600Y-148022721D01*
X215380600Y-148022721D02*
X215309171Y-148094149D01*
X215309171Y-148094149D02*
X215166314Y-148165578D01*
X215166314Y-148165578D02*
X214880600Y-148165578D01*
X214880600Y-148165578D02*
X214737742Y-148094149D01*
X214737742Y-148094149D02*
X214666314Y-148022721D01*
X214666314Y-148022721D02*
X214594885Y-147879863D01*
X213952028Y-148594149D02*
X215452028Y-149094149D01*
X215452028Y-149094149D02*
X213952028Y-149594149D01*
X215452028Y-151451291D02*
X215380600Y-151308434D01*
X215380600Y-151308434D02*
X215237742Y-151237005D01*
X215237742Y-151237005D02*
X213952028Y-151237005D01*
X215380600Y-152594148D02*
X215452028Y-152451291D01*
X215452028Y-152451291D02*
X215452028Y-152165577D01*
X215452028Y-152165577D02*
X215380600Y-152022719D01*
X215380600Y-152022719D02*
X215237742Y-151951291D01*
X215237742Y-151951291D02*
X214666314Y-151951291D01*
X214666314Y-151951291D02*
X214523457Y-152022719D01*
X214523457Y-152022719D02*
X214452028Y-152165577D01*
X214452028Y-152165577D02*
X214452028Y-152451291D01*
X214452028Y-152451291D02*
X214523457Y-152594148D01*
X214523457Y-152594148D02*
X214666314Y-152665577D01*
X214666314Y-152665577D02*
X214809171Y-152665577D01*
X214809171Y-152665577D02*
X214952028Y-151951291D01*
X214452028Y-153094148D02*
X214452028Y-153665576D01*
X215452028Y-153308433D02*
X214166314Y-153308433D01*
X214166314Y-153308433D02*
X214023457Y-153379862D01*
X214023457Y-153379862D02*
X213952028Y-153522719D01*
X213952028Y-153522719D02*
X213952028Y-153665576D01*
X214452028Y-153951291D02*
X214452028Y-154522719D01*
X213952028Y-154165576D02*
X215237742Y-154165576D01*
X215237742Y-154165576D02*
X215380600Y-154237005D01*
X215380600Y-154237005D02*
X215452028Y-154379862D01*
X215452028Y-154379862D02*
X215452028Y-154522719D01*
X214023457Y-161040435D02*
X213952028Y-160897578D01*
X213952028Y-160897578D02*
X213952028Y-160683292D01*
X213952028Y-160683292D02*
X214023457Y-160469006D01*
X214023457Y-160469006D02*
X214166314Y-160326149D01*
X214166314Y-160326149D02*
X214309171Y-160254720D01*
X214309171Y-160254720D02*
X214594885Y-160183292D01*
X214594885Y-160183292D02*
X214809171Y-160183292D01*
X214809171Y-160183292D02*
X215094885Y-160254720D01*
X215094885Y-160254720D02*
X215237742Y-160326149D01*
X215237742Y-160326149D02*
X215380600Y-160469006D01*
X215380600Y-160469006D02*
X215452028Y-160683292D01*
X215452028Y-160683292D02*
X215452028Y-160826149D01*
X215452028Y-160826149D02*
X215380600Y-161040435D01*
X215380600Y-161040435D02*
X215309171Y-161111863D01*
X215309171Y-161111863D02*
X214809171Y-161111863D01*
X214809171Y-161111863D02*
X214809171Y-160826149D01*
X215452028Y-161754720D02*
X213952028Y-161754720D01*
X213952028Y-161754720D02*
X215452028Y-162611863D01*
X215452028Y-162611863D02*
X213952028Y-162611863D01*
X215452028Y-163326149D02*
X213952028Y-163326149D01*
X213952028Y-163326149D02*
X213952028Y-163683292D01*
X213952028Y-163683292D02*
X214023457Y-163897578D01*
X214023457Y-163897578D02*
X214166314Y-164040435D01*
X214166314Y-164040435D02*
X214309171Y-164111864D01*
X214309171Y-164111864D02*
X214594885Y-164183292D01*
X214594885Y-164183292D02*
X214809171Y-164183292D01*
X214809171Y-164183292D02*
X215094885Y-164111864D01*
X215094885Y-164111864D02*
X215237742Y-164040435D01*
X215237742Y-164040435D02*
X215380600Y-163897578D01*
X215380600Y-163897578D02*
X215452028Y-163683292D01*
X215452028Y-163683292D02*
X215452028Y-163326149D01*
M02*
