%TF.GenerationSoftware,KiCad,Pcbnew,9.0.9-9.0.9~ubuntu24.04.1*%
%TF.CreationDate,2026-07-16T16:29:10+02:00*%
%TF.ProjectId,GIMIX DMA Floppy,47494d49-5820-4444-9d41-20466c6f7070,rev?*%
%TF.SameCoordinates,Original*%
%TF.FileFunction,Legend,Bot*%
%TF.FilePolarity,Positive*%
%FSLAX46Y46*%
G04 Gerber Fmt 4.6, Leading zero omitted, Abs format (unit mm)*
G04 Created by KiCad (PCBNEW 9.0.9-9.0.9~ubuntu24.04.1) date 2026-07-16 16:29:10*
%MOMM*%
%LPD*%
G01*
G04 APERTURE LIST*
%ADD10C,0.150000*%
%ADD11C,0.100000*%
%ADD12C,0.120000*%
G04 APERTURE END LIST*
D10*
X232180928Y-60945580D02*
X232228547Y-60993200D01*
X232228547Y-60993200D02*
X232371404Y-61040819D01*
X232371404Y-61040819D02*
X232466642Y-61040819D01*
X232466642Y-61040819D02*
X232609499Y-60993200D01*
X232609499Y-60993200D02*
X232704737Y-60897961D01*
X232704737Y-60897961D02*
X232752356Y-60802723D01*
X232752356Y-60802723D02*
X232799975Y-60612247D01*
X232799975Y-60612247D02*
X232799975Y-60469390D01*
X232799975Y-60469390D02*
X232752356Y-60278914D01*
X232752356Y-60278914D02*
X232704737Y-60183676D01*
X232704737Y-60183676D02*
X232609499Y-60088438D01*
X232609499Y-60088438D02*
X232466642Y-60040819D01*
X232466642Y-60040819D02*
X232371404Y-60040819D01*
X232371404Y-60040819D02*
X232228547Y-60088438D01*
X232228547Y-60088438D02*
X232180928Y-60136057D01*
X231847594Y-61040819D02*
X231323785Y-60374152D01*
X231847594Y-60374152D02*
X231323785Y-61040819D01*
X230419023Y-61040819D02*
X230990451Y-61040819D01*
X230704737Y-61040819D02*
X230704737Y-60040819D01*
X230704737Y-60040819D02*
X230799975Y-60183676D01*
X230799975Y-60183676D02*
X230895213Y-60278914D01*
X230895213Y-60278914D02*
X230990451Y-60326533D01*
D11*
X240545857Y-65902180D02*
X240593476Y-65949800D01*
X240593476Y-65949800D02*
X240736333Y-65997419D01*
X240736333Y-65997419D02*
X240831571Y-65997419D01*
X240831571Y-65997419D02*
X240974428Y-65949800D01*
X240974428Y-65949800D02*
X241069666Y-65854561D01*
X241069666Y-65854561D02*
X241117285Y-65759323D01*
X241117285Y-65759323D02*
X241164904Y-65568847D01*
X241164904Y-65568847D02*
X241164904Y-65425990D01*
X241164904Y-65425990D02*
X241117285Y-65235514D01*
X241117285Y-65235514D02*
X241069666Y-65140276D01*
X241069666Y-65140276D02*
X240974428Y-65045038D01*
X240974428Y-65045038D02*
X240831571Y-64997419D01*
X240831571Y-64997419D02*
X240736333Y-64997419D01*
X240736333Y-64997419D02*
X240593476Y-65045038D01*
X240593476Y-65045038D02*
X240545857Y-65092657D01*
X240212523Y-64997419D02*
X239593476Y-64997419D01*
X239593476Y-64997419D02*
X239926809Y-65378371D01*
X239926809Y-65378371D02*
X239783952Y-65378371D01*
X239783952Y-65378371D02*
X239688714Y-65425990D01*
X239688714Y-65425990D02*
X239641095Y-65473609D01*
X239641095Y-65473609D02*
X239593476Y-65568847D01*
X239593476Y-65568847D02*
X239593476Y-65806942D01*
X239593476Y-65806942D02*
X239641095Y-65902180D01*
X239641095Y-65902180D02*
X239688714Y-65949800D01*
X239688714Y-65949800D02*
X239783952Y-65997419D01*
X239783952Y-65997419D02*
X240069666Y-65997419D01*
X240069666Y-65997419D02*
X240164904Y-65949800D01*
X240164904Y-65949800D02*
X240212523Y-65902180D01*
X238641095Y-65997419D02*
X239212523Y-65997419D01*
X238926809Y-65997419D02*
X238926809Y-64997419D01*
X238926809Y-64997419D02*
X239022047Y-65140276D01*
X239022047Y-65140276D02*
X239117285Y-65235514D01*
X239117285Y-65235514D02*
X239212523Y-65283133D01*
D10*
X242086928Y-60993580D02*
X242134547Y-61041200D01*
X242134547Y-61041200D02*
X242277404Y-61088819D01*
X242277404Y-61088819D02*
X242372642Y-61088819D01*
X242372642Y-61088819D02*
X242515499Y-61041200D01*
X242515499Y-61041200D02*
X242610737Y-60945961D01*
X242610737Y-60945961D02*
X242658356Y-60850723D01*
X242658356Y-60850723D02*
X242705975Y-60660247D01*
X242705975Y-60660247D02*
X242705975Y-60517390D01*
X242705975Y-60517390D02*
X242658356Y-60326914D01*
X242658356Y-60326914D02*
X242610737Y-60231676D01*
X242610737Y-60231676D02*
X242515499Y-60136438D01*
X242515499Y-60136438D02*
X242372642Y-60088819D01*
X242372642Y-60088819D02*
X242277404Y-60088819D01*
X242277404Y-60088819D02*
X242134547Y-60136438D01*
X242134547Y-60136438D02*
X242086928Y-60184057D01*
X241753594Y-61088819D02*
X241229785Y-60422152D01*
X241753594Y-60422152D02*
X241229785Y-61088819D01*
X240896451Y-60184057D02*
X240848832Y-60136438D01*
X240848832Y-60136438D02*
X240753594Y-60088819D01*
X240753594Y-60088819D02*
X240515499Y-60088819D01*
X240515499Y-60088819D02*
X240420261Y-60136438D01*
X240420261Y-60136438D02*
X240372642Y-60184057D01*
X240372642Y-60184057D02*
X240325023Y-60279295D01*
X240325023Y-60279295D02*
X240325023Y-60374533D01*
X240325023Y-60374533D02*
X240372642Y-60517390D01*
X240372642Y-60517390D02*
X240944070Y-61088819D01*
X240944070Y-61088819D02*
X240325023Y-61088819D01*
D12*
%TO.C,Cx1*%
X232320752Y-61526000D02*
X230898248Y-61526000D01*
X232320752Y-63346000D02*
X230898248Y-63346000D01*
D11*
%TO.C,C31*%
X244673334Y-62547500D02*
G75*
G02*
X235132666Y-62547500I-4770334J0D01*
G01*
X235132666Y-62547500D02*
G75*
G02*
X244673334Y-62547500I4770334J0D01*
G01*
D12*
%TO.C,Cx2*%
X242226752Y-61574000D02*
X240804248Y-61574000D01*
X242226752Y-63394000D02*
X240804248Y-63394000D01*
%TD*%
M02*
