M48
; DRILL file {KiCad 9.0.9-9.0.9~ubuntu24.04.1} date 2026-07-13T19:42:49+0200
; FORMAT={-:-/ absolute / metric / decimal}
; #@! TF.CreationDate,2026-07-13T19:42:49+02:00
; #@! TF.GenerationSoftware,Kicad,Pcbnew,9.0.9-9.0.9~ubuntu24.04.1
; #@! TF.FileFunction,MixedPlating,1,2
FMAT,2
METRIC
; #@! TA.AperFunction,Plated,PTH,ViaDrill
T1C0.600
; #@! TA.AperFunction,Plated,PTH,ComponentDrill
T2C0.800
; #@! TA.AperFunction,Plated,PTH,ComponentDrill
T3C0.900
; #@! TA.AperFunction,Plated,PTH,ComponentDrill
T4C1.000
; #@! TA.AperFunction,Plated,PTH,ComponentDrill
T5C1.200
; #@! TA.AperFunction,Plated,PTH,ComponentDrill
T6C1.300
; #@! TA.AperFunction,Plated,PTH,ComponentDrill
T7C1.520
; #@! TA.AperFunction,NonPlated,NPTH,ComponentDrill
T8C3.500
%
G90
G05
T1
X22.606Y-53.848
X23.114Y-30.226
X27.686Y-108.966
X28.956Y-72.978
X29.337Y-91.059
X30.734Y-74.168
X30.988Y-40.132
X32.004Y-38.608
X32.004Y-75.438
X34.544Y-38.608
X35.814Y-39.878
X36.322Y-79.502
X37.338Y-74.422
X40.386Y-83.312
X41.148Y-80.772
X43.688Y-80.772
X45.212Y-75.692
X45.974Y-108.712
X46.829Y-38.828
X47.652Y-49.54
X49.022Y-51.816
X49.276Y-41.91
X50.292Y-79.502
X51.308Y-42.164
X51.562Y-78.232
X52.324Y-162.306
X52.832Y-73.406
X53.594Y-38.608
X55.372Y-70.866
X55.626Y-40.132
X56.134Y-97.79
X58.928Y-112.903
X59.817Y-114.427
X60.244Y-48.647
X60.457Y-45.217
X60.525Y-53.013
X62.372Y-155.994
X62.738Y-64.77
X64.516Y-105.156
X65.024Y-86.106
X66.294Y-43.214
X66.294Y-156.082
X66.548Y-87.122
X67.564Y-37.974
X67.818Y-88.138
X68.834Y-89.662
X70.358Y-40.132
X71.374Y-106.426
X71.628Y-37.846
X72.518Y-48.006
X72.898Y-40.894
X72.898Y-74.422
X74.168Y-38.354
X74.422Y-75.692
X74.738Y-97.552
X75.438Y-41.91
X76.962Y-89.916
X77.978Y-143.002
X78.486Y-65.278
X80.338Y-107.696
X80.518Y-115.57
X81.388Y-90.551
X81.788Y-112.776
X81.788Y-122.428
X82.55Y-162.306
X83.566Y-70.92
X83.82Y-114.046
X84.018Y-111.506
X84.074Y-39.878
X84.435Y-144.887
X85.431Y-97.512
X85.47Y-102.615
X85.598Y-149.86
X85.852Y-41.148
X85.852Y-46.552
X87.122Y-87.122
X87.4Y-74.954
X87.432Y-129.54
X88.138Y-78.74
X88.9Y-70.104
X89.408Y-110.236
X89.916Y-74.778
X89.916Y-79.502
X90.53Y-66.294
X91.186Y-38.608
X91.186Y-75.692
X91.186Y-124.206
X91.44Y-111.76
X91.44Y-134.874
X91.694Y-51.816
X91.948Y-66.166
X91.948Y-92.456
X92.075Y-28.195
X92.456Y-80.01
X92.456Y-105.41
X92.753Y-59.501
X93.218Y-91.132
X93.472Y-122.936
X94.396Y-29.048
X95.25Y-73.406
X95.25Y-137.668
X95.758Y-114.046
X97.028Y-73.406
X97.29Y-105.246
X97.536Y-97.536
X98.044Y-40.132
X98.298Y-139.7
X99.06Y-131.064
X99.314Y-82.042
X99.314Y-122.428
X99.568Y-137.16
X100.076Y-41.148
X100.076Y-86.394
X100.584Y-59.182
X101.853Y-78.684
X102.108Y-140.462
X102.108Y-144.272
X103.632Y-78.43
X103.632Y-84.836
X103.632Y-104.14
X103.822Y-40.195
X103.836Y-109.267
X104.14Y-51.562
X104.21Y-54.032
X105.918Y-49.276
X105.918Y-136.144
X106.172Y-84.836
X108.712Y-73.406
X109.982Y-107.95
X111.252Y-94.234
X111.506Y-41.148
X111.506Y-73.406
X111.76Y-46.736
X112.268Y-131.987
X112.522Y-114.808
X112.522Y-135.128
X113.03Y-127.0
X113.41Y-54.356
X113.538Y-148.082
X113.792Y-73.406
X114.046Y-41.402
X115.062Y-123.19
X115.824Y-148.52
X116.586Y-69.85
X116.586Y-99.695
X116.586Y-114.808
X116.586Y-94.488
X117.602Y-130.81
X117.936Y-111.633
X118.364Y-46.736
X118.872Y-73.66
X119.696Y-129.247
X120.709Y-120.337
X120.888Y-91.44
X121.768Y-81.497
X121.92Y-128.27
X122.096Y-63.998
X122.682Y-133.443
X122.809Y-122.047
X123.698Y-151.13
X123.708Y-148.555
X123.952Y-146.05
X124.032Y-140.97
X124.206Y-120.65
X125.222Y-38.1
X125.476Y-119.38
X125.693Y-111.796
X125.857Y-62.611
X126.746Y-67.437
X126.746Y-116.84
X128.186Y-155.956
X128.27Y-132.08
X129.54Y-133.35
X130.302Y-38.354
X130.556Y-162.306
X131.133Y-143.307
X131.918Y-107.604
X131.995Y-80.716
X133.501Y-46.502
X135.89Y-133.604
X136.55Y-79.516
X137.414Y-55.626
X138.684Y-130.696
X139.065Y-47.752
X139.446Y-134.62
X139.736Y-98.933
X139.954Y-107.696
X140.462Y-55.372
X140.716Y-45.212
X141.478Y-135.128
X141.986Y-142.136
X142.24Y-152.4
X144.005Y-134.33
X144.272Y-97.282
X144.399Y-41.275
X145.288Y-38.1
X145.796Y-106.934
X146.05Y-103.886
X146.177Y-72.517
X146.584Y-46.446
X147.447Y-73.66
X147.574Y-40.767
X148.336Y-127.034
X148.463Y-129.54
X149.352Y-48.546
X149.385Y-46.406
X149.606Y-91.44
X149.606Y-125.476
X149.606Y-153.416
X149.86Y-73.787
X150.622Y-128.016
X150.876Y-35.814
X150.876Y-114.046
X150.876Y-123.698
X151.13Y-58.801
X151.495Y-51.013
X151.793Y-134.226
X152.273Y-79.516
X152.4Y-122.682
X153.289Y-93.98
X153.289Y-109.093
X153.67Y-56.261
X153.924Y-161.142
X154.686Y-79.516
X154.686Y-113.919
X154.813Y-73.66
X154.813Y-92.71
X154.813Y-106.553
X154.94Y-60.071
X155.702Y-36.576
X155.956Y-68.707
X155.956Y-120.65
X156.083Y-86.396
X156.083Y-107.823
X156.284Y-56.422
X157.226Y-60.071
X157.226Y-93.979
X157.734Y-161.29
X158.276Y-43.434
X158.496Y-70.104
X158.496Y-83.688
X158.682Y-56.422
X158.75Y-66.421
X158.84Y-76.324
X159.766Y-67.564
X160.528Y-161.164
X160.909Y-82.638
X161.036Y-92.837
X161.163Y-58.674
X162.052Y-101.6
X162.433Y-91.44
X163.322Y-100.076
X164.973Y-72.644
X165.066Y-152.4
X166.243Y-61.976
X166.624Y-143.51
X167.259Y-85.217
X167.352Y-148.59
X167.894Y-47.752
X167.894Y-105.664
X167.894Y-115.57
X168.656Y-140.716
X169.926Y-34.29
X170.784Y-88.849
X171.196Y-73.914
X171.323Y-56.261
X172.212Y-87.63
X172.466Y-66.167
X172.974Y-50.546
X173.482Y-86.233
X174.244Y-112.014
X174.244Y-114.554
X174.752Y-87.503
X175.391Y-52.019
X175.996Y-77.535
X176.149Y-86.233
X176.276Y-151.13
X176.53Y-39.37
X176.53Y-113.284
X176.964Y-149.57
X177.546Y-40.894
X178.562Y-85.217
X180.086Y-86.614
X180.721Y-121.666
X180.975Y-52.705
X181.102Y-82.804
X181.991Y-51.181
X182.499Y-96.52
X183.769Y-98.044
X184.912Y-96.52
X184.912Y-118.618
X185.154Y-112.268
X186.944Y-51.308
X187.579Y-95.25
X188.722Y-147.32
X188.849Y-68.961
X188.849Y-85.514
X189.675Y-95.47
X190.5Y-142.24
X191.262Y-92.837
X193.461Y-31.161
X194.056Y-44.704
X196.215Y-53.594
X196.342Y-90.17
X196.342Y-115.57
X197.358Y-86.36
X197.358Y-91.567
X197.485Y-63.881
X198.721Y-92.71
X199.009Y-52.324
X199.009Y-60.071
X200.279Y-71.501
X200.66Y-142.24
X201.1Y-60.071
X201.168Y-58.293
X201.676Y-53.848
X201.676Y-144.78
X202.311Y-87.757
X203.581Y-60.071
X203.835Y-63.881
X203.962Y-69.088
X203.962Y-73.787
X204.47Y-110.744
X204.724Y-32.512
X205.105Y-61.468
X205.232Y-49.276
X205.232Y-51.054
X205.232Y-108.204
X206.375Y-67.471
X206.629Y-63.881
X206.756Y-137.668
X207.01Y-36.576
X207.391Y-81.407
X207.518Y-142.333
X208.788Y-87.884
X209.042Y-63.881
X209.042Y-120.904
X210.058Y-112.268
X210.185Y-89.247
X210.185Y-94.234
X210.82Y-110.49
X211.582Y-30.734
X211.582Y-62.611
X211.582Y-65.151
X211.582Y-130.302
X212.471Y-66.421
X212.598Y-89.154
X212.725Y-91.567
X213.468Y-130.119
X213.614Y-48.768
X213.868Y-144.018
X213.899Y-128.448
X213.995Y-54.864
X213.995Y-87.63
X214.122Y-92.837
X214.122Y-152.4
X214.884Y-59.182
X216.662Y-53.086
X218.694Y-58.928
X218.876Y-130.16
X218.948Y-86.614
X219.71Y-98.044
X219.964Y-125.984
X220.472Y-59.69
X220.472Y-135.89
X220.936Y-96.667
X220.958Y-145.923
X221.488Y-127.508
X221.996Y-51.308
X222.25Y-151.13
X222.504Y-98.044
X223.774Y-96.774
X224.282Y-128.778
X224.536Y-51.054
X224.663Y-31.934
X226.06Y-59.563
X227.838Y-81.407
X228.727Y-59.69
X229.108Y-127.508
X230.099Y-31.43
X230.886Y-35.306
X231.14Y-38.354
X231.14Y-69.342
X231.14Y-73.914
X231.902Y-50.8
X232.791Y-53.721
X232.918Y-78.994
X233.172Y-106.172
X234.442Y-139.192
X235.458Y-137.922
X235.458Y-135.89
X235.966Y-133.858
X236.855Y-64.897
X236.855Y-67.564
X236.982Y-74.041
X237.49Y-38.354
X237.921Y-143.588
X237.927Y-145.725
X237.998Y-127.0
X237.998Y-129.54
X239.159Y-142.31
X239.395Y-82.804
X239.522Y-79.248
X239.522Y-86.487
X239.776Y-65.024
X240.34Y-135.89
X240.538Y-98.044
X240.665Y-95.377
X241.3Y-62.23
X241.3Y-130.81
X241.554Y-123.19
X243.078Y-48.006
X243.144Y-87.436
X243.332Y-78.867
X244.094Y-76.073
X245.364Y-121.92
X245.618Y-155.194
X246.634Y-111.76
X246.888Y-152.4
X247.078Y-116.776
X247.904Y-102.87
X247.904Y-130.81
X249.174Y-67.056
X249.682Y-78.486
X252.476Y-107.188
X253.238Y-88.9
X253.492Y-95.25
X254.192Y-98.822
X255.27Y-66.929
X256.032Y-75.946
X256.54Y-70.993
X256.794Y-32.258
X257.048Y-124.968
X257.429Y-66.04
X257.556Y-56.134
X258.064Y-120.904
X259.08Y-116.586
X262.636Y-133.35
X263.144Y-107.95
X263.144Y-118.11
X263.398Y-113.284
X263.618Y-123.051
X265.684Y-149.098
T2
X23.622Y-132.842
X24.13Y-137.414
X25.4Y-75.438
X25.4Y-85.598
X26.122Y-132.842
X26.63Y-137.414
X27.686Y-39.918
X27.686Y-42.418
X27.686Y-45.212
X27.686Y-47.752
X27.686Y-50.292
X27.686Y-52.832
X27.686Y-55.372
X27.686Y-57.912
X27.686Y-60.452
X27.686Y-62.992
X27.686Y-99.862
X27.686Y-102.362
X28.448Y-80.812
X28.448Y-83.312
X28.448Y-86.106
X28.448Y-96.266
X31.16Y-86.075
X31.16Y-88.615
X31.16Y-91.155
X31.16Y-93.695
X31.16Y-96.235
X31.16Y-98.775
X31.16Y-101.315
X31.16Y-103.855
X31.731Y-45.212
X31.731Y-47.752
X31.731Y-50.292
X31.731Y-52.832
X31.731Y-55.372
X31.731Y-57.912
X31.731Y-60.452
X31.731Y-62.992
X31.731Y-65.532
X31.731Y-68.072
X38.78Y-86.075
X38.78Y-88.615
X38.78Y-91.155
X38.78Y-93.695
X38.78Y-96.235
X38.78Y-98.775
X38.78Y-101.315
X38.78Y-103.855
X39.351Y-45.212
X39.351Y-47.752
X39.351Y-50.292
X39.351Y-52.832
X39.351Y-55.372
X39.351Y-57.912
X39.351Y-60.452
X39.351Y-62.992
X39.351Y-65.532
X39.351Y-68.072
X42.164Y-99.862
X42.164Y-102.362
X42.418Y-85.725
X42.418Y-95.885
X44.196Y-45.212
X44.196Y-47.752
X44.196Y-50.292
X44.196Y-52.832
X44.196Y-55.372
X44.196Y-57.912
X44.196Y-60.452
X45.847Y-85.852
X45.847Y-96.012
X51.816Y-45.212
X51.816Y-47.752
X51.816Y-50.292
X51.816Y-52.832
X51.816Y-55.372
X51.816Y-57.912
X51.816Y-60.452
X52.578Y-86.106
X52.578Y-88.646
X52.578Y-91.186
X52.578Y-93.726
X52.578Y-96.266
X52.578Y-98.806
X52.578Y-101.346
X56.088Y-45.217
X56.088Y-47.757
X56.088Y-50.297
X56.088Y-52.837
X56.088Y-55.377
X56.088Y-57.917
X56.088Y-60.457
X60.198Y-86.106
X60.198Y-88.646
X60.198Y-91.186
X60.198Y-93.726
X60.198Y-96.266
X60.198Y-98.806
X60.198Y-101.346
X63.708Y-45.217
X63.708Y-47.757
X63.708Y-50.297
X63.708Y-52.837
X63.708Y-55.377
X63.708Y-57.917
X63.708Y-60.457
X64.008Y-93.472
X64.008Y-95.972
X66.802Y-82.55
X66.802Y-92.71
X69.088Y-96.266
X69.088Y-98.806
X69.088Y-101.346
X69.088Y-103.886
X69.088Y-106.426
X69.088Y-108.966
X69.088Y-111.506
X69.088Y-114.046
X69.331Y-45.217
X69.331Y-47.757
X69.331Y-50.297
X69.331Y-52.837
X69.331Y-55.377
X69.331Y-57.917
X69.331Y-60.457
X70.866Y-123.698
X71.12Y-148.336
X71.12Y-150.836
X73.366Y-123.698
X75.184Y-118.11
X75.184Y-120.61
X76.454Y-83.058
X76.454Y-93.218
X76.708Y-96.266
X76.708Y-98.806
X76.708Y-101.346
X76.708Y-103.886
X76.708Y-106.426
X76.708Y-108.966
X76.708Y-111.506
X76.708Y-114.046
X76.951Y-45.217
X76.951Y-47.757
X76.951Y-50.297
X76.951Y-52.837
X76.951Y-55.377
X76.951Y-57.917
X76.951Y-60.457
X79.502Y-96.012
X79.502Y-101.012
X79.502Y-119.888
X79.502Y-130.048
X79.632Y-83.047
X79.632Y-93.207
X81.534Y-45.212
X81.534Y-47.752
X81.534Y-50.292
X81.534Y-52.832
X81.534Y-55.372
X81.534Y-57.912
X81.534Y-60.452
X82.55Y-119.888
X82.55Y-130.048
X82.55Y-132.842
X82.55Y-137.842
X86.868Y-96.266
X86.868Y-98.806
X86.868Y-101.346
X86.868Y-103.886
X86.868Y-106.426
X86.868Y-108.966
X86.868Y-111.506
X88.9Y-120.396
X88.9Y-122.936
X88.9Y-125.476
X88.9Y-128.016
X88.9Y-130.556
X88.9Y-133.096
X88.9Y-135.636
X89.154Y-45.212
X89.154Y-47.752
X89.154Y-50.292
X89.154Y-52.832
X89.154Y-55.372
X89.154Y-57.912
X89.154Y-60.452
X94.486Y-45.212
X94.486Y-47.752
X94.486Y-50.292
X94.486Y-52.832
X94.486Y-55.372
X94.486Y-57.912
X94.486Y-60.452
X94.488Y-96.266
X94.488Y-98.806
X94.488Y-101.346
X94.488Y-103.886
X94.488Y-106.426
X94.488Y-108.966
X94.488Y-111.506
X96.52Y-120.396
X96.52Y-122.936
X96.52Y-125.476
X96.52Y-128.016
X96.52Y-130.556
X96.52Y-133.096
X96.52Y-135.636
X100.076Y-96.52
X100.076Y-99.06
X100.076Y-101.6
X100.076Y-104.14
X100.076Y-106.68
X100.076Y-109.22
X100.076Y-111.76
X102.106Y-45.212
X102.106Y-47.752
X102.106Y-50.292
X102.106Y-52.832
X102.106Y-55.372
X102.106Y-57.912
X102.106Y-60.452
X102.598Y-120.337
X102.598Y-122.877
X102.598Y-125.417
X102.598Y-127.957
X102.598Y-130.497
X102.598Y-133.037
X102.598Y-135.577
X105.41Y-140.462
X105.41Y-150.622
X107.188Y-45.212
X107.188Y-47.752
X107.188Y-50.292
X107.188Y-52.832
X107.188Y-55.372
X107.188Y-57.912
X107.188Y-60.452
X107.696Y-96.52
X107.696Y-99.06
X107.696Y-101.6
X107.696Y-104.14
X107.696Y-106.68
X107.696Y-109.22
X107.696Y-111.76
X108.458Y-140.462
X108.458Y-150.622
X110.218Y-120.337
X110.218Y-122.877
X110.218Y-125.417
X110.218Y-127.957
X110.218Y-130.497
X110.218Y-133.037
X110.218Y-135.577
X111.506Y-140.462
X111.506Y-150.622
X112.776Y-96.266
X112.776Y-98.806
X112.776Y-101.346
X112.776Y-103.886
X112.776Y-106.426
X112.776Y-108.966
X112.776Y-111.506
X114.554Y-140.462
X114.554Y-150.622
X114.808Y-45.212
X114.808Y-47.752
X114.808Y-50.292
X114.808Y-52.832
X114.808Y-55.372
X114.808Y-57.912
X114.808Y-60.452
X117.094Y-42.164
X117.094Y-44.664
X117.602Y-140.462
X117.602Y-150.622
X120.015Y-42.672
X120.015Y-45.212
X120.015Y-47.752
X120.015Y-50.292
X120.015Y-52.832
X120.015Y-55.372
X120.015Y-57.912
X120.015Y-60.452
X120.396Y-96.266
X120.396Y-98.806
X120.396Y-101.346
X120.396Y-103.886
X120.396Y-106.426
X120.396Y-108.966
X120.396Y-111.506
X120.65Y-140.456
X120.65Y-150.616
X124.206Y-83.566
X124.206Y-93.726
X125.476Y-136.906
X125.476Y-139.446
X125.476Y-141.986
X125.476Y-144.526
X125.476Y-147.066
X125.476Y-149.606
X125.476Y-152.146
X125.476Y-154.686
X127.635Y-42.672
X127.635Y-45.212
X127.635Y-47.752
X127.635Y-50.292
X127.635Y-52.832
X127.635Y-55.372
X127.635Y-57.912
X127.635Y-60.452
X128.27Y-93.726
X128.27Y-96.266
X128.27Y-98.806
X128.27Y-101.346
X128.27Y-103.886
X128.27Y-106.426
X128.27Y-108.966
X128.27Y-111.506
X129.794Y-56.634
X129.794Y-59.134
X132.461Y-50.292
X132.461Y-60.452
X133.096Y-136.906
X133.096Y-139.446
X133.096Y-141.986
X133.096Y-144.526
X133.096Y-147.066
X133.096Y-149.606
X133.096Y-152.146
X133.096Y-154.686
X135.128Y-42.672
X135.128Y-45.212
X135.128Y-47.752
X135.128Y-50.292
X135.128Y-52.832
X135.128Y-55.372
X135.128Y-57.912
X135.128Y-60.452
X135.89Y-93.726
X135.89Y-96.266
X135.89Y-98.806
X135.89Y-101.346
X135.89Y-103.886
X135.89Y-106.426
X135.89Y-108.966
X135.89Y-111.506
X138.146Y-93.836
X138.146Y-96.336
X138.176Y-120.396
X138.412Y-139.419
X138.412Y-141.959
X138.412Y-144.499
X138.412Y-147.039
X138.412Y-149.579
X138.412Y-152.119
X138.412Y-154.659
X140.676Y-120.396
X141.986Y-93.726
X141.986Y-96.266
X141.986Y-98.806
X141.986Y-101.346
X141.986Y-103.886
X141.986Y-106.426
X141.986Y-108.966
X141.986Y-111.506
X142.748Y-42.672
X142.748Y-45.212
X142.748Y-47.752
X142.748Y-50.292
X142.748Y-52.832
X142.748Y-55.372
X142.748Y-57.912
X142.748Y-60.452
X146.032Y-139.419
X146.032Y-141.959
X146.032Y-144.499
X146.032Y-147.039
X146.032Y-149.579
X146.032Y-152.119
X146.032Y-154.659
X146.05Y-56.936
X146.05Y-59.436
X146.431Y-44.196
X146.431Y-54.356
X149.225Y-40.767
X149.479Y-44.196
X149.479Y-54.356
X149.606Y-93.726
X149.606Y-96.266
X149.606Y-98.806
X149.606Y-101.346
X149.606Y-103.886
X149.606Y-106.426
X149.606Y-108.966
X149.606Y-111.506
X151.13Y-139.446
X151.13Y-141.986
X151.13Y-144.526
X151.13Y-147.066
X151.13Y-149.606
X151.13Y-152.146
X151.13Y-154.686
X151.725Y-40.767
X153.924Y-30.734
X153.924Y-33.274
X153.924Y-35.814
X153.924Y-38.354
X153.924Y-40.894
X153.924Y-43.434
X153.924Y-45.974
X153.924Y-135.89
X153.931Y-125.637
X153.931Y-133.257
X156.464Y-135.89
X156.471Y-125.637
X156.471Y-133.257
X157.48Y-104.14
X157.48Y-106.68
X157.48Y-109.22
X157.48Y-111.76
X157.48Y-114.3
X157.48Y-116.84
X157.48Y-119.38
X157.48Y-121.92
X158.75Y-139.446
X158.75Y-141.986
X158.75Y-144.526
X158.75Y-147.066
X158.75Y-149.606
X158.75Y-152.146
X158.75Y-154.686
X159.004Y-135.89
X159.011Y-125.637
X159.011Y-133.257
X161.544Y-30.734
X161.544Y-33.274
X161.544Y-35.814
X161.544Y-38.354
X161.544Y-40.894
X161.544Y-43.434
X161.544Y-45.974
X161.544Y-135.89
X161.551Y-125.637
X161.551Y-133.257
X162.433Y-139.446
X162.433Y-141.986
X162.433Y-144.526
X162.433Y-147.066
X162.433Y-149.606
X162.433Y-152.146
X162.433Y-154.686
X164.084Y-135.89
X164.091Y-125.637
X164.091Y-133.257
X164.592Y-30.734
X164.592Y-33.274
X164.592Y-35.814
X164.592Y-38.354
X164.592Y-40.894
X164.592Y-43.434
X164.592Y-45.974
X165.1Y-104.14
X165.1Y-106.68
X165.1Y-109.22
X165.1Y-111.76
X165.1Y-114.3
X165.1Y-116.84
X165.1Y-119.38
X165.1Y-121.92
X166.624Y-135.89
X166.631Y-125.637
X166.631Y-133.257
X169.164Y-135.89
X169.171Y-125.637
X169.171Y-133.257
X170.053Y-139.446
X170.053Y-141.986
X170.053Y-144.526
X170.053Y-147.066
X170.053Y-149.606
X170.053Y-152.146
X170.053Y-154.686
X170.434Y-99.06
X170.434Y-101.6
X170.434Y-104.14
X170.434Y-106.68
X170.434Y-109.22
X170.434Y-111.76
X170.434Y-114.3
X170.434Y-116.84
X170.434Y-119.38
X170.434Y-121.92
X171.704Y-135.89
X171.711Y-125.637
X171.711Y-133.257
X172.212Y-30.734
X172.212Y-33.274
X172.212Y-35.814
X172.212Y-38.354
X172.212Y-40.894
X172.212Y-43.434
X172.212Y-45.974
X173.99Y-139.573
X173.99Y-142.113
X173.99Y-144.653
X173.99Y-147.193
X173.99Y-149.733
X173.99Y-152.273
X173.99Y-154.813
X174.244Y-135.89
X174.251Y-125.637
X174.251Y-133.257
X175.26Y-30.226
X175.26Y-33.782
X175.26Y-43.942
X176.784Y-135.89
X176.791Y-125.637
X176.791Y-133.257
X177.76Y-30.226
X178.054Y-99.06
X178.054Y-101.6
X178.054Y-104.14
X178.054Y-106.68
X178.054Y-109.22
X178.054Y-111.76
X178.054Y-114.3
X178.054Y-116.84
X178.054Y-119.38
X178.054Y-121.92
X178.308Y-33.782
X178.308Y-43.942
X181.61Y-139.573
X181.61Y-142.113
X181.61Y-144.653
X181.61Y-147.193
X181.61Y-149.733
X181.61Y-152.273
X181.61Y-154.813
X181.864Y-125.592
X181.864Y-133.212
X181.871Y-135.848
X182.626Y-104.14
X182.626Y-106.68
X182.626Y-109.22
X182.626Y-111.76
X182.626Y-114.3
X182.626Y-116.84
X182.626Y-119.38
X182.626Y-121.92
X183.896Y-44.704
X183.896Y-49.704
X184.404Y-125.592
X184.404Y-133.212
X184.411Y-135.848
X185.166Y-33.22
X185.166Y-38.1
X185.42Y-139.573
X185.42Y-142.113
X185.42Y-144.653
X185.42Y-147.193
X185.42Y-149.733
X185.42Y-152.273
X185.42Y-154.813
X186.944Y-125.592
X186.944Y-133.212
X186.951Y-135.848
X189.484Y-30.734
X189.484Y-33.274
X189.484Y-35.814
X189.484Y-38.354
X189.484Y-40.894
X189.484Y-43.434
X189.484Y-45.974
X189.484Y-125.592
X189.484Y-133.212
X189.491Y-135.848
X190.246Y-104.14
X190.246Y-106.68
X190.246Y-109.22
X190.246Y-111.76
X190.246Y-114.3
X190.246Y-116.84
X190.246Y-119.38
X190.246Y-121.92
X192.024Y-125.592
X192.024Y-133.212
X192.031Y-135.848
X192.064Y-99.568
X193.04Y-139.573
X193.04Y-142.113
X193.04Y-144.653
X193.04Y-147.193
X193.04Y-149.733
X193.04Y-152.273
X193.04Y-154.813
X194.31Y-104.14
X194.31Y-106.68
X194.31Y-109.22
X194.31Y-111.76
X194.31Y-114.3
X194.31Y-116.84
X194.31Y-119.38
X194.31Y-121.92
X194.564Y-99.568
X194.564Y-125.592
X194.564Y-133.212
X194.571Y-135.848
X197.09Y-139.573
X197.09Y-142.113
X197.09Y-144.653
X197.09Y-147.193
X197.09Y-149.733
X197.09Y-152.273
X197.09Y-154.813
X197.104Y-30.734
X197.104Y-33.274
X197.104Y-35.814
X197.104Y-38.354
X197.104Y-40.894
X197.104Y-43.434
X197.104Y-45.974
X197.104Y-125.592
X197.104Y-133.212
X197.111Y-135.848
X199.644Y-125.592
X199.644Y-133.212
X199.651Y-135.848
X201.676Y-30.734
X201.676Y-33.274
X201.676Y-35.814
X201.676Y-38.354
X201.676Y-40.894
X201.676Y-43.434
X201.676Y-45.974
X201.93Y-104.14
X201.93Y-106.68
X201.93Y-109.22
X201.93Y-111.76
X201.93Y-114.3
X201.93Y-116.84
X201.93Y-119.38
X201.93Y-121.92
X202.184Y-125.592
X202.184Y-133.212
X202.191Y-135.848
X204.71Y-139.573
X204.71Y-142.113
X204.71Y-144.653
X204.71Y-147.193
X204.71Y-149.733
X204.71Y-152.273
X204.71Y-154.813
X204.724Y-125.592
X204.724Y-133.212
X204.731Y-135.848
X207.01Y-104.14
X207.01Y-106.68
X207.01Y-109.22
X207.01Y-111.76
X207.01Y-114.3
X207.01Y-116.84
X207.01Y-119.38
X207.01Y-121.92
X207.01Y-152.908
X207.01Y-155.408
X209.296Y-30.734
X209.296Y-33.274
X209.296Y-35.814
X209.296Y-38.354
X209.296Y-40.894
X209.296Y-43.434
X209.296Y-45.974
X211.074Y-132.08
X211.074Y-134.62
X211.074Y-137.16
X211.074Y-139.7
X211.074Y-142.24
X211.074Y-144.78
X211.074Y-147.32
X211.074Y-149.86
X211.074Y-152.4
X211.074Y-154.94
X213.767Y-30.727
X213.767Y-33.267
X213.767Y-35.807
X213.767Y-38.347
X213.767Y-40.887
X213.767Y-43.427
X213.767Y-45.967
X214.63Y-104.14
X214.63Y-106.68
X214.63Y-109.22
X214.63Y-111.76
X214.63Y-114.3
X214.63Y-116.84
X214.63Y-119.38
X214.63Y-121.92
X217.297Y-56.642
X217.297Y-66.802
X218.44Y-104.14
X218.44Y-106.68
X218.44Y-109.22
X218.44Y-111.76
X218.44Y-114.3
X218.44Y-116.84
X218.44Y-119.38
X218.44Y-121.92
X218.694Y-132.08
X218.694Y-134.62
X218.694Y-137.16
X218.694Y-139.7
X218.694Y-142.24
X218.694Y-144.78
X218.694Y-147.32
X218.694Y-149.86
X218.694Y-152.4
X218.694Y-154.94
X220.726Y-56.642
X220.726Y-66.802
X221.387Y-30.727
X221.387Y-33.267
X221.387Y-35.807
X221.387Y-38.347
X221.387Y-40.887
X221.387Y-43.427
X221.387Y-45.967
X223.774Y-132.08
X223.774Y-134.62
X223.774Y-137.16
X223.774Y-139.7
X223.774Y-142.24
X223.774Y-144.78
X223.774Y-147.32
X223.774Y-149.86
X223.774Y-152.4
X223.774Y-154.94
X226.06Y-104.14
X226.06Y-106.68
X226.06Y-109.22
X226.06Y-111.76
X226.06Y-114.3
X226.06Y-116.84
X226.06Y-119.38
X226.06Y-121.92
X226.568Y-30.734
X226.568Y-33.274
X226.568Y-35.814
X226.568Y-38.354
X226.568Y-40.894
X226.568Y-43.434
X226.568Y-45.974
X228.346Y-56.896
X228.346Y-67.056
X230.116Y-104.14
X230.116Y-106.68
X230.116Y-109.22
X230.116Y-111.76
X230.116Y-114.3
X230.116Y-116.84
X230.116Y-119.38
X230.116Y-121.92
X231.394Y-126.746
X231.394Y-129.246
X231.394Y-132.08
X231.394Y-134.62
X231.394Y-137.16
X231.394Y-139.7
X231.394Y-142.24
X231.394Y-144.78
X231.394Y-147.32
X231.394Y-149.86
X231.394Y-152.4
X231.394Y-154.94
X232.664Y-56.896
X232.664Y-66.896
X234.188Y-30.734
X234.188Y-33.274
X234.188Y-35.814
X234.188Y-38.354
X234.188Y-40.894
X234.188Y-43.434
X234.188Y-45.974
X237.236Y-40.894
X237.236Y-51.054
X237.736Y-104.14
X237.736Y-106.68
X237.736Y-109.22
X237.736Y-111.76
X237.736Y-114.3
X237.736Y-116.84
X237.736Y-119.38
X237.736Y-121.92
X240.03Y-48.26
X240.03Y-50.76
X242.824Y-104.14
X242.824Y-106.68
X242.824Y-109.22
X242.824Y-111.76
X242.824Y-114.3
X242.824Y-116.84
X242.824Y-119.38
X242.824Y-121.92
X242.824Y-124.46
X242.824Y-127.0
X243.078Y-135.89
X243.078Y-138.43
X243.078Y-140.97
X243.078Y-143.51
X243.078Y-146.05
X243.078Y-148.59
X243.078Y-151.13
X243.078Y-153.67
X243.078Y-156.21
X243.078Y-158.75
X243.205Y-72.898
X243.205Y-83.058
X246.888Y-48.006
X246.888Y-50.546
X246.888Y-53.086
X246.888Y-55.626
X246.888Y-58.166
X246.888Y-60.706
X246.888Y-63.246
X246.888Y-65.786
X246.888Y-68.326
X246.888Y-70.866
X246.888Y-73.406
X246.888Y-75.946
X246.888Y-78.486
X246.888Y-81.026
X246.888Y-83.566
X246.888Y-86.106
X246.888Y-88.646
X246.888Y-91.186
X246.888Y-93.726
X246.888Y-96.266
X250.444Y-104.14
X250.444Y-106.68
X250.444Y-109.22
X250.444Y-111.76
X250.444Y-114.3
X250.444Y-116.84
X250.444Y-119.38
X250.444Y-121.92
X250.444Y-124.46
X250.444Y-127.0
X250.698Y-130.596
X250.698Y-133.096
X250.698Y-135.89
X250.698Y-138.43
X250.698Y-140.97
X250.698Y-143.51
X250.698Y-146.05
X250.698Y-148.59
X250.698Y-151.13
X250.698Y-153.67
X250.698Y-156.21
X250.698Y-158.75
X254.508Y-104.14
X254.508Y-106.68
X254.508Y-109.22
X254.508Y-111.76
X254.508Y-114.3
X254.508Y-116.84
X254.508Y-119.38
X254.508Y-121.92
X254.508Y-124.46
X254.508Y-127.0
X254.508Y-135.89
X254.508Y-138.43
X254.508Y-140.97
X254.508Y-143.51
X254.508Y-146.05
X254.508Y-148.59
X254.508Y-151.13
X254.508Y-153.67
X254.508Y-156.21
X254.508Y-158.75
X262.128Y-48.006
X262.128Y-50.546
X262.128Y-53.086
X262.128Y-55.626
X262.128Y-58.166
X262.128Y-60.706
X262.128Y-63.246
X262.128Y-65.786
X262.128Y-68.326
X262.128Y-70.866
X262.128Y-73.406
X262.128Y-75.946
X262.128Y-78.486
X262.128Y-81.026
X262.128Y-83.566
X262.128Y-86.106
X262.128Y-88.646
X262.128Y-91.186
X262.128Y-93.726
X262.128Y-96.266
X262.128Y-98.973
X262.128Y-101.473
X262.128Y-104.14
X262.128Y-106.68
X262.128Y-109.22
X262.128Y-111.76
X262.128Y-114.3
X262.128Y-116.84
X262.128Y-119.38
X262.128Y-121.92
X262.128Y-124.46
X262.128Y-127.0
X262.128Y-135.89
X262.128Y-138.43
X262.128Y-140.97
X262.128Y-143.51
X262.128Y-146.05
X262.128Y-148.59
X262.128Y-151.13
X262.128Y-153.67
X262.128Y-156.21
X262.128Y-158.75
X264.668Y-43.688
X264.668Y-46.188
T3
X225.044Y-56.896
X225.044Y-67.056
T4
X23.622Y-66.548
X23.622Y-69.088
X26.162Y-66.548
X26.162Y-69.088
X28.702Y-66.548
X28.702Y-69.088
X30.934Y-32.887
X30.934Y-35.427
X33.474Y-32.887
X33.474Y-35.427
X36.014Y-32.887
X36.014Y-35.427
X38.554Y-32.887
X38.554Y-35.427
X41.094Y-32.887
X41.094Y-35.427
X43.634Y-32.887
X43.634Y-35.427
X46.174Y-32.887
X46.174Y-35.427
X48.714Y-32.887
X48.714Y-35.427
X50.038Y-67.31
X51.254Y-32.887
X51.254Y-35.427
X52.578Y-67.31
X53.794Y-32.887
X53.794Y-35.427
X55.118Y-67.31
X56.334Y-32.887
X56.334Y-35.427
X58.874Y-32.887
X58.874Y-35.427
X61.414Y-32.887
X61.414Y-35.427
X63.754Y-67.31
X63.954Y-32.887
X63.954Y-35.427
X66.294Y-67.31
X66.494Y-32.887
X66.494Y-35.427
X68.834Y-67.31
X69.034Y-32.887
X69.034Y-35.427
X71.574Y-32.887
X71.574Y-35.427
X72.898Y-67.31
X75.184Y-71.12
X75.438Y-67.31
X76.708Y-146.05
X76.708Y-151.13
X77.724Y-71.12
X77.978Y-67.31
X79.248Y-146.05
X79.248Y-151.13
X80.264Y-71.12
X81.788Y-146.05
X81.788Y-151.13
X82.042Y-67.31
X84.582Y-33.02
X84.582Y-35.56
X84.582Y-67.31
X87.122Y-33.02
X87.122Y-35.56
X87.122Y-67.31
X89.408Y-145.542
X89.408Y-148.082
X89.408Y-150.622
X89.662Y-33.02
X89.662Y-35.56
X92.202Y-33.02
X92.202Y-35.56
X93.472Y-145.542
X93.472Y-148.082
X93.472Y-150.622
X94.742Y-33.02
X94.742Y-35.56
X96.012Y-145.542
X96.012Y-148.082
X96.012Y-150.622
X97.282Y-33.02
X97.282Y-35.56
X98.806Y-89.916
X99.822Y-33.02
X99.822Y-35.56
X101.346Y-89.916
X102.362Y-33.02
X102.362Y-35.56
X103.886Y-89.916
X104.902Y-33.02
X104.902Y-35.56
X107.442Y-33.02
X107.442Y-35.56
X109.982Y-33.02
X109.982Y-35.56
X112.522Y-33.02
X112.522Y-35.56
X114.554Y-85.09
X115.062Y-33.02
X115.062Y-35.56
X117.094Y-85.09
X117.602Y-33.02
X117.602Y-35.56
X119.634Y-85.09
X120.142Y-33.02
X120.142Y-35.56
X122.682Y-33.02
X122.682Y-35.56
X125.222Y-33.02
X125.222Y-35.56
X127.762Y-33.02
X127.762Y-35.56
X129.286Y-84.963
X130.302Y-33.02
X130.302Y-35.56
X131.826Y-84.963
X132.842Y-33.02
X132.842Y-35.56
X134.366Y-84.963
X135.382Y-33.02
X135.382Y-35.56
X137.922Y-33.02
X137.922Y-35.56
X140.462Y-33.02
X140.462Y-35.56
X143.002Y-33.02
X143.002Y-35.56
X145.542Y-33.02
X145.542Y-35.56
X153.416Y-51.308
X155.956Y-51.308
X158.496Y-51.308
X164.846Y-51.308
X167.386Y-51.308
X169.926Y-51.308
X176.276Y-57.15
X176.276Y-59.69
X178.816Y-57.15
X178.816Y-59.69
X181.356Y-57.15
X181.356Y-59.69
X183.896Y-57.15
X183.896Y-59.69
X186.436Y-57.15
X186.436Y-59.69
X197.047Y-56.175
X199.587Y-56.175
X202.127Y-56.175
X204.667Y-56.175
X207.207Y-56.175
X209.747Y-56.175
X230.124Y-98.044
X232.664Y-98.044
X235.204Y-98.044
X240.03Y-30.226
X240.03Y-42.926
X242.57Y-35.306
X246.634Y-30.226
X246.634Y-42.926
X249.174Y-35.306
X252.73Y-30.226
X252.73Y-42.926
X255.27Y-35.306
X259.08Y-30.226
X259.08Y-42.926
X261.62Y-35.306
T5
X26.67Y-140.462
X26.67Y-143.002
X26.67Y-145.542
X71.12Y-133.35
X71.12Y-140.97
X71.12Y-143.51
X71.12Y-146.05
X76.12Y-133.35
T6
X236.046Y-56.134
X238.546Y-61.134
X241.046Y-56.134
T7
X44.974Y-158.496
X48.934Y-158.496
X52.894Y-158.496
X56.854Y-158.496
X60.814Y-158.496
X64.774Y-158.496
X68.734Y-158.496
X72.694Y-158.496
X76.654Y-158.496
X80.614Y-158.496
X84.574Y-158.496
X88.534Y-158.496
X92.494Y-158.496
X96.454Y-158.496
X100.414Y-158.496
X104.374Y-158.496
X108.334Y-158.496
X112.294Y-158.496
X116.254Y-158.496
X120.214Y-158.496
X124.174Y-158.496
X128.134Y-158.496
X132.094Y-158.496
X136.054Y-158.496
X140.014Y-158.496
X143.974Y-158.496
X147.934Y-158.496
X151.894Y-158.496
X155.854Y-158.496
X159.814Y-158.496
X163.774Y-158.496
X167.734Y-158.496
X171.694Y-158.496
X175.654Y-158.496
X179.614Y-158.496
X183.574Y-158.496
X187.534Y-158.496
X191.494Y-158.496
X195.454Y-158.496
X199.414Y-158.496
X203.374Y-158.496
X207.334Y-158.496
X211.294Y-158.496
X215.254Y-158.496
X219.214Y-158.496
X223.174Y-158.496
X227.134Y-158.496
X231.094Y-158.496
X235.054Y-158.496
X239.014Y-158.496
T8
X42.47Y-143.002
X55.32Y-143.51
M30
