M48
; DRILL file {KiCad 9.0.9-9.0.9~ubuntu24.04.1} date 2026-07-18T10:35:05+0200
; FORMAT={-:-/ absolute / metric / decimal}
; #@! TF.CreationDate,2026-07-18T10:35:05+02:00
; #@! TF.GenerationSoftware,Kicad,Pcbnew,9.0.9-9.0.9~ubuntu24.04.1
; #@! TF.FileFunction,MixedPlating,1,2
FMAT,2
METRIC
; #@! TA.AperFunction,Plated,PTH,ViaDrill
T1C0.600
; #@! TA.AperFunction,Plated,PTH,ComponentDrill
T2C0.800
; #@! TA.AperFunction,Plated,PTH,ComponentDrill
T3C1.000
; #@! TA.AperFunction,Plated,PTH,ComponentDrill
T4C1.100
; #@! TA.AperFunction,Plated,PTH,ComponentDrill
T5C1.200
; #@! TA.AperFunction,Plated,PTH,ComponentDrill
T6C1.520
; #@! TA.AperFunction,NonPlated,NPTH,ComponentDrill
T7C3.200
; #@! TA.AperFunction,NonPlated,NPTH,ComponentDrill
T8C3.500
%
G90
G05
T1
X25.4Y-132.715
X25.4Y-133.985
X25.4Y-135.255
X31.496Y-136.525
X31.75Y-8.56
X82.712Y-78.216
X84.66Y-77.116
X86.227Y-76.397
X88.107Y-75.736
X92.084Y-92.126
X92.304Y-88.208
X94.742Y-25.146
X95.504Y-69.85
X95.758Y-19.812
X96.012Y-52.578
X96.52Y-63.5
X97.282Y-17.272
X99.314Y-29.972
X100.076Y-60.706
X100.33Y-72.136
X100.33Y-73.914
X100.33Y-114.808
X101.092Y-112.776
X101.432Y-111.052
X102.362Y-35.357
X105.766Y-44.374
X106.172Y-34.038
X106.528Y-36.246
X107.188Y-104.902
X107.29Y-89.408
X108.432Y-65.866
X109.474Y-109.22
X109.728Y-27.686
X109.982Y-71.12
X111.252Y-103.124
X112.014Y-71.12
X113.481Y-109.605
X113.538Y-38.1
X116.078Y-50.038
X117.348Y-48.514
X117.348Y-108.712
X119.38Y-57.15
X119.38Y-66.802
X120.142Y-108.204
X121.412Y-22.606
X122.428Y-20.066
X122.428Y-25.4
X122.682Y-107.442
X125.222Y-106.934
X125.73Y-62.23
X125.984Y-39.624
X125.984Y-57.15
X126.492Y-66.802
X127.254Y-60.452
X128.016Y-35.56
X128.016Y-106.426
X128.524Y-21.336
X129.54Y-27.686
X129.642Y-118.542
X130.556Y-105.664
X132.08Y-72.898
X132.334Y-49.276
X132.334Y-63.246
X132.98Y-36.983
X133.096Y-104.902
X133.96Y-59.614
X134.112Y-63.246
X134.366Y-18.76
X134.366Y-29.21
X134.874Y-35.306
X135.128Y-50.724
X135.382Y-73.66
X135.636Y-30.48
X135.636Y-104.394
X137.414Y-38.862
X138.43Y-103.632
X138.684Y-74.168
X140.208Y-67.564
X140.462Y-41.656
X140.64Y-53.34
X140.97Y-102.836
X141.732Y-17.272
X141.732Y-35.342
X141.732Y-74.168
X142.24Y-22.606
X142.748Y-25.4
X143.51Y-73.66
X143.764Y-102.108
X144.018Y-40.006
X145.288Y-72.898
X147.32Y-72.39
X147.828Y-59.182
X148.082Y-22.86
X148.082Y-62.23
X148.59Y-20.32
X150.876Y-27.94
X151.052Y-78.612
X151.13Y-17.526
X151.13Y-38.898
X151.384Y-21.336
X152.4Y-75.863
X153.924Y-77.724
X154.686Y-84.582
X154.686Y-87.122
X154.686Y-92.098
X154.993Y-49.53
X155.956Y-94.742
X156.21Y-119.558
X156.718Y-44.704
X156.972Y-67.31
X157.226Y-101.092
X158.75Y-38.1
X158.75Y-77.724
X159.258Y-43.688
X160.24Y-85.776
X160.274Y-100.838
X161.66Y-90.602
X163.068Y-23.876
X163.83Y-114.046
X165.608Y-42.418
X165.862Y-100.838
X167.132Y-114.808
X167.894Y-38.1
X167.996Y-59.614
X168.546Y-50.8
X168.656Y-64.77
X170.282Y-58.09
X171.45Y-84.074
X172.212Y-72.334
X172.212Y-114.808
X172.466Y-10.668
X173.076Y-22.53
X173.228Y-101.346
X173.99Y-112.014
X175.006Y-24.13
X175.196Y-74.104
X175.641Y-12.573
X177.546Y-55.88
X177.546Y-101.092
X177.546Y-114.808
X177.8Y-35.56
X178.308Y-75.184
X178.308Y-110.49
X180.086Y-35.56
X180.848Y-12.7
X181.356Y-81.28
X182.626Y-114.808
X183.388Y-39.116
X183.642Y-103.632
X183.896Y-56.896
X184.404Y-61.976
X185.166Y-104.902
X185.548Y-57.912
X186.157Y-14.402
X186.436Y-106.172
X186.944Y-65.786
X187.706Y-107.442
X188.976Y-94.488
X191.516Y-52.578
X194.31Y-73.914
X194.31Y-81.788
X195.236Y-40.764
X196.85Y-114.554
X197.222Y-46.356
X198.742Y-25.946
X200.521Y-73.948
X200.998Y-43.35
X201.93Y-114.554
X202.438Y-35.052
X202.438Y-73.66
X202.946Y-103.632
X203.708Y-39.624
X204.216Y-71.12
X204.47Y-104.902
X205.162Y-40.894
X205.74Y-106.172
X206.502Y-70.866
X206.849Y-40.894
X207.01Y-107.442
X207.01Y-114.3
X207.518Y-67.056
X207.874Y-14.402
X209.55Y-40.894
X209.55Y-73.66
X212.09Y-114.3
X212.344Y-54.356
X212.344Y-59.436
X212.344Y-61.826
X213.868Y-56.642
X213.868Y-82.804
X214.055Y-44.556
X215.392Y-58.166
X215.748Y-31.928
X216.173Y-39.624
X216.51Y-29.388
X217.93Y-39.372
X218.796Y-14.402
X219.202Y-35.052
X221.844Y-27.991
X222.758Y-38.1
X224.384Y-26.848
X226.06Y-71.628
X226.314Y-47.498
X227.23Y-73.814
X227.64Y-41.98
X228.227Y-76.062
X228.854Y-100.584
X229.742Y-49.557
X230.226Y-25.324
X231.14Y-106.934
X231.496Y-22.53
X231.648Y-46.48
X231.648Y-65.532
X232.557Y-114.407
X232.664Y-109.728
X232.664Y-112.268
X233.02Y-20.244
X233.934Y-43.434
X234.29Y-17.831
X234.442Y-110.236
X235.306Y-44.958
X235.306Y-71.806
X235.712Y-108.966
X236.22Y-90.17
X236.474Y-87.122
X237.036Y-81.94
X237.048Y-61.96
X237.084Y-71.962
X237.49Y-114.046
X238.76Y-107.188
X239.243Y-45.898
X242.824Y-114.3
X246.634Y-74.168
X246.736Y-14.402
X246.99Y-41.656
X247.65Y-114.046
X248.158Y-73.152
X249.53Y-59.868
X250.444Y-83.82
X250.952Y-56.642
X252.222Y-74.168
X253.492Y-12.954
X254.717Y-21.406
X255.27Y-12.446
X255.824Y-55.556
X255.846Y-53.01
X257.556Y-58.096
X257.81Y-60.776
X257.912Y-42.088
X258.826Y-12.446
X259.08Y-74.168
X263.652Y-17.761
X263.906Y-32.766
X264.668Y-22.911
X264.668Y-27.991
X264.922Y-34.544
X265.43Y-116.84
X265.684Y-30.531
X266.192Y-20.371
X267.97Y-25.451
X268.478Y-34.29
X270.256Y-18.034
T2
X26.957Y-123.19
X26.957Y-127.635
X26.964Y-110.49
X27.155Y-79.375
X27.175Y-74.93
X27.195Y-62.23
X29.457Y-123.19
X29.457Y-127.635
X29.464Y-110.49
X29.655Y-79.375
X29.675Y-74.93
X29.695Y-62.23
X74.93Y-97.155
X74.95Y-92.075
X77.43Y-97.155
X77.45Y-92.075
X80.01Y-116.84
X80.01Y-119.34
X100.076Y-34.818
X100.076Y-37.318
X104.14Y-16.256
X104.14Y-18.796
X104.14Y-21.336
X104.14Y-23.876
X104.14Y-26.416
X104.14Y-28.956
X104.14Y-31.496
X104.14Y-52.07
X104.14Y-54.61
X104.14Y-57.15
X104.14Y-59.69
X104.14Y-62.23
X104.14Y-64.77
X104.14Y-67.31
X104.14Y-81.788
X104.14Y-84.328
X104.14Y-86.868
X104.14Y-89.408
X104.14Y-91.948
X104.14Y-94.488
X104.14Y-97.028
X104.648Y-113.538
X104.648Y-116.586
X104.648Y-124.206
X107.188Y-113.538
X107.188Y-116.586
X107.188Y-124.206
X109.728Y-113.538
X109.728Y-116.586
X109.728Y-124.206
X111.76Y-16.256
X111.76Y-18.796
X111.76Y-21.336
X111.76Y-23.876
X111.76Y-26.416
X111.76Y-28.956
X111.76Y-31.496
X111.76Y-52.07
X111.76Y-54.61
X111.76Y-57.15
X111.76Y-59.69
X111.76Y-62.23
X111.76Y-64.77
X111.76Y-67.31
X111.76Y-81.788
X111.76Y-84.328
X111.76Y-86.868
X111.76Y-89.408
X111.76Y-91.948
X111.76Y-94.488
X111.76Y-97.028
X112.268Y-113.538
X112.268Y-116.586
X112.268Y-124.206
X114.808Y-113.538
X114.808Y-116.586
X114.808Y-124.206
X116.332Y-81.788
X116.332Y-84.328
X116.332Y-86.868
X116.332Y-89.408
X116.332Y-91.948
X116.332Y-94.488
X116.332Y-97.028
X117.094Y-16.256
X117.094Y-18.796
X117.094Y-21.336
X117.094Y-23.876
X117.094Y-26.416
X117.094Y-28.956
X117.094Y-31.496
X117.348Y-113.538
X117.348Y-116.586
X117.348Y-124.206
X119.888Y-113.538
X119.888Y-116.586
X119.888Y-124.206
X122.428Y-113.538
X122.428Y-116.586
X122.428Y-124.206
X122.555Y-44.45
X122.555Y-46.99
X122.555Y-49.53
X122.555Y-52.07
X122.555Y-54.61
X122.555Y-57.15
X122.555Y-59.69
X122.555Y-62.23
X122.555Y-64.77
X122.555Y-67.31
X123.952Y-81.788
X123.952Y-84.328
X123.952Y-86.868
X123.952Y-89.408
X123.952Y-91.948
X123.952Y-94.488
X123.952Y-97.028
X124.714Y-16.256
X124.714Y-18.796
X124.714Y-21.336
X124.714Y-23.876
X124.714Y-26.416
X124.714Y-28.956
X124.714Y-31.496
X124.968Y-113.538
X124.968Y-116.586
X124.968Y-124.206
X127.508Y-113.538
X127.508Y-116.586
X127.508Y-124.206
X128.27Y-10.942
X128.27Y-13.442
X128.27Y-81.788
X128.27Y-84.328
X128.27Y-86.868
X128.27Y-89.408
X128.27Y-91.948
X128.27Y-94.488
X128.27Y-97.028
X130.175Y-44.45
X130.175Y-46.99
X130.175Y-49.53
X130.175Y-52.07
X130.175Y-54.61
X130.175Y-57.15
X130.175Y-59.69
X130.175Y-62.23
X130.175Y-64.77
X130.175Y-67.31
X131.826Y-16.51
X131.826Y-19.05
X131.826Y-21.59
X131.826Y-24.13
X131.826Y-26.67
X131.826Y-29.21
X131.826Y-31.75
X133.35Y-113.538
X133.35Y-116.586
X133.35Y-124.206
X135.89Y-81.788
X135.89Y-84.328
X135.89Y-86.868
X135.89Y-89.408
X135.89Y-91.948
X135.89Y-94.488
X135.89Y-97.028
X135.89Y-113.538
X135.89Y-116.586
X135.89Y-124.206
X137.16Y-49.53
X137.16Y-52.07
X137.16Y-54.61
X137.16Y-57.15
X137.16Y-59.69
X137.16Y-62.23
X137.16Y-64.77
X137.16Y-67.31
X138.43Y-113.538
X138.43Y-116.586
X138.43Y-124.206
X139.446Y-16.51
X139.446Y-19.05
X139.446Y-21.59
X139.446Y-24.13
X139.446Y-26.67
X139.446Y-29.21
X139.446Y-31.75
X139.7Y-81.788
X139.7Y-84.328
X139.7Y-86.868
X139.7Y-89.408
X139.7Y-91.948
X139.7Y-94.488
X139.7Y-97.028
X140.97Y-113.538
X140.97Y-116.586
X140.97Y-124.206
X143.51Y-113.538
X143.51Y-116.586
X143.51Y-124.206
X144.78Y-49.53
X144.78Y-52.07
X144.78Y-54.61
X144.78Y-57.15
X144.78Y-59.69
X144.78Y-62.23
X144.78Y-64.77
X144.78Y-67.31
X146.05Y-16.51
X146.05Y-19.05
X146.05Y-21.59
X146.05Y-24.13
X146.05Y-26.67
X146.05Y-29.21
X146.05Y-31.75
X146.05Y-113.538
X146.05Y-116.586
X146.05Y-124.206
X147.32Y-81.788
X147.32Y-84.328
X147.32Y-86.868
X147.32Y-89.408
X147.32Y-91.948
X147.32Y-94.488
X147.32Y-97.028
X148.59Y-113.538
X148.59Y-116.586
X148.59Y-124.206
X151.13Y-49.53
X151.13Y-52.07
X151.13Y-54.61
X151.13Y-57.15
X151.13Y-59.69
X151.13Y-62.23
X151.13Y-64.77
X151.13Y-67.31
X151.13Y-81.788
X151.13Y-84.328
X151.13Y-86.868
X151.13Y-89.408
X151.13Y-91.948
X151.13Y-94.488
X151.13Y-97.028
X151.13Y-113.538
X151.13Y-116.586
X151.13Y-124.206
X153.67Y-16.51
X153.67Y-19.05
X153.67Y-21.59
X153.67Y-24.13
X153.67Y-26.67
X153.67Y-29.21
X153.67Y-31.75
X153.67Y-113.538
X153.67Y-116.586
X153.67Y-124.206
X156.21Y-113.538
X156.21Y-116.586
X156.21Y-124.206
X157.734Y-10.962
X157.734Y-13.462
X158.75Y-49.53
X158.75Y-52.07
X158.75Y-54.61
X158.75Y-57.15
X158.75Y-59.69
X158.75Y-62.23
X158.75Y-64.77
X158.75Y-67.31
X158.75Y-81.788
X158.75Y-84.328
X158.75Y-86.868
X158.75Y-89.408
X158.75Y-91.948
X158.75Y-94.488
X158.75Y-97.028
X160.02Y-116.372
X160.02Y-118.872
X160.274Y-16.51
X160.274Y-19.05
X160.274Y-21.59
X160.274Y-24.13
X160.274Y-26.67
X160.274Y-29.21
X160.274Y-31.75
X162.56Y-78.232
X162.56Y-80.732
X163.322Y-116.586
X163.322Y-124.206
X165.608Y-49.53
X165.608Y-52.07
X165.608Y-54.61
X165.608Y-57.15
X165.608Y-59.69
X165.608Y-62.23
X165.608Y-64.77
X165.608Y-67.31
X165.608Y-79.248
X165.608Y-81.788
X165.608Y-84.328
X165.608Y-86.868
X165.608Y-89.408
X165.608Y-91.948
X165.608Y-94.488
X165.608Y-97.028
X165.862Y-116.586
X165.862Y-124.206
X167.894Y-16.51
X167.894Y-19.05
X167.894Y-21.59
X167.894Y-24.13
X167.894Y-26.67
X167.894Y-29.21
X167.894Y-31.75
X168.402Y-116.586
X168.402Y-124.206
X170.942Y-116.586
X170.942Y-124.206
X173.228Y-49.53
X173.228Y-52.07
X173.228Y-54.61
X173.228Y-57.15
X173.228Y-59.69
X173.228Y-62.23
X173.228Y-64.77
X173.228Y-67.31
X173.228Y-79.248
X173.228Y-81.788
X173.228Y-84.328
X173.228Y-86.868
X173.228Y-89.408
X173.228Y-91.948
X173.228Y-94.488
X173.228Y-97.028
X173.482Y-116.586
X173.482Y-124.206
X175.768Y-48.554
X175.768Y-51.054
X176.022Y-116.586
X176.022Y-124.206
X178.537Y-16.51
X178.537Y-19.05
X178.537Y-21.59
X178.537Y-24.13
X178.537Y-26.67
X178.537Y-29.21
X178.537Y-31.75
X178.562Y-116.586
X178.562Y-124.206
X179.07Y-79.248
X179.07Y-81.788
X179.07Y-84.328
X179.07Y-86.868
X179.07Y-89.408
X179.07Y-91.948
X179.07Y-94.488
X179.07Y-97.028
X181.102Y-116.586
X181.102Y-124.206
X181.356Y-51.816
X181.356Y-54.356
X181.356Y-56.896
X181.356Y-59.436
X181.356Y-61.976
X181.356Y-64.516
X181.356Y-67.056
X183.642Y-116.586
X183.642Y-124.206
X186.157Y-16.51
X186.157Y-19.05
X186.157Y-21.59
X186.157Y-24.13
X186.157Y-26.67
X186.157Y-29.21
X186.157Y-31.75
X186.182Y-116.586
X186.182Y-124.206
X186.69Y-79.248
X186.69Y-81.788
X186.69Y-84.328
X186.69Y-86.868
X186.69Y-89.408
X186.69Y-91.948
X186.69Y-94.488
X186.69Y-97.028
X188.976Y-51.816
X188.976Y-54.356
X188.976Y-56.896
X188.976Y-59.436
X188.976Y-61.976
X188.976Y-64.516
X188.976Y-67.056
X190.246Y-116.626
X190.246Y-119.126
X191.77Y-79.248
X191.77Y-81.788
X191.77Y-84.328
X191.77Y-86.868
X191.77Y-89.408
X191.77Y-91.948
X191.77Y-94.488
X191.77Y-97.028
X191.872Y-6.274
X192.507Y-13.807
X192.507Y-16.307
X193.04Y-116.586
X193.04Y-124.206
X194.372Y-6.274
X195.58Y-51.816
X195.58Y-54.356
X195.58Y-56.896
X195.58Y-59.436
X195.58Y-61.976
X195.58Y-64.516
X195.58Y-67.056
X195.58Y-116.586
X195.58Y-124.206
X198.12Y-116.586
X198.12Y-124.206
X199.39Y-79.248
X199.39Y-81.788
X199.39Y-84.328
X199.39Y-86.868
X199.39Y-89.408
X199.39Y-91.948
X199.39Y-94.488
X199.39Y-97.028
X200.66Y-16.51
X200.66Y-19.05
X200.66Y-21.59
X200.66Y-24.13
X200.66Y-26.67
X200.66Y-29.21
X200.66Y-31.75
X200.66Y-116.586
X200.66Y-124.206
X203.2Y-51.816
X203.2Y-54.356
X203.2Y-56.896
X203.2Y-59.436
X203.2Y-61.976
X203.2Y-64.516
X203.2Y-67.056
X203.2Y-116.586
X203.2Y-124.206
X204.47Y-79.248
X204.47Y-81.788
X204.47Y-84.328
X204.47Y-86.868
X204.47Y-89.408
X204.47Y-91.948
X204.47Y-94.488
X204.47Y-97.028
X205.74Y-116.586
X205.74Y-124.206
X208.28Y-16.51
X208.28Y-19.05
X208.28Y-21.59
X208.28Y-24.13
X208.28Y-26.67
X208.28Y-29.21
X208.28Y-31.75
X208.28Y-116.586
X208.28Y-124.206
X209.55Y-51.816
X209.55Y-54.356
X209.55Y-56.896
X209.55Y-59.436
X209.55Y-61.976
X209.55Y-64.516
X209.55Y-67.056
X210.82Y-116.586
X210.82Y-124.206
X212.09Y-16.51
X212.09Y-19.05
X212.09Y-21.59
X212.09Y-24.13
X212.09Y-26.67
X212.09Y-29.21
X212.09Y-31.75
X212.09Y-79.248
X212.09Y-81.788
X212.09Y-84.328
X212.09Y-86.868
X212.09Y-89.408
X212.09Y-91.948
X212.09Y-94.488
X212.09Y-97.028
X213.36Y-116.586
X213.36Y-124.206
X215.9Y-79.248
X215.9Y-81.748
X215.9Y-116.586
X215.9Y-124.206
X217.17Y-51.816
X217.17Y-54.356
X217.17Y-56.896
X217.17Y-59.436
X217.17Y-61.976
X217.17Y-64.516
X217.17Y-67.056
X218.44Y-78.994
X218.44Y-81.534
X218.44Y-84.074
X218.44Y-86.614
X218.44Y-89.154
X218.44Y-91.694
X218.44Y-94.234
X218.44Y-96.774
X218.44Y-99.314
X218.44Y-101.854
X219.71Y-16.51
X219.71Y-19.05
X219.71Y-21.59
X219.71Y-24.13
X219.71Y-26.67
X219.71Y-29.21
X219.71Y-31.75
X223.368Y-116.626
X223.368Y-119.126
X226.06Y-78.994
X226.06Y-81.534
X226.06Y-84.074
X226.06Y-86.614
X226.06Y-89.154
X226.06Y-91.694
X226.06Y-94.234
X226.06Y-96.774
X226.06Y-99.314
X226.06Y-101.854
X226.06Y-116.586
X226.06Y-124.206
X228.6Y-116.586
X228.6Y-124.206
X231.14Y-116.586
X231.14Y-124.206
X232.41Y-78.994
X232.41Y-81.534
X232.41Y-84.074
X232.41Y-86.614
X232.41Y-89.154
X232.41Y-91.694
X232.41Y-94.234
X232.41Y-96.774
X232.41Y-99.314
X232.41Y-101.854
X233.68Y-51.816
X233.68Y-54.356
X233.68Y-56.896
X233.68Y-59.436
X233.68Y-61.976
X233.68Y-64.516
X233.68Y-67.056
X233.68Y-116.586
X233.68Y-124.206
X236.22Y-116.586
X236.22Y-124.206
X238.76Y-116.586
X238.76Y-124.206
X239.497Y-16.51
X239.497Y-19.05
X239.497Y-21.59
X239.497Y-24.13
X239.497Y-26.67
X239.497Y-29.21
X239.497Y-31.75
X240.03Y-78.994
X240.03Y-81.534
X240.03Y-84.074
X240.03Y-86.614
X240.03Y-89.154
X240.03Y-91.694
X240.03Y-94.234
X240.03Y-96.774
X240.03Y-99.314
X240.03Y-101.854
X241.3Y-51.816
X241.3Y-54.356
X241.3Y-56.896
X241.3Y-59.436
X241.3Y-61.976
X241.3Y-64.516
X241.3Y-67.056
X241.3Y-116.586
X241.3Y-124.206
X243.078Y-73.7
X243.078Y-76.2
X243.84Y-116.586
X243.84Y-124.206
X246.38Y-44.196
X246.38Y-46.736
X246.38Y-49.276
X246.38Y-51.816
X246.38Y-54.356
X246.38Y-56.896
X246.38Y-59.436
X246.38Y-61.976
X246.38Y-64.516
X246.38Y-67.056
X246.38Y-116.586
X246.38Y-124.206
X246.634Y-78.994
X246.634Y-81.534
X246.634Y-84.074
X246.634Y-86.614
X246.634Y-89.154
X246.634Y-91.694
X246.634Y-94.234
X246.634Y-96.774
X246.634Y-99.314
X246.634Y-101.854
X247.117Y-16.51
X247.117Y-19.05
X247.117Y-21.59
X247.117Y-24.13
X247.117Y-26.67
X247.117Y-29.21
X247.117Y-31.75
X248.92Y-116.586
X248.92Y-124.206
X249.53Y-37.262
X249.657Y-13.894
X249.657Y-16.394
X252.03Y-37.262
X252.095Y-16.561
X252.095Y-19.101
X252.095Y-21.641
X252.095Y-24.181
X252.095Y-26.721
X252.095Y-29.261
X252.095Y-31.801
X252.095Y-34.341
X254.0Y-44.196
X254.0Y-46.736
X254.0Y-49.276
X254.0Y-51.816
X254.0Y-54.356
X254.0Y-56.896
X254.0Y-59.436
X254.0Y-61.976
X254.0Y-64.516
X254.0Y-67.056
X254.254Y-78.994
X254.254Y-81.534
X254.254Y-84.074
X254.254Y-86.614
X254.254Y-89.154
X254.254Y-91.694
X254.254Y-94.234
X254.254Y-96.774
X254.254Y-99.314
X254.254Y-101.854
X259.08Y-78.994
X259.08Y-81.534
X259.08Y-84.074
X259.08Y-86.614
X259.08Y-89.154
X259.08Y-91.694
X259.08Y-94.234
X259.08Y-96.774
X259.08Y-99.314
X259.08Y-101.854
X259.715Y-16.561
X259.715Y-19.101
X259.715Y-21.641
X259.715Y-24.181
X259.715Y-26.721
X259.715Y-29.261
X259.715Y-31.801
X259.715Y-34.341
X266.7Y-78.994
X266.7Y-81.534
X266.7Y-84.074
X266.7Y-86.614
X266.7Y-89.154
X266.7Y-91.694
X266.7Y-94.234
X266.7Y-96.774
X266.7Y-99.314
X266.7Y-101.854
X268.224Y-73.406
X268.224Y-75.906
T3
X94.996Y-121.666
X94.996Y-124.206
X97.536Y-121.666
X97.536Y-124.206
X100.076Y-121.666
X100.076Y-124.206
X191.831Y-10.03
X194.371Y-10.03
X196.911Y-10.03
X199.451Y-10.03
X207.112Y-4.242
X207.112Y-6.782
X209.652Y-4.242
X209.652Y-6.782
X212.192Y-4.242
X212.192Y-6.782
X213.614Y-0.635
X213.716Y-71.552
X214.732Y-4.242
X214.732Y-6.782
X216.154Y-0.635
X217.272Y-4.242
X217.272Y-6.782
X218.694Y-0.635
X219.812Y-4.242
X219.812Y-6.782
X221.234Y-0.635
X222.352Y-4.242
X222.352Y-6.782
X223.774Y-0.635
X224.892Y-4.242
X224.892Y-6.782
X226.314Y-0.635
X227.432Y-4.242
X227.432Y-6.782
X228.854Y-0.635
X229.972Y-4.242
X229.972Y-6.782
X231.394Y-0.635
X232.512Y-4.242
X232.512Y-6.782
X232.512Y-75.362
X233.934Y-0.635
X235.052Y-4.242
X235.052Y-6.782
X236.322Y-16.434
X236.474Y-0.635
X237.592Y-4.242
X237.592Y-6.782
X239.014Y-0.635
X240.132Y-4.242
X240.132Y-6.782
X241.554Y-0.635
X242.672Y-4.242
X242.672Y-6.782
X242.672Y-82.347
X244.094Y-0.635
X245.212Y-4.242
X245.212Y-6.782
X245.72Y-36.246
X246.634Y-0.635
X247.752Y-4.242
X247.752Y-6.782
X249.174Y-0.635
X250.292Y-4.242
X250.292Y-6.782
X251.714Y-0.635
X252.832Y-4.242
X252.832Y-6.782
X254.254Y-0.635
X255.372Y-4.242
X255.372Y-6.782
X256.794Y-0.635
X257.912Y-4.242
X257.912Y-6.782
X259.334Y-0.635
X260.452Y-4.242
X260.452Y-6.782
X261.874Y-0.635
X262.992Y-4.242
X262.992Y-6.782
X265.532Y-4.242
X265.532Y-6.782
X268.072Y-4.242
X268.072Y-6.782
X269.596Y-80.95
T4
X29.464Y-114.3
X29.464Y-116.84
X29.464Y-119.38
X29.695Y-66.04
X29.695Y-68.58
X29.695Y-71.12
X76.708Y-114.3
X76.708Y-116.84
X76.708Y-119.38
T5
X75.01Y-106.35
X80.01Y-106.35
X99.314Y-48.26
X101.854Y-44.12
X107.442Y-39.802
X112.014Y-48.26
X114.554Y-44.12
X120.142Y-39.802
X171.196Y-16.256
X171.196Y-28.956
X175.362Y-16.256
X175.362Y-28.956
X227.432Y-35.357
X227.432Y-39.548
X240.132Y-35.357
X240.132Y-39.548
T6
X51.324Y-130.81
X55.284Y-130.81
X59.244Y-130.81
X63.204Y-130.81
X67.164Y-130.81
X71.124Y-130.81
X75.084Y-130.81
X79.044Y-130.81
X83.004Y-130.81
X86.964Y-130.81
X90.924Y-130.81
X94.884Y-130.81
X98.844Y-130.81
X102.804Y-130.81
X106.764Y-130.81
X110.724Y-130.81
X114.684Y-130.81
X118.644Y-130.81
X122.604Y-130.81
X126.564Y-130.81
X130.524Y-130.81
X134.484Y-130.81
X138.444Y-130.81
X142.404Y-130.81
X146.364Y-130.81
X150.324Y-130.81
X154.284Y-130.81
X158.244Y-130.81
X162.204Y-130.81
X166.164Y-130.81
X170.124Y-130.81
X174.084Y-130.81
X178.044Y-130.81
X182.004Y-130.81
X185.964Y-130.81
X189.924Y-130.81
X193.884Y-130.81
X197.844Y-130.81
X201.804Y-130.81
X205.764Y-130.81
X209.724Y-130.81
X213.684Y-130.81
X217.644Y-130.81
X221.604Y-130.81
X225.564Y-130.81
X229.524Y-130.81
X233.484Y-130.81
X237.444Y-130.81
X241.404Y-130.81
X245.364Y-130.81
T7
X193.95Y-34.061
X226.512Y-21.209
X266.898Y-42.138
T8
X46.124Y-116.84
X46.355Y-68.58
X60.048Y-116.84
M30
