%TF.GenerationSoftware,KiCad,Pcbnew,9.0.9-9.0.9~ubuntu24.04.1*%
%TF.CreationDate,2026-07-13T18:50:19+02:00*%
%TF.ProjectId,GIMIX BaudRateGenerator,47494d49-5820-4426-9175-645261746547,rev?*%
%TF.SameCoordinates,Original*%
%TF.FileFunction,Legend,Top*%
%TF.FilePolarity,Positive*%
%FSLAX46Y46*%
G04 Gerber Fmt 4.6, Leading zero omitted, Abs format (unit mm)*
G04 Created by KiCad (PCBNEW 9.0.9-9.0.9~ubuntu24.04.1) date 2026-07-13 18:50:19*
%MOMM*%
%LPD*%
G01*
G04 APERTURE LIST*
%ADD10C,0.150000*%
%ADD11C,0.200000*%
%ADD12C,0.250000*%
%ADD13C,0.100000*%
%ADD14C,0.120000*%
G04 APERTURE END LIST*
D10*
X187693541Y-142617819D02*
X188217350Y-141951152D01*
X187693541Y-141951152D02*
X188217350Y-142617819D01*
X190852588Y-141665438D02*
X190757350Y-141617819D01*
X190757350Y-141617819D02*
X190614493Y-141617819D01*
X190614493Y-141617819D02*
X190471636Y-141665438D01*
X190471636Y-141665438D02*
X190376398Y-141760676D01*
X190376398Y-141760676D02*
X190328779Y-141855914D01*
X190328779Y-141855914D02*
X190281160Y-142046390D01*
X190281160Y-142046390D02*
X190281160Y-142189247D01*
X190281160Y-142189247D02*
X190328779Y-142379723D01*
X190328779Y-142379723D02*
X190376398Y-142474961D01*
X190376398Y-142474961D02*
X190471636Y-142570200D01*
X190471636Y-142570200D02*
X190614493Y-142617819D01*
X190614493Y-142617819D02*
X190709731Y-142617819D01*
X190709731Y-142617819D02*
X190852588Y-142570200D01*
X190852588Y-142570200D02*
X190900207Y-142522580D01*
X190900207Y-142522580D02*
X190900207Y-142189247D01*
X190900207Y-142189247D02*
X190709731Y-142189247D01*
X181692779Y-142236866D02*
X182454684Y-142236866D01*
X182073731Y-142617819D02*
X182073731Y-141855914D01*
X183407064Y-141617819D02*
X182930874Y-141617819D01*
X182930874Y-141617819D02*
X182883255Y-142094009D01*
X182883255Y-142094009D02*
X182930874Y-142046390D01*
X182930874Y-142046390D02*
X183026112Y-141998771D01*
X183026112Y-141998771D02*
X183264207Y-141998771D01*
X183264207Y-141998771D02*
X183359445Y-142046390D01*
X183359445Y-142046390D02*
X183407064Y-142094009D01*
X183407064Y-142094009D02*
X183454683Y-142189247D01*
X183454683Y-142189247D02*
X183454683Y-142427342D01*
X183454683Y-142427342D02*
X183407064Y-142522580D01*
X183407064Y-142522580D02*
X183359445Y-142570200D01*
X183359445Y-142570200D02*
X183264207Y-142617819D01*
X183264207Y-142617819D02*
X183026112Y-142617819D01*
X183026112Y-142617819D02*
X182930874Y-142570200D01*
X182930874Y-142570200D02*
X182883255Y-142522580D01*
X179152779Y-142236866D02*
X179914684Y-142236866D01*
X179533731Y-142617819D02*
X179533731Y-141855914D01*
X180867064Y-141617819D02*
X180390874Y-141617819D01*
X180390874Y-141617819D02*
X180343255Y-142094009D01*
X180343255Y-142094009D02*
X180390874Y-142046390D01*
X180390874Y-142046390D02*
X180486112Y-141998771D01*
X180486112Y-141998771D02*
X180724207Y-141998771D01*
X180724207Y-141998771D02*
X180819445Y-142046390D01*
X180819445Y-142046390D02*
X180867064Y-142094009D01*
X180867064Y-142094009D02*
X180914683Y-142189247D01*
X180914683Y-142189247D02*
X180914683Y-142427342D01*
X180914683Y-142427342D02*
X180867064Y-142522580D01*
X180867064Y-142522580D02*
X180819445Y-142570200D01*
X180819445Y-142570200D02*
X180724207Y-142617819D01*
X180724207Y-142617819D02*
X180486112Y-142617819D01*
X180486112Y-142617819D02*
X180390874Y-142570200D01*
X180390874Y-142570200D02*
X180343255Y-142522580D01*
X185518588Y-141665438D02*
X185423350Y-141617819D01*
X185423350Y-141617819D02*
X185280493Y-141617819D01*
X185280493Y-141617819D02*
X185137636Y-141665438D01*
X185137636Y-141665438D02*
X185042398Y-141760676D01*
X185042398Y-141760676D02*
X184994779Y-141855914D01*
X184994779Y-141855914D02*
X184947160Y-142046390D01*
X184947160Y-142046390D02*
X184947160Y-142189247D01*
X184947160Y-142189247D02*
X184994779Y-142379723D01*
X184994779Y-142379723D02*
X185042398Y-142474961D01*
X185042398Y-142474961D02*
X185137636Y-142570200D01*
X185137636Y-142570200D02*
X185280493Y-142617819D01*
X185280493Y-142617819D02*
X185375731Y-142617819D01*
X185375731Y-142617819D02*
X185518588Y-142570200D01*
X185518588Y-142570200D02*
X185566207Y-142522580D01*
X185566207Y-142522580D02*
X185566207Y-142189247D01*
X185566207Y-142189247D02*
X185375731Y-142189247D01*
X171024779Y-70720009D02*
X171358112Y-70720009D01*
X171500969Y-71243819D02*
X171024779Y-71243819D01*
X171024779Y-71243819D02*
X171024779Y-70243819D01*
X171024779Y-70243819D02*
X171500969Y-70243819D01*
X164674779Y-71243819D02*
X164674779Y-70243819D01*
X164674779Y-70243819D02*
X164912874Y-70243819D01*
X164912874Y-70243819D02*
X165055731Y-70291438D01*
X165055731Y-70291438D02*
X165150969Y-70386676D01*
X165150969Y-70386676D02*
X165198588Y-70481914D01*
X165198588Y-70481914D02*
X165246207Y-70672390D01*
X165246207Y-70672390D02*
X165246207Y-70815247D01*
X165246207Y-70815247D02*
X165198588Y-71005723D01*
X165198588Y-71005723D02*
X165150969Y-71100961D01*
X165150969Y-71100961D02*
X165055731Y-71196200D01*
X165055731Y-71196200D02*
X164912874Y-71243819D01*
X164912874Y-71243819D02*
X164674779Y-71243819D01*
X158896207Y-71148580D02*
X158848588Y-71196200D01*
X158848588Y-71196200D02*
X158705731Y-71243819D01*
X158705731Y-71243819D02*
X158610493Y-71243819D01*
X158610493Y-71243819D02*
X158467636Y-71196200D01*
X158467636Y-71196200D02*
X158372398Y-71100961D01*
X158372398Y-71100961D02*
X158324779Y-71005723D01*
X158324779Y-71005723D02*
X158277160Y-70815247D01*
X158277160Y-70815247D02*
X158277160Y-70672390D01*
X158277160Y-70672390D02*
X158324779Y-70481914D01*
X158324779Y-70481914D02*
X158372398Y-70386676D01*
X158372398Y-70386676D02*
X158467636Y-70291438D01*
X158467636Y-70291438D02*
X158610493Y-70243819D01*
X158610493Y-70243819D02*
X158705731Y-70243819D01*
X158705731Y-70243819D02*
X158848588Y-70291438D01*
X158848588Y-70291438D02*
X158896207Y-70339057D01*
X152562112Y-70720009D02*
X152704969Y-70767628D01*
X152704969Y-70767628D02*
X152752588Y-70815247D01*
X152752588Y-70815247D02*
X152800207Y-70910485D01*
X152800207Y-70910485D02*
X152800207Y-71053342D01*
X152800207Y-71053342D02*
X152752588Y-71148580D01*
X152752588Y-71148580D02*
X152704969Y-71196200D01*
X152704969Y-71196200D02*
X152609731Y-71243819D01*
X152609731Y-71243819D02*
X152228779Y-71243819D01*
X152228779Y-71243819D02*
X152228779Y-70243819D01*
X152228779Y-70243819D02*
X152562112Y-70243819D01*
X152562112Y-70243819D02*
X152657350Y-70291438D01*
X152657350Y-70291438D02*
X152704969Y-70339057D01*
X152704969Y-70339057D02*
X152752588Y-70434295D01*
X152752588Y-70434295D02*
X152752588Y-70529533D01*
X152752588Y-70529533D02*
X152704969Y-70624771D01*
X152704969Y-70624771D02*
X152657350Y-70672390D01*
X152657350Y-70672390D02*
X152562112Y-70720009D01*
X152562112Y-70720009D02*
X152228779Y-70720009D01*
X146085160Y-70958104D02*
X146561350Y-70958104D01*
X145989922Y-71243819D02*
X146323255Y-70243819D01*
X146323255Y-70243819D02*
X146656588Y-71243819D01*
X187598207Y-74291819D02*
X187264874Y-73815628D01*
X187026779Y-74291819D02*
X187026779Y-73291819D01*
X187026779Y-73291819D02*
X187407731Y-73291819D01*
X187407731Y-73291819D02*
X187502969Y-73339438D01*
X187502969Y-73339438D02*
X187550588Y-73387057D01*
X187550588Y-73387057D02*
X187598207Y-73482295D01*
X187598207Y-73482295D02*
X187598207Y-73625152D01*
X187598207Y-73625152D02*
X187550588Y-73720390D01*
X187550588Y-73720390D02*
X187502969Y-73768009D01*
X187502969Y-73768009D02*
X187407731Y-73815628D01*
X187407731Y-73815628D02*
X187026779Y-73815628D01*
X187979160Y-74244200D02*
X188122017Y-74291819D01*
X188122017Y-74291819D02*
X188360112Y-74291819D01*
X188360112Y-74291819D02*
X188455350Y-74244200D01*
X188455350Y-74244200D02*
X188502969Y-74196580D01*
X188502969Y-74196580D02*
X188550588Y-74101342D01*
X188550588Y-74101342D02*
X188550588Y-74006104D01*
X188550588Y-74006104D02*
X188502969Y-73910866D01*
X188502969Y-73910866D02*
X188455350Y-73863247D01*
X188455350Y-73863247D02*
X188360112Y-73815628D01*
X188360112Y-73815628D02*
X188169636Y-73768009D01*
X188169636Y-73768009D02*
X188074398Y-73720390D01*
X188074398Y-73720390D02*
X188026779Y-73672771D01*
X188026779Y-73672771D02*
X187979160Y-73577533D01*
X187979160Y-73577533D02*
X187979160Y-73482295D01*
X187979160Y-73482295D02*
X188026779Y-73387057D01*
X188026779Y-73387057D02*
X188074398Y-73339438D01*
X188074398Y-73339438D02*
X188169636Y-73291819D01*
X188169636Y-73291819D02*
X188407731Y-73291819D01*
X188407731Y-73291819D02*
X188550588Y-73339438D01*
X188931541Y-74006104D02*
X189407731Y-74006104D01*
X188836303Y-74291819D02*
X189169636Y-73291819D01*
X189169636Y-73291819D02*
X189502969Y-74291819D01*
X179978207Y-74291819D02*
X179644874Y-73815628D01*
X179406779Y-74291819D02*
X179406779Y-73291819D01*
X179406779Y-73291819D02*
X179787731Y-73291819D01*
X179787731Y-73291819D02*
X179882969Y-73339438D01*
X179882969Y-73339438D02*
X179930588Y-73387057D01*
X179930588Y-73387057D02*
X179978207Y-73482295D01*
X179978207Y-73482295D02*
X179978207Y-73625152D01*
X179978207Y-73625152D02*
X179930588Y-73720390D01*
X179930588Y-73720390D02*
X179882969Y-73768009D01*
X179882969Y-73768009D02*
X179787731Y-73815628D01*
X179787731Y-73815628D02*
X179406779Y-73815628D01*
X180359160Y-74244200D02*
X180502017Y-74291819D01*
X180502017Y-74291819D02*
X180740112Y-74291819D01*
X180740112Y-74291819D02*
X180835350Y-74244200D01*
X180835350Y-74244200D02*
X180882969Y-74196580D01*
X180882969Y-74196580D02*
X180930588Y-74101342D01*
X180930588Y-74101342D02*
X180930588Y-74006104D01*
X180930588Y-74006104D02*
X180882969Y-73910866D01*
X180882969Y-73910866D02*
X180835350Y-73863247D01*
X180835350Y-73863247D02*
X180740112Y-73815628D01*
X180740112Y-73815628D02*
X180549636Y-73768009D01*
X180549636Y-73768009D02*
X180454398Y-73720390D01*
X180454398Y-73720390D02*
X180406779Y-73672771D01*
X180406779Y-73672771D02*
X180359160Y-73577533D01*
X180359160Y-73577533D02*
X180359160Y-73482295D01*
X180359160Y-73482295D02*
X180406779Y-73387057D01*
X180406779Y-73387057D02*
X180454398Y-73339438D01*
X180454398Y-73339438D02*
X180549636Y-73291819D01*
X180549636Y-73291819D02*
X180787731Y-73291819D01*
X180787731Y-73291819D02*
X180930588Y-73339438D01*
X181692493Y-73768009D02*
X181835350Y-73815628D01*
X181835350Y-73815628D02*
X181882969Y-73863247D01*
X181882969Y-73863247D02*
X181930588Y-73958485D01*
X181930588Y-73958485D02*
X181930588Y-74101342D01*
X181930588Y-74101342D02*
X181882969Y-74196580D01*
X181882969Y-74196580D02*
X181835350Y-74244200D01*
X181835350Y-74244200D02*
X181740112Y-74291819D01*
X181740112Y-74291819D02*
X181359160Y-74291819D01*
X181359160Y-74291819D02*
X181359160Y-73291819D01*
X181359160Y-73291819D02*
X181692493Y-73291819D01*
X181692493Y-73291819D02*
X181787731Y-73339438D01*
X181787731Y-73339438D02*
X181835350Y-73387057D01*
X181835350Y-73387057D02*
X181882969Y-73482295D01*
X181882969Y-73482295D02*
X181882969Y-73577533D01*
X181882969Y-73577533D02*
X181835350Y-73672771D01*
X181835350Y-73672771D02*
X181787731Y-73720390D01*
X181787731Y-73720390D02*
X181692493Y-73768009D01*
X181692493Y-73768009D02*
X181359160Y-73768009D01*
X183232588Y-73339438D02*
X183137350Y-73291819D01*
X183137350Y-73291819D02*
X182994493Y-73291819D01*
X182994493Y-73291819D02*
X182851636Y-73339438D01*
X182851636Y-73339438D02*
X182756398Y-73434676D01*
X182756398Y-73434676D02*
X182708779Y-73529914D01*
X182708779Y-73529914D02*
X182661160Y-73720390D01*
X182661160Y-73720390D02*
X182661160Y-73863247D01*
X182661160Y-73863247D02*
X182708779Y-74053723D01*
X182708779Y-74053723D02*
X182756398Y-74148961D01*
X182756398Y-74148961D02*
X182851636Y-74244200D01*
X182851636Y-74244200D02*
X182994493Y-74291819D01*
X182994493Y-74291819D02*
X183089731Y-74291819D01*
X183089731Y-74291819D02*
X183232588Y-74244200D01*
X183232588Y-74244200D02*
X183280207Y-74196580D01*
X183280207Y-74196580D02*
X183280207Y-73863247D01*
X183280207Y-73863247D02*
X183089731Y-73863247D01*
X190852588Y-73339438D02*
X190757350Y-73291819D01*
X190757350Y-73291819D02*
X190614493Y-73291819D01*
X190614493Y-73291819D02*
X190471636Y-73339438D01*
X190471636Y-73339438D02*
X190376398Y-73434676D01*
X190376398Y-73434676D02*
X190328779Y-73529914D01*
X190328779Y-73529914D02*
X190281160Y-73720390D01*
X190281160Y-73720390D02*
X190281160Y-73863247D01*
X190281160Y-73863247D02*
X190328779Y-74053723D01*
X190328779Y-74053723D02*
X190376398Y-74148961D01*
X190376398Y-74148961D02*
X190471636Y-74244200D01*
X190471636Y-74244200D02*
X190614493Y-74291819D01*
X190614493Y-74291819D02*
X190709731Y-74291819D01*
X190709731Y-74291819D02*
X190852588Y-74244200D01*
X190852588Y-74244200D02*
X190900207Y-74196580D01*
X190900207Y-74196580D02*
X190900207Y-73863247D01*
X190900207Y-73863247D02*
X190709731Y-73863247D01*
X184486779Y-73910866D02*
X185248684Y-73910866D01*
X184867731Y-74291819D02*
X184867731Y-73529914D01*
X186201064Y-73291819D02*
X185724874Y-73291819D01*
X185724874Y-73291819D02*
X185677255Y-73768009D01*
X185677255Y-73768009D02*
X185724874Y-73720390D01*
X185724874Y-73720390D02*
X185820112Y-73672771D01*
X185820112Y-73672771D02*
X186058207Y-73672771D01*
X186058207Y-73672771D02*
X186153445Y-73720390D01*
X186153445Y-73720390D02*
X186201064Y-73768009D01*
X186201064Y-73768009D02*
X186248683Y-73863247D01*
X186248683Y-73863247D02*
X186248683Y-74101342D01*
X186248683Y-74101342D02*
X186201064Y-74196580D01*
X186201064Y-74196580D02*
X186153445Y-74244200D01*
X186153445Y-74244200D02*
X186058207Y-74291819D01*
X186058207Y-74291819D02*
X185820112Y-74291819D01*
X185820112Y-74291819D02*
X185724874Y-74244200D01*
X185724874Y-74244200D02*
X185677255Y-74196580D01*
X176866779Y-73910866D02*
X177628684Y-73910866D01*
X177247731Y-74291819D02*
X177247731Y-73529914D01*
X178581064Y-73291819D02*
X178104874Y-73291819D01*
X178104874Y-73291819D02*
X178057255Y-73768009D01*
X178057255Y-73768009D02*
X178104874Y-73720390D01*
X178104874Y-73720390D02*
X178200112Y-73672771D01*
X178200112Y-73672771D02*
X178438207Y-73672771D01*
X178438207Y-73672771D02*
X178533445Y-73720390D01*
X178533445Y-73720390D02*
X178581064Y-73768009D01*
X178581064Y-73768009D02*
X178628683Y-73863247D01*
X178628683Y-73863247D02*
X178628683Y-74101342D01*
X178628683Y-74101342D02*
X178581064Y-74196580D01*
X178581064Y-74196580D02*
X178533445Y-74244200D01*
X178533445Y-74244200D02*
X178438207Y-74291819D01*
X178438207Y-74291819D02*
X178200112Y-74291819D01*
X178200112Y-74291819D02*
X178104874Y-74244200D01*
X178104874Y-74244200D02*
X178057255Y-74196580D01*
X183550112Y-144036233D02*
X183692969Y-144083852D01*
X183692969Y-144083852D02*
X183740588Y-144131471D01*
X183740588Y-144131471D02*
X183788207Y-144226709D01*
X183788207Y-144226709D02*
X183788207Y-144369566D01*
X183788207Y-144369566D02*
X183740588Y-144464804D01*
X183740588Y-144464804D02*
X183692969Y-144512424D01*
X183692969Y-144512424D02*
X183597731Y-144560043D01*
X183597731Y-144560043D02*
X183216779Y-144560043D01*
X183216779Y-144560043D02*
X183216779Y-143560043D01*
X183216779Y-143560043D02*
X183550112Y-143560043D01*
X183550112Y-143560043D02*
X183645350Y-143607662D01*
X183645350Y-143607662D02*
X183692969Y-143655281D01*
X183692969Y-143655281D02*
X183740588Y-143750519D01*
X183740588Y-143750519D02*
X183740588Y-143845757D01*
X183740588Y-143845757D02*
X183692969Y-143940995D01*
X183692969Y-143940995D02*
X183645350Y-143988614D01*
X183645350Y-143988614D02*
X183550112Y-144036233D01*
X183550112Y-144036233D02*
X183216779Y-144036233D01*
X184645350Y-144560043D02*
X184645350Y-144036233D01*
X184645350Y-144036233D02*
X184597731Y-143940995D01*
X184597731Y-143940995D02*
X184502493Y-143893376D01*
X184502493Y-143893376D02*
X184312017Y-143893376D01*
X184312017Y-143893376D02*
X184216779Y-143940995D01*
X184645350Y-144512424D02*
X184550112Y-144560043D01*
X184550112Y-144560043D02*
X184312017Y-144560043D01*
X184312017Y-144560043D02*
X184216779Y-144512424D01*
X184216779Y-144512424D02*
X184169160Y-144417185D01*
X184169160Y-144417185D02*
X184169160Y-144321947D01*
X184169160Y-144321947D02*
X184216779Y-144226709D01*
X184216779Y-144226709D02*
X184312017Y-144179090D01*
X184312017Y-144179090D02*
X184550112Y-144179090D01*
X184550112Y-144179090D02*
X184645350Y-144131471D01*
X185550112Y-143893376D02*
X185550112Y-144560043D01*
X185121541Y-143893376D02*
X185121541Y-144417185D01*
X185121541Y-144417185D02*
X185169160Y-144512424D01*
X185169160Y-144512424D02*
X185264398Y-144560043D01*
X185264398Y-144560043D02*
X185407255Y-144560043D01*
X185407255Y-144560043D02*
X185502493Y-144512424D01*
X185502493Y-144512424D02*
X185550112Y-144464804D01*
X186454874Y-144560043D02*
X186454874Y-143560043D01*
X186454874Y-144512424D02*
X186359636Y-144560043D01*
X186359636Y-144560043D02*
X186169160Y-144560043D01*
X186169160Y-144560043D02*
X186073922Y-144512424D01*
X186073922Y-144512424D02*
X186026303Y-144464804D01*
X186026303Y-144464804D02*
X185978684Y-144369566D01*
X185978684Y-144369566D02*
X185978684Y-144083852D01*
X185978684Y-144083852D02*
X186026303Y-143988614D01*
X186026303Y-143988614D02*
X186073922Y-143940995D01*
X186073922Y-143940995D02*
X186169160Y-143893376D01*
X186169160Y-143893376D02*
X186359636Y-143893376D01*
X186359636Y-143893376D02*
X186454874Y-143940995D01*
X188264398Y-144560043D02*
X187931065Y-144083852D01*
X187692970Y-144560043D02*
X187692970Y-143560043D01*
X187692970Y-143560043D02*
X188073922Y-143560043D01*
X188073922Y-143560043D02*
X188169160Y-143607662D01*
X188169160Y-143607662D02*
X188216779Y-143655281D01*
X188216779Y-143655281D02*
X188264398Y-143750519D01*
X188264398Y-143750519D02*
X188264398Y-143893376D01*
X188264398Y-143893376D02*
X188216779Y-143988614D01*
X188216779Y-143988614D02*
X188169160Y-144036233D01*
X188169160Y-144036233D02*
X188073922Y-144083852D01*
X188073922Y-144083852D02*
X187692970Y-144083852D01*
X189121541Y-144560043D02*
X189121541Y-144036233D01*
X189121541Y-144036233D02*
X189073922Y-143940995D01*
X189073922Y-143940995D02*
X188978684Y-143893376D01*
X188978684Y-143893376D02*
X188788208Y-143893376D01*
X188788208Y-143893376D02*
X188692970Y-143940995D01*
X189121541Y-144512424D02*
X189026303Y-144560043D01*
X189026303Y-144560043D02*
X188788208Y-144560043D01*
X188788208Y-144560043D02*
X188692970Y-144512424D01*
X188692970Y-144512424D02*
X188645351Y-144417185D01*
X188645351Y-144417185D02*
X188645351Y-144321947D01*
X188645351Y-144321947D02*
X188692970Y-144226709D01*
X188692970Y-144226709D02*
X188788208Y-144179090D01*
X188788208Y-144179090D02*
X189026303Y-144179090D01*
X189026303Y-144179090D02*
X189121541Y-144131471D01*
X189454875Y-143893376D02*
X189835827Y-143893376D01*
X189597732Y-143560043D02*
X189597732Y-144417185D01*
X189597732Y-144417185D02*
X189645351Y-144512424D01*
X189645351Y-144512424D02*
X189740589Y-144560043D01*
X189740589Y-144560043D02*
X189835827Y-144560043D01*
X190550113Y-144512424D02*
X190454875Y-144560043D01*
X190454875Y-144560043D02*
X190264399Y-144560043D01*
X190264399Y-144560043D02*
X190169161Y-144512424D01*
X190169161Y-144512424D02*
X190121542Y-144417185D01*
X190121542Y-144417185D02*
X190121542Y-144036233D01*
X190121542Y-144036233D02*
X190169161Y-143940995D01*
X190169161Y-143940995D02*
X190264399Y-143893376D01*
X190264399Y-143893376D02*
X190454875Y-143893376D01*
X190454875Y-143893376D02*
X190550113Y-143940995D01*
X190550113Y-143940995D02*
X190597732Y-144036233D01*
X190597732Y-144036233D02*
X190597732Y-144131471D01*
X190597732Y-144131471D02*
X190121542Y-144226709D01*
X183740588Y-145217606D02*
X183645350Y-145169987D01*
X183645350Y-145169987D02*
X183502493Y-145169987D01*
X183502493Y-145169987D02*
X183359636Y-145217606D01*
X183359636Y-145217606D02*
X183264398Y-145312844D01*
X183264398Y-145312844D02*
X183216779Y-145408082D01*
X183216779Y-145408082D02*
X183169160Y-145598558D01*
X183169160Y-145598558D02*
X183169160Y-145741415D01*
X183169160Y-145741415D02*
X183216779Y-145931891D01*
X183216779Y-145931891D02*
X183264398Y-146027129D01*
X183264398Y-146027129D02*
X183359636Y-146122368D01*
X183359636Y-146122368D02*
X183502493Y-146169987D01*
X183502493Y-146169987D02*
X183597731Y-146169987D01*
X183597731Y-146169987D02*
X183740588Y-146122368D01*
X183740588Y-146122368D02*
X183788207Y-146074748D01*
X183788207Y-146074748D02*
X183788207Y-145741415D01*
X183788207Y-145741415D02*
X183597731Y-145741415D01*
X184597731Y-146122368D02*
X184502493Y-146169987D01*
X184502493Y-146169987D02*
X184312017Y-146169987D01*
X184312017Y-146169987D02*
X184216779Y-146122368D01*
X184216779Y-146122368D02*
X184169160Y-146027129D01*
X184169160Y-146027129D02*
X184169160Y-145646177D01*
X184169160Y-145646177D02*
X184216779Y-145550939D01*
X184216779Y-145550939D02*
X184312017Y-145503320D01*
X184312017Y-145503320D02*
X184502493Y-145503320D01*
X184502493Y-145503320D02*
X184597731Y-145550939D01*
X184597731Y-145550939D02*
X184645350Y-145646177D01*
X184645350Y-145646177D02*
X184645350Y-145741415D01*
X184645350Y-145741415D02*
X184169160Y-145836653D01*
X185073922Y-145503320D02*
X185073922Y-146169987D01*
X185073922Y-145598558D02*
X185121541Y-145550939D01*
X185121541Y-145550939D02*
X185216779Y-145503320D01*
X185216779Y-145503320D02*
X185359636Y-145503320D01*
X185359636Y-145503320D02*
X185454874Y-145550939D01*
X185454874Y-145550939D02*
X185502493Y-145646177D01*
X185502493Y-145646177D02*
X185502493Y-146169987D01*
X186359636Y-146122368D02*
X186264398Y-146169987D01*
X186264398Y-146169987D02*
X186073922Y-146169987D01*
X186073922Y-146169987D02*
X185978684Y-146122368D01*
X185978684Y-146122368D02*
X185931065Y-146027129D01*
X185931065Y-146027129D02*
X185931065Y-145646177D01*
X185931065Y-145646177D02*
X185978684Y-145550939D01*
X185978684Y-145550939D02*
X186073922Y-145503320D01*
X186073922Y-145503320D02*
X186264398Y-145503320D01*
X186264398Y-145503320D02*
X186359636Y-145550939D01*
X186359636Y-145550939D02*
X186407255Y-145646177D01*
X186407255Y-145646177D02*
X186407255Y-145741415D01*
X186407255Y-145741415D02*
X185931065Y-145836653D01*
X186835827Y-146169987D02*
X186835827Y-145503320D01*
X186835827Y-145693796D02*
X186883446Y-145598558D01*
X186883446Y-145598558D02*
X186931065Y-145550939D01*
X186931065Y-145550939D02*
X187026303Y-145503320D01*
X187026303Y-145503320D02*
X187121541Y-145503320D01*
X187883446Y-146169987D02*
X187883446Y-145646177D01*
X187883446Y-145646177D02*
X187835827Y-145550939D01*
X187835827Y-145550939D02*
X187740589Y-145503320D01*
X187740589Y-145503320D02*
X187550113Y-145503320D01*
X187550113Y-145503320D02*
X187454875Y-145550939D01*
X187883446Y-146122368D02*
X187788208Y-146169987D01*
X187788208Y-146169987D02*
X187550113Y-146169987D01*
X187550113Y-146169987D02*
X187454875Y-146122368D01*
X187454875Y-146122368D02*
X187407256Y-146027129D01*
X187407256Y-146027129D02*
X187407256Y-145931891D01*
X187407256Y-145931891D02*
X187454875Y-145836653D01*
X187454875Y-145836653D02*
X187550113Y-145789034D01*
X187550113Y-145789034D02*
X187788208Y-145789034D01*
X187788208Y-145789034D02*
X187883446Y-145741415D01*
X188216780Y-145503320D02*
X188597732Y-145503320D01*
X188359637Y-145169987D02*
X188359637Y-146027129D01*
X188359637Y-146027129D02*
X188407256Y-146122368D01*
X188407256Y-146122368D02*
X188502494Y-146169987D01*
X188502494Y-146169987D02*
X188597732Y-146169987D01*
X189073923Y-146169987D02*
X188978685Y-146122368D01*
X188978685Y-146122368D02*
X188931066Y-146074748D01*
X188931066Y-146074748D02*
X188883447Y-145979510D01*
X188883447Y-145979510D02*
X188883447Y-145693796D01*
X188883447Y-145693796D02*
X188931066Y-145598558D01*
X188931066Y-145598558D02*
X188978685Y-145550939D01*
X188978685Y-145550939D02*
X189073923Y-145503320D01*
X189073923Y-145503320D02*
X189216780Y-145503320D01*
X189216780Y-145503320D02*
X189312018Y-145550939D01*
X189312018Y-145550939D02*
X189359637Y-145598558D01*
X189359637Y-145598558D02*
X189407256Y-145693796D01*
X189407256Y-145693796D02*
X189407256Y-145979510D01*
X189407256Y-145979510D02*
X189359637Y-146074748D01*
X189359637Y-146074748D02*
X189312018Y-146122368D01*
X189312018Y-146122368D02*
X189216780Y-146169987D01*
X189216780Y-146169987D02*
X189073923Y-146169987D01*
X189835828Y-146169987D02*
X189835828Y-145503320D01*
X189835828Y-145693796D02*
X189883447Y-145598558D01*
X189883447Y-145598558D02*
X189931066Y-145550939D01*
X189931066Y-145550939D02*
X190026304Y-145503320D01*
X190026304Y-145503320D02*
X190121542Y-145503320D01*
X191550114Y-145646177D02*
X191692971Y-145693796D01*
X191692971Y-145693796D02*
X191740590Y-145741415D01*
X191740590Y-145741415D02*
X191788209Y-145836653D01*
X191788209Y-145836653D02*
X191788209Y-145979510D01*
X191788209Y-145979510D02*
X191740590Y-146074748D01*
X191740590Y-146074748D02*
X191692971Y-146122368D01*
X191692971Y-146122368D02*
X191597733Y-146169987D01*
X191597733Y-146169987D02*
X191216781Y-146169987D01*
X191216781Y-146169987D02*
X191216781Y-145169987D01*
X191216781Y-145169987D02*
X191550114Y-145169987D01*
X191550114Y-145169987D02*
X191645352Y-145217606D01*
X191645352Y-145217606D02*
X191692971Y-145265225D01*
X191692971Y-145265225D02*
X191740590Y-145360463D01*
X191740590Y-145360463D02*
X191740590Y-145455701D01*
X191740590Y-145455701D02*
X191692971Y-145550939D01*
X191692971Y-145550939D02*
X191645352Y-145598558D01*
X191645352Y-145598558D02*
X191550114Y-145646177D01*
X191550114Y-145646177D02*
X191216781Y-145646177D01*
X192216781Y-146169987D02*
X192216781Y-145503320D01*
X192216781Y-145693796D02*
X192264400Y-145598558D01*
X192264400Y-145598558D02*
X192312019Y-145550939D01*
X192312019Y-145550939D02*
X192407257Y-145503320D01*
X192407257Y-145503320D02*
X192502495Y-145503320D01*
X193264400Y-146169987D02*
X193264400Y-145169987D01*
X193264400Y-146122368D02*
X193169162Y-146169987D01*
X193169162Y-146169987D02*
X192978686Y-146169987D01*
X192978686Y-146169987D02*
X192883448Y-146122368D01*
X192883448Y-146122368D02*
X192835829Y-146074748D01*
X192835829Y-146074748D02*
X192788210Y-145979510D01*
X192788210Y-145979510D02*
X192788210Y-145693796D01*
X192788210Y-145693796D02*
X192835829Y-145598558D01*
X192835829Y-145598558D02*
X192883448Y-145550939D01*
X192883448Y-145550939D02*
X192978686Y-145503320D01*
X192978686Y-145503320D02*
X193169162Y-145503320D01*
X193169162Y-145503320D02*
X193264400Y-145550939D01*
X193740591Y-146074748D02*
X193788210Y-146122368D01*
X193788210Y-146122368D02*
X193740591Y-146169987D01*
X193740591Y-146169987D02*
X193692972Y-146122368D01*
X193692972Y-146122368D02*
X193740591Y-146074748D01*
X193740591Y-146074748D02*
X193740591Y-146169987D01*
X183788207Y-147779931D02*
X183454874Y-147303740D01*
X183216779Y-147779931D02*
X183216779Y-146779931D01*
X183216779Y-146779931D02*
X183597731Y-146779931D01*
X183597731Y-146779931D02*
X183692969Y-146827550D01*
X183692969Y-146827550D02*
X183740588Y-146875169D01*
X183740588Y-146875169D02*
X183788207Y-146970407D01*
X183788207Y-146970407D02*
X183788207Y-147113264D01*
X183788207Y-147113264D02*
X183740588Y-147208502D01*
X183740588Y-147208502D02*
X183692969Y-147256121D01*
X183692969Y-147256121D02*
X183597731Y-147303740D01*
X183597731Y-147303740D02*
X183216779Y-147303740D01*
X184597731Y-147732312D02*
X184502493Y-147779931D01*
X184502493Y-147779931D02*
X184312017Y-147779931D01*
X184312017Y-147779931D02*
X184216779Y-147732312D01*
X184216779Y-147732312D02*
X184169160Y-147637073D01*
X184169160Y-147637073D02*
X184169160Y-147256121D01*
X184169160Y-147256121D02*
X184216779Y-147160883D01*
X184216779Y-147160883D02*
X184312017Y-147113264D01*
X184312017Y-147113264D02*
X184502493Y-147113264D01*
X184502493Y-147113264D02*
X184597731Y-147160883D01*
X184597731Y-147160883D02*
X184645350Y-147256121D01*
X184645350Y-147256121D02*
X184645350Y-147351359D01*
X184645350Y-147351359D02*
X184169160Y-147446597D01*
X185073922Y-147113264D02*
X185073922Y-148113264D01*
X185073922Y-147160883D02*
X185169160Y-147113264D01*
X185169160Y-147113264D02*
X185359636Y-147113264D01*
X185359636Y-147113264D02*
X185454874Y-147160883D01*
X185454874Y-147160883D02*
X185502493Y-147208502D01*
X185502493Y-147208502D02*
X185550112Y-147303740D01*
X185550112Y-147303740D02*
X185550112Y-147589454D01*
X185550112Y-147589454D02*
X185502493Y-147684692D01*
X185502493Y-147684692D02*
X185454874Y-147732312D01*
X185454874Y-147732312D02*
X185359636Y-147779931D01*
X185359636Y-147779931D02*
X185169160Y-147779931D01*
X185169160Y-147779931D02*
X185073922Y-147732312D01*
X185978684Y-147779931D02*
X185978684Y-147113264D01*
X185978684Y-147303740D02*
X186026303Y-147208502D01*
X186026303Y-147208502D02*
X186073922Y-147160883D01*
X186073922Y-147160883D02*
X186169160Y-147113264D01*
X186169160Y-147113264D02*
X186264398Y-147113264D01*
X186740589Y-147779931D02*
X186645351Y-147732312D01*
X186645351Y-147732312D02*
X186597732Y-147684692D01*
X186597732Y-147684692D02*
X186550113Y-147589454D01*
X186550113Y-147589454D02*
X186550113Y-147303740D01*
X186550113Y-147303740D02*
X186597732Y-147208502D01*
X186597732Y-147208502D02*
X186645351Y-147160883D01*
X186645351Y-147160883D02*
X186740589Y-147113264D01*
X186740589Y-147113264D02*
X186883446Y-147113264D01*
X186883446Y-147113264D02*
X186978684Y-147160883D01*
X186978684Y-147160883D02*
X187026303Y-147208502D01*
X187026303Y-147208502D02*
X187073922Y-147303740D01*
X187073922Y-147303740D02*
X187073922Y-147589454D01*
X187073922Y-147589454D02*
X187026303Y-147684692D01*
X187026303Y-147684692D02*
X186978684Y-147732312D01*
X186978684Y-147732312D02*
X186883446Y-147779931D01*
X186883446Y-147779931D02*
X186740589Y-147779931D01*
X187931065Y-147779931D02*
X187931065Y-146779931D01*
X187931065Y-147732312D02*
X187835827Y-147779931D01*
X187835827Y-147779931D02*
X187645351Y-147779931D01*
X187645351Y-147779931D02*
X187550113Y-147732312D01*
X187550113Y-147732312D02*
X187502494Y-147684692D01*
X187502494Y-147684692D02*
X187454875Y-147589454D01*
X187454875Y-147589454D02*
X187454875Y-147303740D01*
X187454875Y-147303740D02*
X187502494Y-147208502D01*
X187502494Y-147208502D02*
X187550113Y-147160883D01*
X187550113Y-147160883D02*
X187645351Y-147113264D01*
X187645351Y-147113264D02*
X187835827Y-147113264D01*
X187835827Y-147113264D02*
X187931065Y-147160883D01*
X188835827Y-147113264D02*
X188835827Y-147779931D01*
X188407256Y-147113264D02*
X188407256Y-147637073D01*
X188407256Y-147637073D02*
X188454875Y-147732312D01*
X188454875Y-147732312D02*
X188550113Y-147779931D01*
X188550113Y-147779931D02*
X188692970Y-147779931D01*
X188692970Y-147779931D02*
X188788208Y-147732312D01*
X188788208Y-147732312D02*
X188835827Y-147684692D01*
X189740589Y-147732312D02*
X189645351Y-147779931D01*
X189645351Y-147779931D02*
X189454875Y-147779931D01*
X189454875Y-147779931D02*
X189359637Y-147732312D01*
X189359637Y-147732312D02*
X189312018Y-147684692D01*
X189312018Y-147684692D02*
X189264399Y-147589454D01*
X189264399Y-147589454D02*
X189264399Y-147303740D01*
X189264399Y-147303740D02*
X189312018Y-147208502D01*
X189312018Y-147208502D02*
X189359637Y-147160883D01*
X189359637Y-147160883D02*
X189454875Y-147113264D01*
X189454875Y-147113264D02*
X189645351Y-147113264D01*
X189645351Y-147113264D02*
X189740589Y-147160883D01*
X190026304Y-147113264D02*
X190407256Y-147113264D01*
X190169161Y-146779931D02*
X190169161Y-147637073D01*
X190169161Y-147637073D02*
X190216780Y-147732312D01*
X190216780Y-147732312D02*
X190312018Y-147779931D01*
X190312018Y-147779931D02*
X190407256Y-147779931D01*
X190740590Y-147779931D02*
X190740590Y-147113264D01*
X190740590Y-146779931D02*
X190692971Y-146827550D01*
X190692971Y-146827550D02*
X190740590Y-146875169D01*
X190740590Y-146875169D02*
X190788209Y-146827550D01*
X190788209Y-146827550D02*
X190740590Y-146779931D01*
X190740590Y-146779931D02*
X190740590Y-146875169D01*
X191359637Y-147779931D02*
X191264399Y-147732312D01*
X191264399Y-147732312D02*
X191216780Y-147684692D01*
X191216780Y-147684692D02*
X191169161Y-147589454D01*
X191169161Y-147589454D02*
X191169161Y-147303740D01*
X191169161Y-147303740D02*
X191216780Y-147208502D01*
X191216780Y-147208502D02*
X191264399Y-147160883D01*
X191264399Y-147160883D02*
X191359637Y-147113264D01*
X191359637Y-147113264D02*
X191502494Y-147113264D01*
X191502494Y-147113264D02*
X191597732Y-147160883D01*
X191597732Y-147160883D02*
X191645351Y-147208502D01*
X191645351Y-147208502D02*
X191692970Y-147303740D01*
X191692970Y-147303740D02*
X191692970Y-147589454D01*
X191692970Y-147589454D02*
X191645351Y-147684692D01*
X191645351Y-147684692D02*
X191597732Y-147732312D01*
X191597732Y-147732312D02*
X191502494Y-147779931D01*
X191502494Y-147779931D02*
X191359637Y-147779931D01*
X192121542Y-147113264D02*
X192121542Y-147779931D01*
X192121542Y-147208502D02*
X192169161Y-147160883D01*
X192169161Y-147160883D02*
X192264399Y-147113264D01*
X192264399Y-147113264D02*
X192407256Y-147113264D01*
X192407256Y-147113264D02*
X192502494Y-147160883D01*
X192502494Y-147160883D02*
X192550113Y-147256121D01*
X192550113Y-147256121D02*
X192550113Y-147779931D01*
X183740588Y-149389875D02*
X183169160Y-149389875D01*
X183454874Y-149389875D02*
X183454874Y-148389875D01*
X183454874Y-148389875D02*
X183359636Y-148532732D01*
X183359636Y-148532732D02*
X183264398Y-148627970D01*
X183264398Y-148627970D02*
X183169160Y-148675589D01*
X184359636Y-148389875D02*
X184454874Y-148389875D01*
X184454874Y-148389875D02*
X184550112Y-148437494D01*
X184550112Y-148437494D02*
X184597731Y-148485113D01*
X184597731Y-148485113D02*
X184645350Y-148580351D01*
X184645350Y-148580351D02*
X184692969Y-148770827D01*
X184692969Y-148770827D02*
X184692969Y-149008922D01*
X184692969Y-149008922D02*
X184645350Y-149199398D01*
X184645350Y-149199398D02*
X184597731Y-149294636D01*
X184597731Y-149294636D02*
X184550112Y-149342256D01*
X184550112Y-149342256D02*
X184454874Y-149389875D01*
X184454874Y-149389875D02*
X184359636Y-149389875D01*
X184359636Y-149389875D02*
X184264398Y-149342256D01*
X184264398Y-149342256D02*
X184216779Y-149294636D01*
X184216779Y-149294636D02*
X184169160Y-149199398D01*
X184169160Y-149199398D02*
X184121541Y-149008922D01*
X184121541Y-149008922D02*
X184121541Y-148770827D01*
X184121541Y-148770827D02*
X184169160Y-148580351D01*
X184169160Y-148580351D02*
X184216779Y-148485113D01*
X184216779Y-148485113D02*
X184264398Y-148437494D01*
X184264398Y-148437494D02*
X184359636Y-148389875D01*
X185312017Y-148389875D02*
X185407255Y-148389875D01*
X185407255Y-148389875D02*
X185502493Y-148437494D01*
X185502493Y-148437494D02*
X185550112Y-148485113D01*
X185550112Y-148485113D02*
X185597731Y-148580351D01*
X185597731Y-148580351D02*
X185645350Y-148770827D01*
X185645350Y-148770827D02*
X185645350Y-149008922D01*
X185645350Y-149008922D02*
X185597731Y-149199398D01*
X185597731Y-149199398D02*
X185550112Y-149294636D01*
X185550112Y-149294636D02*
X185502493Y-149342256D01*
X185502493Y-149342256D02*
X185407255Y-149389875D01*
X185407255Y-149389875D02*
X185312017Y-149389875D01*
X185312017Y-149389875D02*
X185216779Y-149342256D01*
X185216779Y-149342256D02*
X185169160Y-149294636D01*
X185169160Y-149294636D02*
X185121541Y-149199398D01*
X185121541Y-149199398D02*
X185073922Y-149008922D01*
X185073922Y-149008922D02*
X185073922Y-148770827D01*
X185073922Y-148770827D02*
X185121541Y-148580351D01*
X185121541Y-148580351D02*
X185169160Y-148485113D01*
X185169160Y-148485113D02*
X185216779Y-148437494D01*
X185216779Y-148437494D02*
X185312017Y-148389875D01*
X186026303Y-149389875D02*
X186788207Y-148389875D01*
X186169160Y-148389875D02*
X186264398Y-148437494D01*
X186264398Y-148437494D02*
X186312017Y-148532732D01*
X186312017Y-148532732D02*
X186264398Y-148627970D01*
X186264398Y-148627970D02*
X186169160Y-148675589D01*
X186169160Y-148675589D02*
X186073922Y-148627970D01*
X186073922Y-148627970D02*
X186026303Y-148532732D01*
X186026303Y-148532732D02*
X186073922Y-148437494D01*
X186073922Y-148437494D02*
X186169160Y-148389875D01*
X186740588Y-149342256D02*
X186788207Y-149247017D01*
X186788207Y-149247017D02*
X186740588Y-149151779D01*
X186740588Y-149151779D02*
X186645350Y-149104160D01*
X186645350Y-149104160D02*
X186550112Y-149151779D01*
X186550112Y-149151779D02*
X186502493Y-149247017D01*
X186502493Y-149247017D02*
X186550112Y-149342256D01*
X186550112Y-149342256D02*
X186645350Y-149389875D01*
X186645350Y-149389875D02*
X186740588Y-149342256D01*
X188169160Y-148389875D02*
X188359636Y-148389875D01*
X188359636Y-148389875D02*
X188454874Y-148437494D01*
X188454874Y-148437494D02*
X188550112Y-148532732D01*
X188550112Y-148532732D02*
X188597731Y-148723208D01*
X188597731Y-148723208D02*
X188597731Y-149056541D01*
X188597731Y-149056541D02*
X188550112Y-149247017D01*
X188550112Y-149247017D02*
X188454874Y-149342256D01*
X188454874Y-149342256D02*
X188359636Y-149389875D01*
X188359636Y-149389875D02*
X188169160Y-149389875D01*
X188169160Y-149389875D02*
X188073922Y-149342256D01*
X188073922Y-149342256D02*
X187978684Y-149247017D01*
X187978684Y-149247017D02*
X187931065Y-149056541D01*
X187931065Y-149056541D02*
X187931065Y-148723208D01*
X187931065Y-148723208D02*
X187978684Y-148532732D01*
X187978684Y-148532732D02*
X188073922Y-148437494D01*
X188073922Y-148437494D02*
X188169160Y-148389875D01*
X188883446Y-148723208D02*
X189264398Y-148723208D01*
X189026303Y-149389875D02*
X189026303Y-148532732D01*
X189026303Y-148532732D02*
X189073922Y-148437494D01*
X189073922Y-148437494D02*
X189169160Y-148389875D01*
X189169160Y-148389875D02*
X189264398Y-148389875D01*
X189454875Y-148723208D02*
X189835827Y-148723208D01*
X189597732Y-149389875D02*
X189597732Y-148532732D01*
X189597732Y-148532732D02*
X189645351Y-148437494D01*
X189645351Y-148437494D02*
X189740589Y-148389875D01*
X189740589Y-148389875D02*
X189835827Y-148389875D01*
X190169161Y-148723208D02*
X190169161Y-149389875D01*
X190169161Y-148818446D02*
X190216780Y-148770827D01*
X190216780Y-148770827D02*
X190312018Y-148723208D01*
X190312018Y-148723208D02*
X190454875Y-148723208D01*
X190454875Y-148723208D02*
X190550113Y-148770827D01*
X190550113Y-148770827D02*
X190597732Y-148866065D01*
X190597732Y-148866065D02*
X190597732Y-149389875D01*
X191454875Y-149342256D02*
X191359637Y-149389875D01*
X191359637Y-149389875D02*
X191169161Y-149389875D01*
X191169161Y-149389875D02*
X191073923Y-149342256D01*
X191073923Y-149342256D02*
X191026304Y-149247017D01*
X191026304Y-149247017D02*
X191026304Y-148866065D01*
X191026304Y-148866065D02*
X191073923Y-148770827D01*
X191073923Y-148770827D02*
X191169161Y-148723208D01*
X191169161Y-148723208D02*
X191359637Y-148723208D01*
X191359637Y-148723208D02*
X191454875Y-148770827D01*
X191454875Y-148770827D02*
X191502494Y-148866065D01*
X191502494Y-148866065D02*
X191502494Y-148961303D01*
X191502494Y-148961303D02*
X191026304Y-149056541D01*
X191931066Y-149389875D02*
X191931066Y-148723208D01*
X191931066Y-148913684D02*
X191978685Y-148818446D01*
X191978685Y-148818446D02*
X192026304Y-148770827D01*
X192026304Y-148770827D02*
X192121542Y-148723208D01*
X192121542Y-148723208D02*
X192216780Y-148723208D01*
X183169160Y-150095057D02*
X183216779Y-150047438D01*
X183216779Y-150047438D02*
X183312017Y-149999819D01*
X183312017Y-149999819D02*
X183550112Y-149999819D01*
X183550112Y-149999819D02*
X183645350Y-150047438D01*
X183645350Y-150047438D02*
X183692969Y-150095057D01*
X183692969Y-150095057D02*
X183740588Y-150190295D01*
X183740588Y-150190295D02*
X183740588Y-150285533D01*
X183740588Y-150285533D02*
X183692969Y-150428390D01*
X183692969Y-150428390D02*
X183121541Y-150999819D01*
X183121541Y-150999819D02*
X183740588Y-150999819D01*
X184359636Y-149999819D02*
X184454874Y-149999819D01*
X184454874Y-149999819D02*
X184550112Y-150047438D01*
X184550112Y-150047438D02*
X184597731Y-150095057D01*
X184597731Y-150095057D02*
X184645350Y-150190295D01*
X184645350Y-150190295D02*
X184692969Y-150380771D01*
X184692969Y-150380771D02*
X184692969Y-150618866D01*
X184692969Y-150618866D02*
X184645350Y-150809342D01*
X184645350Y-150809342D02*
X184597731Y-150904580D01*
X184597731Y-150904580D02*
X184550112Y-150952200D01*
X184550112Y-150952200D02*
X184454874Y-150999819D01*
X184454874Y-150999819D02*
X184359636Y-150999819D01*
X184359636Y-150999819D02*
X184264398Y-150952200D01*
X184264398Y-150952200D02*
X184216779Y-150904580D01*
X184216779Y-150904580D02*
X184169160Y-150809342D01*
X184169160Y-150809342D02*
X184121541Y-150618866D01*
X184121541Y-150618866D02*
X184121541Y-150380771D01*
X184121541Y-150380771D02*
X184169160Y-150190295D01*
X184169160Y-150190295D02*
X184216779Y-150095057D01*
X184216779Y-150095057D02*
X184264398Y-150047438D01*
X184264398Y-150047438D02*
X184359636Y-149999819D01*
X185073922Y-150095057D02*
X185121541Y-150047438D01*
X185121541Y-150047438D02*
X185216779Y-149999819D01*
X185216779Y-149999819D02*
X185454874Y-149999819D01*
X185454874Y-149999819D02*
X185550112Y-150047438D01*
X185550112Y-150047438D02*
X185597731Y-150095057D01*
X185597731Y-150095057D02*
X185645350Y-150190295D01*
X185645350Y-150190295D02*
X185645350Y-150285533D01*
X185645350Y-150285533D02*
X185597731Y-150428390D01*
X185597731Y-150428390D02*
X185026303Y-150999819D01*
X185026303Y-150999819D02*
X185645350Y-150999819D01*
X186502493Y-149999819D02*
X186312017Y-149999819D01*
X186312017Y-149999819D02*
X186216779Y-150047438D01*
X186216779Y-150047438D02*
X186169160Y-150095057D01*
X186169160Y-150095057D02*
X186073922Y-150237914D01*
X186073922Y-150237914D02*
X186026303Y-150428390D01*
X186026303Y-150428390D02*
X186026303Y-150809342D01*
X186026303Y-150809342D02*
X186073922Y-150904580D01*
X186073922Y-150904580D02*
X186121541Y-150952200D01*
X186121541Y-150952200D02*
X186216779Y-150999819D01*
X186216779Y-150999819D02*
X186407255Y-150999819D01*
X186407255Y-150999819D02*
X186502493Y-150952200D01*
X186502493Y-150952200D02*
X186550112Y-150904580D01*
X186550112Y-150904580D02*
X186597731Y-150809342D01*
X186597731Y-150809342D02*
X186597731Y-150571247D01*
X186597731Y-150571247D02*
X186550112Y-150476009D01*
X186550112Y-150476009D02*
X186502493Y-150428390D01*
X186502493Y-150428390D02*
X186407255Y-150380771D01*
X186407255Y-150380771D02*
X186216779Y-150380771D01*
X186216779Y-150380771D02*
X186121541Y-150428390D01*
X186121541Y-150428390D02*
X186073922Y-150476009D01*
X186073922Y-150476009D02*
X186026303Y-150571247D01*
D11*
X139577482Y-89529219D02*
X139006054Y-89529219D01*
X139291768Y-89529219D02*
X139291768Y-88529219D01*
X139291768Y-88529219D02*
X139196530Y-88672076D01*
X139196530Y-88672076D02*
X139101292Y-88767314D01*
X139101292Y-88767314D02*
X139006054Y-88814933D01*
X139958435Y-88624457D02*
X140006054Y-88576838D01*
X140006054Y-88576838D02*
X140101292Y-88529219D01*
X140101292Y-88529219D02*
X140339387Y-88529219D01*
X140339387Y-88529219D02*
X140434625Y-88576838D01*
X140434625Y-88576838D02*
X140482244Y-88624457D01*
X140482244Y-88624457D02*
X140529863Y-88719695D01*
X140529863Y-88719695D02*
X140529863Y-88814933D01*
X140529863Y-88814933D02*
X140482244Y-88957790D01*
X140482244Y-88957790D02*
X139910816Y-89529219D01*
X139910816Y-89529219D02*
X140529863Y-89529219D01*
X141148911Y-88529219D02*
X141244149Y-88529219D01*
X141244149Y-88529219D02*
X141339387Y-88576838D01*
X141339387Y-88576838D02*
X141387006Y-88624457D01*
X141387006Y-88624457D02*
X141434625Y-88719695D01*
X141434625Y-88719695D02*
X141482244Y-88910171D01*
X141482244Y-88910171D02*
X141482244Y-89148266D01*
X141482244Y-89148266D02*
X141434625Y-89338742D01*
X141434625Y-89338742D02*
X141387006Y-89433980D01*
X141387006Y-89433980D02*
X141339387Y-89481600D01*
X141339387Y-89481600D02*
X141244149Y-89529219D01*
X141244149Y-89529219D02*
X141148911Y-89529219D01*
X141148911Y-89529219D02*
X141053673Y-89481600D01*
X141053673Y-89481600D02*
X141006054Y-89433980D01*
X141006054Y-89433980D02*
X140958435Y-89338742D01*
X140958435Y-89338742D02*
X140910816Y-89148266D01*
X140910816Y-89148266D02*
X140910816Y-88910171D01*
X140910816Y-88910171D02*
X140958435Y-88719695D01*
X140958435Y-88719695D02*
X141006054Y-88624457D01*
X141006054Y-88624457D02*
X141053673Y-88576838D01*
X141053673Y-88576838D02*
X141148911Y-88529219D01*
X142101292Y-88529219D02*
X142196530Y-88529219D01*
X142196530Y-88529219D02*
X142291768Y-88576838D01*
X142291768Y-88576838D02*
X142339387Y-88624457D01*
X142339387Y-88624457D02*
X142387006Y-88719695D01*
X142387006Y-88719695D02*
X142434625Y-88910171D01*
X142434625Y-88910171D02*
X142434625Y-89148266D01*
X142434625Y-89148266D02*
X142387006Y-89338742D01*
X142387006Y-89338742D02*
X142339387Y-89433980D01*
X142339387Y-89433980D02*
X142291768Y-89481600D01*
X142291768Y-89481600D02*
X142196530Y-89529219D01*
X142196530Y-89529219D02*
X142101292Y-89529219D01*
X142101292Y-89529219D02*
X142006054Y-89481600D01*
X142006054Y-89481600D02*
X141958435Y-89433980D01*
X141958435Y-89433980D02*
X141910816Y-89338742D01*
X141910816Y-89338742D02*
X141863197Y-89148266D01*
X141863197Y-89148266D02*
X141863197Y-88910171D01*
X141863197Y-88910171D02*
X141910816Y-88719695D01*
X141910816Y-88719695D02*
X141958435Y-88624457D01*
X141958435Y-88624457D02*
X142006054Y-88576838D01*
X142006054Y-88576838D02*
X142101292Y-88529219D01*
X139006054Y-91164457D02*
X139053673Y-91116838D01*
X139053673Y-91116838D02*
X139148911Y-91069219D01*
X139148911Y-91069219D02*
X139387006Y-91069219D01*
X139387006Y-91069219D02*
X139482244Y-91116838D01*
X139482244Y-91116838D02*
X139529863Y-91164457D01*
X139529863Y-91164457D02*
X139577482Y-91259695D01*
X139577482Y-91259695D02*
X139577482Y-91354933D01*
X139577482Y-91354933D02*
X139529863Y-91497790D01*
X139529863Y-91497790D02*
X138958435Y-92069219D01*
X138958435Y-92069219D02*
X139577482Y-92069219D01*
X140434625Y-91402552D02*
X140434625Y-92069219D01*
X140196530Y-91021600D02*
X139958435Y-91735885D01*
X139958435Y-91735885D02*
X140577482Y-91735885D01*
X141148911Y-91069219D02*
X141244149Y-91069219D01*
X141244149Y-91069219D02*
X141339387Y-91116838D01*
X141339387Y-91116838D02*
X141387006Y-91164457D01*
X141387006Y-91164457D02*
X141434625Y-91259695D01*
X141434625Y-91259695D02*
X141482244Y-91450171D01*
X141482244Y-91450171D02*
X141482244Y-91688266D01*
X141482244Y-91688266D02*
X141434625Y-91878742D01*
X141434625Y-91878742D02*
X141387006Y-91973980D01*
X141387006Y-91973980D02*
X141339387Y-92021600D01*
X141339387Y-92021600D02*
X141244149Y-92069219D01*
X141244149Y-92069219D02*
X141148911Y-92069219D01*
X141148911Y-92069219D02*
X141053673Y-92021600D01*
X141053673Y-92021600D02*
X141006054Y-91973980D01*
X141006054Y-91973980D02*
X140958435Y-91878742D01*
X140958435Y-91878742D02*
X140910816Y-91688266D01*
X140910816Y-91688266D02*
X140910816Y-91450171D01*
X140910816Y-91450171D02*
X140958435Y-91259695D01*
X140958435Y-91259695D02*
X141006054Y-91164457D01*
X141006054Y-91164457D02*
X141053673Y-91116838D01*
X141053673Y-91116838D02*
X141148911Y-91069219D01*
X142101292Y-91069219D02*
X142196530Y-91069219D01*
X142196530Y-91069219D02*
X142291768Y-91116838D01*
X142291768Y-91116838D02*
X142339387Y-91164457D01*
X142339387Y-91164457D02*
X142387006Y-91259695D01*
X142387006Y-91259695D02*
X142434625Y-91450171D01*
X142434625Y-91450171D02*
X142434625Y-91688266D01*
X142434625Y-91688266D02*
X142387006Y-91878742D01*
X142387006Y-91878742D02*
X142339387Y-91973980D01*
X142339387Y-91973980D02*
X142291768Y-92021600D01*
X142291768Y-92021600D02*
X142196530Y-92069219D01*
X142196530Y-92069219D02*
X142101292Y-92069219D01*
X142101292Y-92069219D02*
X142006054Y-92021600D01*
X142006054Y-92021600D02*
X141958435Y-91973980D01*
X141958435Y-91973980D02*
X141910816Y-91878742D01*
X141910816Y-91878742D02*
X141863197Y-91688266D01*
X141863197Y-91688266D02*
X141863197Y-91450171D01*
X141863197Y-91450171D02*
X141910816Y-91259695D01*
X141910816Y-91259695D02*
X141958435Y-91164457D01*
X141958435Y-91164457D02*
X142006054Y-91116838D01*
X142006054Y-91116838D02*
X142101292Y-91069219D01*
X139482244Y-93942552D02*
X139482244Y-94609219D01*
X139244149Y-93561600D02*
X139006054Y-94275885D01*
X139006054Y-94275885D02*
X139625101Y-94275885D01*
X140148911Y-94037790D02*
X140053673Y-93990171D01*
X140053673Y-93990171D02*
X140006054Y-93942552D01*
X140006054Y-93942552D02*
X139958435Y-93847314D01*
X139958435Y-93847314D02*
X139958435Y-93799695D01*
X139958435Y-93799695D02*
X140006054Y-93704457D01*
X140006054Y-93704457D02*
X140053673Y-93656838D01*
X140053673Y-93656838D02*
X140148911Y-93609219D01*
X140148911Y-93609219D02*
X140339387Y-93609219D01*
X140339387Y-93609219D02*
X140434625Y-93656838D01*
X140434625Y-93656838D02*
X140482244Y-93704457D01*
X140482244Y-93704457D02*
X140529863Y-93799695D01*
X140529863Y-93799695D02*
X140529863Y-93847314D01*
X140529863Y-93847314D02*
X140482244Y-93942552D01*
X140482244Y-93942552D02*
X140434625Y-93990171D01*
X140434625Y-93990171D02*
X140339387Y-94037790D01*
X140339387Y-94037790D02*
X140148911Y-94037790D01*
X140148911Y-94037790D02*
X140053673Y-94085409D01*
X140053673Y-94085409D02*
X140006054Y-94133028D01*
X140006054Y-94133028D02*
X139958435Y-94228266D01*
X139958435Y-94228266D02*
X139958435Y-94418742D01*
X139958435Y-94418742D02*
X140006054Y-94513980D01*
X140006054Y-94513980D02*
X140053673Y-94561600D01*
X140053673Y-94561600D02*
X140148911Y-94609219D01*
X140148911Y-94609219D02*
X140339387Y-94609219D01*
X140339387Y-94609219D02*
X140434625Y-94561600D01*
X140434625Y-94561600D02*
X140482244Y-94513980D01*
X140482244Y-94513980D02*
X140529863Y-94418742D01*
X140529863Y-94418742D02*
X140529863Y-94228266D01*
X140529863Y-94228266D02*
X140482244Y-94133028D01*
X140482244Y-94133028D02*
X140434625Y-94085409D01*
X140434625Y-94085409D02*
X140339387Y-94037790D01*
X141148911Y-93609219D02*
X141244149Y-93609219D01*
X141244149Y-93609219D02*
X141339387Y-93656838D01*
X141339387Y-93656838D02*
X141387006Y-93704457D01*
X141387006Y-93704457D02*
X141434625Y-93799695D01*
X141434625Y-93799695D02*
X141482244Y-93990171D01*
X141482244Y-93990171D02*
X141482244Y-94228266D01*
X141482244Y-94228266D02*
X141434625Y-94418742D01*
X141434625Y-94418742D02*
X141387006Y-94513980D01*
X141387006Y-94513980D02*
X141339387Y-94561600D01*
X141339387Y-94561600D02*
X141244149Y-94609219D01*
X141244149Y-94609219D02*
X141148911Y-94609219D01*
X141148911Y-94609219D02*
X141053673Y-94561600D01*
X141053673Y-94561600D02*
X141006054Y-94513980D01*
X141006054Y-94513980D02*
X140958435Y-94418742D01*
X140958435Y-94418742D02*
X140910816Y-94228266D01*
X140910816Y-94228266D02*
X140910816Y-93990171D01*
X140910816Y-93990171D02*
X140958435Y-93799695D01*
X140958435Y-93799695D02*
X141006054Y-93704457D01*
X141006054Y-93704457D02*
X141053673Y-93656838D01*
X141053673Y-93656838D02*
X141148911Y-93609219D01*
X142101292Y-93609219D02*
X142196530Y-93609219D01*
X142196530Y-93609219D02*
X142291768Y-93656838D01*
X142291768Y-93656838D02*
X142339387Y-93704457D01*
X142339387Y-93704457D02*
X142387006Y-93799695D01*
X142387006Y-93799695D02*
X142434625Y-93990171D01*
X142434625Y-93990171D02*
X142434625Y-94228266D01*
X142434625Y-94228266D02*
X142387006Y-94418742D01*
X142387006Y-94418742D02*
X142339387Y-94513980D01*
X142339387Y-94513980D02*
X142291768Y-94561600D01*
X142291768Y-94561600D02*
X142196530Y-94609219D01*
X142196530Y-94609219D02*
X142101292Y-94609219D01*
X142101292Y-94609219D02*
X142006054Y-94561600D01*
X142006054Y-94561600D02*
X141958435Y-94513980D01*
X141958435Y-94513980D02*
X141910816Y-94418742D01*
X141910816Y-94418742D02*
X141863197Y-94228266D01*
X141863197Y-94228266D02*
X141863197Y-93990171D01*
X141863197Y-93990171D02*
X141910816Y-93799695D01*
X141910816Y-93799695D02*
X141958435Y-93704457D01*
X141958435Y-93704457D02*
X142006054Y-93656838D01*
X142006054Y-93656838D02*
X142101292Y-93609219D01*
X139101292Y-97149219D02*
X139291768Y-97149219D01*
X139291768Y-97149219D02*
X139387006Y-97101600D01*
X139387006Y-97101600D02*
X139434625Y-97053980D01*
X139434625Y-97053980D02*
X139529863Y-96911123D01*
X139529863Y-96911123D02*
X139577482Y-96720647D01*
X139577482Y-96720647D02*
X139577482Y-96339695D01*
X139577482Y-96339695D02*
X139529863Y-96244457D01*
X139529863Y-96244457D02*
X139482244Y-96196838D01*
X139482244Y-96196838D02*
X139387006Y-96149219D01*
X139387006Y-96149219D02*
X139196530Y-96149219D01*
X139196530Y-96149219D02*
X139101292Y-96196838D01*
X139101292Y-96196838D02*
X139053673Y-96244457D01*
X139053673Y-96244457D02*
X139006054Y-96339695D01*
X139006054Y-96339695D02*
X139006054Y-96577790D01*
X139006054Y-96577790D02*
X139053673Y-96673028D01*
X139053673Y-96673028D02*
X139101292Y-96720647D01*
X139101292Y-96720647D02*
X139196530Y-96768266D01*
X139196530Y-96768266D02*
X139387006Y-96768266D01*
X139387006Y-96768266D02*
X139482244Y-96720647D01*
X139482244Y-96720647D02*
X139529863Y-96673028D01*
X139529863Y-96673028D02*
X139577482Y-96577790D01*
X140434625Y-96149219D02*
X140244149Y-96149219D01*
X140244149Y-96149219D02*
X140148911Y-96196838D01*
X140148911Y-96196838D02*
X140101292Y-96244457D01*
X140101292Y-96244457D02*
X140006054Y-96387314D01*
X140006054Y-96387314D02*
X139958435Y-96577790D01*
X139958435Y-96577790D02*
X139958435Y-96958742D01*
X139958435Y-96958742D02*
X140006054Y-97053980D01*
X140006054Y-97053980D02*
X140053673Y-97101600D01*
X140053673Y-97101600D02*
X140148911Y-97149219D01*
X140148911Y-97149219D02*
X140339387Y-97149219D01*
X140339387Y-97149219D02*
X140434625Y-97101600D01*
X140434625Y-97101600D02*
X140482244Y-97053980D01*
X140482244Y-97053980D02*
X140529863Y-96958742D01*
X140529863Y-96958742D02*
X140529863Y-96720647D01*
X140529863Y-96720647D02*
X140482244Y-96625409D01*
X140482244Y-96625409D02*
X140434625Y-96577790D01*
X140434625Y-96577790D02*
X140339387Y-96530171D01*
X140339387Y-96530171D02*
X140148911Y-96530171D01*
X140148911Y-96530171D02*
X140053673Y-96577790D01*
X140053673Y-96577790D02*
X140006054Y-96625409D01*
X140006054Y-96625409D02*
X139958435Y-96720647D01*
X141148911Y-96149219D02*
X141244149Y-96149219D01*
X141244149Y-96149219D02*
X141339387Y-96196838D01*
X141339387Y-96196838D02*
X141387006Y-96244457D01*
X141387006Y-96244457D02*
X141434625Y-96339695D01*
X141434625Y-96339695D02*
X141482244Y-96530171D01*
X141482244Y-96530171D02*
X141482244Y-96768266D01*
X141482244Y-96768266D02*
X141434625Y-96958742D01*
X141434625Y-96958742D02*
X141387006Y-97053980D01*
X141387006Y-97053980D02*
X141339387Y-97101600D01*
X141339387Y-97101600D02*
X141244149Y-97149219D01*
X141244149Y-97149219D02*
X141148911Y-97149219D01*
X141148911Y-97149219D02*
X141053673Y-97101600D01*
X141053673Y-97101600D02*
X141006054Y-97053980D01*
X141006054Y-97053980D02*
X140958435Y-96958742D01*
X140958435Y-96958742D02*
X140910816Y-96768266D01*
X140910816Y-96768266D02*
X140910816Y-96530171D01*
X140910816Y-96530171D02*
X140958435Y-96339695D01*
X140958435Y-96339695D02*
X141006054Y-96244457D01*
X141006054Y-96244457D02*
X141053673Y-96196838D01*
X141053673Y-96196838D02*
X141148911Y-96149219D01*
X142101292Y-96149219D02*
X142196530Y-96149219D01*
X142196530Y-96149219D02*
X142291768Y-96196838D01*
X142291768Y-96196838D02*
X142339387Y-96244457D01*
X142339387Y-96244457D02*
X142387006Y-96339695D01*
X142387006Y-96339695D02*
X142434625Y-96530171D01*
X142434625Y-96530171D02*
X142434625Y-96768266D01*
X142434625Y-96768266D02*
X142387006Y-96958742D01*
X142387006Y-96958742D02*
X142339387Y-97053980D01*
X142339387Y-97053980D02*
X142291768Y-97101600D01*
X142291768Y-97101600D02*
X142196530Y-97149219D01*
X142196530Y-97149219D02*
X142101292Y-97149219D01*
X142101292Y-97149219D02*
X142006054Y-97101600D01*
X142006054Y-97101600D02*
X141958435Y-97053980D01*
X141958435Y-97053980D02*
X141910816Y-96958742D01*
X141910816Y-96958742D02*
X141863197Y-96768266D01*
X141863197Y-96768266D02*
X141863197Y-96530171D01*
X141863197Y-96530171D02*
X141910816Y-96339695D01*
X141910816Y-96339695D02*
X141958435Y-96244457D01*
X141958435Y-96244457D02*
X142006054Y-96196838D01*
X142006054Y-96196838D02*
X142101292Y-96149219D01*
X140593482Y-79369219D02*
X140022054Y-79369219D01*
X140307768Y-79369219D02*
X140307768Y-78369219D01*
X140307768Y-78369219D02*
X140212530Y-78512076D01*
X140212530Y-78512076D02*
X140117292Y-78607314D01*
X140117292Y-78607314D02*
X140022054Y-78654933D01*
X141545863Y-79369219D02*
X140974435Y-79369219D01*
X141260149Y-79369219D02*
X141260149Y-78369219D01*
X141260149Y-78369219D02*
X141164911Y-78512076D01*
X141164911Y-78512076D02*
X141069673Y-78607314D01*
X141069673Y-78607314D02*
X140974435Y-78654933D01*
X142164911Y-78369219D02*
X142260149Y-78369219D01*
X142260149Y-78369219D02*
X142355387Y-78416838D01*
X142355387Y-78416838D02*
X142403006Y-78464457D01*
X142403006Y-78464457D02*
X142450625Y-78559695D01*
X142450625Y-78559695D02*
X142498244Y-78750171D01*
X142498244Y-78750171D02*
X142498244Y-78988266D01*
X142498244Y-78988266D02*
X142450625Y-79178742D01*
X142450625Y-79178742D02*
X142403006Y-79273980D01*
X142403006Y-79273980D02*
X142355387Y-79321600D01*
X142355387Y-79321600D02*
X142260149Y-79369219D01*
X142260149Y-79369219D02*
X142164911Y-79369219D01*
X142164911Y-79369219D02*
X142069673Y-79321600D01*
X142069673Y-79321600D02*
X142022054Y-79273980D01*
X142022054Y-79273980D02*
X141974435Y-79178742D01*
X141974435Y-79178742D02*
X141926816Y-78988266D01*
X141926816Y-78988266D02*
X141926816Y-78750171D01*
X141926816Y-78750171D02*
X141974435Y-78559695D01*
X141974435Y-78559695D02*
X142022054Y-78464457D01*
X142022054Y-78464457D02*
X142069673Y-78416838D01*
X142069673Y-78416838D02*
X142164911Y-78369219D01*
X140593482Y-81909219D02*
X140022054Y-81909219D01*
X140307768Y-81909219D02*
X140307768Y-80909219D01*
X140307768Y-80909219D02*
X140212530Y-81052076D01*
X140212530Y-81052076D02*
X140117292Y-81147314D01*
X140117292Y-81147314D02*
X140022054Y-81194933D01*
X141498244Y-80909219D02*
X141022054Y-80909219D01*
X141022054Y-80909219D02*
X140974435Y-81385409D01*
X140974435Y-81385409D02*
X141022054Y-81337790D01*
X141022054Y-81337790D02*
X141117292Y-81290171D01*
X141117292Y-81290171D02*
X141355387Y-81290171D01*
X141355387Y-81290171D02*
X141450625Y-81337790D01*
X141450625Y-81337790D02*
X141498244Y-81385409D01*
X141498244Y-81385409D02*
X141545863Y-81480647D01*
X141545863Y-81480647D02*
X141545863Y-81718742D01*
X141545863Y-81718742D02*
X141498244Y-81813980D01*
X141498244Y-81813980D02*
X141450625Y-81861600D01*
X141450625Y-81861600D02*
X141355387Y-81909219D01*
X141355387Y-81909219D02*
X141117292Y-81909219D01*
X141117292Y-81909219D02*
X141022054Y-81861600D01*
X141022054Y-81861600D02*
X140974435Y-81813980D01*
X142164911Y-80909219D02*
X142260149Y-80909219D01*
X142260149Y-80909219D02*
X142355387Y-80956838D01*
X142355387Y-80956838D02*
X142403006Y-81004457D01*
X142403006Y-81004457D02*
X142450625Y-81099695D01*
X142450625Y-81099695D02*
X142498244Y-81290171D01*
X142498244Y-81290171D02*
X142498244Y-81528266D01*
X142498244Y-81528266D02*
X142450625Y-81718742D01*
X142450625Y-81718742D02*
X142403006Y-81813980D01*
X142403006Y-81813980D02*
X142355387Y-81861600D01*
X142355387Y-81861600D02*
X142260149Y-81909219D01*
X142260149Y-81909219D02*
X142164911Y-81909219D01*
X142164911Y-81909219D02*
X142069673Y-81861600D01*
X142069673Y-81861600D02*
X142022054Y-81813980D01*
X142022054Y-81813980D02*
X141974435Y-81718742D01*
X141974435Y-81718742D02*
X141926816Y-81528266D01*
X141926816Y-81528266D02*
X141926816Y-81290171D01*
X141926816Y-81290171D02*
X141974435Y-81099695D01*
X141974435Y-81099695D02*
X142022054Y-81004457D01*
X142022054Y-81004457D02*
X142069673Y-80956838D01*
X142069673Y-80956838D02*
X142164911Y-80909219D01*
X139974435Y-83449219D02*
X140593482Y-83449219D01*
X140593482Y-83449219D02*
X140260149Y-83830171D01*
X140260149Y-83830171D02*
X140403006Y-83830171D01*
X140403006Y-83830171D02*
X140498244Y-83877790D01*
X140498244Y-83877790D02*
X140545863Y-83925409D01*
X140545863Y-83925409D02*
X140593482Y-84020647D01*
X140593482Y-84020647D02*
X140593482Y-84258742D01*
X140593482Y-84258742D02*
X140545863Y-84353980D01*
X140545863Y-84353980D02*
X140498244Y-84401600D01*
X140498244Y-84401600D02*
X140403006Y-84449219D01*
X140403006Y-84449219D02*
X140117292Y-84449219D01*
X140117292Y-84449219D02*
X140022054Y-84401600D01*
X140022054Y-84401600D02*
X139974435Y-84353980D01*
X141212530Y-83449219D02*
X141307768Y-83449219D01*
X141307768Y-83449219D02*
X141403006Y-83496838D01*
X141403006Y-83496838D02*
X141450625Y-83544457D01*
X141450625Y-83544457D02*
X141498244Y-83639695D01*
X141498244Y-83639695D02*
X141545863Y-83830171D01*
X141545863Y-83830171D02*
X141545863Y-84068266D01*
X141545863Y-84068266D02*
X141498244Y-84258742D01*
X141498244Y-84258742D02*
X141450625Y-84353980D01*
X141450625Y-84353980D02*
X141403006Y-84401600D01*
X141403006Y-84401600D02*
X141307768Y-84449219D01*
X141307768Y-84449219D02*
X141212530Y-84449219D01*
X141212530Y-84449219D02*
X141117292Y-84401600D01*
X141117292Y-84401600D02*
X141069673Y-84353980D01*
X141069673Y-84353980D02*
X141022054Y-84258742D01*
X141022054Y-84258742D02*
X140974435Y-84068266D01*
X140974435Y-84068266D02*
X140974435Y-83830171D01*
X140974435Y-83830171D02*
X141022054Y-83639695D01*
X141022054Y-83639695D02*
X141069673Y-83544457D01*
X141069673Y-83544457D02*
X141117292Y-83496838D01*
X141117292Y-83496838D02*
X141212530Y-83449219D01*
X142164911Y-83449219D02*
X142260149Y-83449219D01*
X142260149Y-83449219D02*
X142355387Y-83496838D01*
X142355387Y-83496838D02*
X142403006Y-83544457D01*
X142403006Y-83544457D02*
X142450625Y-83639695D01*
X142450625Y-83639695D02*
X142498244Y-83830171D01*
X142498244Y-83830171D02*
X142498244Y-84068266D01*
X142498244Y-84068266D02*
X142450625Y-84258742D01*
X142450625Y-84258742D02*
X142403006Y-84353980D01*
X142403006Y-84353980D02*
X142355387Y-84401600D01*
X142355387Y-84401600D02*
X142260149Y-84449219D01*
X142260149Y-84449219D02*
X142164911Y-84449219D01*
X142164911Y-84449219D02*
X142069673Y-84401600D01*
X142069673Y-84401600D02*
X142022054Y-84353980D01*
X142022054Y-84353980D02*
X141974435Y-84258742D01*
X141974435Y-84258742D02*
X141926816Y-84068266D01*
X141926816Y-84068266D02*
X141926816Y-83830171D01*
X141926816Y-83830171D02*
X141974435Y-83639695D01*
X141974435Y-83639695D02*
X142022054Y-83544457D01*
X142022054Y-83544457D02*
X142069673Y-83496838D01*
X142069673Y-83496838D02*
X142164911Y-83449219D01*
X140498244Y-85989219D02*
X140307768Y-85989219D01*
X140307768Y-85989219D02*
X140212530Y-86036838D01*
X140212530Y-86036838D02*
X140164911Y-86084457D01*
X140164911Y-86084457D02*
X140069673Y-86227314D01*
X140069673Y-86227314D02*
X140022054Y-86417790D01*
X140022054Y-86417790D02*
X140022054Y-86798742D01*
X140022054Y-86798742D02*
X140069673Y-86893980D01*
X140069673Y-86893980D02*
X140117292Y-86941600D01*
X140117292Y-86941600D02*
X140212530Y-86989219D01*
X140212530Y-86989219D02*
X140403006Y-86989219D01*
X140403006Y-86989219D02*
X140498244Y-86941600D01*
X140498244Y-86941600D02*
X140545863Y-86893980D01*
X140545863Y-86893980D02*
X140593482Y-86798742D01*
X140593482Y-86798742D02*
X140593482Y-86560647D01*
X140593482Y-86560647D02*
X140545863Y-86465409D01*
X140545863Y-86465409D02*
X140498244Y-86417790D01*
X140498244Y-86417790D02*
X140403006Y-86370171D01*
X140403006Y-86370171D02*
X140212530Y-86370171D01*
X140212530Y-86370171D02*
X140117292Y-86417790D01*
X140117292Y-86417790D02*
X140069673Y-86465409D01*
X140069673Y-86465409D02*
X140022054Y-86560647D01*
X141212530Y-85989219D02*
X141307768Y-85989219D01*
X141307768Y-85989219D02*
X141403006Y-86036838D01*
X141403006Y-86036838D02*
X141450625Y-86084457D01*
X141450625Y-86084457D02*
X141498244Y-86179695D01*
X141498244Y-86179695D02*
X141545863Y-86370171D01*
X141545863Y-86370171D02*
X141545863Y-86608266D01*
X141545863Y-86608266D02*
X141498244Y-86798742D01*
X141498244Y-86798742D02*
X141450625Y-86893980D01*
X141450625Y-86893980D02*
X141403006Y-86941600D01*
X141403006Y-86941600D02*
X141307768Y-86989219D01*
X141307768Y-86989219D02*
X141212530Y-86989219D01*
X141212530Y-86989219D02*
X141117292Y-86941600D01*
X141117292Y-86941600D02*
X141069673Y-86893980D01*
X141069673Y-86893980D02*
X141022054Y-86798742D01*
X141022054Y-86798742D02*
X140974435Y-86608266D01*
X140974435Y-86608266D02*
X140974435Y-86370171D01*
X140974435Y-86370171D02*
X141022054Y-86179695D01*
X141022054Y-86179695D02*
X141069673Y-86084457D01*
X141069673Y-86084457D02*
X141117292Y-86036838D01*
X141117292Y-86036838D02*
X141212530Y-85989219D01*
X142164911Y-85989219D02*
X142260149Y-85989219D01*
X142260149Y-85989219D02*
X142355387Y-86036838D01*
X142355387Y-86036838D02*
X142403006Y-86084457D01*
X142403006Y-86084457D02*
X142450625Y-86179695D01*
X142450625Y-86179695D02*
X142498244Y-86370171D01*
X142498244Y-86370171D02*
X142498244Y-86608266D01*
X142498244Y-86608266D02*
X142450625Y-86798742D01*
X142450625Y-86798742D02*
X142403006Y-86893980D01*
X142403006Y-86893980D02*
X142355387Y-86941600D01*
X142355387Y-86941600D02*
X142260149Y-86989219D01*
X142260149Y-86989219D02*
X142164911Y-86989219D01*
X142164911Y-86989219D02*
X142069673Y-86941600D01*
X142069673Y-86941600D02*
X142022054Y-86893980D01*
X142022054Y-86893980D02*
X141974435Y-86798742D01*
X141974435Y-86798742D02*
X141926816Y-86608266D01*
X141926816Y-86608266D02*
X141926816Y-86370171D01*
X141926816Y-86370171D02*
X141974435Y-86179695D01*
X141974435Y-86179695D02*
X142022054Y-86084457D01*
X142022054Y-86084457D02*
X142069673Y-86036838D01*
X142069673Y-86036838D02*
X142164911Y-85989219D01*
X140736435Y-76083219D02*
X141403101Y-76083219D01*
X141403101Y-76083219D02*
X140974530Y-77083219D01*
X142260244Y-76083219D02*
X141784054Y-76083219D01*
X141784054Y-76083219D02*
X141736435Y-76559409D01*
X141736435Y-76559409D02*
X141784054Y-76511790D01*
X141784054Y-76511790D02*
X141879292Y-76464171D01*
X141879292Y-76464171D02*
X142117387Y-76464171D01*
X142117387Y-76464171D02*
X142212625Y-76511790D01*
X142212625Y-76511790D02*
X142260244Y-76559409D01*
X142260244Y-76559409D02*
X142307863Y-76654647D01*
X142307863Y-76654647D02*
X142307863Y-76892742D01*
X142307863Y-76892742D02*
X142260244Y-76987980D01*
X142260244Y-76987980D02*
X142212625Y-77035600D01*
X142212625Y-77035600D02*
X142117387Y-77083219D01*
X142117387Y-77083219D02*
X141879292Y-77083219D01*
X141879292Y-77083219D02*
X141784054Y-77035600D01*
X141784054Y-77035600D02*
X141736435Y-76987980D01*
X141498435Y-73289219D02*
X142165101Y-74289219D01*
X142165101Y-73289219D02*
X141498435Y-74289219D01*
D12*
G36*
X138244352Y-112495590D02*
G01*
X138221266Y-112551673D01*
X138207366Y-112609023D01*
X138202765Y-112666895D01*
X138210695Y-112741429D01*
X138232773Y-112800577D01*
X138268069Y-112847787D01*
X138315324Y-112882906D01*
X138374643Y-112904907D01*
X138449511Y-112912817D01*
X138525079Y-112904907D01*
X138584328Y-112883015D01*
X138630953Y-112848245D01*
X138665544Y-112801435D01*
X138687306Y-112742188D01*
X138695159Y-112666895D01*
X138690647Y-112602505D01*
X138677390Y-112542423D01*
X138655159Y-112486142D01*
X138624817Y-112436360D01*
X138842071Y-112436360D01*
X138876692Y-112570083D01*
X138885674Y-112636878D01*
X138888599Y-112700692D01*
X138880361Y-112808030D01*
X138856986Y-112899872D01*
X138819662Y-112978876D01*
X138768431Y-113047089D01*
X138704254Y-113103395D01*
X138630941Y-113143622D01*
X138546692Y-113168462D01*
X138448962Y-113177149D01*
X138350682Y-113168437D01*
X138266210Y-113143560D01*
X138192942Y-113103329D01*
X138129034Y-113047089D01*
X138078016Y-112978905D01*
X138040831Y-112899911D01*
X138017536Y-112808058D01*
X138009325Y-112700692D01*
X138020224Y-112564404D01*
X138034121Y-112499610D01*
X138054021Y-112436360D01*
X138278969Y-112436360D01*
X138244352Y-112495590D01*
G37*
G36*
X138553379Y-111989753D02*
G01*
X138649712Y-112008289D01*
X138740496Y-112038763D01*
X138826233Y-112081281D01*
X138907985Y-112136634D01*
X138986235Y-112205825D01*
X139055522Y-112283948D01*
X139111326Y-112365914D01*
X139154579Y-112452205D01*
X139185696Y-112543511D01*
X139204581Y-112640030D01*
X139211000Y-112742732D01*
X139204581Y-112845434D01*
X139185696Y-112941953D01*
X139154579Y-113033259D01*
X139111326Y-113119550D01*
X139055522Y-113201517D01*
X138986235Y-113279639D01*
X138907985Y-113348831D01*
X138826233Y-113404184D01*
X138740496Y-113446701D01*
X138649712Y-113477176D01*
X138553379Y-113495711D01*
X138450519Y-113502022D01*
X138346251Y-113495689D01*
X138249078Y-113477133D01*
X138157977Y-113446701D01*
X138071888Y-113404155D01*
X137989956Y-113348795D01*
X137911689Y-113279639D01*
X137842409Y-113201513D01*
X137786637Y-113119547D01*
X137743436Y-113033259D01*
X137712267Y-112941949D01*
X137693353Y-112845431D01*
X137686924Y-112742732D01*
X137845193Y-112742732D01*
X137850288Y-112824486D01*
X137865258Y-112901099D01*
X137889890Y-112973359D01*
X137924070Y-113041569D01*
X137968410Y-113106657D01*
X138023704Y-113168997D01*
X138118319Y-113247807D01*
X138219160Y-113302812D01*
X138291126Y-113327298D01*
X138367968Y-113342228D01*
X138450519Y-113347325D01*
X138532338Y-113342244D01*
X138608855Y-113327329D01*
X138680870Y-113302812D01*
X138781695Y-113247802D01*
X138876234Y-113168997D01*
X138930852Y-113107301D01*
X138974756Y-113042374D01*
X139008675Y-112973816D01*
X139041531Y-112863477D01*
X139052730Y-112742732D01*
X139047714Y-112659598D01*
X139033067Y-112582707D01*
X139009133Y-112511190D01*
X138975568Y-112443606D01*
X138931559Y-112378824D01*
X138876234Y-112316467D01*
X138781692Y-112237683D01*
X138680870Y-112182744D01*
X138608851Y-112158175D01*
X138532334Y-112143230D01*
X138450519Y-112138140D01*
X138367971Y-112143246D01*
X138291131Y-112158207D01*
X138219160Y-112182744D01*
X138118323Y-112237679D01*
X138023704Y-112316467D01*
X137967710Y-112379508D01*
X137923225Y-112444780D01*
X137889340Y-112512655D01*
X137856437Y-112622132D01*
X137845193Y-112742732D01*
X137686924Y-112742732D01*
X137693353Y-112640034D01*
X137712267Y-112543515D01*
X137743436Y-112452205D01*
X137786637Y-112365918D01*
X137842409Y-112283951D01*
X137911689Y-112205825D01*
X137989956Y-112136669D01*
X138071888Y-112081310D01*
X138157977Y-112038763D01*
X138249078Y-112008331D01*
X138346251Y-111989775D01*
X138450519Y-111983442D01*
X138553379Y-111989753D01*
G37*
G36*
X138935494Y-111446077D02*
G01*
X138935494Y-111097665D01*
X137950706Y-111097665D01*
X138026910Y-111455328D01*
X137757266Y-111455328D01*
X137681062Y-111099772D01*
X137681062Y-110724706D01*
X138935494Y-110724706D01*
X138935494Y-110376294D01*
X139211000Y-110376294D01*
X139211000Y-111446077D01*
X138935494Y-111446077D01*
G37*
G36*
X138583106Y-108913692D02*
G01*
X138717083Y-108938440D01*
X138833706Y-108977622D01*
X138935365Y-109030369D01*
X139023971Y-109096583D01*
X139100772Y-109177558D01*
X139160423Y-109268867D01*
X139203835Y-109371959D01*
X139230864Y-109488912D01*
X139240309Y-109622316D01*
X139236202Y-109728600D01*
X139224189Y-109828304D01*
X139204037Y-109925651D01*
X139175829Y-110020920D01*
X138894461Y-110020920D01*
X138933598Y-109926876D01*
X138960406Y-109840578D01*
X138976967Y-109754430D01*
X138982388Y-109670493D01*
X138975617Y-109582729D01*
X138956589Y-109509296D01*
X138926495Y-109447642D01*
X138885485Y-109395811D01*
X138834507Y-109353880D01*
X138771242Y-109320197D01*
X138693350Y-109295180D01*
X138597889Y-109280040D01*
X138643220Y-109352438D01*
X138675283Y-109428693D01*
X138694419Y-109509770D01*
X138701020Y-109599693D01*
X138691732Y-109715702D01*
X138665257Y-109815728D01*
X138622720Y-109902567D01*
X138563909Y-109978331D01*
X138490931Y-110040641D01*
X138407892Y-110085197D01*
X138312817Y-110112703D01*
X138202948Y-110122312D01*
X138081520Y-110111583D01*
X137976935Y-110080921D01*
X137886025Y-110031308D01*
X137806542Y-109961936D01*
X137743141Y-109877856D01*
X137696881Y-109780063D01*
X137667860Y-109665942D01*
X137657776Y-109534206D01*
X137903812Y-109534206D01*
X137912001Y-109599892D01*
X137934787Y-109650616D01*
X137971772Y-109690002D01*
X138019930Y-109717247D01*
X138085440Y-109735406D01*
X138173456Y-109742209D01*
X138262173Y-109735378D01*
X138327801Y-109717196D01*
X138375689Y-109690002D01*
X138412346Y-109650660D01*
X138434964Y-109599938D01*
X138443100Y-109534206D01*
X138434959Y-109468414D01*
X138412338Y-109417699D01*
X138375689Y-109378409D01*
X138327793Y-109351164D01*
X138262165Y-109332952D01*
X138173456Y-109326111D01*
X138085448Y-109332924D01*
X138019937Y-109351113D01*
X137971772Y-109378409D01*
X137934795Y-109417743D01*
X137912006Y-109468461D01*
X137903812Y-109534206D01*
X137657776Y-109534206D01*
X137657615Y-109532099D01*
X137666432Y-109412857D01*
X137691600Y-109309186D01*
X137731975Y-109218532D01*
X137787500Y-109138890D01*
X137859207Y-109068923D01*
X137940608Y-109013220D01*
X138035930Y-108968189D01*
X138147319Y-108934298D01*
X138277360Y-108912658D01*
X138428995Y-108904975D01*
X138583106Y-108913692D01*
G37*
G36*
X138891656Y-107450269D02*
G01*
X138983820Y-107479469D01*
X139060383Y-107526118D01*
X139123988Y-107591009D01*
X139171322Y-107668213D01*
X139207710Y-107765610D01*
X139231594Y-107887587D01*
X139240309Y-108039348D01*
X139231600Y-108191573D01*
X139207724Y-108314058D01*
X139171333Y-108411979D01*
X139123988Y-108489701D01*
X139060318Y-108555077D01*
X138983726Y-108602028D01*
X138891585Y-108631395D01*
X138779972Y-108641834D01*
X138684370Y-108632431D01*
X138603884Y-108605706D01*
X138535424Y-108562424D01*
X138478915Y-108503773D01*
X138432085Y-108426671D01*
X138395473Y-108327218D01*
X138360602Y-108416155D01*
X138317375Y-108485014D01*
X138266238Y-108537237D01*
X138204733Y-108575856D01*
X138133091Y-108599616D01*
X138048709Y-108607945D01*
X137954725Y-108598305D01*
X137876115Y-108570925D01*
X137809645Y-108526494D01*
X137753328Y-108463506D01*
X137712154Y-108390269D01*
X137680333Y-108297967D01*
X137659396Y-108182540D01*
X137651753Y-108039256D01*
X137897950Y-108039256D01*
X137904082Y-108100182D01*
X137920949Y-108147482D01*
X137947501Y-108184245D01*
X137983563Y-108211589D01*
X138029406Y-108228779D01*
X138087910Y-108234986D01*
X138147159Y-108228753D01*
X138193333Y-108211540D01*
X138229418Y-108184245D01*
X138255970Y-108147482D01*
X138272837Y-108100182D01*
X138278969Y-108039256D01*
X138525166Y-108039256D01*
X138532645Y-108110560D01*
X138553284Y-108166049D01*
X138585982Y-108209341D01*
X138630057Y-108241177D01*
X138686877Y-108261418D01*
X138760188Y-108268783D01*
X138833429Y-108261410D01*
X138890051Y-108241163D01*
X138933845Y-108209341D01*
X138966224Y-108166093D01*
X138986690Y-108110606D01*
X138994112Y-108039256D01*
X138986687Y-107968612D01*
X138966226Y-107913837D01*
X138933845Y-107871278D01*
X138890132Y-107840037D01*
X138833513Y-107820110D01*
X138760188Y-107812843D01*
X138686114Y-107820136D01*
X138629203Y-107840087D01*
X138585524Y-107871278D01*
X138553090Y-107913844D01*
X138532600Y-107968620D01*
X138525166Y-108039256D01*
X138278969Y-108039256D01*
X138272869Y-107979711D01*
X138256035Y-107933220D01*
X138229418Y-107896832D01*
X138193376Y-107869856D01*
X138147205Y-107852816D01*
X138087910Y-107846640D01*
X138028688Y-107852827D01*
X137982748Y-107869873D01*
X137947043Y-107896832D01*
X137920691Y-107933183D01*
X137904002Y-107979673D01*
X137897950Y-108039256D01*
X137651753Y-108039256D01*
X137659338Y-107897116D01*
X137680138Y-107782368D01*
X137711786Y-107690387D01*
X137752778Y-107617204D01*
X137808842Y-107554248D01*
X137875283Y-107509787D01*
X137954138Y-107482349D01*
X138048709Y-107472674D01*
X138133055Y-107481060D01*
X138204695Y-107504994D01*
X138266238Y-107543932D01*
X138317396Y-107596428D01*
X138360621Y-107665454D01*
X138395473Y-107754408D01*
X138432081Y-107655017D01*
X138478910Y-107577942D01*
X138535424Y-107519294D01*
X138603884Y-107476012D01*
X138684370Y-107449287D01*
X138779972Y-107439884D01*
X138891656Y-107450269D01*
G37*
G36*
X138603627Y-105956788D02*
G01*
X138737967Y-105978530D01*
X138852682Y-106012505D01*
X138950492Y-106057517D01*
X139033679Y-106113004D01*
X139107320Y-106183214D01*
X139164230Y-106263166D01*
X139205553Y-106354193D01*
X139231292Y-106458333D01*
X139240309Y-106578195D01*
X139231279Y-106698554D01*
X139205513Y-106803029D01*
X139164171Y-106894256D01*
X139107269Y-106974292D01*
X139033679Y-107044486D01*
X138950492Y-107099973D01*
X138852682Y-107144985D01*
X138737967Y-107178960D01*
X138603627Y-107200702D01*
X138446580Y-107208434D01*
X138289020Y-107200693D01*
X138154342Y-107178933D01*
X138039433Y-107144946D01*
X137941548Y-107099940D01*
X137858383Y-107044486D01*
X137784793Y-106974292D01*
X137727890Y-106894256D01*
X137686549Y-106803029D01*
X137660783Y-106698554D01*
X137651753Y-106578195D01*
X137921397Y-106578195D01*
X137928995Y-106638142D01*
X137950584Y-106686826D01*
X137986289Y-106726926D01*
X138038725Y-106759546D01*
X138120206Y-106786287D01*
X138249250Y-106806004D01*
X138442917Y-106813859D01*
X138638702Y-106806006D01*
X138769267Y-106786289D01*
X138851779Y-106759546D01*
X138905022Y-106726835D01*
X138941182Y-106686686D01*
X138962997Y-106638030D01*
X138970665Y-106578195D01*
X138963022Y-106518897D01*
X138941249Y-106470560D01*
X138905096Y-106430557D01*
X138851779Y-106397853D01*
X138769267Y-106371109D01*
X138638702Y-106351392D01*
X138442917Y-106343539D01*
X138249229Y-106351330D01*
X138120183Y-106370884D01*
X138038725Y-106397395D01*
X137986298Y-106429761D01*
X137950598Y-106469679D01*
X137929003Y-106518256D01*
X137921397Y-106578195D01*
X137651753Y-106578195D01*
X137660770Y-106458333D01*
X137686509Y-106354193D01*
X137727832Y-106263166D01*
X137784742Y-106183214D01*
X137858383Y-106113004D01*
X137941548Y-106057550D01*
X138039433Y-106012544D01*
X138154342Y-105978557D01*
X138289020Y-105956797D01*
X138446580Y-105949056D01*
X138603627Y-105956788D01*
G37*
G36*
X141616144Y-112224235D02*
G01*
X141679281Y-112374756D01*
X141724313Y-112530607D01*
X141751228Y-112691252D01*
X141760309Y-112858503D01*
X141750781Y-113012804D01*
X141723596Y-113148011D01*
X141680236Y-113266855D01*
X141621311Y-113371632D01*
X141546535Y-113464103D01*
X141457009Y-113542975D01*
X141356143Y-113604582D01*
X141242331Y-113649596D01*
X141113372Y-113677678D01*
X140966580Y-113687494D01*
X140818094Y-113677470D01*
X140688154Y-113648837D01*
X140573933Y-113603000D01*
X140473125Y-113540315D01*
X140384061Y-113460073D01*
X140310221Y-113366300D01*
X140251744Y-113259284D01*
X140208518Y-113137106D01*
X140181314Y-112997306D01*
X140171753Y-112836979D01*
X140179084Y-112686311D01*
X140200604Y-112544438D01*
X140236633Y-112407801D01*
X140286059Y-112280564D01*
X140605528Y-112280564D01*
X140540283Y-112410067D01*
X140495344Y-112535187D01*
X140467995Y-112662430D01*
X140458983Y-112788803D01*
X140468211Y-112906067D01*
X140494073Y-113003421D01*
X140534896Y-113084501D01*
X140590508Y-113152053D01*
X140659564Y-113205607D01*
X140743140Y-113245273D01*
X140844206Y-113270574D01*
X140966580Y-113279639D01*
X141088047Y-113270896D01*
X141188637Y-113246485D01*
X141272023Y-113208242D01*
X141341096Y-113156724D01*
X141397165Y-113091254D01*
X141438083Y-113013060D01*
X141463893Y-112919570D01*
X141473079Y-112807304D01*
X141465477Y-112693090D01*
X141455349Y-112642000D01*
X141441389Y-112598293D01*
X141144817Y-112598293D01*
X141144817Y-112839086D01*
X140881034Y-112839086D01*
X140881034Y-112224235D01*
X141616144Y-112224235D01*
G37*
G36*
X140201062Y-111876006D02*
G01*
X140201062Y-111481523D01*
X141731000Y-111481523D01*
X141731000Y-111876006D01*
X140201062Y-111876006D01*
G37*
G36*
X140201062Y-111094917D02*
G01*
X140201062Y-110592815D01*
X141020528Y-110244403D01*
X140201062Y-109893975D01*
X140201062Y-109392881D01*
X141731000Y-109392881D01*
X141731000Y-109765931D01*
X140612306Y-109765931D01*
X141437908Y-110118373D01*
X141437908Y-110368417D01*
X140612306Y-110720859D01*
X141731000Y-110720859D01*
X141731000Y-111094917D01*
X140201062Y-111094917D01*
G37*
G36*
X140201062Y-109005176D02*
G01*
X140201062Y-108610693D01*
X141731000Y-108610693D01*
X141731000Y-109005176D01*
X140201062Y-109005176D01*
G37*
G36*
X140950186Y-107371557D02*
G01*
X141731000Y-106840787D01*
X141731000Y-107251665D01*
X141208381Y-107609236D01*
X141731000Y-107963785D01*
X141731000Y-108376769D01*
X140950186Y-107845999D01*
X140201062Y-108356253D01*
X140201062Y-107944276D01*
X140694005Y-107609236D01*
X140201062Y-107275203D01*
X140201062Y-106861212D01*
X140950186Y-107371557D01*
G37*
G36*
X141385152Y-105593775D02*
G01*
X141164234Y-105703501D01*
X141090084Y-105743170D01*
X141049562Y-105772194D01*
X141023369Y-105803524D01*
X141015856Y-105831545D01*
X141015856Y-105843818D01*
X141385152Y-105843818D01*
X141385152Y-106062080D01*
X140523463Y-106062080D01*
X140523463Y-105808006D01*
X140664147Y-105808006D01*
X140664147Y-105843818D01*
X140875173Y-105843818D01*
X140875173Y-105808006D01*
X140867497Y-105733986D01*
X140848153Y-105687564D01*
X140815095Y-105657438D01*
X140768103Y-105647081D01*
X140721397Y-105657273D01*
X140689701Y-105686556D01*
X140671518Y-105732211D01*
X140664147Y-105808006D01*
X140523463Y-105808006D01*
X140523463Y-105770087D01*
X140531581Y-105650645D01*
X140552990Y-105563302D01*
X140584463Y-105500627D01*
X140631280Y-105451686D01*
X140691491Y-105422010D01*
X140769476Y-105411417D01*
X140826080Y-105417698D01*
X140873949Y-105435688D01*
X140915015Y-105465272D01*
X140947763Y-105504391D01*
X140972870Y-105554302D01*
X140989845Y-105617405D01*
X141016770Y-105577487D01*
X141054233Y-105539003D01*
X141099114Y-105505126D01*
X141155899Y-105472874D01*
X141385152Y-105359210D01*
X141385152Y-105593775D01*
G37*
G36*
X141073379Y-104996592D02*
G01*
X141169712Y-105015127D01*
X141260496Y-105045602D01*
X141346233Y-105088120D01*
X141427985Y-105143473D01*
X141506235Y-105212664D01*
X141575522Y-105290786D01*
X141631326Y-105372753D01*
X141674579Y-105459044D01*
X141705696Y-105550350D01*
X141724581Y-105646869D01*
X141731000Y-105749571D01*
X141724581Y-105852273D01*
X141705696Y-105948792D01*
X141674579Y-106040098D01*
X141631326Y-106126389D01*
X141575522Y-106208356D01*
X141506235Y-106286478D01*
X141427985Y-106355669D01*
X141346233Y-106411023D01*
X141260496Y-106453540D01*
X141169712Y-106484015D01*
X141073379Y-106502550D01*
X140970519Y-106508861D01*
X140866251Y-106502528D01*
X140769078Y-106483972D01*
X140677977Y-106453540D01*
X140591888Y-106410994D01*
X140509956Y-106355634D01*
X140431689Y-106286478D01*
X140362409Y-106208352D01*
X140306637Y-106126386D01*
X140263436Y-106040098D01*
X140232267Y-105948788D01*
X140213353Y-105852269D01*
X140206924Y-105749571D01*
X140365193Y-105749571D01*
X140370288Y-105831325D01*
X140385258Y-105907937D01*
X140409890Y-105980197D01*
X140444070Y-106048407D01*
X140488410Y-106113496D01*
X140543704Y-106175836D01*
X140638319Y-106254646D01*
X140739160Y-106309650D01*
X140811126Y-106334137D01*
X140887968Y-106349067D01*
X140970519Y-106354164D01*
X141052338Y-106349083D01*
X141128855Y-106334168D01*
X141200870Y-106309650D01*
X141301695Y-106254641D01*
X141396234Y-106175836D01*
X141450852Y-106114140D01*
X141494756Y-106049213D01*
X141528675Y-105980655D01*
X141561531Y-105870316D01*
X141572730Y-105749571D01*
X141567714Y-105666437D01*
X141553067Y-105589546D01*
X141529133Y-105518029D01*
X141495568Y-105450445D01*
X141451559Y-105385663D01*
X141396234Y-105323306D01*
X141301692Y-105244522D01*
X141200870Y-105189583D01*
X141128851Y-105165014D01*
X141052334Y-105150069D01*
X140970519Y-105144978D01*
X140887971Y-105150085D01*
X140811131Y-105165046D01*
X140739160Y-105189583D01*
X140638323Y-105244517D01*
X140543704Y-105323306D01*
X140487710Y-105386346D01*
X140443225Y-105451618D01*
X140409340Y-105519494D01*
X140376437Y-105628971D01*
X140365193Y-105749571D01*
X140206924Y-105749571D01*
X140213353Y-105646873D01*
X140232267Y-105550354D01*
X140263436Y-105459044D01*
X140306637Y-105372756D01*
X140362409Y-105290790D01*
X140431689Y-105212664D01*
X140509956Y-105143508D01*
X140591888Y-105088148D01*
X140677977Y-105045602D01*
X140769078Y-105015170D01*
X140866251Y-104996614D01*
X140970519Y-104990281D01*
X141073379Y-104996592D01*
G37*
G36*
X140201062Y-103776425D02*
G01*
X140201062Y-103381942D01*
X141731000Y-103381942D01*
X141731000Y-103776425D01*
X140201062Y-103776425D01*
G37*
G36*
X140201062Y-102995336D02*
G01*
X140201062Y-102554691D01*
X141250421Y-101998276D01*
X140201062Y-101998276D01*
X140201062Y-101624309D01*
X141731000Y-101624309D01*
X141731000Y-102064862D01*
X140681641Y-102621278D01*
X141731000Y-102621278D01*
X141731000Y-102995336D01*
X140201062Y-102995336D01*
G37*
G36*
X141646003Y-100025038D02*
G01*
X141695716Y-100136103D01*
X141731457Y-100251542D01*
X141753001Y-100371086D01*
X141760309Y-100497373D01*
X141750781Y-100651674D01*
X141723596Y-100786880D01*
X141680236Y-100905724D01*
X141621311Y-101010502D01*
X141546535Y-101102973D01*
X141457009Y-101181845D01*
X141356143Y-101243451D01*
X141242331Y-101288465D01*
X141113372Y-101316548D01*
X140966580Y-101326364D01*
X140819289Y-101316535D01*
X140690002Y-101288427D01*
X140576010Y-101243396D01*
X140475090Y-101181798D01*
X140385618Y-101102973D01*
X140310807Y-101010497D01*
X140251857Y-100905717D01*
X140208479Y-100786872D01*
X140181284Y-100651669D01*
X140171753Y-100497373D01*
X140179061Y-100371086D01*
X140200604Y-100251542D01*
X140236346Y-100136103D01*
X140286059Y-100025038D01*
X140605528Y-100025038D01*
X140538610Y-100136262D01*
X140494337Y-100241284D01*
X140467925Y-100349967D01*
X140458983Y-100465591D01*
X140468133Y-100569368D01*
X140494121Y-100657463D01*
X140535913Y-100732843D01*
X140594080Y-100797608D01*
X140664519Y-100848504D01*
X140748244Y-100886123D01*
X140847842Y-100910003D01*
X140966580Y-100918509D01*
X141084715Y-100910018D01*
X141183958Y-100886163D01*
X141267532Y-100848546D01*
X141337982Y-100797608D01*
X141396148Y-100732843D01*
X141437941Y-100657463D01*
X141463929Y-100569368D01*
X141473079Y-100465591D01*
X141464137Y-100349967D01*
X141437725Y-100241284D01*
X141393451Y-100136262D01*
X141326533Y-100025038D01*
X141646003Y-100025038D01*
G37*
G36*
X141332395Y-99676534D02*
G01*
X141332395Y-99307605D01*
X141731000Y-99307605D01*
X141731000Y-99676534D01*
X141332395Y-99676534D01*
G37*
D10*
X172319333Y-135899580D02*
X172271714Y-135947200D01*
X172271714Y-135947200D02*
X172128857Y-135994819D01*
X172128857Y-135994819D02*
X172033619Y-135994819D01*
X172033619Y-135994819D02*
X171890762Y-135947200D01*
X171890762Y-135947200D02*
X171795524Y-135851961D01*
X171795524Y-135851961D02*
X171747905Y-135756723D01*
X171747905Y-135756723D02*
X171700286Y-135566247D01*
X171700286Y-135566247D02*
X171700286Y-135423390D01*
X171700286Y-135423390D02*
X171747905Y-135232914D01*
X171747905Y-135232914D02*
X171795524Y-135137676D01*
X171795524Y-135137676D02*
X171890762Y-135042438D01*
X171890762Y-135042438D02*
X172033619Y-134994819D01*
X172033619Y-134994819D02*
X172128857Y-134994819D01*
X172128857Y-134994819D02*
X172271714Y-135042438D01*
X172271714Y-135042438D02*
X172319333Y-135090057D01*
X173271714Y-135994819D02*
X172700286Y-135994819D01*
X172986000Y-135994819D02*
X172986000Y-134994819D01*
X172986000Y-134994819D02*
X172890762Y-135137676D01*
X172890762Y-135137676D02*
X172795524Y-135232914D01*
X172795524Y-135232914D02*
X172700286Y-135280533D01*
X165608095Y-119469819D02*
X165608095Y-120279342D01*
X165608095Y-120279342D02*
X165655714Y-120374580D01*
X165655714Y-120374580D02*
X165703333Y-120422200D01*
X165703333Y-120422200D02*
X165798571Y-120469819D01*
X165798571Y-120469819D02*
X165989047Y-120469819D01*
X165989047Y-120469819D02*
X166084285Y-120422200D01*
X166084285Y-120422200D02*
X166131904Y-120374580D01*
X166131904Y-120374580D02*
X166179523Y-120279342D01*
X166179523Y-120279342D02*
X166179523Y-119469819D01*
X166560476Y-119469819D02*
X167179523Y-119469819D01*
X167179523Y-119469819D02*
X166846190Y-119850771D01*
X166846190Y-119850771D02*
X166989047Y-119850771D01*
X166989047Y-119850771D02*
X167084285Y-119898390D01*
X167084285Y-119898390D02*
X167131904Y-119946009D01*
X167131904Y-119946009D02*
X167179523Y-120041247D01*
X167179523Y-120041247D02*
X167179523Y-120279342D01*
X167179523Y-120279342D02*
X167131904Y-120374580D01*
X167131904Y-120374580D02*
X167084285Y-120422200D01*
X167084285Y-120422200D02*
X166989047Y-120469819D01*
X166989047Y-120469819D02*
X166703333Y-120469819D01*
X166703333Y-120469819D02*
X166608095Y-120422200D01*
X166608095Y-120422200D02*
X166560476Y-120374580D01*
X192532095Y-106134819D02*
X192532095Y-106944342D01*
X192532095Y-106944342D02*
X192579714Y-107039580D01*
X192579714Y-107039580D02*
X192627333Y-107087200D01*
X192627333Y-107087200D02*
X192722571Y-107134819D01*
X192722571Y-107134819D02*
X192913047Y-107134819D01*
X192913047Y-107134819D02*
X193008285Y-107087200D01*
X193008285Y-107087200D02*
X193055904Y-107039580D01*
X193055904Y-107039580D02*
X193103523Y-106944342D01*
X193103523Y-106944342D02*
X193103523Y-106134819D01*
X194103523Y-107134819D02*
X193532095Y-107134819D01*
X193817809Y-107134819D02*
X193817809Y-106134819D01*
X193817809Y-106134819D02*
X193722571Y-106277676D01*
X193722571Y-106277676D02*
X193627333Y-106372914D01*
X193627333Y-106372914D02*
X193532095Y-106420533D01*
X176958666Y-138900819D02*
X176958666Y-139615104D01*
X176958666Y-139615104D02*
X176911047Y-139757961D01*
X176911047Y-139757961D02*
X176815809Y-139853200D01*
X176815809Y-139853200D02*
X176672952Y-139900819D01*
X176672952Y-139900819D02*
X176577714Y-139900819D01*
X177482476Y-139900819D02*
X177672952Y-139900819D01*
X177672952Y-139900819D02*
X177768190Y-139853200D01*
X177768190Y-139853200D02*
X177815809Y-139805580D01*
X177815809Y-139805580D02*
X177911047Y-139662723D01*
X177911047Y-139662723D02*
X177958666Y-139472247D01*
X177958666Y-139472247D02*
X177958666Y-139091295D01*
X177958666Y-139091295D02*
X177911047Y-138996057D01*
X177911047Y-138996057D02*
X177863428Y-138948438D01*
X177863428Y-138948438D02*
X177768190Y-138900819D01*
X177768190Y-138900819D02*
X177577714Y-138900819D01*
X177577714Y-138900819D02*
X177482476Y-138948438D01*
X177482476Y-138948438D02*
X177434857Y-138996057D01*
X177434857Y-138996057D02*
X177387238Y-139091295D01*
X177387238Y-139091295D02*
X177387238Y-139329390D01*
X177387238Y-139329390D02*
X177434857Y-139424628D01*
X177434857Y-139424628D02*
X177482476Y-139472247D01*
X177482476Y-139472247D02*
X177577714Y-139519866D01*
X177577714Y-139519866D02*
X177768190Y-139519866D01*
X177768190Y-139519866D02*
X177863428Y-139472247D01*
X177863428Y-139472247D02*
X177911047Y-139424628D01*
X177911047Y-139424628D02*
X177958666Y-139329390D01*
X167513095Y-134709819D02*
X167513095Y-135519342D01*
X167513095Y-135519342D02*
X167560714Y-135614580D01*
X167560714Y-135614580D02*
X167608333Y-135662200D01*
X167608333Y-135662200D02*
X167703571Y-135709819D01*
X167703571Y-135709819D02*
X167894047Y-135709819D01*
X167894047Y-135709819D02*
X167989285Y-135662200D01*
X167989285Y-135662200D02*
X168036904Y-135614580D01*
X168036904Y-135614580D02*
X168084523Y-135519342D01*
X168084523Y-135519342D02*
X168084523Y-134709819D01*
X168989285Y-135043152D02*
X168989285Y-135709819D01*
X168751190Y-134662200D02*
X168513095Y-135376485D01*
X168513095Y-135376485D02*
X169132142Y-135376485D01*
X165679523Y-129486819D02*
X165346190Y-129010628D01*
X165108095Y-129486819D02*
X165108095Y-128486819D01*
X165108095Y-128486819D02*
X165489047Y-128486819D01*
X165489047Y-128486819D02*
X165584285Y-128534438D01*
X165584285Y-128534438D02*
X165631904Y-128582057D01*
X165631904Y-128582057D02*
X165679523Y-128677295D01*
X165679523Y-128677295D02*
X165679523Y-128820152D01*
X165679523Y-128820152D02*
X165631904Y-128915390D01*
X165631904Y-128915390D02*
X165584285Y-128963009D01*
X165584285Y-128963009D02*
X165489047Y-129010628D01*
X165489047Y-129010628D02*
X165108095Y-129010628D01*
X166108095Y-129486819D02*
X166108095Y-128486819D01*
X166108095Y-128486819D02*
X166679523Y-129486819D01*
X166679523Y-129486819D02*
X166679523Y-128486819D01*
X167679523Y-129486819D02*
X167108095Y-129486819D01*
X167393809Y-129486819D02*
X167393809Y-128486819D01*
X167393809Y-128486819D02*
X167298571Y-128629676D01*
X167298571Y-128629676D02*
X167203333Y-128724914D01*
X167203333Y-128724914D02*
X167108095Y-128772533D01*
X165608095Y-106769819D02*
X165608095Y-107579342D01*
X165608095Y-107579342D02*
X165655714Y-107674580D01*
X165655714Y-107674580D02*
X165703333Y-107722200D01*
X165703333Y-107722200D02*
X165798571Y-107769819D01*
X165798571Y-107769819D02*
X165989047Y-107769819D01*
X165989047Y-107769819D02*
X166084285Y-107722200D01*
X166084285Y-107722200D02*
X166131904Y-107674580D01*
X166131904Y-107674580D02*
X166179523Y-107579342D01*
X166179523Y-107579342D02*
X166179523Y-106769819D01*
X166608095Y-106865057D02*
X166655714Y-106817438D01*
X166655714Y-106817438D02*
X166750952Y-106769819D01*
X166750952Y-106769819D02*
X166989047Y-106769819D01*
X166989047Y-106769819D02*
X167084285Y-106817438D01*
X167084285Y-106817438D02*
X167131904Y-106865057D01*
X167131904Y-106865057D02*
X167179523Y-106960295D01*
X167179523Y-106960295D02*
X167179523Y-107055533D01*
X167179523Y-107055533D02*
X167131904Y-107198390D01*
X167131904Y-107198390D02*
X166560476Y-107769819D01*
X166560476Y-107769819D02*
X167179523Y-107769819D01*
X168509333Y-124301580D02*
X168461714Y-124349200D01*
X168461714Y-124349200D02*
X168318857Y-124396819D01*
X168318857Y-124396819D02*
X168223619Y-124396819D01*
X168223619Y-124396819D02*
X168080762Y-124349200D01*
X168080762Y-124349200D02*
X167985524Y-124253961D01*
X167985524Y-124253961D02*
X167937905Y-124158723D01*
X167937905Y-124158723D02*
X167890286Y-123968247D01*
X167890286Y-123968247D02*
X167890286Y-123825390D01*
X167890286Y-123825390D02*
X167937905Y-123634914D01*
X167937905Y-123634914D02*
X167985524Y-123539676D01*
X167985524Y-123539676D02*
X168080762Y-123444438D01*
X168080762Y-123444438D02*
X168223619Y-123396819D01*
X168223619Y-123396819D02*
X168318857Y-123396819D01*
X168318857Y-123396819D02*
X168461714Y-123444438D01*
X168461714Y-123444438D02*
X168509333Y-123492057D01*
X168890286Y-123492057D02*
X168937905Y-123444438D01*
X168937905Y-123444438D02*
X169033143Y-123396819D01*
X169033143Y-123396819D02*
X169271238Y-123396819D01*
X169271238Y-123396819D02*
X169366476Y-123444438D01*
X169366476Y-123444438D02*
X169414095Y-123492057D01*
X169414095Y-123492057D02*
X169461714Y-123587295D01*
X169461714Y-123587295D02*
X169461714Y-123682533D01*
X169461714Y-123682533D02*
X169414095Y-123825390D01*
X169414095Y-123825390D02*
X168842667Y-124396819D01*
X168842667Y-124396819D02*
X169461714Y-124396819D01*
X170521333Y-107039580D02*
X170473714Y-107087200D01*
X170473714Y-107087200D02*
X170330857Y-107134819D01*
X170330857Y-107134819D02*
X170235619Y-107134819D01*
X170235619Y-107134819D02*
X170092762Y-107087200D01*
X170092762Y-107087200D02*
X169997524Y-106991961D01*
X169997524Y-106991961D02*
X169949905Y-106896723D01*
X169949905Y-106896723D02*
X169902286Y-106706247D01*
X169902286Y-106706247D02*
X169902286Y-106563390D01*
X169902286Y-106563390D02*
X169949905Y-106372914D01*
X169949905Y-106372914D02*
X169997524Y-106277676D01*
X169997524Y-106277676D02*
X170092762Y-106182438D01*
X170092762Y-106182438D02*
X170235619Y-106134819D01*
X170235619Y-106134819D02*
X170330857Y-106134819D01*
X170330857Y-106134819D02*
X170473714Y-106182438D01*
X170473714Y-106182438D02*
X170521333Y-106230057D01*
X170854667Y-106134819D02*
X171473714Y-106134819D01*
X171473714Y-106134819D02*
X171140381Y-106515771D01*
X171140381Y-106515771D02*
X171283238Y-106515771D01*
X171283238Y-106515771D02*
X171378476Y-106563390D01*
X171378476Y-106563390D02*
X171426095Y-106611009D01*
X171426095Y-106611009D02*
X171473714Y-106706247D01*
X171473714Y-106706247D02*
X171473714Y-106944342D01*
X171473714Y-106944342D02*
X171426095Y-107039580D01*
X171426095Y-107039580D02*
X171378476Y-107087200D01*
X171378476Y-107087200D02*
X171283238Y-107134819D01*
X171283238Y-107134819D02*
X170997524Y-107134819D01*
X170997524Y-107134819D02*
X170902286Y-107087200D01*
X170902286Y-107087200D02*
X170854667Y-107039580D01*
X173863095Y-69939819D02*
X173863095Y-70654104D01*
X173863095Y-70654104D02*
X173815476Y-70796961D01*
X173815476Y-70796961D02*
X173720238Y-70892200D01*
X173720238Y-70892200D02*
X173577381Y-70939819D01*
X173577381Y-70939819D02*
X173482143Y-70939819D01*
X174291667Y-70654104D02*
X174767857Y-70654104D01*
X174196429Y-70939819D02*
X174529762Y-69939819D01*
X174529762Y-69939819D02*
X174863095Y-70939819D01*
X175720238Y-70939819D02*
X175148810Y-70939819D01*
X175434524Y-70939819D02*
X175434524Y-69939819D01*
X175434524Y-69939819D02*
X175339286Y-70082676D01*
X175339286Y-70082676D02*
X175244048Y-70177914D01*
X175244048Y-70177914D02*
X175148810Y-70225533D01*
X178141333Y-108404819D02*
X177808000Y-107928628D01*
X177569905Y-108404819D02*
X177569905Y-107404819D01*
X177569905Y-107404819D02*
X177950857Y-107404819D01*
X177950857Y-107404819D02*
X178046095Y-107452438D01*
X178046095Y-107452438D02*
X178093714Y-107500057D01*
X178093714Y-107500057D02*
X178141333Y-107595295D01*
X178141333Y-107595295D02*
X178141333Y-107738152D01*
X178141333Y-107738152D02*
X178093714Y-107833390D01*
X178093714Y-107833390D02*
X178046095Y-107881009D01*
X178046095Y-107881009D02*
X177950857Y-107928628D01*
X177950857Y-107928628D02*
X177569905Y-107928628D01*
X179093714Y-108404819D02*
X178522286Y-108404819D01*
X178808000Y-108404819D02*
X178808000Y-107404819D01*
X178808000Y-107404819D02*
X178712762Y-107547676D01*
X178712762Y-107547676D02*
X178617524Y-107642914D01*
X178617524Y-107642914D02*
X178522286Y-107690533D01*
X140001666Y-114549819D02*
X140001666Y-115264104D01*
X140001666Y-115264104D02*
X139954047Y-115406961D01*
X139954047Y-115406961D02*
X139858809Y-115502200D01*
X139858809Y-115502200D02*
X139715952Y-115549819D01*
X139715952Y-115549819D02*
X139620714Y-115549819D01*
X140430238Y-114645057D02*
X140477857Y-114597438D01*
X140477857Y-114597438D02*
X140573095Y-114549819D01*
X140573095Y-114549819D02*
X140811190Y-114549819D01*
X140811190Y-114549819D02*
X140906428Y-114597438D01*
X140906428Y-114597438D02*
X140954047Y-114645057D01*
X140954047Y-114645057D02*
X141001666Y-114740295D01*
X141001666Y-114740295D02*
X141001666Y-114835533D01*
X141001666Y-114835533D02*
X140954047Y-114978390D01*
X140954047Y-114978390D02*
X140382619Y-115549819D01*
X140382619Y-115549819D02*
X141001666Y-115549819D01*
X182911809Y-111484628D02*
X182911809Y-111960819D01*
X182578476Y-110960819D02*
X182911809Y-111484628D01*
X182911809Y-111484628D02*
X183245142Y-110960819D01*
X184102285Y-111960819D02*
X183530857Y-111960819D01*
X183816571Y-111960819D02*
X183816571Y-110960819D01*
X183816571Y-110960819D02*
X183721333Y-111103676D01*
X183721333Y-111103676D02*
X183626095Y-111198914D01*
X183626095Y-111198914D02*
X183530857Y-111246533D01*
X161718666Y-141186819D02*
X161718666Y-141901104D01*
X161718666Y-141901104D02*
X161671047Y-142043961D01*
X161671047Y-142043961D02*
X161575809Y-142139200D01*
X161575809Y-142139200D02*
X161432952Y-142186819D01*
X161432952Y-142186819D02*
X161337714Y-142186819D01*
X162718666Y-142186819D02*
X162147238Y-142186819D01*
X162432952Y-142186819D02*
X162432952Y-141186819D01*
X162432952Y-141186819D02*
X162337714Y-141329676D01*
X162337714Y-141329676D02*
X162242476Y-141424914D01*
X162242476Y-141424914D02*
X162147238Y-141472533D01*
D13*
X158630217Y-150508609D02*
X158773074Y-150556228D01*
X158773074Y-150556228D02*
X158820693Y-150603847D01*
X158820693Y-150603847D02*
X158868312Y-150699085D01*
X158868312Y-150699085D02*
X158868312Y-150841942D01*
X158868312Y-150841942D02*
X158820693Y-150937180D01*
X158820693Y-150937180D02*
X158773074Y-150984800D01*
X158773074Y-150984800D02*
X158677836Y-151032419D01*
X158677836Y-151032419D02*
X158296884Y-151032419D01*
X158296884Y-151032419D02*
X158296884Y-150032419D01*
X158296884Y-150032419D02*
X158630217Y-150032419D01*
X158630217Y-150032419D02*
X158725455Y-150080038D01*
X158725455Y-150080038D02*
X158773074Y-150127657D01*
X158773074Y-150127657D02*
X158820693Y-150222895D01*
X158820693Y-150222895D02*
X158820693Y-150318133D01*
X158820693Y-150318133D02*
X158773074Y-150413371D01*
X158773074Y-150413371D02*
X158725455Y-150460990D01*
X158725455Y-150460990D02*
X158630217Y-150508609D01*
X158630217Y-150508609D02*
X158296884Y-150508609D01*
X159439741Y-151032419D02*
X159344503Y-150984800D01*
X159344503Y-150984800D02*
X159296884Y-150937180D01*
X159296884Y-150937180D02*
X159249265Y-150841942D01*
X159249265Y-150841942D02*
X159249265Y-150556228D01*
X159249265Y-150556228D02*
X159296884Y-150460990D01*
X159296884Y-150460990D02*
X159344503Y-150413371D01*
X159344503Y-150413371D02*
X159439741Y-150365752D01*
X159439741Y-150365752D02*
X159582598Y-150365752D01*
X159582598Y-150365752D02*
X159677836Y-150413371D01*
X159677836Y-150413371D02*
X159725455Y-150460990D01*
X159725455Y-150460990D02*
X159773074Y-150556228D01*
X159773074Y-150556228D02*
X159773074Y-150841942D01*
X159773074Y-150841942D02*
X159725455Y-150937180D01*
X159725455Y-150937180D02*
X159677836Y-150984800D01*
X159677836Y-150984800D02*
X159582598Y-151032419D01*
X159582598Y-151032419D02*
X159439741Y-151032419D01*
X160630217Y-151032419D02*
X160630217Y-150508609D01*
X160630217Y-150508609D02*
X160582598Y-150413371D01*
X160582598Y-150413371D02*
X160487360Y-150365752D01*
X160487360Y-150365752D02*
X160296884Y-150365752D01*
X160296884Y-150365752D02*
X160201646Y-150413371D01*
X160630217Y-150984800D02*
X160534979Y-151032419D01*
X160534979Y-151032419D02*
X160296884Y-151032419D01*
X160296884Y-151032419D02*
X160201646Y-150984800D01*
X160201646Y-150984800D02*
X160154027Y-150889561D01*
X160154027Y-150889561D02*
X160154027Y-150794323D01*
X160154027Y-150794323D02*
X160201646Y-150699085D01*
X160201646Y-150699085D02*
X160296884Y-150651466D01*
X160296884Y-150651466D02*
X160534979Y-150651466D01*
X160534979Y-150651466D02*
X160630217Y-150603847D01*
X161106408Y-151032419D02*
X161106408Y-150365752D01*
X161106408Y-150556228D02*
X161154027Y-150460990D01*
X161154027Y-150460990D02*
X161201646Y-150413371D01*
X161201646Y-150413371D02*
X161296884Y-150365752D01*
X161296884Y-150365752D02*
X161392122Y-150365752D01*
X162154027Y-151032419D02*
X162154027Y-150032419D01*
X162154027Y-150984800D02*
X162058789Y-151032419D01*
X162058789Y-151032419D02*
X161868313Y-151032419D01*
X161868313Y-151032419D02*
X161773075Y-150984800D01*
X161773075Y-150984800D02*
X161725456Y-150937180D01*
X161725456Y-150937180D02*
X161677837Y-150841942D01*
X161677837Y-150841942D02*
X161677837Y-150556228D01*
X161677837Y-150556228D02*
X161725456Y-150460990D01*
X161725456Y-150460990D02*
X161773075Y-150413371D01*
X161773075Y-150413371D02*
X161868313Y-150365752D01*
X161868313Y-150365752D02*
X162058789Y-150365752D01*
X162058789Y-150365752D02*
X162154027Y-150413371D01*
X163392123Y-150508609D02*
X163725456Y-150508609D01*
X163868313Y-151032419D02*
X163392123Y-151032419D01*
X163392123Y-151032419D02*
X163392123Y-150032419D01*
X163392123Y-150032419D02*
X163868313Y-150032419D01*
X164725456Y-151032419D02*
X164725456Y-150032419D01*
X164725456Y-150984800D02*
X164630218Y-151032419D01*
X164630218Y-151032419D02*
X164439742Y-151032419D01*
X164439742Y-151032419D02*
X164344504Y-150984800D01*
X164344504Y-150984800D02*
X164296885Y-150937180D01*
X164296885Y-150937180D02*
X164249266Y-150841942D01*
X164249266Y-150841942D02*
X164249266Y-150556228D01*
X164249266Y-150556228D02*
X164296885Y-150460990D01*
X164296885Y-150460990D02*
X164344504Y-150413371D01*
X164344504Y-150413371D02*
X164439742Y-150365752D01*
X164439742Y-150365752D02*
X164630218Y-150365752D01*
X164630218Y-150365752D02*
X164725456Y-150413371D01*
X165630218Y-150365752D02*
X165630218Y-151175276D01*
X165630218Y-151175276D02*
X165582599Y-151270514D01*
X165582599Y-151270514D02*
X165534980Y-151318133D01*
X165534980Y-151318133D02*
X165439742Y-151365752D01*
X165439742Y-151365752D02*
X165296885Y-151365752D01*
X165296885Y-151365752D02*
X165201647Y-151318133D01*
X165630218Y-150984800D02*
X165534980Y-151032419D01*
X165534980Y-151032419D02*
X165344504Y-151032419D01*
X165344504Y-151032419D02*
X165249266Y-150984800D01*
X165249266Y-150984800D02*
X165201647Y-150937180D01*
X165201647Y-150937180D02*
X165154028Y-150841942D01*
X165154028Y-150841942D02*
X165154028Y-150556228D01*
X165154028Y-150556228D02*
X165201647Y-150460990D01*
X165201647Y-150460990D02*
X165249266Y-150413371D01*
X165249266Y-150413371D02*
X165344504Y-150365752D01*
X165344504Y-150365752D02*
X165534980Y-150365752D01*
X165534980Y-150365752D02*
X165630218Y-150413371D01*
X166487361Y-150984800D02*
X166392123Y-151032419D01*
X166392123Y-151032419D02*
X166201647Y-151032419D01*
X166201647Y-151032419D02*
X166106409Y-150984800D01*
X166106409Y-150984800D02*
X166058790Y-150889561D01*
X166058790Y-150889561D02*
X166058790Y-150508609D01*
X166058790Y-150508609D02*
X166106409Y-150413371D01*
X166106409Y-150413371D02*
X166201647Y-150365752D01*
X166201647Y-150365752D02*
X166392123Y-150365752D01*
X166392123Y-150365752D02*
X166487361Y-150413371D01*
X166487361Y-150413371D02*
X166534980Y-150508609D01*
X166534980Y-150508609D02*
X166534980Y-150603847D01*
X166534980Y-150603847D02*
X166058790Y-150699085D01*
D14*
%TO.C,C1*%
X170466000Y-136670000D02*
X174506000Y-136670000D01*
X170466000Y-137391000D02*
X170466000Y-136670000D01*
X170466000Y-139510000D02*
X170466000Y-138789000D01*
X174506000Y-136670000D02*
X174506000Y-137391000D01*
X174506000Y-138789000D02*
X174506000Y-139510000D01*
X174506000Y-139510000D02*
X170466000Y-139510000D01*
%TO.C,U3*%
X146625000Y-117365000D02*
X146625000Y-122665000D01*
X146625000Y-122665000D02*
X164525000Y-122665000D01*
X164525000Y-117365000D02*
X146625000Y-117365000D01*
X164525000Y-119015000D02*
X164525000Y-117365000D01*
X164525000Y-122665000D02*
X164525000Y-121015000D01*
X164525000Y-121015000D02*
G75*
G02*
X164525000Y-119015000I0J1000000D01*
G01*
%TO.C,J5*%
X149750000Y-72280000D02*
X151130000Y-72280000D01*
X149750000Y-73660000D02*
X149750000Y-72280000D01*
X149750000Y-74930000D02*
X149750000Y-97900000D01*
X149750000Y-74930000D02*
X152400000Y-74930000D01*
X149750000Y-97900000D02*
X155050000Y-97900000D01*
X152400000Y-72280000D02*
X155050000Y-72280000D01*
X152400000Y-74930000D02*
X152400000Y-72280000D01*
X155050000Y-72280000D02*
X155050000Y-97900000D01*
%TO.C,J4*%
X143400000Y-72280000D02*
X144780000Y-72280000D01*
X143400000Y-73660000D02*
X143400000Y-72280000D01*
X143400000Y-74930000D02*
X143400000Y-97900000D01*
X143400000Y-74930000D02*
X146050000Y-74930000D01*
X143400000Y-97900000D02*
X148700000Y-97900000D01*
X146050000Y-72280000D02*
X148700000Y-72280000D01*
X146050000Y-74930000D02*
X146050000Y-72280000D01*
X148700000Y-72280000D02*
X148700000Y-97900000D01*
%TO.C,U1*%
X177690000Y-74870000D02*
X177690000Y-105470000D01*
X177690000Y-105470000D02*
X183150000Y-105470000D01*
X185150000Y-105470000D02*
X190610000Y-105470000D01*
X190610000Y-74870000D02*
X177690000Y-74870000D01*
X190610000Y-105470000D02*
X190610000Y-74870000D01*
X183150000Y-105470000D02*
G75*
G02*
X185150000Y-105470000I1000000J0D01*
G01*
%TO.C,J9*%
X178960000Y-135780000D02*
X191880000Y-135780000D01*
X178960000Y-138430000D02*
X178960000Y-135780000D01*
X178960000Y-141080000D02*
X178960000Y-139700000D01*
X180340000Y-141080000D02*
X178960000Y-141080000D01*
X181610000Y-138430000D02*
X178960000Y-138430000D01*
X181610000Y-141080000D02*
X181610000Y-138430000D01*
X181610000Y-141080000D02*
X191880000Y-141080000D01*
X191880000Y-141080000D02*
X191880000Y-135780000D01*
%TO.C,U4*%
X141545000Y-132605000D02*
X141545000Y-137905000D01*
X141545000Y-137905000D02*
X167065000Y-137905000D01*
X167065000Y-132605000D02*
X141545000Y-132605000D01*
X167065000Y-134255000D02*
X167065000Y-132605000D01*
X167065000Y-137905000D02*
X167065000Y-136255000D01*
X167065000Y-136255000D02*
G75*
G02*
X167065000Y-134255000I0J1000000D01*
G01*
%TO.C,RN1*%
X161925000Y-128945000D02*
X161925000Y-126325000D01*
X164545000Y-128945000D02*
X144065000Y-128945000D01*
X144065000Y-126325000D01*
X164545000Y-126325000D01*
X164545000Y-128945000D01*
%TO.C,J7*%
X162450000Y-72280000D02*
X163830000Y-72280000D01*
X162450000Y-73660000D02*
X162450000Y-72280000D01*
X162450000Y-74930000D02*
X162450000Y-97900000D01*
X162450000Y-74930000D02*
X165100000Y-74930000D01*
X162450000Y-97900000D02*
X167750000Y-97900000D01*
X165100000Y-72280000D02*
X167750000Y-72280000D01*
X165100000Y-74930000D02*
X165100000Y-72280000D01*
X167750000Y-72280000D02*
X167750000Y-97900000D01*
%TO.C,U2*%
X144085000Y-104665000D02*
X144085000Y-109965000D01*
X144085000Y-109965000D02*
X164525000Y-109965000D01*
X164525000Y-104665000D02*
X144085000Y-104665000D01*
X164525000Y-106315000D02*
X164525000Y-104665000D01*
X164525000Y-109965000D02*
X164525000Y-108315000D01*
X164525000Y-108315000D02*
G75*
G02*
X164525000Y-106315000I0J1000000D01*
G01*
%TO.C,J8*%
X168800000Y-72280000D02*
X170180000Y-72280000D01*
X168800000Y-73660000D02*
X168800000Y-72280000D01*
X168800000Y-74930000D02*
X168800000Y-97900000D01*
X168800000Y-74930000D02*
X171450000Y-74930000D01*
X168800000Y-97900000D02*
X174100000Y-97900000D01*
X171450000Y-72280000D02*
X174100000Y-72280000D01*
X171450000Y-74930000D02*
X171450000Y-72280000D01*
X174100000Y-72280000D02*
X174100000Y-97900000D01*
%TO.C,C2*%
X166656000Y-125072000D02*
X170696000Y-125072000D01*
X166656000Y-125793000D02*
X166656000Y-125072000D01*
X166656000Y-127912000D02*
X166656000Y-127191000D01*
X170696000Y-125072000D02*
X170696000Y-125793000D01*
X170696000Y-127191000D02*
X170696000Y-127912000D01*
X170696000Y-127912000D02*
X166656000Y-127912000D01*
%TO.C,C3*%
X169522000Y-107728000D02*
X170243000Y-107728000D01*
X169522000Y-111768000D02*
X169522000Y-107728000D01*
X170243000Y-111768000D02*
X169522000Y-111768000D01*
X171641000Y-107728000D02*
X172362000Y-107728000D01*
X172362000Y-107728000D02*
X172362000Y-111768000D01*
X172362000Y-111768000D02*
X171641000Y-111768000D01*
%TO.C,JA1*%
X176420000Y-72754000D02*
X176420000Y-71374000D01*
X177800000Y-72754000D02*
X176420000Y-72754000D01*
X179070000Y-69994000D02*
X191880000Y-69994000D01*
X179070000Y-72754000D02*
X179070000Y-69994000D01*
X179070000Y-72754000D02*
X191880000Y-72754000D01*
X191880000Y-72754000D02*
X191880000Y-69994000D01*
%TO.C,R1*%
X182015000Y-107950000D02*
X182785000Y-107950000D01*
X190095000Y-107950000D02*
X189325000Y-107950000D01*
X182785000Y-106580000D02*
X189325000Y-106580000D01*
X189325000Y-109320000D01*
X182785000Y-109320000D01*
X182785000Y-106580000D01*
%TO.C,J2*%
X138955000Y-116095000D02*
X140335000Y-116095000D01*
X138955000Y-117475000D02*
X138955000Y-116095000D01*
X138955000Y-118745000D02*
X138955000Y-129015000D01*
X138955000Y-118745000D02*
X141715000Y-118745000D01*
X138955000Y-129015000D02*
X141715000Y-129015000D01*
X141715000Y-118745000D02*
X141715000Y-129015000D01*
%TO.C,Y1*%
X176710000Y-113335000D02*
X176710000Y-112505000D01*
X189050000Y-113335000D02*
X189050000Y-112505000D01*
X172655000Y-113215000D02*
X193105000Y-113215000D01*
X193105000Y-113335000D01*
X172655000Y-113335000D01*
X172655000Y-113215000D01*
X173005000Y-113335000D02*
X192755000Y-113335000D01*
X192755000Y-133555000D01*
X173005000Y-133555000D01*
X173005000Y-113335000D01*
%TO.C,J1*%
X142431000Y-142780000D02*
X181555000Y-142780000D01*
X142431000Y-152280000D02*
X142431000Y-142780000D01*
X177805000Y-152280000D02*
X177805000Y-142780000D01*
X181555000Y-142780000D02*
X181555000Y-152280000D01*
X181555000Y-152280000D02*
X142431000Y-152280000D01*
%TO.C,J6*%
X156100000Y-72280000D02*
X157480000Y-72280000D01*
X156100000Y-73660000D02*
X156100000Y-72280000D01*
X156100000Y-74930000D02*
X156100000Y-97900000D01*
X156100000Y-74930000D02*
X158750000Y-74930000D01*
X156100000Y-97900000D02*
X161400000Y-97900000D01*
X158750000Y-72280000D02*
X161400000Y-72280000D01*
X158750000Y-74930000D02*
X158750000Y-72280000D01*
X161400000Y-72280000D02*
X161400000Y-97900000D01*
%TD*%
M02*
