M48
; DRILL file {KiCad 9.0.9-9.0.9~ubuntu24.04.1} date 2026-07-13T18:50:21+0200
; FORMAT={-:-/ absolute / metric / decimal}
; #@! TF.CreationDate,2026-07-13T18:50:21+02:00
; #@! TF.GenerationSoftware,Kicad,Pcbnew,9.0.9-9.0.9~ubuntu24.04.1
; #@! TF.FileFunction,MixedPlating,1,2
FMAT,2
METRIC
; #@! TA.AperFunction,Plated,PTH,ViaDrill
T1C0.600
; #@! TA.AperFunction,Plated,PTH,ComponentDrill
T2C0.800
; #@! TA.AperFunction,Plated,PTH,ComponentDrill
T3C1.000
; #@! TA.AperFunction,Plated,PTH,ComponentDrill
T4C1.520
; #@! TA.AperFunction,Plated,PTH,ComponentDrill
T5C1.700
%
G90
G05
T1
X145.542Y-119.888
X152.146Y-99.314
X154.686Y-107.696
X156.718Y-105.156
X157.48Y-99.314
X160.528Y-100.584
X166.878Y-107.95
X166.878Y-119.38
X168.656Y-105.156
X168.656Y-121.92
X170.18Y-101.854
X179.324Y-80.01
X180.848Y-96.52
X184.912Y-93.98
T2
X142.875Y-131.445
X142.875Y-139.065
X145.415Y-103.505
X145.415Y-111.125
X145.415Y-127.635
X145.415Y-131.445
X145.415Y-139.065
X147.955Y-103.505
X147.955Y-111.125
X147.955Y-116.205
X147.955Y-123.825
X147.955Y-127.635
X147.955Y-131.445
X147.955Y-139.065
X150.495Y-103.505
X150.495Y-111.125
X150.495Y-116.205
X150.495Y-123.825
X150.495Y-127.635
X150.495Y-131.445
X150.495Y-139.065
X153.035Y-103.505
X153.035Y-111.125
X153.035Y-116.205
X153.035Y-123.825
X153.035Y-127.635
X153.035Y-131.445
X153.035Y-139.065
X155.575Y-103.505
X155.575Y-111.125
X155.575Y-116.205
X155.575Y-123.825
X155.575Y-127.635
X155.575Y-131.445
X155.575Y-139.065
X158.115Y-103.505
X158.115Y-111.125
X158.115Y-116.205
X158.115Y-123.825
X158.115Y-127.635
X158.115Y-131.445
X158.115Y-139.065
X160.655Y-103.505
X160.655Y-111.125
X160.655Y-116.205
X160.655Y-123.825
X160.655Y-127.635
X160.655Y-131.445
X160.655Y-139.065
X163.195Y-103.505
X163.195Y-111.125
X163.195Y-116.205
X163.195Y-123.825
X163.195Y-127.635
X163.195Y-131.445
X163.195Y-139.065
X165.735Y-131.445
X165.735Y-139.065
X167.426Y-126.492
X169.926Y-126.492
X170.942Y-108.498
X170.942Y-110.998
X171.236Y-138.09
X173.736Y-138.09
X176.53Y-76.2
X176.53Y-78.74
X176.53Y-81.28
X176.53Y-83.82
X176.53Y-86.36
X176.53Y-88.9
X176.53Y-91.44
X176.53Y-93.98
X176.53Y-96.52
X176.53Y-99.06
X176.53Y-101.6
X176.53Y-104.14
X180.975Y-107.95
X191.135Y-107.95
X191.77Y-76.2
X191.77Y-78.74
X191.77Y-81.28
X191.77Y-83.82
X191.77Y-86.36
X191.77Y-88.9
X191.77Y-91.44
X191.77Y-93.98
X191.77Y-96.52
X191.77Y-99.06
X191.77Y-101.6
X191.77Y-104.14
T3
X140.335Y-117.475
X140.335Y-120.015
X140.335Y-122.555
X140.335Y-125.095
X140.335Y-127.635
X144.78Y-73.66
X144.78Y-76.2
X144.78Y-78.74
X144.78Y-81.28
X144.78Y-83.82
X144.78Y-86.36
X144.78Y-88.9
X144.78Y-91.44
X144.78Y-93.98
X144.78Y-96.52
X147.32Y-73.66
X147.32Y-76.2
X147.32Y-78.74
X147.32Y-81.28
X147.32Y-83.82
X147.32Y-86.36
X147.32Y-88.9
X147.32Y-91.44
X147.32Y-93.98
X147.32Y-96.52
X151.13Y-73.66
X151.13Y-76.2
X151.13Y-78.74
X151.13Y-81.28
X151.13Y-83.82
X151.13Y-86.36
X151.13Y-88.9
X151.13Y-91.44
X151.13Y-93.98
X151.13Y-96.52
X153.67Y-73.66
X153.67Y-76.2
X153.67Y-78.74
X153.67Y-81.28
X153.67Y-83.82
X153.67Y-86.36
X153.67Y-88.9
X153.67Y-91.44
X153.67Y-93.98
X153.67Y-96.52
X157.48Y-73.66
X157.48Y-76.2
X157.48Y-78.74
X157.48Y-81.28
X157.48Y-83.82
X157.48Y-86.36
X157.48Y-88.9
X157.48Y-91.44
X157.48Y-93.98
X157.48Y-96.52
X160.02Y-73.66
X160.02Y-76.2
X160.02Y-78.74
X160.02Y-81.28
X160.02Y-83.82
X160.02Y-86.36
X160.02Y-88.9
X160.02Y-91.44
X160.02Y-93.98
X160.02Y-96.52
X163.83Y-73.66
X163.83Y-76.2
X163.83Y-78.74
X163.83Y-81.28
X163.83Y-83.82
X163.83Y-86.36
X163.83Y-88.9
X163.83Y-91.44
X163.83Y-93.98
X163.83Y-96.52
X166.37Y-73.66
X166.37Y-76.2
X166.37Y-78.74
X166.37Y-81.28
X166.37Y-83.82
X166.37Y-86.36
X166.37Y-88.9
X166.37Y-91.44
X166.37Y-93.98
X166.37Y-96.52
X170.18Y-73.66
X170.18Y-76.2
X170.18Y-78.74
X170.18Y-81.28
X170.18Y-83.82
X170.18Y-86.36
X170.18Y-88.9
X170.18Y-91.44
X170.18Y-93.98
X170.18Y-96.52
X172.72Y-73.66
X172.72Y-76.2
X172.72Y-78.74
X172.72Y-81.28
X172.72Y-83.82
X172.72Y-86.36
X172.72Y-88.9
X172.72Y-91.44
X172.72Y-93.98
X172.72Y-96.52
X177.8Y-71.374
X180.34Y-71.374
X180.34Y-137.16
X180.34Y-139.7
X182.88Y-71.374
X182.88Y-137.16
X182.88Y-139.7
X185.42Y-71.374
X185.42Y-137.16
X185.42Y-139.7
X187.96Y-71.374
X187.96Y-137.16
X187.96Y-139.7
X190.5Y-71.374
X190.5Y-137.16
X190.5Y-139.7
T4
X144.145Y-144.78
X148.105Y-144.78
X152.065Y-144.78
X156.025Y-144.78
X159.985Y-144.78
X163.945Y-144.78
X167.905Y-144.78
X171.865Y-144.78
X175.825Y-144.78
X179.785Y-144.78
T5
X176.71Y-111.095
X189.05Y-111.095
M30
