%TF.GenerationSoftware,KiCad,Pcbnew,9.0.9-9.0.9~ubuntu24.04.1*%
%TF.CreationDate,2026-06-30T13:32:38+02:00*%
%TF.ProjectId,GIMIX DMA SASI,47494d49-5820-4444-9d41-20534153492e,rev?*%
%TF.SameCoordinates,Original*%
%TF.FileFunction,Soldermask,Top*%
%TF.FilePolarity,Negative*%
%FSLAX46Y46*%
G04 Gerber Fmt 4.6, Leading zero omitted, Abs format (unit mm)*
G04 Created by KiCad (PCBNEW 9.0.9-9.0.9~ubuntu24.04.1) date 2026-06-30 13:32:38*
%MOMM*%
%LPD*%
G01*
G04 APERTURE LIST*
G04 Aperture macros list*
%AMRoundRect*
0 Rectangle with rounded corners*
0 $1 Rounding radius*
0 $2 $3 $4 $5 $6 $7 $8 $9 X,Y pos of 4 corners*
0 Add a 4 corners polygon primitive as box body*
4,1,4,$2,$3,$4,$5,$6,$7,$8,$9,$2,$3,0*
0 Add four circle primitives for the rounded corners*
1,1,$1+$1,$2,$3*
1,1,$1+$1,$4,$5*
1,1,$1+$1,$6,$7*
1,1,$1+$1,$8,$9*
0 Add four rect primitives between the rounded corners*
20,1,$1+$1,$2,$3,$4,$5,0*
20,1,$1+$1,$4,$5,$6,$7,0*
20,1,$1+$1,$6,$7,$8,$9,0*
20,1,$1+$1,$8,$9,$2,$3,0*%
G04 Aperture macros list end*
%ADD10C,1.600000*%
%ADD11RoundRect,0.250000X-0.550000X-0.550000X0.550000X-0.550000X0.550000X0.550000X-0.550000X0.550000X0*%
%ADD12RoundRect,0.250001X-0.949999X-0.949999X0.949999X-0.949999X0.949999X0.949999X-0.949999X0.949999X0*%
%ADD13C,2.400000*%
%ADD14R,1.600000X1.600000*%
%ADD15RoundRect,0.250000X0.550000X0.550000X-0.550000X0.550000X-0.550000X-0.550000X0.550000X-0.550000X0*%
%ADD16RoundRect,0.250000X0.550000X-0.550000X0.550000X0.550000X-0.550000X0.550000X-0.550000X-0.550000X0*%
%ADD17R,1.700000X1.700000*%
%ADD18C,1.700000*%
%ADD19O,2.540000X3.000000*%
%ADD20C,3.500000*%
%ADD21R,2.000000X1.905000*%
%ADD22O,2.000000X1.905000*%
G04 APERTURE END LIST*
D10*
%TO.C,C18*%
X190246000Y-116626000D03*
X190246000Y-119126000D03*
%TD*%
D11*
%TO.C,U17*%
X209550000Y-51816000D03*
D10*
X209550000Y-54356000D03*
X209550000Y-56896000D03*
X209550000Y-59436000D03*
X209550000Y-61976000D03*
X209550000Y-64516000D03*
X209550000Y-67056000D03*
X217170000Y-67056000D03*
X217170000Y-64516000D03*
X217170000Y-61976000D03*
X217170000Y-59436000D03*
X217170000Y-56896000D03*
X217170000Y-54356000D03*
X217170000Y-51816000D03*
%TD*%
D11*
%TO.C,C5*%
X74930000Y-97155000D03*
D10*
X77430000Y-97155000D03*
%TD*%
D11*
%TO.C,U16*%
X195580000Y-51816000D03*
D10*
X195580000Y-54356000D03*
X195580000Y-56896000D03*
X195580000Y-59436000D03*
X195580000Y-61976000D03*
X195580000Y-64516000D03*
X195580000Y-67056000D03*
X203200000Y-67056000D03*
X203200000Y-64516000D03*
X203200000Y-61976000D03*
X203200000Y-59436000D03*
X203200000Y-56896000D03*
X203200000Y-54356000D03*
X203200000Y-51816000D03*
%TD*%
D12*
%TO.C,C2*%
X75010000Y-106680000D03*
D13*
X80010000Y-106680000D03*
%TD*%
D10*
%TO.C,C7*%
X128270000Y-13442000D03*
X128270000Y-10942000D03*
%TD*%
D13*
%TO.C,R4*%
X99314000Y-48260000D03*
X112014000Y-48260000D03*
%TD*%
D11*
%TO.C,U13*%
X151130000Y-49530000D03*
D10*
X151130000Y-52070000D03*
X151130000Y-54610000D03*
X151130000Y-57150000D03*
X151130000Y-59690000D03*
X151130000Y-62230000D03*
X151130000Y-64770000D03*
X151130000Y-67310000D03*
X158750000Y-67310000D03*
X158750000Y-64770000D03*
X158750000Y-62230000D03*
X158750000Y-59690000D03*
X158750000Y-57150000D03*
X158750000Y-54610000D03*
X158750000Y-52070000D03*
X158750000Y-49530000D03*
%TD*%
D11*
%TO.C,U27*%
X191770000Y-79248000D03*
D10*
X191770000Y-81788000D03*
X191770000Y-84328000D03*
X191770000Y-86868000D03*
X191770000Y-89408000D03*
X191770000Y-91948000D03*
X191770000Y-94488000D03*
X191770000Y-97028000D03*
X199390000Y-97028000D03*
X199390000Y-94488000D03*
X199390000Y-91948000D03*
X199390000Y-89408000D03*
X199390000Y-86868000D03*
X199390000Y-84328000D03*
X199390000Y-81788000D03*
X199390000Y-79248000D03*
%TD*%
%TO.C,C16*%
X268224000Y-75906000D03*
X268224000Y-73406000D03*
%TD*%
D11*
%TO.C,U20*%
X104140000Y-81788000D03*
D10*
X104140000Y-84328000D03*
X104140000Y-86868000D03*
X104140000Y-89408000D03*
X104140000Y-91948000D03*
X104140000Y-94488000D03*
X104140000Y-97028000D03*
X111760000Y-97028000D03*
X111760000Y-94488000D03*
X111760000Y-91948000D03*
X111760000Y-89408000D03*
X111760000Y-86868000D03*
X111760000Y-84328000D03*
X111760000Y-81788000D03*
%TD*%
D11*
%TO.C,U5*%
X160274000Y-16510000D03*
D10*
X160274000Y-19050000D03*
X160274000Y-21590000D03*
X160274000Y-24130000D03*
X160274000Y-26670000D03*
X160274000Y-29210000D03*
X160274000Y-31750000D03*
X167894000Y-31750000D03*
X167894000Y-29210000D03*
X167894000Y-26670000D03*
X167894000Y-24130000D03*
X167894000Y-21590000D03*
X167894000Y-19050000D03*
X167894000Y-16510000D03*
%TD*%
D13*
%TO.C,R6*%
X178816000Y-16256000D03*
X178816000Y-28956000D03*
%TD*%
D10*
%TO.C,C12*%
X258064000Y-42398000D03*
X258064000Y-39898000D03*
%TD*%
%TO.C,C10*%
X252984000Y-16510000D03*
X255484000Y-16510000D03*
%TD*%
%TO.C,C14*%
X215900000Y-79248000D03*
X215900000Y-81748000D03*
%TD*%
D11*
%TO.C,U21*%
X116332000Y-81788000D03*
D10*
X116332000Y-84328000D03*
X116332000Y-86868000D03*
X116332000Y-89408000D03*
X116332000Y-91948000D03*
X116332000Y-94488000D03*
X116332000Y-97028000D03*
X123952000Y-97028000D03*
X123952000Y-94488000D03*
X123952000Y-91948000D03*
X123952000Y-89408000D03*
X123952000Y-86868000D03*
X123952000Y-84328000D03*
X123952000Y-81788000D03*
%TD*%
D11*
%TO.C,U23*%
X139700000Y-81788000D03*
D10*
X139700000Y-84328000D03*
X139700000Y-86868000D03*
X139700000Y-89408000D03*
X139700000Y-91948000D03*
X139700000Y-94488000D03*
X139700000Y-97028000D03*
X147320000Y-97028000D03*
X147320000Y-94488000D03*
X147320000Y-91948000D03*
X147320000Y-89408000D03*
X147320000Y-86868000D03*
X147320000Y-84328000D03*
X147320000Y-81788000D03*
%TD*%
%TO.C,C15*%
X243078000Y-76200000D03*
X243078000Y-73700000D03*
%TD*%
D11*
%TO.C,U31*%
X246634000Y-78994000D03*
D10*
X246634000Y-81534000D03*
X246634000Y-84074000D03*
X246634000Y-86614000D03*
X246634000Y-89154000D03*
X246634000Y-91694000D03*
X246634000Y-94234000D03*
X246634000Y-96774000D03*
X246634000Y-99314000D03*
X246634000Y-101854000D03*
X254254000Y-101854000D03*
X254254000Y-99314000D03*
X254254000Y-96774000D03*
X254254000Y-94234000D03*
X254254000Y-91694000D03*
X254254000Y-89154000D03*
X254254000Y-86614000D03*
X254254000Y-84074000D03*
X254254000Y-81534000D03*
X254254000Y-78994000D03*
%TD*%
D11*
%TO.C,U30*%
X232410000Y-78994000D03*
D10*
X232410000Y-81534000D03*
X232410000Y-84074000D03*
X232410000Y-86614000D03*
X232410000Y-89154000D03*
X232410000Y-91694000D03*
X232410000Y-94234000D03*
X232410000Y-96774000D03*
X232410000Y-99314000D03*
X232410000Y-101854000D03*
X240030000Y-101854000D03*
X240030000Y-99314000D03*
X240030000Y-96774000D03*
X240030000Y-94234000D03*
X240030000Y-91694000D03*
X240030000Y-89154000D03*
X240030000Y-86614000D03*
X240030000Y-84074000D03*
X240030000Y-81534000D03*
X240030000Y-78994000D03*
%TD*%
%TO.C,C13*%
X162560000Y-78232000D03*
X162560000Y-80732000D03*
%TD*%
D13*
%TO.C,R2*%
X120142000Y-41402000D03*
X107442000Y-41402000D03*
%TD*%
D11*
%TO.C,U29*%
X218440000Y-78994000D03*
D10*
X218440000Y-81534000D03*
X218440000Y-84074000D03*
X218440000Y-86614000D03*
X218440000Y-89154000D03*
X218440000Y-91694000D03*
X218440000Y-94234000D03*
X218440000Y-96774000D03*
X218440000Y-99314000D03*
X218440000Y-101854000D03*
X226060000Y-101854000D03*
X226060000Y-99314000D03*
X226060000Y-96774000D03*
X226060000Y-94234000D03*
X226060000Y-91694000D03*
X226060000Y-89154000D03*
X226060000Y-86614000D03*
X226060000Y-84074000D03*
X226060000Y-81534000D03*
X226060000Y-78994000D03*
%TD*%
D14*
%TO.C,RP1*%
X127508000Y-113538000D03*
D10*
X124968000Y-113538000D03*
X122428000Y-113538000D03*
X119888000Y-113538000D03*
X117348000Y-113538000D03*
X114808000Y-113538000D03*
X112268000Y-113538000D03*
X109728000Y-113538000D03*
X107188000Y-113538000D03*
X104648000Y-113538000D03*
%TD*%
D13*
%TO.C,R1*%
X114554000Y-44958000D03*
X101854000Y-44958000D03*
%TD*%
D11*
%TO.C,U12*%
X137160000Y-49530000D03*
D10*
X137160000Y-52070000D03*
X137160000Y-54610000D03*
X137160000Y-57150000D03*
X137160000Y-59690000D03*
X137160000Y-62230000D03*
X137160000Y-64770000D03*
X137160000Y-67310000D03*
X144780000Y-67310000D03*
X144780000Y-64770000D03*
X144780000Y-62230000D03*
X144780000Y-59690000D03*
X144780000Y-57150000D03*
X144780000Y-54610000D03*
X144780000Y-52070000D03*
X144780000Y-49530000D03*
%TD*%
%TO.C,C9*%
X185166000Y-16256000D03*
X185166000Y-18756000D03*
%TD*%
D11*
%TO.C,U18*%
X233680000Y-51816000D03*
D10*
X233680000Y-54356000D03*
X233680000Y-56896000D03*
X233680000Y-59436000D03*
X233680000Y-61976000D03*
X233680000Y-64516000D03*
X233680000Y-67056000D03*
X241300000Y-67056000D03*
X241300000Y-64516000D03*
X241300000Y-61976000D03*
X241300000Y-59436000D03*
X241300000Y-56896000D03*
X241300000Y-54356000D03*
X241300000Y-51816000D03*
%TD*%
D11*
%TO.C,U25*%
X165608000Y-79248000D03*
D10*
X165608000Y-81788000D03*
X165608000Y-84328000D03*
X165608000Y-86868000D03*
X165608000Y-89408000D03*
X165608000Y-91948000D03*
X165608000Y-94488000D03*
X165608000Y-97028000D03*
X173228000Y-97028000D03*
X173228000Y-94488000D03*
X173228000Y-91948000D03*
X173228000Y-89408000D03*
X173228000Y-86868000D03*
X173228000Y-84328000D03*
X173228000Y-81788000D03*
X173228000Y-79248000D03*
%TD*%
D11*
%TO.C,U1*%
X104140000Y-16256000D03*
D10*
X104140000Y-18796000D03*
X104140000Y-21336000D03*
X104140000Y-23876000D03*
X104140000Y-26416000D03*
X104140000Y-28956000D03*
X104140000Y-31496000D03*
X111760000Y-31496000D03*
X111760000Y-28956000D03*
X111760000Y-26416000D03*
X111760000Y-23876000D03*
X111760000Y-21336000D03*
X111760000Y-18796000D03*
X111760000Y-16256000D03*
%TD*%
D15*
%TO.C,C3*%
X29780112Y-106680000D03*
D10*
X27280112Y-106680000D03*
%TD*%
D11*
%TO.C,U11*%
X122555000Y-44450000D03*
D10*
X122555000Y-46990000D03*
X122555000Y-49530000D03*
X122555000Y-52070000D03*
X122555000Y-54610000D03*
X122555000Y-57150000D03*
X122555000Y-59690000D03*
X122555000Y-62230000D03*
X122555000Y-64770000D03*
X122555000Y-67310000D03*
X130175000Y-67310000D03*
X130175000Y-64770000D03*
X130175000Y-62230000D03*
X130175000Y-59690000D03*
X130175000Y-57150000D03*
X130175000Y-54610000D03*
X130175000Y-52070000D03*
X130175000Y-49530000D03*
X130175000Y-46990000D03*
X130175000Y-44450000D03*
%TD*%
D16*
%TO.C,SW1*%
X104648000Y-124206000D03*
D10*
X107188000Y-124206000D03*
X109728000Y-124206000D03*
X112268000Y-124206000D03*
X114808000Y-124206000D03*
X117348000Y-124206000D03*
X119888000Y-124206000D03*
X122428000Y-124206000D03*
X124968000Y-124206000D03*
X127508000Y-124206000D03*
X127508000Y-116586000D03*
X124968000Y-116586000D03*
X122428000Y-116586000D03*
X119888000Y-116586000D03*
X117348000Y-116586000D03*
X114808000Y-116586000D03*
X112268000Y-116586000D03*
X109728000Y-116586000D03*
X107188000Y-116586000D03*
X104648000Y-116586000D03*
%TD*%
D11*
%TO.C,U8*%
X212090000Y-16510000D03*
D10*
X212090000Y-19050000D03*
X212090000Y-21590000D03*
X212090000Y-24130000D03*
X212090000Y-26670000D03*
X212090000Y-29210000D03*
X212090000Y-31750000D03*
X219710000Y-31750000D03*
X219710000Y-29210000D03*
X219710000Y-26670000D03*
X219710000Y-24130000D03*
X219710000Y-21590000D03*
X219710000Y-19050000D03*
X219710000Y-16510000D03*
%TD*%
D11*
%TO.C,U2*%
X117094000Y-16256000D03*
D10*
X117094000Y-18796000D03*
X117094000Y-21336000D03*
X117094000Y-23876000D03*
X117094000Y-26416000D03*
X117094000Y-28956000D03*
X117094000Y-31496000D03*
X124714000Y-31496000D03*
X124714000Y-28956000D03*
X124714000Y-26416000D03*
X124714000Y-23876000D03*
X124714000Y-21336000D03*
X124714000Y-18796000D03*
X124714000Y-16256000D03*
%TD*%
D13*
%TO.C,R7*%
X182626000Y-16256000D03*
X182626000Y-28956000D03*
%TD*%
%TO.C,R5*%
X175006000Y-16256000D03*
X175006000Y-28956000D03*
%TD*%
D16*
%TO.C,SW2*%
X133350000Y-124206000D03*
D10*
X135890000Y-124206000D03*
X138430000Y-124206000D03*
X140970000Y-124206000D03*
X143510000Y-124206000D03*
X146050000Y-124206000D03*
X148590000Y-124206000D03*
X151130000Y-124206000D03*
X153670000Y-124206000D03*
X156210000Y-124206000D03*
X156210000Y-116586000D03*
X153670000Y-116586000D03*
X151130000Y-116586000D03*
X148590000Y-116586000D03*
X146050000Y-116586000D03*
X143510000Y-116586000D03*
X140970000Y-116586000D03*
X138430000Y-116586000D03*
X135890000Y-116586000D03*
X133350000Y-116586000D03*
%TD*%
D11*
%TO.C,U19*%
X246380000Y-44196000D03*
D10*
X246380000Y-46736000D03*
X246380000Y-49276000D03*
X246380000Y-51816000D03*
X246380000Y-54356000D03*
X246380000Y-56896000D03*
X246380000Y-59436000D03*
X246380000Y-61976000D03*
X246380000Y-64516000D03*
X246380000Y-67056000D03*
X254000000Y-67056000D03*
X254000000Y-64516000D03*
X254000000Y-61976000D03*
X254000000Y-59436000D03*
X254000000Y-56896000D03*
X254000000Y-54356000D03*
X254000000Y-51816000D03*
X254000000Y-49276000D03*
X254000000Y-46736000D03*
X254000000Y-44196000D03*
%TD*%
D11*
%TO.C,U6*%
X188468000Y-16256000D03*
D10*
X188468000Y-18796000D03*
X188468000Y-21336000D03*
X188468000Y-23876000D03*
X188468000Y-26416000D03*
X188468000Y-28956000D03*
X188468000Y-31496000D03*
X196088000Y-31496000D03*
X196088000Y-28956000D03*
X196088000Y-26416000D03*
X196088000Y-23876000D03*
X196088000Y-21336000D03*
X196088000Y-18796000D03*
X196088000Y-16256000D03*
%TD*%
D11*
%TO.C,U9*%
X223520000Y-16510000D03*
D10*
X223520000Y-19050000D03*
X223520000Y-21590000D03*
X223520000Y-24130000D03*
X223520000Y-26670000D03*
X223520000Y-29210000D03*
X223520000Y-31750000D03*
X231140000Y-31750000D03*
X231140000Y-29210000D03*
X231140000Y-26670000D03*
X231140000Y-24130000D03*
X231140000Y-21590000D03*
X231140000Y-19050000D03*
X231140000Y-16510000D03*
%TD*%
D17*
%TO.C,J2*%
X259080000Y-2540000D03*
D18*
X259080000Y-5080000D03*
X256540000Y-2540000D03*
X256540000Y-5080000D03*
X254000000Y-2540000D03*
X254000000Y-5080000D03*
X251460000Y-2540000D03*
X251460000Y-5080000D03*
X248920000Y-2540000D03*
X248920000Y-5080000D03*
X246380000Y-2540000D03*
X246380000Y-5080000D03*
X243840000Y-2540000D03*
X243840000Y-5080000D03*
X241300000Y-2540000D03*
X241300000Y-5080000D03*
X238760000Y-2540000D03*
X238760000Y-5080000D03*
X236220000Y-2540000D03*
X236220000Y-5080000D03*
X233680000Y-2540000D03*
X233680000Y-5080000D03*
X231140000Y-2540000D03*
X231140000Y-5080000D03*
X228600000Y-2540000D03*
X228600000Y-5080000D03*
X226060000Y-2540000D03*
X226060000Y-5080000D03*
X223520000Y-2540000D03*
X223520000Y-5080000D03*
X220980000Y-2540000D03*
X220980000Y-5080000D03*
X218440000Y-2540000D03*
X218440000Y-5080000D03*
X215900000Y-2540000D03*
X215900000Y-5080000D03*
X213360000Y-2540000D03*
X213360000Y-5080000D03*
X210820000Y-2540000D03*
X210820000Y-5080000D03*
X208280000Y-2540000D03*
X208280000Y-5080000D03*
X205740000Y-2540000D03*
X205740000Y-5080000D03*
X203200000Y-2540000D03*
X203200000Y-5080000D03*
X200660000Y-2540000D03*
X200660000Y-5080000D03*
X198120000Y-2540000D03*
X198120000Y-5080000D03*
%TD*%
D11*
%TO.C,U3*%
X131826000Y-16510000D03*
D10*
X131826000Y-19050000D03*
X131826000Y-21590000D03*
X131826000Y-24130000D03*
X131826000Y-26670000D03*
X131826000Y-29210000D03*
X131826000Y-31750000D03*
X139446000Y-31750000D03*
X139446000Y-29210000D03*
X139446000Y-26670000D03*
X139446000Y-24130000D03*
X139446000Y-21590000D03*
X139446000Y-19050000D03*
X139446000Y-16510000D03*
%TD*%
D11*
%TO.C,U28*%
X204470000Y-79248000D03*
D10*
X204470000Y-81788000D03*
X204470000Y-84328000D03*
X204470000Y-86868000D03*
X204470000Y-89408000D03*
X204470000Y-91948000D03*
X204470000Y-94488000D03*
X204470000Y-97028000D03*
X212090000Y-97028000D03*
X212090000Y-94488000D03*
X212090000Y-91948000D03*
X212090000Y-89408000D03*
X212090000Y-86868000D03*
X212090000Y-84328000D03*
X212090000Y-81788000D03*
X212090000Y-79248000D03*
%TD*%
%TO.C,C8*%
X157734000Y-13462000D03*
X157734000Y-10962000D03*
%TD*%
D11*
%TO.C,U22*%
X128270000Y-81788000D03*
D10*
X128270000Y-84328000D03*
X128270000Y-86868000D03*
X128270000Y-89408000D03*
X128270000Y-91948000D03*
X128270000Y-94488000D03*
X128270000Y-97028000D03*
X135890000Y-97028000D03*
X135890000Y-94488000D03*
X135890000Y-91948000D03*
X135890000Y-89408000D03*
X135890000Y-86868000D03*
X135890000Y-84328000D03*
X135890000Y-81788000D03*
%TD*%
D11*
%TO.C,U15*%
X181356000Y-51816000D03*
D10*
X181356000Y-54356000D03*
X181356000Y-56896000D03*
X181356000Y-59436000D03*
X181356000Y-61976000D03*
X181356000Y-64516000D03*
X181356000Y-67056000D03*
X188976000Y-67056000D03*
X188976000Y-64516000D03*
X188976000Y-61976000D03*
X188976000Y-59436000D03*
X188976000Y-56896000D03*
X188976000Y-54356000D03*
X188976000Y-51816000D03*
%TD*%
D19*
%TO.C,P1*%
X245364000Y-130810000D03*
X241404000Y-130810000D03*
X237444000Y-130810000D03*
X233484000Y-130810000D03*
X229524000Y-130810000D03*
X225564000Y-130810000D03*
X221604000Y-130810000D03*
X217644000Y-130810000D03*
X213684000Y-130810000D03*
X209724000Y-130810000D03*
X205764000Y-130810000D03*
X201804000Y-130810000D03*
X197844000Y-130810000D03*
X193884000Y-130810000D03*
X189924000Y-130810000D03*
X185964000Y-130810000D03*
X182004000Y-130810000D03*
X178044000Y-130810000D03*
X174084000Y-130810000D03*
X170124000Y-130810000D03*
X166164000Y-130810000D03*
X162204000Y-130810000D03*
X158244000Y-130810000D03*
X154284000Y-130810000D03*
X150324000Y-130810000D03*
X146364000Y-130810000D03*
X142404000Y-130810000D03*
X138444000Y-130810000D03*
X134484000Y-130810000D03*
X130524000Y-130810000D03*
X126564000Y-130810000D03*
X122604000Y-130810000D03*
X118644000Y-130810000D03*
X114684000Y-130810000D03*
X110724000Y-130810000D03*
X106764000Y-130810000D03*
X102804000Y-130810000D03*
X98844000Y-130810000D03*
X94884000Y-130810000D03*
X90924000Y-130810000D03*
X86964000Y-130810000D03*
X83004000Y-130810000D03*
X79044000Y-130810000D03*
X75084000Y-130810000D03*
X71124000Y-130810000D03*
X67164000Y-130810000D03*
X63204000Y-130810000D03*
X59244000Y-130810000D03*
X55284000Y-130810000D03*
X51324000Y-130810000D03*
%TD*%
D14*
%TO.C,RP2*%
X156210000Y-113538000D03*
D10*
X153670000Y-113538000D03*
X151130000Y-113538000D03*
X148590000Y-113538000D03*
X146050000Y-113538000D03*
X143510000Y-113538000D03*
X140970000Y-113538000D03*
X138430000Y-113538000D03*
X135890000Y-113538000D03*
X133350000Y-113538000D03*
%TD*%
D11*
%TO.C,U4*%
X146050000Y-16510000D03*
D10*
X146050000Y-19050000D03*
X146050000Y-21590000D03*
X146050000Y-24130000D03*
X146050000Y-26670000D03*
X146050000Y-29210000D03*
X146050000Y-31750000D03*
X153670000Y-31750000D03*
X153670000Y-29210000D03*
X153670000Y-26670000D03*
X153670000Y-24130000D03*
X153670000Y-21590000D03*
X153670000Y-19050000D03*
X153670000Y-16510000D03*
%TD*%
D13*
%TO.C,R3*%
X171196000Y-16256000D03*
X171196000Y-28956000D03*
%TD*%
D16*
%TO.C,U36*%
X193040000Y-124206000D03*
D10*
X195580000Y-124206000D03*
X198120000Y-124206000D03*
X200660000Y-124206000D03*
X203200000Y-124206000D03*
X205740000Y-124206000D03*
X208280000Y-124206000D03*
X210820000Y-124206000D03*
X213360000Y-124206000D03*
X215900000Y-124206000D03*
X215900000Y-116586000D03*
X213360000Y-116586000D03*
X210820000Y-116586000D03*
X208280000Y-116586000D03*
X205740000Y-116586000D03*
X203200000Y-116586000D03*
X200660000Y-116586000D03*
X198120000Y-116586000D03*
X195580000Y-116586000D03*
X193040000Y-116586000D03*
%TD*%
D11*
%TO.C,U32*%
X259080000Y-78994000D03*
D10*
X259080000Y-81534000D03*
X259080000Y-84074000D03*
X259080000Y-86614000D03*
X259080000Y-89154000D03*
X259080000Y-91694000D03*
X259080000Y-94234000D03*
X259080000Y-96774000D03*
X259080000Y-99314000D03*
X259080000Y-101854000D03*
X266700000Y-101854000D03*
X266700000Y-99314000D03*
X266700000Y-96774000D03*
X266700000Y-94234000D03*
X266700000Y-91694000D03*
X266700000Y-89154000D03*
X266700000Y-86614000D03*
X266700000Y-84074000D03*
X266700000Y-81534000D03*
X266700000Y-78994000D03*
%TD*%
%TO.C,C1*%
X100076000Y-37318000D03*
X100076000Y-34818000D03*
%TD*%
D11*
%TO.C,U10*%
X104140000Y-52070000D03*
D10*
X104140000Y-54610000D03*
X104140000Y-57150000D03*
X104140000Y-59690000D03*
X104140000Y-62230000D03*
X104140000Y-64770000D03*
X104140000Y-67310000D03*
X111760000Y-67310000D03*
X111760000Y-64770000D03*
X111760000Y-62230000D03*
X111760000Y-59690000D03*
X111760000Y-57150000D03*
X111760000Y-54610000D03*
X111760000Y-52070000D03*
%TD*%
D17*
%TO.C,J19*%
X100076000Y-121666000D03*
D18*
X100076000Y-124206000D03*
X97536000Y-121666000D03*
X97536000Y-124206000D03*
X94996000Y-121666000D03*
X94996000Y-124206000D03*
%TD*%
D10*
%TO.C,C19*%
X223520000Y-116626000D03*
X223520000Y-119126000D03*
%TD*%
D11*
%TO.C,RP3*%
X239014000Y-16764000D03*
D10*
X239014000Y-19304000D03*
X239014000Y-21844000D03*
X239014000Y-24384000D03*
X239014000Y-26924000D03*
X239014000Y-29464000D03*
X239014000Y-32004000D03*
X239014000Y-34544000D03*
X246634000Y-34544000D03*
X246634000Y-32004000D03*
X246634000Y-29464000D03*
X246634000Y-26924000D03*
X246634000Y-24384000D03*
X246634000Y-21844000D03*
X246634000Y-19304000D03*
X246634000Y-16764000D03*
%TD*%
D20*
%TO.C,U34*%
X60048000Y-116840000D03*
D21*
X76708000Y-119380000D03*
D22*
X76708000Y-116840000D03*
X76708000Y-114300000D03*
%TD*%
D11*
%TO.C,U7*%
X200660000Y-16510000D03*
D10*
X200660000Y-19050000D03*
X200660000Y-21590000D03*
X200660000Y-24130000D03*
X200660000Y-26670000D03*
X200660000Y-29210000D03*
X200660000Y-31750000D03*
X208280000Y-31750000D03*
X208280000Y-29210000D03*
X208280000Y-26670000D03*
X208280000Y-24130000D03*
X208280000Y-21590000D03*
X208280000Y-19050000D03*
X208280000Y-16510000D03*
%TD*%
D20*
%TO.C,U33*%
X46124000Y-116840000D03*
D21*
X29464000Y-114300000D03*
D22*
X29464000Y-116840000D03*
X29464000Y-119380000D03*
%TD*%
D10*
%TO.C,C6*%
X74950000Y-92075000D03*
X77450000Y-92075000D03*
%TD*%
D16*
%TO.C,U35*%
X163322000Y-124206000D03*
D10*
X165862000Y-124206000D03*
X168402000Y-124206000D03*
X170942000Y-124206000D03*
X173482000Y-124206000D03*
X176022000Y-124206000D03*
X178562000Y-124206000D03*
X181102000Y-124206000D03*
X183642000Y-124206000D03*
X186182000Y-124206000D03*
X186182000Y-116586000D03*
X183642000Y-116586000D03*
X181102000Y-116586000D03*
X178562000Y-116586000D03*
X176022000Y-116586000D03*
X173482000Y-116586000D03*
X170942000Y-116586000D03*
X168402000Y-116586000D03*
X165862000Y-116586000D03*
X163322000Y-116586000D03*
%TD*%
D11*
%TO.C,U14*%
X165608000Y-49530000D03*
D10*
X165608000Y-52070000D03*
X165608000Y-54610000D03*
X165608000Y-57150000D03*
X165608000Y-59690000D03*
X165608000Y-62230000D03*
X165608000Y-64770000D03*
X165608000Y-67310000D03*
X173228000Y-67310000D03*
X173228000Y-64770000D03*
X173228000Y-62230000D03*
X173228000Y-59690000D03*
X173228000Y-57150000D03*
X173228000Y-54610000D03*
X173228000Y-52070000D03*
X173228000Y-49530000D03*
%TD*%
%TO.C,C11*%
X175768000Y-48554000D03*
X175768000Y-51054000D03*
%TD*%
D16*
%TO.C,U37*%
X226060000Y-124206000D03*
D10*
X228600000Y-124206000D03*
X231140000Y-124206000D03*
X233680000Y-124206000D03*
X236220000Y-124206000D03*
X238760000Y-124206000D03*
X241300000Y-124206000D03*
X243840000Y-124206000D03*
X246380000Y-124206000D03*
X248920000Y-124206000D03*
X248920000Y-116586000D03*
X246380000Y-116586000D03*
X243840000Y-116586000D03*
X241300000Y-116586000D03*
X238760000Y-116586000D03*
X236220000Y-116586000D03*
X233680000Y-116586000D03*
X231140000Y-116586000D03*
X228600000Y-116586000D03*
X226060000Y-116586000D03*
%TD*%
%TO.C,C4*%
X29845000Y-112014000D03*
X27345000Y-112014000D03*
%TD*%
D11*
%TO.C,U24*%
X151130000Y-81788000D03*
D10*
X151130000Y-84328000D03*
X151130000Y-86868000D03*
X151130000Y-89408000D03*
X151130000Y-91948000D03*
X151130000Y-94488000D03*
X151130000Y-97028000D03*
X158750000Y-97028000D03*
X158750000Y-94488000D03*
X158750000Y-91948000D03*
X158750000Y-89408000D03*
X158750000Y-86868000D03*
X158750000Y-84328000D03*
X158750000Y-81788000D03*
%TD*%
D11*
%TO.C,U26*%
X179070000Y-79248000D03*
D10*
X179070000Y-81788000D03*
X179070000Y-84328000D03*
X179070000Y-86868000D03*
X179070000Y-89408000D03*
X179070000Y-91948000D03*
X179070000Y-94488000D03*
X179070000Y-97028000D03*
X186690000Y-97028000D03*
X186690000Y-94488000D03*
X186690000Y-91948000D03*
X186690000Y-89408000D03*
X186690000Y-86868000D03*
X186690000Y-84328000D03*
X186690000Y-81788000D03*
X186690000Y-79248000D03*
%TD*%
%TO.C,C17*%
X160020000Y-116372000D03*
X160020000Y-118872000D03*
%TD*%
M02*
