M48
; DRILL file {KiCad 9.0.9-9.0.9~ubuntu24.04.1} date 2026-06-30T13:32:41+0200
; FORMAT={-:-/ absolute / metric / decimal}
; #@! TF.CreationDate,2026-06-30T13:32:41+02:00
; #@! TF.GenerationSoftware,Kicad,Pcbnew,9.0.9-9.0.9~ubuntu24.04.1
; #@! TF.FileFunction,MixedPlating,1,2
FMAT,2
METRIC
; #@! TA.AperFunction,Plated,PTH,ViaDrill
T1C0.600
; #@! TA.AperFunction,Plated,PTH,ComponentDrill
T2C0.800
; #@! TA.AperFunction,Plated,PTH,ComponentDrill
T3C1.000
; #@! TA.AperFunction,Plated,PTH,ComponentDrill
T4C1.100
; #@! TA.AperFunction,Plated,PTH,ComponentDrill
T5C1.200
; #@! TA.AperFunction,Plated,PTH,ComponentDrill
T6C1.520
; #@! TA.AperFunction,NonPlated,NPTH,ComponentDrill
T7C3.500
%
G90
G05
T1
X74.73Y-126.8
X74.93Y-125.222
X75.692Y-123.698
X76.2Y-122.174
X86.868Y-71.882
X87.122Y-74.168
X87.122Y-110.998
X87.63Y-109.22
X87.686Y-113.03
X88.392Y-107.188
X88.646Y-76.2
X88.646Y-114.3
X89.08Y-78.09
X89.154Y-105.41
X89.916Y-115.57
X91.44Y-114.3
X92.456Y-115.57
X93.726Y-114.3
X94.488Y-71.882
X94.742Y-25.146
X94.742Y-91.948
X94.996Y-88.138
X94.996Y-115.824
X95.504Y-69.85
X95.758Y-19.812
X96.012Y-52.578
X96.266Y-114.046
X96.52Y-63.5
X97.282Y-17.272
X99.314Y-29.972
X100.076Y-60.706
X100.33Y-72.136
X100.33Y-73.914
X100.33Y-114.808
X101.092Y-112.776
X101.432Y-111.052
X102.362Y-36.83
X106.172Y-38.354
X106.68Y-70.612
X107.188Y-104.902
X107.442Y-37.084
X107.696Y-65.786
X109.474Y-109.22
X109.982Y-71.12
X111.252Y-103.124
X112.014Y-71.12
X113.481Y-109.605
X114.046Y-39.878
X116.078Y-50.038
X117.348Y-48.514
X117.348Y-108.712
X118.618Y-85.344
X119.38Y-57.15
X119.38Y-66.802
X120.142Y-108.204
X121.412Y-22.606
X122.428Y-20.066
X122.428Y-25.4
X122.682Y-107.442
X125.222Y-106.934
X125.73Y-62.23
X125.984Y-57.15
X126.492Y-66.802
X127.254Y-34.798
X127.254Y-60.452
X128.016Y-106.426
X128.524Y-21.336
X129.54Y-27.686
X129.54Y-37.084
X130.556Y-105.664
X132.08Y-72.898
X132.334Y-49.276
X132.334Y-63.246
X132.842Y-9.398
X133.096Y-36.61
X133.096Y-104.902
X133.858Y-73.152
X134.112Y-59.69
X134.112Y-63.246
X134.366Y-18.76
X134.366Y-29.21
X134.366Y-65.786
X135.128Y-50.038
X135.382Y-73.66
X135.636Y-30.48
X135.636Y-104.394
X137.026Y-39.284
X137.16Y-35.56
X138.43Y-103.632
X138.684Y-74.168
X140.208Y-34.544
X140.208Y-67.564
X140.462Y-45.466
X140.462Y-53.848
X140.716Y-51.308
X140.97Y-102.836
X141.732Y-17.272
X141.732Y-35.814
X141.732Y-74.168
X142.24Y-22.606
X142.748Y-25.4
X143.51Y-73.66
X143.764Y-102.108
X144.018Y-41.91
X145.288Y-72.898
X147.32Y-72.39
X147.828Y-59.182
X148.082Y-22.86
X148.082Y-62.23
X148.59Y-20.32
X150.876Y-27.94
X151.052Y-78.612
X151.13Y-17.526
X151.384Y-21.336
X152.146Y-40.64
X152.4Y-75.863
X153.924Y-77.724
X154.686Y-84.582
X154.686Y-87.122
X154.686Y-92.098
X154.94Y-57.15
X154.94Y-66.04
X155.143Y-49.82
X155.448Y-39.878
X155.956Y-94.742
X156.464Y-45.466
X156.972Y-67.31
X157.226Y-101.092
X157.988Y-117.602
X158.75Y-77.724
X159.766Y-44.196
X160.02Y-34.544
X160.274Y-100.838
X161.21Y-88.392
X163.068Y-23.876
X163.83Y-114.046
X165.608Y-43.942
X165.862Y-100.838
X167.132Y-114.808
X168.656Y-40.132
X168.656Y-64.77
X169.418Y-50.8
X170.688Y-58.166
X171.45Y-84.074
X172.212Y-72.334
X172.212Y-114.808
X173.228Y-101.346
X173.99Y-35.052
X173.99Y-112.014
X174.752Y-4.064
X175.006Y-24.13
X175.196Y-74.104
X177.546Y-101.092
X177.546Y-114.808
X178.054Y-55.372
X178.308Y-37.084
X178.308Y-75.184
X178.308Y-110.49
X178.816Y-24.13
X181.356Y-81.28
X182.118Y-35.052
X182.626Y-114.808
X183.642Y-26.162
X183.642Y-37.084
X183.642Y-103.632
X183.896Y-56.896
X184.404Y-61.976
X185.051Y-45.754
X185.166Y-104.902
X185.674Y-57.912
X186.182Y-22.86
X186.436Y-106.172
X187.706Y-107.442
X188.468Y-35.052
X188.976Y-94.488
X189.992Y-37.592
X191.262Y-35.306
X191.516Y-52.578
X192.786Y-21.59
X194.31Y-73.914
X194.31Y-81.788
X195.236Y-40.764
X195.58Y-35.052
X196.85Y-114.554
X197.251Y-46.589
X198.628Y-25.4
X200.152Y-62.992
X200.521Y-73.948
X201.422Y-37.338
X201.422Y-43.434
X201.93Y-114.554
X202.438Y-73.66
X202.946Y-103.632
X203.708Y-39.116
X204.216Y-71.12
X204.47Y-104.902
X204.724Y-40.64
X205.74Y-106.172
X206.502Y-70.866
X206.756Y-39.878
X207.01Y-107.442
X207.01Y-114.3
X207.518Y-67.056
X209.296Y-39.878
X209.55Y-73.66
X212.09Y-114.3
X212.344Y-54.356
X212.344Y-59.436
X212.344Y-61.826
X213.614Y-71.628
X213.835Y-43.362
X213.868Y-56.642
X213.868Y-82.804
X215.392Y-58.166
X218.44Y-40.132
X219.964Y-38.608
X220.472Y-40.64
X223.119Y-37.485
X226.568Y-39.878
X226.568Y-71.628
X227.584Y-37.338
X227.692Y-73.512
X227.71Y-21.668
X229.87Y-37.592
X229.87Y-40.132
X230.124Y-81.026
X230.378Y-75.438
X231.14Y-106.934
X231.648Y-65.532
X232.557Y-114.407
X232.664Y-47.498
X232.664Y-109.728
X232.664Y-112.268
X233.68Y-37.592
X233.934Y-43.942
X234.442Y-110.236
X235.712Y-80.264
X235.712Y-108.966
X237.49Y-114.046
X237.744Y-71.374
X237.998Y-44.958
X238.252Y-47.498
X238.76Y-107.188
X239.776Y-71.882
X240.03Y-47.752
X240.284Y-43.434
X241.808Y-28.194
X242.824Y-114.3
X243.078Y-86.36
X243.332Y-57.912
X245.089Y-14.418
X246.634Y-74.168
X247.59Y-9.204
X247.65Y-114.046
X248.158Y-73.152
X248.412Y-10.922
X249.682Y-12.192
X250.444Y-83.82
X250.952Y-13.462
X250.952Y-56.642
X252.222Y-14.732
X252.222Y-74.168
X255.27Y-30.988
X256.54Y-33.528
X256.794Y-55.372
X257.81Y-34.798
X259.08Y-74.168
X261.62Y-17.78
X261.62Y-22.86
X261.62Y-28.194
X261.62Y-33.274
X262.89Y-20.32
X262.89Y-34.798
X263.144Y-25.654
X263.144Y-30.988
X265.43Y-116.84
X267.208Y-3.302
X269.24Y-49.276
T2
X27.28Y-106.68
X27.345Y-112.014
X29.78Y-106.68
X29.845Y-112.014
X74.93Y-97.155
X74.95Y-92.075
X77.43Y-97.155
X77.45Y-92.075
X100.076Y-34.818
X100.076Y-37.318
X104.14Y-16.256
X104.14Y-18.796
X104.14Y-21.336
X104.14Y-23.876
X104.14Y-26.416
X104.14Y-28.956
X104.14Y-31.496
X104.14Y-52.07
X104.14Y-54.61
X104.14Y-57.15
X104.14Y-59.69
X104.14Y-62.23
X104.14Y-64.77
X104.14Y-67.31
X104.14Y-81.788
X104.14Y-84.328
X104.14Y-86.868
X104.14Y-89.408
X104.14Y-91.948
X104.14Y-94.488
X104.14Y-97.028
X104.648Y-113.538
X104.648Y-116.586
X104.648Y-124.206
X107.188Y-113.538
X107.188Y-116.586
X107.188Y-124.206
X109.728Y-113.538
X109.728Y-116.586
X109.728Y-124.206
X111.76Y-16.256
X111.76Y-18.796
X111.76Y-21.336
X111.76Y-23.876
X111.76Y-26.416
X111.76Y-28.956
X111.76Y-31.496
X111.76Y-52.07
X111.76Y-54.61
X111.76Y-57.15
X111.76Y-59.69
X111.76Y-62.23
X111.76Y-64.77
X111.76Y-67.31
X111.76Y-81.788
X111.76Y-84.328
X111.76Y-86.868
X111.76Y-89.408
X111.76Y-91.948
X111.76Y-94.488
X111.76Y-97.028
X112.268Y-113.538
X112.268Y-116.586
X112.268Y-124.206
X114.808Y-113.538
X114.808Y-116.586
X114.808Y-124.206
X116.332Y-81.788
X116.332Y-84.328
X116.332Y-86.868
X116.332Y-89.408
X116.332Y-91.948
X116.332Y-94.488
X116.332Y-97.028
X117.094Y-16.256
X117.094Y-18.796
X117.094Y-21.336
X117.094Y-23.876
X117.094Y-26.416
X117.094Y-28.956
X117.094Y-31.496
X117.348Y-113.538
X117.348Y-116.586
X117.348Y-124.206
X119.888Y-113.538
X119.888Y-116.586
X119.888Y-124.206
X122.428Y-113.538
X122.428Y-116.586
X122.428Y-124.206
X122.555Y-44.45
X122.555Y-46.99
X122.555Y-49.53
X122.555Y-52.07
X122.555Y-54.61
X122.555Y-57.15
X122.555Y-59.69
X122.555Y-62.23
X122.555Y-64.77
X122.555Y-67.31
X123.952Y-81.788
X123.952Y-84.328
X123.952Y-86.868
X123.952Y-89.408
X123.952Y-91.948
X123.952Y-94.488
X123.952Y-97.028
X124.714Y-16.256
X124.714Y-18.796
X124.714Y-21.336
X124.714Y-23.876
X124.714Y-26.416
X124.714Y-28.956
X124.714Y-31.496
X124.968Y-113.538
X124.968Y-116.586
X124.968Y-124.206
X127.508Y-113.538
X127.508Y-116.586
X127.508Y-124.206
X128.27Y-10.942
X128.27Y-13.442
X128.27Y-81.788
X128.27Y-84.328
X128.27Y-86.868
X128.27Y-89.408
X128.27Y-91.948
X128.27Y-94.488
X128.27Y-97.028
X130.175Y-44.45
X130.175Y-46.99
X130.175Y-49.53
X130.175Y-52.07
X130.175Y-54.61
X130.175Y-57.15
X130.175Y-59.69
X130.175Y-62.23
X130.175Y-64.77
X130.175Y-67.31
X131.826Y-16.51
X131.826Y-19.05
X131.826Y-21.59
X131.826Y-24.13
X131.826Y-26.67
X131.826Y-29.21
X131.826Y-31.75
X133.35Y-113.538
X133.35Y-116.586
X133.35Y-124.206
X135.89Y-81.788
X135.89Y-84.328
X135.89Y-86.868
X135.89Y-89.408
X135.89Y-91.948
X135.89Y-94.488
X135.89Y-97.028
X135.89Y-113.538
X135.89Y-116.586
X135.89Y-124.206
X137.16Y-49.53
X137.16Y-52.07
X137.16Y-54.61
X137.16Y-57.15
X137.16Y-59.69
X137.16Y-62.23
X137.16Y-64.77
X137.16Y-67.31
X138.43Y-113.538
X138.43Y-116.586
X138.43Y-124.206
X139.446Y-16.51
X139.446Y-19.05
X139.446Y-21.59
X139.446Y-24.13
X139.446Y-26.67
X139.446Y-29.21
X139.446Y-31.75
X139.7Y-81.788
X139.7Y-84.328
X139.7Y-86.868
X139.7Y-89.408
X139.7Y-91.948
X139.7Y-94.488
X139.7Y-97.028
X140.97Y-113.538
X140.97Y-116.586
X140.97Y-124.206
X143.51Y-113.538
X143.51Y-116.586
X143.51Y-124.206
X144.78Y-49.53
X144.78Y-52.07
X144.78Y-54.61
X144.78Y-57.15
X144.78Y-59.69
X144.78Y-62.23
X144.78Y-64.77
X144.78Y-67.31
X146.05Y-16.51
X146.05Y-19.05
X146.05Y-21.59
X146.05Y-24.13
X146.05Y-26.67
X146.05Y-29.21
X146.05Y-31.75
X146.05Y-113.538
X146.05Y-116.586
X146.05Y-124.206
X147.32Y-81.788
X147.32Y-84.328
X147.32Y-86.868
X147.32Y-89.408
X147.32Y-91.948
X147.32Y-94.488
X147.32Y-97.028
X148.59Y-113.538
X148.59Y-116.586
X148.59Y-124.206
X151.13Y-49.53
X151.13Y-52.07
X151.13Y-54.61
X151.13Y-57.15
X151.13Y-59.69
X151.13Y-62.23
X151.13Y-64.77
X151.13Y-67.31
X151.13Y-81.788
X151.13Y-84.328
X151.13Y-86.868
X151.13Y-89.408
X151.13Y-91.948
X151.13Y-94.488
X151.13Y-97.028
X151.13Y-113.538
X151.13Y-116.586
X151.13Y-124.206
X153.67Y-16.51
X153.67Y-19.05
X153.67Y-21.59
X153.67Y-24.13
X153.67Y-26.67
X153.67Y-29.21
X153.67Y-31.75
X153.67Y-113.538
X153.67Y-116.586
X153.67Y-124.206
X156.21Y-113.538
X156.21Y-116.586
X156.21Y-124.206
X157.734Y-10.962
X157.734Y-13.462
X158.75Y-49.53
X158.75Y-52.07
X158.75Y-54.61
X158.75Y-57.15
X158.75Y-59.69
X158.75Y-62.23
X158.75Y-64.77
X158.75Y-67.31
X158.75Y-81.788
X158.75Y-84.328
X158.75Y-86.868
X158.75Y-89.408
X158.75Y-91.948
X158.75Y-94.488
X158.75Y-97.028
X160.02Y-116.372
X160.02Y-118.872
X160.274Y-16.51
X160.274Y-19.05
X160.274Y-21.59
X160.274Y-24.13
X160.274Y-26.67
X160.274Y-29.21
X160.274Y-31.75
X162.56Y-78.232
X162.56Y-80.732
X163.322Y-116.586
X163.322Y-124.206
X165.608Y-49.53
X165.608Y-52.07
X165.608Y-54.61
X165.608Y-57.15
X165.608Y-59.69
X165.608Y-62.23
X165.608Y-64.77
X165.608Y-67.31
X165.608Y-79.248
X165.608Y-81.788
X165.608Y-84.328
X165.608Y-86.868
X165.608Y-89.408
X165.608Y-91.948
X165.608Y-94.488
X165.608Y-97.028
X165.862Y-116.586
X165.862Y-124.206
X167.894Y-16.51
X167.894Y-19.05
X167.894Y-21.59
X167.894Y-24.13
X167.894Y-26.67
X167.894Y-29.21
X167.894Y-31.75
X168.402Y-116.586
X168.402Y-124.206
X170.942Y-116.586
X170.942Y-124.206
X173.228Y-49.53
X173.228Y-52.07
X173.228Y-54.61
X173.228Y-57.15
X173.228Y-59.69
X173.228Y-62.23
X173.228Y-64.77
X173.228Y-67.31
X173.228Y-79.248
X173.228Y-81.788
X173.228Y-84.328
X173.228Y-86.868
X173.228Y-89.408
X173.228Y-91.948
X173.228Y-94.488
X173.228Y-97.028
X173.482Y-116.586
X173.482Y-124.206
X175.768Y-48.554
X175.768Y-51.054
X176.022Y-116.586
X176.022Y-124.206
X178.562Y-116.586
X178.562Y-124.206
X179.07Y-79.248
X179.07Y-81.788
X179.07Y-84.328
X179.07Y-86.868
X179.07Y-89.408
X179.07Y-91.948
X179.07Y-94.488
X179.07Y-97.028
X181.102Y-116.586
X181.102Y-124.206
X181.356Y-51.816
X181.356Y-54.356
X181.356Y-56.896
X181.356Y-59.436
X181.356Y-61.976
X181.356Y-64.516
X181.356Y-67.056
X183.642Y-116.586
X183.642Y-124.206
X185.166Y-16.256
X185.166Y-18.756
X186.182Y-116.586
X186.182Y-124.206
X186.69Y-79.248
X186.69Y-81.788
X186.69Y-84.328
X186.69Y-86.868
X186.69Y-89.408
X186.69Y-91.948
X186.69Y-94.488
X186.69Y-97.028
X188.468Y-16.256
X188.468Y-18.796
X188.468Y-21.336
X188.468Y-23.876
X188.468Y-26.416
X188.468Y-28.956
X188.468Y-31.496
X188.976Y-51.816
X188.976Y-54.356
X188.976Y-56.896
X188.976Y-59.436
X188.976Y-61.976
X188.976Y-64.516
X188.976Y-67.056
X190.246Y-116.626
X190.246Y-119.126
X191.77Y-79.248
X191.77Y-81.788
X191.77Y-84.328
X191.77Y-86.868
X191.77Y-89.408
X191.77Y-91.948
X191.77Y-94.488
X191.77Y-97.028
X193.04Y-116.586
X193.04Y-124.206
X195.58Y-51.816
X195.58Y-54.356
X195.58Y-56.896
X195.58Y-59.436
X195.58Y-61.976
X195.58Y-64.516
X195.58Y-67.056
X195.58Y-116.586
X195.58Y-124.206
X196.088Y-16.256
X196.088Y-18.796
X196.088Y-21.336
X196.088Y-23.876
X196.088Y-26.416
X196.088Y-28.956
X196.088Y-31.496
X198.12Y-116.586
X198.12Y-124.206
X199.39Y-79.248
X199.39Y-81.788
X199.39Y-84.328
X199.39Y-86.868
X199.39Y-89.408
X199.39Y-91.948
X199.39Y-94.488
X199.39Y-97.028
X200.66Y-16.51
X200.66Y-19.05
X200.66Y-21.59
X200.66Y-24.13
X200.66Y-26.67
X200.66Y-29.21
X200.66Y-31.75
X200.66Y-116.586
X200.66Y-124.206
X203.2Y-51.816
X203.2Y-54.356
X203.2Y-56.896
X203.2Y-59.436
X203.2Y-61.976
X203.2Y-64.516
X203.2Y-67.056
X203.2Y-116.586
X203.2Y-124.206
X204.47Y-79.248
X204.47Y-81.788
X204.47Y-84.328
X204.47Y-86.868
X204.47Y-89.408
X204.47Y-91.948
X204.47Y-94.488
X204.47Y-97.028
X205.74Y-116.586
X205.74Y-124.206
X208.28Y-16.51
X208.28Y-19.05
X208.28Y-21.59
X208.28Y-24.13
X208.28Y-26.67
X208.28Y-29.21
X208.28Y-31.75
X208.28Y-116.586
X208.28Y-124.206
X209.55Y-51.816
X209.55Y-54.356
X209.55Y-56.896
X209.55Y-59.436
X209.55Y-61.976
X209.55Y-64.516
X209.55Y-67.056
X210.82Y-116.586
X210.82Y-124.206
X212.09Y-16.51
X212.09Y-19.05
X212.09Y-21.59
X212.09Y-24.13
X212.09Y-26.67
X212.09Y-29.21
X212.09Y-31.75
X212.09Y-79.248
X212.09Y-81.788
X212.09Y-84.328
X212.09Y-86.868
X212.09Y-89.408
X212.09Y-91.948
X212.09Y-94.488
X212.09Y-97.028
X213.36Y-116.586
X213.36Y-124.206
X215.9Y-79.248
X215.9Y-81.748
X215.9Y-116.586
X215.9Y-124.206
X217.17Y-51.816
X217.17Y-54.356
X217.17Y-56.896
X217.17Y-59.436
X217.17Y-61.976
X217.17Y-64.516
X217.17Y-67.056
X218.44Y-78.994
X218.44Y-81.534
X218.44Y-84.074
X218.44Y-86.614
X218.44Y-89.154
X218.44Y-91.694
X218.44Y-94.234
X218.44Y-96.774
X218.44Y-99.314
X218.44Y-101.854
X219.71Y-16.51
X219.71Y-19.05
X219.71Y-21.59
X219.71Y-24.13
X219.71Y-26.67
X219.71Y-29.21
X219.71Y-31.75
X223.52Y-16.51
X223.52Y-19.05
X223.52Y-21.59
X223.52Y-24.13
X223.52Y-26.67
X223.52Y-29.21
X223.52Y-31.75
X223.52Y-116.626
X223.52Y-119.126
X226.06Y-78.994
X226.06Y-81.534
X226.06Y-84.074
X226.06Y-86.614
X226.06Y-89.154
X226.06Y-91.694
X226.06Y-94.234
X226.06Y-96.774
X226.06Y-99.314
X226.06Y-101.854
X226.06Y-116.586
X226.06Y-124.206
X228.6Y-116.586
X228.6Y-124.206
X231.14Y-16.51
X231.14Y-19.05
X231.14Y-21.59
X231.14Y-24.13
X231.14Y-26.67
X231.14Y-29.21
X231.14Y-31.75
X231.14Y-116.586
X231.14Y-124.206
X232.41Y-78.994
X232.41Y-81.534
X232.41Y-84.074
X232.41Y-86.614
X232.41Y-89.154
X232.41Y-91.694
X232.41Y-94.234
X232.41Y-96.774
X232.41Y-99.314
X232.41Y-101.854
X233.68Y-51.816
X233.68Y-54.356
X233.68Y-56.896
X233.68Y-59.436
X233.68Y-61.976
X233.68Y-64.516
X233.68Y-67.056
X233.68Y-116.586
X233.68Y-124.206
X236.22Y-116.586
X236.22Y-124.206
X238.76Y-116.586
X238.76Y-124.206
X239.014Y-16.764
X239.014Y-19.304
X239.014Y-21.844
X239.014Y-24.384
X239.014Y-26.924
X239.014Y-29.464
X239.014Y-32.004
X239.014Y-34.544
X240.03Y-78.994
X240.03Y-81.534
X240.03Y-84.074
X240.03Y-86.614
X240.03Y-89.154
X240.03Y-91.694
X240.03Y-94.234
X240.03Y-96.774
X240.03Y-99.314
X240.03Y-101.854
X241.3Y-51.816
X241.3Y-54.356
X241.3Y-56.896
X241.3Y-59.436
X241.3Y-61.976
X241.3Y-64.516
X241.3Y-67.056
X241.3Y-116.586
X241.3Y-124.206
X243.078Y-73.7
X243.078Y-76.2
X243.84Y-116.586
X243.84Y-124.206
X246.38Y-44.196
X246.38Y-46.736
X246.38Y-49.276
X246.38Y-51.816
X246.38Y-54.356
X246.38Y-56.896
X246.38Y-59.436
X246.38Y-61.976
X246.38Y-64.516
X246.38Y-67.056
X246.38Y-116.586
X246.38Y-124.206
X246.634Y-16.764
X246.634Y-19.304
X246.634Y-21.844
X246.634Y-24.384
X246.634Y-26.924
X246.634Y-29.464
X246.634Y-32.004
X246.634Y-34.544
X246.634Y-78.994
X246.634Y-81.534
X246.634Y-84.074
X246.634Y-86.614
X246.634Y-89.154
X246.634Y-91.694
X246.634Y-94.234
X246.634Y-96.774
X246.634Y-99.314
X246.634Y-101.854
X248.92Y-116.586
X248.92Y-124.206
X252.984Y-16.51
X254.0Y-44.196
X254.0Y-46.736
X254.0Y-49.276
X254.0Y-51.816
X254.0Y-54.356
X254.0Y-56.896
X254.0Y-59.436
X254.0Y-61.976
X254.0Y-64.516
X254.0Y-67.056
X254.254Y-78.994
X254.254Y-81.534
X254.254Y-84.074
X254.254Y-86.614
X254.254Y-89.154
X254.254Y-91.694
X254.254Y-94.234
X254.254Y-96.774
X254.254Y-99.314
X254.254Y-101.854
X255.484Y-16.51
X258.064Y-39.898
X258.064Y-42.398
X259.08Y-78.994
X259.08Y-81.534
X259.08Y-84.074
X259.08Y-86.614
X259.08Y-89.154
X259.08Y-91.694
X259.08Y-94.234
X259.08Y-96.774
X259.08Y-99.314
X259.08Y-101.854
X266.7Y-78.994
X266.7Y-81.534
X266.7Y-84.074
X266.7Y-86.614
X266.7Y-89.154
X266.7Y-91.694
X266.7Y-94.234
X266.7Y-96.774
X266.7Y-99.314
X266.7Y-101.854
X268.224Y-73.406
X268.224Y-75.906
T3
X94.996Y-121.666
X94.996Y-124.206
X97.536Y-121.666
X97.536Y-124.206
X100.076Y-121.666
X100.076Y-124.206
X198.12Y-2.54
X198.12Y-5.08
X200.66Y-2.54
X200.66Y-5.08
X203.2Y-2.54
X203.2Y-5.08
X205.74Y-2.54
X205.74Y-5.08
X208.28Y-2.54
X208.28Y-5.08
X210.82Y-2.54
X210.82Y-5.08
X213.36Y-2.54
X213.36Y-5.08
X215.9Y-2.54
X215.9Y-5.08
X218.44Y-2.54
X218.44Y-5.08
X220.98Y-2.54
X220.98Y-5.08
X223.52Y-2.54
X223.52Y-5.08
X226.06Y-2.54
X226.06Y-5.08
X228.6Y-2.54
X228.6Y-5.08
X231.14Y-2.54
X231.14Y-5.08
X233.68Y-2.54
X233.68Y-5.08
X236.22Y-2.54
X236.22Y-5.08
X238.76Y-2.54
X238.76Y-5.08
X241.3Y-2.54
X241.3Y-5.08
X243.84Y-2.54
X243.84Y-5.08
X246.38Y-2.54
X246.38Y-5.08
X248.92Y-2.54
X248.92Y-5.08
X251.46Y-2.54
X251.46Y-5.08
X254.0Y-2.54
X254.0Y-5.08
X256.54Y-2.54
X256.54Y-5.08
X259.08Y-2.54
X259.08Y-5.08
T4
X29.464Y-114.3
X29.464Y-116.84
X29.464Y-119.38
X76.708Y-114.3
X76.708Y-116.84
X76.708Y-119.38
T5
X75.01Y-106.68
X80.01Y-106.68
X99.314Y-48.26
X101.854Y-44.958
X107.442Y-41.402
X112.014Y-48.26
X114.554Y-44.958
X120.142Y-41.402
X171.196Y-16.256
X171.196Y-28.956
X175.006Y-16.256
X175.006Y-28.956
X178.816Y-16.256
X178.816Y-28.956
X182.626Y-16.256
X182.626Y-28.956
T6
X51.324Y-130.81
X55.284Y-130.81
X59.244Y-130.81
X63.204Y-130.81
X67.164Y-130.81
X71.124Y-130.81
X75.084Y-130.81
X79.044Y-130.81
X83.004Y-130.81
X86.964Y-130.81
X90.924Y-130.81
X94.884Y-130.81
X98.844Y-130.81
X102.804Y-130.81
X106.764Y-130.81
X110.724Y-130.81
X114.684Y-130.81
X118.644Y-130.81
X122.604Y-130.81
X126.564Y-130.81
X130.524Y-130.81
X134.484Y-130.81
X138.444Y-130.81
X142.404Y-130.81
X146.364Y-130.81
X150.324Y-130.81
X154.284Y-130.81
X158.244Y-130.81
X162.204Y-130.81
X166.164Y-130.81
X170.124Y-130.81
X174.084Y-130.81
X178.044Y-130.81
X182.004Y-130.81
X185.964Y-130.81
X189.924Y-130.81
X193.884Y-130.81
X197.844Y-130.81
X201.804Y-130.81
X205.764Y-130.81
X209.724Y-130.81
X213.684Y-130.81
X217.644Y-130.81
X221.604Y-130.81
X225.564Y-130.81
X229.524Y-130.81
X233.484Y-130.81
X237.444Y-130.81
X241.404Y-130.81
X245.364Y-130.81
T7
X46.124Y-116.84
X60.048Y-116.84
M30
