M48
; DRILL file {KiCad 9.0.9-9.0.9~ubuntu24.04.1} date 2026-07-14T14:30:01+0200
; FORMAT={-:-/ absolute / metric / decimal}
; #@! TF.CreationDate,2026-07-14T14:30:01+02:00
; #@! TF.GenerationSoftware,Kicad,Pcbnew,9.0.9-9.0.9~ubuntu24.04.1
; #@! TF.FileFunction,MixedPlating,1,2
FMAT,2
METRIC
; #@! TA.AperFunction,Plated,PTH,ComponentDrill
T1C0.500
; #@! TA.AperFunction,Plated,PTH,ViaDrill
T2C0.600
; #@! TA.AperFunction,Plated,PTH,ComponentDrill
T3C0.700
; #@! TA.AperFunction,Plated,PTH,ComponentDrill
T4C0.750
; #@! TA.AperFunction,Plated,PTH,ComponentDrill
T5C0.800
; #@! TA.AperFunction,Plated,PTH,ComponentDrill
T6C1.000
; #@! TA.AperFunction,Plated,PTH,ComponentDrill
T7C1.100
; #@! TA.AperFunction,Plated,PTH,ComponentDrill
T8C1.520
; #@! TA.AperFunction,NonPlated,NPTH,ComponentDrill
T9C3.500
%
G90
G05
T1
X45.339Y-28.194
X45.339Y-30.734
T2
X23.876Y-31.496
X24.765Y-104.775
X24.765Y-114.935
X25.654Y-30.734
X26.67Y-66.294
X26.67Y-67.691
X26.67Y-69.088
X26.67Y-130.175
X26.67Y-136.525
X30.988Y-64.008
X32.218Y-147.828
X32.218Y-149.098
X32.512Y-64.008
X32.766Y-24.638
X33.402Y-54.102
X33.528Y-73.914
X33.528Y-80.264
X33.528Y-85.09
X33.655Y-115.57
X33.655Y-127.0
X33.655Y-133.35
X34.036Y-36.195
X34.036Y-51.562
X34.036Y-64.008
X34.544Y-33.528
X34.798Y-79.248
X35.052Y-29.21
X35.306Y-38.735
X35.306Y-71.374
X36.068Y-41.275
X36.322Y-83.82
X38.18Y-34.464
X38.608Y-20.066
X40.132Y-29.21
X40.638Y-40.999
X40.81Y-43.688
X40.894Y-60.96
X41.148Y-38.608
X41.402Y-46.228
X42.164Y-150.876
X42.418Y-39.878
X42.418Y-81.534
X42.926Y-54.849
X42.926Y-57.658
X43.18Y-42.485
X43.18Y-93.345
X43.434Y-148.082
X43.688Y-60.198
X43.942Y-37.338
X44.196Y-56.134
X44.958Y-35.052
X45.974Y-73.406
X46.228Y-84.074
X48.006Y-64.008
X48.108Y-72.39
X48.26Y-29.972
X48.895Y-115.57
X48.895Y-130.175
X50.165Y-93.345
X51.816Y-44.958
X52.07Y-29.972
X52.07Y-76.454
X52.578Y-68.58
X52.832Y-47.498
X53.086Y-39.878
X53.316Y-50.038
X53.594Y-35.306
X53.594Y-90.932
X53.848Y-94.996
X54.102Y-71.374
X54.864Y-38.1
X54.864Y-79.756
X55.118Y-33.528
X55.372Y-93.218
X55.525Y-51.409
X55.626Y-53.848
X57.404Y-64.77
X57.912Y-53.848
X58.166Y-40.894
X58.42Y-36.83
X58.928Y-34.036
X58.928Y-45.466
X58.928Y-48.768
X58.928Y-58.928
X59.436Y-64.174
X59.944Y-21.336
X60.198Y-39.116
X60.198Y-56.388
X60.198Y-95.504
X61.468Y-50.038
X61.976Y-37.338
X62.23Y-43.688
X62.738Y-61.468
X62.738Y-67.818
X63.246Y-41.148
X63.246Y-46.99
X63.246Y-75.184
X63.5Y-65.503
X63.5Y-77.724
X63.5Y-81.534
X63.5Y-93.98
X64.008Y-72.644
X64.008Y-92.456
X64.262Y-123.698
X64.262Y-126.492
X64.262Y-129.032
X64.262Y-131.572
X65.278Y-93.218
X65.278Y-96.52
X65.439Y-69.537
X66.294Y-73.914
X66.294Y-81.28
X66.802Y-125.222
X66.802Y-128.016
X66.802Y-130.302
X66.857Y-71.088
X67.056Y-89.408
X67.31Y-42.418
X67.31Y-93.218
X67.31Y-107.95
X67.818Y-98.552
X68.35Y-105.424
X68.58Y-67.31
X69.371Y-89.333
X70.451Y-44.858
X70.451Y-60.198
X71.12Y-33.371
X71.187Y-63.27
X71.628Y-22.86
X71.779Y-92.78
X72.39Y-64.304
X74.599Y-76.512
X74.93Y-65.024
X75.037Y-53.79
X75.056Y-61.008
X75.217Y-43.803
X75.275Y-85.09
X75.438Y-30.988
X75.438Y-111.252
X75.456Y-55.178
X75.566Y-79.018
X75.692Y-33.274
X75.726Y-73.914
X75.862Y-71.324
X75.946Y-81.28
X76.35Y-116.332
X76.962Y-51.308
X77.252Y-76.454
X77.47Y-129.54
X77.724Y-48.768
X77.724Y-131.826
X77.724Y-135.89
X78.232Y-34.798
X78.257Y-85.266
X78.395Y-78.887
X78.74Y-45.974
X78.74Y-92.2
X78.863Y-73.209
X79.756Y-48.768
X79.912Y-67.632
X80.01Y-23.114
X80.01Y-118.11
X80.264Y-45.974
X80.518Y-61.468
X80.518Y-105.664
X80.772Y-37.338
X80.772Y-39.878
X81.026Y-47.498
X81.026Y-56.388
X81.788Y-44.958
X81.788Y-89.916
X82.804Y-42.418
X83.058Y-21.336
X83.312Y-107.188
X83.566Y-76.2
X83.566Y-134.366
X83.82Y-138.938
X84.074Y-72.39
X84.328Y-127.254
X84.836Y-110.744
X84.836Y-139.954
X85.09Y-116.332
X85.852Y-100.584
X86.106Y-32.258
X86.106Y-39.878
X86.843Y-135.636
X86.868Y-62.992
X86.868Y-120.904
X87.63Y-83.82
X88.012Y-123.19
X88.138Y-140.716
X88.392Y-107.188
X89.774Y-65.352
X89.916Y-37.338
X90.678Y-47.498
X90.678Y-56.388
X90.678Y-66.802
X90.678Y-85.344
X90.932Y-123.19
X91.029Y-77.527
X91.186Y-71.628
X91.44Y-73.406
X91.694Y-140.97
X91.948Y-98.044
X92.202Y-63.5
X92.964Y-48.768
X92.964Y-53.848
X93.218Y-102.362
X93.218Y-104.902
X93.726Y-46.228
X93.98Y-41.148
X94.488Y-96.52
X94.488Y-106.934
X94.996Y-100.33
X95.758Y-109.22
X95.758Y-111.76
X95.758Y-127.0
X95.758Y-132.334
X96.012Y-43.688
X96.012Y-51.145
X96.266Y-64.008
X96.266Y-69.088
X96.3Y-46.262
X96.52Y-135.89
X96.774Y-138.43
X97.028Y-92.71
X97.79Y-42.615
X97.864Y-133.716
X98.298Y-22.098
X98.298Y-64.008
X98.439Y-92.761
X98.806Y-135.636
X98.84Y-45.043
X99.314Y-138.176
X99.471Y-77.519
X99.471Y-95.02
X99.822Y-61.722
X100.584Y-43.688
X100.584Y-133.096
X100.838Y-21.336
X100.838Y-32.258
X100.963Y-124.431
X101.092Y-75.184
X101.854Y-119.38
X102.108Y-105.156
X102.108Y-138.43
X102.87Y-95.758
X103.124Y-110.49
X103.221Y-112.776
X103.632Y-73.66
X103.886Y-93.353
X104.124Y-94.938
X104.394Y-112.776
X105.306Y-94.049
X105.855Y-98.286
X105.855Y-99.736
X105.918Y-138.43
X107.345Y-116.81
X107.417Y-121.92
X107.442Y-85.344
X107.6Y-110.256
X107.651Y-129.163
X107.95Y-80.772
X108.124Y-89.463
X108.458Y-66.802
X108.691Y-130.81
X109.474Y-124.46
X109.661Y-111.959
X109.728Y-66.138
X109.728Y-85.002
X109.975Y-93.018
X110.972Y-98.526
X111.262Y-91.362
X112.048Y-48.768
X113.284Y-63.5
X113.538Y-46.228
X113.538Y-66.802
X113.538Y-70.612
X113.538Y-129.54
X113.562Y-109.22
X113.792Y-103.886
X114.013Y-72.251
X114.072Y-90.712
X114.3Y-138.176
X114.554Y-106.68
X114.832Y-126.861
X115.087Y-81.635
X115.316Y-61.722
X115.57Y-65.786
X115.57Y-67.31
X115.933Y-83.584
X116.078Y-43.688
X116.078Y-78.74
X116.34Y-98.287
X116.35Y-116.457
X116.713Y-92.593
X117.348Y-22.098
X117.348Y-65.786
X117.926Y-97.706
X119.658Y-90.574
X119.888Y-21.336
X119.888Y-32.258
X120.284Y-67.998
X120.342Y-92.575
X121.158Y-83.82
X121.555Y-91.854
X121.92Y-68.072
X123.636Y-91.444
X123.698Y-64.516
X123.698Y-118.618
X124.714Y-65.532
X124.968Y-69.596
X125.476Y-91.44
X125.984Y-64.77
X126.073Y-82.691
X126.931Y-91.59
X127.0Y-79.248
X127.024Y-69.486
X127.532Y-106.68
X127.532Y-108.204
X127.762Y-126.746
X127.786Y-74.93
X128.016Y-139.7
X128.113Y-130.048
X128.778Y-86.36
X130.302Y-121.158
X130.81Y-93.882
X131.318Y-48.768
X131.318Y-66.04
X132.588Y-46.228
X132.588Y-93.882
X132.842Y-66.04
X132.842Y-117.348
X133.516Y-73.66
X133.858Y-119.38
X134.62Y-90.932
X134.946Y-100.33
X135.128Y-43.688
X135.128Y-61.595
X135.128Y-64.262
X136.144Y-69.85
X136.144Y-93.218
X136.398Y-22.098
X136.652Y-89.408
X137.178Y-63.179
X137.311Y-76.454
X137.668Y-78.994
X138.346Y-88.159
X138.43Y-80.518
X138.684Y-103.124
X138.85Y-92.643
X138.938Y-21.336
X138.938Y-32.258
X139.171Y-71.863
X140.081Y-139.7
X140.208Y-66.537
X140.921Y-138.176
X140.97Y-89.408
X141.066Y-120.65
X141.066Y-123.19
X141.224Y-140.716
X141.478Y-71.12
X141.986Y-104.14
X142.107Y-133.087
X142.23Y-73.992
X142.24Y-110.49
X142.748Y-108.204
X142.875Y-22.089
X143.002Y-113.03
X143.223Y-40.353
X144.018Y-45.212
X144.526Y-77.978
X144.526Y-81.28
X145.458Y-102.389
X145.796Y-88.9
X146.897Y-102.328
X147.828Y-74.676
X148.082Y-87.63
X148.336Y-101.092
X148.433Y-90.17
X148.59Y-32.385
X148.844Y-118.364
X149.225Y-28.575
X149.606Y-75.946
X149.86Y-36.195
X149.86Y-38.608
X150.114Y-145.288
X150.876Y-34.855
X151.638Y-129.54
X151.765Y-31.115
X151.892Y-145.288
X152.654Y-37.395
X152.727Y-104.19
X152.908Y-134.493
X153.67Y-39.935
X153.67Y-145.288
X153.797Y-103.212
X154.178Y-116.84
X154.432Y-42.465
X154.75Y-120.904
X154.94Y-65.024
X155.267Y-99.949
X155.448Y-145.288
X155.575Y-33.655
X156.539Y-64.96
X156.805Y-97.807
X157.133Y-119.985
X157.201Y-121.396
X157.988Y-52.635
X157.988Y-78.994
X157.988Y-83.312
X157.988Y-86.36
X158.115Y-28.575
X158.115Y-93.98
X158.242Y-75.946
X158.302Y-122.34
X158.725Y-102.171
X158.979Y-99.397
X159.095Y-62.05
X159.155Y-96.52
X159.28Y-49.964
X159.362Y-63.475
X159.512Y-138.43
X159.512Y-142.24
X160.02Y-122.225
X162.052Y-52.578
X162.052Y-55.118
X162.052Y-57.658
X162.192Y-60.198
X163.068Y-49.784
X163.195Y-29.21
X163.322Y-122.428
X163.931Y-39.471
X165.1Y-29.845
X165.608Y-33.528
X165.608Y-36.322
X165.608Y-39.37
X165.608Y-41.148
X165.735Y-21.59
X166.576Y-122.89
X167.132Y-47.555
X167.132Y-49.022
X167.132Y-75.692
X167.386Y-88.646
X167.64Y-53.848
X167.64Y-80.01
X167.653Y-123.862
X167.854Y-65.688
X167.894Y-37.592
X167.894Y-117.602
X168.148Y-40.132
X168.402Y-42.672
X168.402Y-90.17
X169.164Y-19.812
X170.688Y-90.17
X170.688Y-91.694
X170.688Y-93.218
X170.688Y-96.774
X170.865Y-117.349
X171.089Y-45.359
X171.196Y-47.752
X172.29Y-117.617
X172.357Y-50.483
X172.466Y-71.12
X172.72Y-78.74
X172.963Y-46.316
X173.228Y-133.096
X173.228Y-137.922
X173.482Y-82.55
X173.739Y-117.578
X173.892Y-63.483
X174.294Y-97.74
X174.498Y-19.558
X175.006Y-62.23
X175.26Y-117.7
X176.53Y-19.558
X176.53Y-70.612
X176.784Y-64.516
X177.038Y-68.072
X177.179Y-81.7
X177.289Y-53.674
X177.546Y-86.714
X178.054Y-85.09
X178.054Y-98.806
X178.054Y-104.14
X179.07Y-66.294
X179.324Y-110.236
X179.324Y-135.89
X179.578Y-129.032
X179.578Y-130.556
X179.587Y-96.593
X180.594Y-109.22
X180.594Y-134.62
X180.594Y-141.986
X180.691Y-105.41
X180.848Y-90.17
X180.848Y-133.096
X181.927Y-120.713
X182.295Y-50.04
X182.554Y-87.887
X182.575Y-77.47
X182.88Y-41.148
X183.134Y-43.688
X183.134Y-46.228
X183.388Y-120.225
X183.744Y-50.008
X184.658Y-91.186
X185.166Y-50.292
X185.746Y-106.68
X185.755Y-137.16
X186.157Y-78.876
X186.182Y-81.28
X186.327Y-111.031
X186.69Y-50.038
X186.69Y-120.142
X187.198Y-72.644
X187.198Y-74.93
X187.492Y-83.786
X188.214Y-90.678
X188.214Y-120.142
X188.468Y-50.546
X189.484Y-147.828
X189.809Y-95.353
X189.811Y-87.464
X190.246Y-49.759
X190.246Y-135.89
X190.246Y-137.414
X190.5Y-27.305
X190.845Y-140.716
X190.845Y-146.304
X191.008Y-106.68
X191.262Y-82.55
X191.262Y-90.17
X191.77Y-49.178
X192.024Y-77.47
X192.024Y-111.76
X192.024Y-119.888
X192.278Y-114.554
X192.278Y-135.89
X192.532Y-145.796
X193.04Y-71.12
X193.294Y-48.514
X193.294Y-104.14
X194.564Y-92.456
X195.58Y-119.888
X195.978Y-92.136
X196.85Y-59.69
X197.104Y-72.644
X197.866Y-112.268
X198.063Y-118.929
X198.12Y-87.376
X198.221Y-90.069
X198.374Y-133.35
X198.882Y-73.406
X198.882Y-106.563
X199.136Y-82.55
X199.39Y-34.925
X199.39Y-116.356
X199.644Y-118.364
X200.914Y-92.202
X201.93Y-45.085
X202.869Y-122.856
X202.949Y-70.863
X203.526Y-140.716
X203.708Y-77.47
X204.107Y-130.81
X204.216Y-133.35
X204.216Y-138.176
X204.318Y-122.906
X204.47Y-82.55
X204.47Y-92.202
X205.486Y-77.47
X205.486Y-140.97
X205.74Y-108.966
X205.756Y-123.093
X205.964Y-105.816
X205.994Y-101.6
X206.248Y-104.14
X206.281Y-124.418
X206.502Y-49.178
X207.01Y-82.55
X208.374Y-118.447
X208.915Y-92.075
X209.804Y-49.759
X209.804Y-118.447
X209.941Y-78.718
X210.213Y-117.056
X211.146Y-135.727
X211.241Y-99.027
X211.328Y-48.514
X211.425Y-90.165
X211.616Y-72.39
X211.764Y-79.892
X212.725Y-59.69
X212.983Y-62.325
X214.122Y-63.5
X214.484Y-89.408
X214.484Y-99.041
X215.265Y-35.56
X215.392Y-142.24
X215.646Y-136.652
X215.646Y-143.764
X215.743Y-92.734
X215.816Y-97.429
X215.9Y-100.838
X216.408Y-104.14
X216.408Y-133.858
X217.013Y-82.508
X217.424Y-94.234
X217.678Y-63.754
X217.678Y-74.93
X217.678Y-135.636
X217.932Y-139.446
X218.113Y-101.892
X218.44Y-77.724
X218.44Y-80.01
X219.71Y-94.234
X219.71Y-142.24
X221.234Y-91.44
X222.758Y-83.82
X223.266Y-76.2
X223.52Y-72.136
X223.774Y-140.97
X223.805Y-74.854
X224.052Y-135.636
X226.822Y-26.67
X227.584Y-30.48
X227.734Y-89.731
X228.087Y-83.82
X228.346Y-52.324
X228.854Y-33.02
X228.879Y-80.01
X229.511Y-72.442
X229.87Y-58.674
X230.378Y-94.742
X230.886Y-54.61
X231.586Y-91.233
X231.838Y-59.754
X232.006Y-86.512
X232.156Y-43.688
X232.255Y-74.12
X232.41Y-76.2
X232.41Y-78.74
X232.41Y-81.28
X232.942Y-111.76
X235.913Y-90.379
X236.22Y-131.992
X236.474Y-66.04
X236.728Y-54.864
X236.728Y-62.484
X236.728Y-77.47
X236.982Y-105.41
X236.982Y-142.24
X236.982Y-144.526
X237.236Y-97.79
X237.236Y-110.49
X237.744Y-86.272
X237.998Y-92.964
X238.506Y-137.16
X238.76Y-110.49
X238.76Y-113.03
X238.76Y-144.526
X239.302Y-108.065
X240.284Y-96.52
X240.538Y-144.526
X240.666Y-81.28
X240.792Y-104.14
X241.325Y-115.57
X241.48Y-73.963
X241.529Y-62.23
X243.078Y-88.646
X243.218Y-20.608
X244.22Y-84.074
X244.437Y-80.136
X244.856Y-70.612
X245.085Y-90.448
X245.364Y-110.49
X245.461Y-66.038
X246.634Y-114.808
X246.888Y-92.456
X247.789Y-112.891
X247.904Y-20.574
X248.665Y-80.01
X248.669Y-92.38
X249.246Y-82.459
X249.428Y-20.574
X250.698Y-95.25
X250.952Y-36.83
X250.952Y-100.838
X250.976Y-25.544
X251.714Y-102.108
X252.319Y-106.708
X252.845Y-109.487
X252.984Y-20.828
X253.163Y-115.262
X254.514Y-66.044
X255.27Y-105.41
X255.371Y-63.907
X255.778Y-53.428
X255.778Y-89.662
X256.032Y-42.87
X256.032Y-124.206
X256.794Y-62.992
X257.302Y-88.646
X257.81Y-76.2
X258.064Y-100.584
X259.588Y-89.662
X262.636Y-39.37
X262.636Y-41.148
X262.636Y-43.434
X262.636Y-45.466
X262.636Y-48.006
X266.192Y-42.926
X266.192Y-44.704
X266.192Y-46.482
X266.537Y-48.26
X268.478Y-50.8
X268.478Y-52.07
X268.478Y-53.34
T3
X23.368Y-22.606
X26.868Y-27.606
X30.368Y-22.606
X75.184Y-138.176
X77.724Y-140.716
X80.264Y-138.176
T4
X60.198Y-101.6
X60.198Y-107.95
X61.468Y-101.6
X61.468Y-107.95
X61.595Y-140.97
X62.738Y-101.6
X62.738Y-107.95
X66.04Y-104.14
X67.31Y-135.255
X68.58Y-135.255
X69.85Y-135.255
X71.755Y-140.97
X75.946Y-127.254
X75.946Y-129.54
X75.946Y-131.826
X76.2Y-104.14
X86.106Y-127.254
X86.106Y-129.54
X86.106Y-131.826
T5
X25.908Y-36.576
X25.908Y-46.736
X25.908Y-50.292
X25.908Y-60.452
X26.075Y-97.155
X26.67Y-90.17
X26.67Y-93.218
X28.575Y-97.155
X29.718Y-151.13
X31.115Y-33.655
X31.115Y-36.195
X31.115Y-38.735
X31.115Y-41.275
X31.115Y-43.815
X31.115Y-46.355
X31.115Y-48.895
X31.115Y-51.435
X31.115Y-53.975
X31.115Y-56.515
X31.115Y-59.055
X31.115Y-61.595
X31.115Y-68.58
X31.115Y-71.12
X31.115Y-73.66
X31.115Y-76.2
X31.115Y-78.74
X31.115Y-81.28
X31.115Y-83.82
X31.115Y-86.36
X32.218Y-151.13
X32.298Y-97.155
X34.798Y-97.155
X36.83Y-90.17
X36.83Y-93.218
X37.505Y-151.13
X38.18Y-25.654
X38.735Y-68.58
X38.735Y-71.12
X38.735Y-73.66
X38.735Y-76.2
X38.735Y-78.74
X38.735Y-81.28
X38.735Y-83.82
X38.735Y-86.36
X38.775Y-97.155
X40.005Y-151.13
X41.275Y-68.58
X41.275Y-78.74
X41.275Y-97.155
X42.204Y-63.754
X43.18Y-25.654
X43.815Y-68.58
X43.815Y-78.74
X43.855Y-22.225
X44.704Y-63.754
X45.76Y-95.885
X46.355Y-22.225
X46.355Y-33.655
X46.355Y-36.195
X46.355Y-38.735
X46.355Y-41.275
X46.355Y-43.815
X46.355Y-46.355
X46.355Y-48.895
X46.355Y-51.435
X46.355Y-53.975
X46.355Y-56.515
X46.355Y-59.055
X46.355Y-61.595
X46.736Y-71.12
X46.736Y-76.12
X46.736Y-81.36
X46.736Y-86.36
X48.26Y-95.885
X50.165Y-71.12
X50.165Y-73.66
X50.165Y-76.2
X50.165Y-78.74
X50.165Y-81.28
X50.165Y-83.82
X50.165Y-86.36
X50.19Y-33.665
X50.19Y-36.205
X50.19Y-38.745
X50.19Y-41.285
X50.19Y-43.825
X50.19Y-46.365
X50.19Y-48.905
X50.19Y-51.445
X50.19Y-53.985
X50.19Y-56.525
X50.19Y-59.065
X50.19Y-61.605
X50.19Y-64.145
X50.19Y-66.685
X55.245Y-29.845
X57.15Y-96.52
X57.785Y-29.845
X57.785Y-71.12
X57.785Y-73.66
X57.785Y-76.2
X57.785Y-78.74
X57.785Y-81.28
X57.785Y-83.82
X57.785Y-86.36
X58.928Y-92.202
X60.325Y-29.845
X61.428Y-92.202
X61.468Y-71.12
X61.468Y-73.66
X61.468Y-76.2
X61.468Y-78.74
X61.468Y-81.28
X61.468Y-83.82
X61.468Y-86.36
X61.595Y-138.43
X62.865Y-29.845
X65.405Y-29.845
X65.43Y-33.665
X65.43Y-36.205
X65.43Y-38.745
X65.43Y-41.285
X65.43Y-43.825
X65.43Y-46.365
X65.43Y-48.905
X65.43Y-51.445
X65.43Y-53.985
X65.43Y-56.525
X65.43Y-59.065
X65.43Y-61.605
X65.43Y-64.145
X65.43Y-66.685
X66.04Y-106.426
X66.04Y-109.22
X67.31Y-96.52
X67.945Y-29.845
X69.088Y-71.12
X69.088Y-73.66
X69.088Y-76.2
X69.088Y-78.74
X69.088Y-81.28
X69.088Y-83.82
X69.088Y-86.36
X69.215Y-33.655
X69.215Y-36.195
X69.215Y-38.735
X69.215Y-41.275
X69.215Y-43.815
X69.215Y-46.355
X69.215Y-48.895
X69.215Y-51.435
X69.215Y-53.975
X69.215Y-56.515
X69.215Y-59.055
X69.215Y-61.595
X70.485Y-29.845
X71.628Y-128.27
X71.628Y-130.77
X71.755Y-138.43
X71.882Y-115.356
X71.882Y-117.856
X73.025Y-29.845
X73.025Y-71.12
X73.025Y-73.66
X73.025Y-76.2
X73.025Y-78.74
X73.025Y-81.28
X73.025Y-83.82
X73.025Y-86.36
X75.732Y-124.46
X76.2Y-106.426
X76.2Y-109.22
X76.2Y-118.11
X78.232Y-25.948
X78.232Y-28.448
X78.232Y-124.46
X79.502Y-98.298
X79.502Y-108.458
X80.645Y-71.12
X80.645Y-73.66
X80.645Y-76.2
X80.645Y-78.74
X80.645Y-81.28
X80.645Y-83.82
X80.645Y-86.36
X81.534Y-25.948
X81.534Y-28.448
X81.788Y-98.298
X81.788Y-108.458
X81.788Y-111.8
X81.788Y-114.3
X81.788Y-124.46
X84.288Y-124.46
X84.455Y-33.655
X84.455Y-36.195
X84.455Y-38.735
X84.455Y-41.275
X84.455Y-43.815
X84.455Y-46.355
X84.455Y-48.895
X84.455Y-51.435
X84.455Y-53.975
X84.455Y-56.515
X84.455Y-59.055
X84.455Y-61.595
X84.455Y-98.298
X84.455Y-108.458
X84.836Y-25.908
X84.836Y-28.408
X85.598Y-134.406
X85.598Y-136.906
X85.852Y-71.12
X85.852Y-73.66
X85.852Y-76.2
X85.852Y-78.74
X85.852Y-81.28
X85.852Y-83.82
X85.852Y-86.36
X86.36Y-118.11
X86.614Y-111.76
X86.614Y-114.26
X86.995Y-98.298
X86.995Y-108.458
X88.265Y-33.655
X88.265Y-36.195
X88.265Y-38.735
X88.265Y-41.275
X88.265Y-43.815
X88.265Y-46.355
X88.265Y-48.895
X88.265Y-51.435
X88.265Y-53.975
X88.265Y-56.515
X88.265Y-59.055
X88.265Y-61.595
X90.17Y-100.33
X90.17Y-102.87
X90.17Y-105.41
X90.17Y-107.95
X90.17Y-110.49
X90.17Y-113.03
X90.17Y-115.57
X91.948Y-119.38
X91.948Y-129.54
X93.472Y-71.12
X93.472Y-73.66
X93.472Y-76.2
X93.472Y-78.74
X93.472Y-81.28
X93.472Y-83.82
X93.472Y-86.36
X94.488Y-119.38
X94.488Y-129.54
X97.028Y-119.38
X97.028Y-129.54
X97.028Y-140.97
X97.79Y-100.33
X97.79Y-102.87
X97.79Y-105.41
X97.79Y-107.95
X97.79Y-110.49
X97.79Y-113.03
X97.79Y-115.57
X98.425Y-71.12
X98.425Y-73.66
X98.425Y-76.2
X98.425Y-78.74
X98.425Y-81.28
X98.425Y-83.82
X98.425Y-86.36
X99.568Y-140.97
X102.108Y-140.97
X102.402Y-101.6
X103.505Y-33.655
X103.505Y-36.195
X103.505Y-38.735
X103.505Y-41.275
X103.505Y-43.815
X103.505Y-46.355
X103.505Y-48.895
X103.505Y-51.435
X103.505Y-53.975
X103.505Y-56.515
X103.505Y-59.055
X103.505Y-61.595
X104.648Y-140.97
X104.902Y-101.6
X106.045Y-71.12
X106.045Y-73.66
X106.045Y-76.2
X106.045Y-78.74
X106.045Y-81.28
X106.045Y-83.82
X106.045Y-86.36
X107.188Y-140.97
X107.315Y-33.655
X107.315Y-36.195
X107.315Y-38.735
X107.315Y-41.275
X107.315Y-43.815
X107.315Y-46.355
X107.315Y-48.895
X107.315Y-51.435
X107.315Y-53.975
X107.315Y-56.515
X107.315Y-59.055
X107.315Y-61.595
X109.728Y-140.97
X110.998Y-100.33
X110.998Y-102.87
X110.998Y-105.41
X110.998Y-107.95
X110.998Y-110.49
X110.998Y-113.03
X110.998Y-115.57
X111.125Y-71.12
X111.125Y-73.66
X111.125Y-76.2
X111.125Y-78.74
X111.125Y-81.28
X111.125Y-83.82
X111.125Y-86.36
X112.395Y-120.65
X112.395Y-123.19
X112.395Y-125.73
X112.395Y-128.27
X112.395Y-130.81
X112.395Y-133.35
X112.395Y-135.89
X112.395Y-138.43
X112.395Y-140.97
X112.395Y-143.51
X118.618Y-100.33
X118.618Y-102.87
X118.618Y-105.41
X118.618Y-107.95
X118.618Y-110.49
X118.618Y-113.03
X118.618Y-115.57
X118.745Y-71.12
X118.745Y-73.66
X118.745Y-76.2
X118.745Y-78.74
X118.745Y-81.28
X118.745Y-83.82
X118.745Y-86.36
X120.015Y-120.65
X120.015Y-123.19
X120.015Y-125.73
X120.015Y-128.27
X120.015Y-130.81
X120.015Y-133.35
X120.015Y-135.89
X120.015Y-138.43
X120.015Y-140.97
X120.015Y-143.51
X122.555Y-33.655
X122.555Y-36.195
X122.555Y-38.735
X122.555Y-41.275
X122.555Y-43.815
X122.555Y-46.355
X122.555Y-48.895
X122.555Y-51.435
X122.555Y-53.975
X122.555Y-56.515
X122.555Y-59.055
X122.555Y-61.595
X122.555Y-97.79
X122.555Y-100.33
X122.555Y-102.87
X122.555Y-105.41
X122.555Y-107.95
X122.555Y-110.49
X122.555Y-113.03
X122.555Y-115.57
X123.952Y-71.12
X123.952Y-73.66
X123.952Y-76.2
X123.952Y-78.74
X123.952Y-81.28
X123.952Y-83.82
X123.952Y-86.36
X125.095Y-97.79
X125.095Y-100.33
X125.095Y-102.87
X125.095Y-105.41
X125.095Y-107.95
X125.095Y-110.49
X125.095Y-113.03
X125.095Y-115.57
X125.095Y-125.73
X125.095Y-128.27
X125.095Y-130.81
X125.095Y-133.35
X125.095Y-135.89
X125.095Y-138.43
X125.095Y-140.97
X125.095Y-143.51
X126.365Y-33.655
X126.365Y-36.195
X126.365Y-38.735
X126.365Y-41.275
X126.365Y-43.815
X126.365Y-46.355
X126.365Y-48.895
X126.365Y-51.435
X126.365Y-53.975
X126.365Y-56.515
X126.365Y-59.055
X126.365Y-61.595
X131.572Y-71.12
X131.572Y-73.66
X131.572Y-76.2
X131.572Y-78.74
X131.572Y-81.28
X131.572Y-83.82
X131.572Y-86.36
X132.715Y-97.79
X132.715Y-100.33
X132.715Y-102.87
X132.715Y-105.41
X132.715Y-107.95
X132.715Y-110.49
X132.715Y-113.03
X132.715Y-115.57
X132.715Y-125.73
X132.715Y-128.27
X132.715Y-130.81
X132.715Y-133.35
X132.715Y-135.89
X132.715Y-138.43
X132.715Y-140.97
X132.715Y-143.51
X134.366Y-69.596
X134.366Y-79.756
X134.366Y-83.566
X134.366Y-93.726
X135.128Y-128.016
X135.128Y-130.516
X135.255Y-107.95
X135.255Y-110.49
X135.255Y-113.03
X135.255Y-115.57
X135.255Y-118.11
X135.255Y-120.65
X135.255Y-123.19
X135.255Y-125.73
X135.89Y-97.79
X137.795Y-105.41
X137.795Y-107.95
X137.795Y-110.49
X137.795Y-113.03
X137.795Y-115.57
X137.795Y-118.11
X137.795Y-120.65
X137.795Y-123.19
X137.795Y-128.27
X137.795Y-130.81
X137.795Y-133.35
X137.795Y-135.89
X137.795Y-138.43
X137.795Y-140.97
X137.795Y-143.51
X141.605Y-33.655
X141.605Y-36.195
X141.605Y-38.735
X141.605Y-41.275
X141.605Y-43.815
X141.605Y-46.355
X141.605Y-48.895
X141.605Y-51.435
X141.605Y-53.975
X141.605Y-56.515
X141.605Y-59.055
X141.605Y-61.595
X144.272Y-85.09
X145.415Y-28.575
X145.415Y-31.115
X145.415Y-33.655
X145.415Y-36.195
X145.415Y-38.735
X145.415Y-41.275
X145.415Y-43.815
X145.415Y-46.355
X145.415Y-48.895
X145.415Y-51.435
X145.415Y-53.975
X145.415Y-56.515
X145.415Y-59.055
X145.415Y-61.595
X145.415Y-105.41
X145.415Y-107.95
X145.415Y-110.49
X145.415Y-113.03
X145.415Y-115.57
X145.415Y-118.11
X145.415Y-120.65
X145.415Y-123.19
X145.415Y-128.27
X145.415Y-130.81
X145.415Y-133.35
X145.415Y-135.89
X145.415Y-138.43
X145.415Y-140.97
X145.415Y-143.51
X146.05Y-97.79
X146.772Y-85.09
X149.86Y-125.73
X149.86Y-128.27
X149.86Y-130.81
X149.86Y-133.35
X149.86Y-135.89
X149.86Y-138.43
X149.86Y-140.97
X149.86Y-143.51
X150.368Y-80.772
X150.368Y-83.82
X150.368Y-86.36
X150.368Y-88.9
X150.368Y-91.44
X150.368Y-93.98
X150.368Y-96.52
X150.368Y-99.06
X150.368Y-101.6
X150.368Y-104.14
X150.368Y-106.68
X150.368Y-109.22
X150.368Y-111.76
X150.368Y-114.3
X150.368Y-116.84
X157.48Y-125.73
X157.48Y-128.27
X157.48Y-130.81
X157.48Y-133.35
X157.48Y-135.89
X157.48Y-138.43
X157.48Y-140.97
X157.48Y-143.51
X160.528Y-80.772
X160.655Y-28.575
X160.655Y-31.115
X160.655Y-33.655
X160.655Y-36.195
X160.655Y-38.735
X160.655Y-41.275
X160.655Y-43.815
X160.655Y-46.355
X160.655Y-48.895
X160.655Y-51.435
X160.655Y-53.975
X160.655Y-56.515
X160.655Y-59.055
X160.655Y-61.595
X163.195Y-125.73
X163.195Y-128.27
X163.195Y-130.81
X163.195Y-133.35
X163.195Y-135.89
X163.195Y-138.43
X163.195Y-140.97
X163.195Y-143.51
X165.354Y-72.39
X165.608Y-78.526
X165.608Y-81.026
X165.608Y-83.82
X165.608Y-86.36
X165.608Y-88.9
X165.608Y-91.44
X165.608Y-93.98
X165.608Y-96.52
X165.608Y-99.06
X165.608Y-101.6
X165.608Y-104.14
X165.608Y-106.68
X165.608Y-109.22
X165.608Y-111.76
X165.608Y-114.3
X165.608Y-116.84
X167.005Y-25.44
X167.005Y-27.94
X167.854Y-72.39
X169.545Y-28.575
X169.545Y-31.115
X169.545Y-33.655
X169.545Y-36.195
X169.545Y-38.735
X169.545Y-41.275
X169.545Y-43.815
X169.545Y-46.355
X169.545Y-48.895
X170.18Y-24.13
X170.815Y-62.23
X170.815Y-64.77
X170.815Y-67.31
X170.815Y-69.85
X170.815Y-72.39
X170.815Y-74.93
X170.815Y-77.47
X170.815Y-80.01
X170.815Y-82.55
X170.815Y-85.09
X170.815Y-87.63
X170.815Y-125.73
X170.815Y-128.27
X170.815Y-130.81
X170.815Y-133.35
X170.815Y-135.89
X170.815Y-138.43
X170.815Y-140.97
X170.815Y-143.51
X172.085Y-100.33
X172.085Y-102.87
X172.085Y-105.41
X172.085Y-107.95
X172.085Y-110.49
X172.085Y-113.03
X173.482Y-124.734
X173.482Y-127.234
X175.895Y-93.98
X175.895Y-96.52
X175.895Y-99.06
X175.895Y-101.6
X175.895Y-104.14
X175.895Y-106.68
X175.895Y-109.22
X175.895Y-111.76
X175.895Y-125.73
X175.895Y-128.27
X175.895Y-130.81
X175.895Y-133.35
X175.895Y-135.89
X175.895Y-138.43
X175.895Y-140.97
X175.895Y-143.51
X177.165Y-28.575
X177.165Y-31.115
X177.165Y-33.655
X177.165Y-36.195
X177.165Y-38.735
X177.165Y-41.275
X177.165Y-43.815
X177.165Y-46.355
X177.165Y-48.895
X180.34Y-24.13
X180.975Y-28.575
X180.975Y-31.115
X180.975Y-33.655
X180.975Y-36.195
X180.975Y-38.735
X180.975Y-41.275
X180.975Y-43.815
X180.975Y-46.355
X180.975Y-48.895
X180.975Y-62.23
X180.975Y-64.77
X180.975Y-67.31
X180.975Y-69.85
X180.975Y-72.39
X180.975Y-74.93
X180.975Y-77.47
X180.975Y-80.01
X180.975Y-82.55
X180.975Y-85.09
X180.975Y-87.63
X183.515Y-93.98
X183.515Y-96.52
X183.515Y-99.06
X183.515Y-101.6
X183.515Y-104.14
X183.515Y-106.68
X183.515Y-109.22
X183.515Y-111.76
X183.515Y-125.73
X183.515Y-128.27
X183.515Y-130.81
X183.515Y-133.35
X183.515Y-135.89
X183.515Y-138.43
X183.515Y-140.97
X183.515Y-143.51
X184.785Y-62.23
X184.785Y-64.77
X184.785Y-67.31
X184.785Y-69.85
X184.785Y-72.39
X184.785Y-74.93
X184.785Y-77.47
X184.785Y-80.01
X184.785Y-82.55
X184.785Y-85.09
X184.785Y-87.63
X188.595Y-28.575
X188.595Y-31.115
X188.595Y-33.655
X188.595Y-36.195
X188.595Y-38.735
X188.595Y-41.275
X188.595Y-43.815
X188.595Y-46.355
X188.595Y-48.895
X188.595Y-93.98
X188.595Y-96.52
X188.595Y-99.06
X188.595Y-101.6
X188.595Y-104.14
X188.595Y-106.68
X188.595Y-109.22
X188.595Y-111.76
X188.595Y-125.73
X188.595Y-128.27
X188.595Y-130.81
X188.595Y-133.35
X188.595Y-135.89
X188.595Y-138.43
X188.595Y-140.97
X188.595Y-143.51
X191.135Y-35.56
X191.135Y-45.72
X193.675Y-35.56
X193.675Y-45.72
X194.564Y-114.3
X194.945Y-62.23
X194.945Y-64.77
X194.945Y-67.31
X194.945Y-69.85
X194.945Y-72.39
X194.945Y-74.93
X194.945Y-77.47
X194.945Y-80.01
X194.945Y-82.55
X194.945Y-85.09
X194.945Y-87.63
X195.834Y-26.055
X195.834Y-28.555
X196.215Y-93.98
X196.215Y-96.52
X196.215Y-99.06
X196.215Y-101.6
X196.215Y-104.14
X196.215Y-106.68
X196.215Y-109.22
X196.215Y-111.76
X196.215Y-125.73
X196.215Y-128.27
X196.215Y-130.81
X196.215Y-133.35
X196.215Y-135.89
X196.215Y-138.43
X196.215Y-140.97
X196.215Y-143.51
X197.064Y-114.3
X199.684Y-66.802
X201.295Y-69.85
X201.295Y-72.39
X201.295Y-74.93
X201.295Y-77.47
X201.295Y-80.01
X201.295Y-82.55
X201.295Y-85.09
X201.295Y-87.63
X201.295Y-96.52
X201.295Y-99.06
X201.295Y-101.6
X201.295Y-104.14
X201.295Y-106.68
X201.295Y-109.22
X201.295Y-111.76
X201.295Y-114.3
X201.295Y-125.73
X201.295Y-128.27
X201.295Y-130.81
X201.295Y-133.35
X201.295Y-135.89
X201.295Y-138.43
X201.295Y-140.97
X201.295Y-143.51
X202.184Y-66.802
X208.915Y-69.85
X208.915Y-72.39
X208.915Y-74.93
X208.915Y-77.47
X208.915Y-80.01
X208.915Y-82.55
X208.915Y-85.09
X208.915Y-87.63
X208.915Y-96.52
X208.915Y-99.06
X208.915Y-101.6
X208.915Y-104.14
X208.915Y-106.68
X208.915Y-109.22
X208.915Y-111.76
X208.915Y-114.3
X208.915Y-125.73
X208.915Y-128.27
X208.915Y-130.81
X208.915Y-133.35
X208.915Y-135.89
X208.915Y-138.43
X208.915Y-140.97
X208.915Y-143.51
X213.995Y-69.85
X213.995Y-72.39
X213.995Y-74.93
X213.995Y-77.47
X213.995Y-80.01
X213.995Y-82.55
X213.995Y-85.09
X213.995Y-87.63
X213.995Y-101.6
X213.995Y-104.14
X213.995Y-106.68
X213.995Y-109.22
X213.995Y-111.76
X213.995Y-114.3
X213.995Y-116.84
X213.995Y-125.73
X213.995Y-128.27
X213.995Y-130.81
X213.995Y-133.35
X213.995Y-135.89
X213.995Y-138.43
X213.995Y-140.97
X213.995Y-143.51
X219.71Y-97.79
X219.964Y-24.464
X219.964Y-29.464
X219.964Y-34.798
X219.964Y-39.798
X221.488Y-44.704
X221.615Y-69.85
X221.615Y-72.39
X221.615Y-74.93
X221.615Y-77.47
X221.615Y-80.01
X221.615Y-82.55
X221.615Y-85.09
X221.615Y-87.63
X221.615Y-101.6
X221.615Y-104.14
X221.615Y-106.68
X221.615Y-109.22
X221.615Y-111.76
X221.615Y-114.3
X221.615Y-116.84
X221.615Y-125.73
X221.615Y-128.27
X221.615Y-130.81
X221.615Y-133.35
X221.615Y-135.89
X221.615Y-138.43
X221.615Y-140.97
X221.615Y-143.51
X222.21Y-97.79
X223.52Y-22.86
X223.52Y-25.4
X223.52Y-27.94
X223.52Y-30.48
X223.52Y-33.02
X223.52Y-35.56
X223.52Y-38.1
X223.52Y-40.64
X223.52Y-66.334
X223.52Y-68.834
X224.79Y-130.556
X224.79Y-133.056
X226.06Y-22.86
X226.06Y-52.07
X226.06Y-54.61
X226.06Y-57.15
X226.06Y-59.69
X226.06Y-62.23
X226.06Y-64.77
X226.06Y-67.31
X226.06Y-72.39
X226.06Y-74.93
X226.06Y-77.47
X226.06Y-80.01
X226.06Y-82.55
X226.06Y-85.09
X226.06Y-87.63
X226.368Y-44.704
X227.33Y-96.52
X227.33Y-99.06
X227.33Y-101.6
X227.33Y-104.14
X227.33Y-106.68
X227.33Y-109.22
X227.33Y-111.76
X227.33Y-114.3
X227.33Y-116.84
X227.33Y-119.38
X227.33Y-121.92
X227.33Y-124.46
X227.33Y-127.0
X227.33Y-129.54
X227.33Y-132.08
X227.33Y-134.62
X227.33Y-137.16
X227.33Y-139.7
X227.33Y-142.24
X227.33Y-144.78
X228.6Y-22.86
X231.14Y-22.86
X231.14Y-25.4
X231.14Y-27.94
X231.14Y-30.48
X231.14Y-33.02
X231.14Y-35.56
X231.14Y-38.1
X231.14Y-40.64
X233.68Y-22.86
X233.68Y-52.07
X233.68Y-54.61
X233.68Y-57.15
X233.68Y-59.69
X233.68Y-62.23
X233.68Y-64.77
X233.68Y-67.31
X233.68Y-72.39
X233.68Y-74.93
X233.68Y-77.47
X233.68Y-80.01
X233.68Y-82.55
X233.68Y-85.09
X233.68Y-87.63
X234.134Y-44.704
X235.204Y-33.528
X235.204Y-38.528
X236.046Y-26.924
X236.22Y-22.86
X238.76Y-22.86
X239.014Y-44.704
X239.268Y-52.07
X239.268Y-54.61
X239.268Y-57.15
X239.268Y-59.69
X239.268Y-62.23
X239.268Y-64.77
X239.268Y-67.31
X239.395Y-72.39
X239.395Y-74.93
X239.395Y-77.47
X239.395Y-80.01
X239.395Y-82.55
X239.395Y-85.09
X239.395Y-87.63
X241.046Y-26.924
X241.3Y-22.86
X242.57Y-96.52
X242.57Y-99.06
X242.57Y-101.6
X242.57Y-104.14
X242.57Y-106.68
X242.57Y-109.22
X242.57Y-111.76
X242.57Y-114.3
X242.57Y-116.84
X242.57Y-119.38
X242.57Y-121.92
X242.57Y-124.46
X242.57Y-127.0
X242.57Y-129.54
X242.57Y-132.08
X242.57Y-134.62
X242.57Y-137.16
X242.57Y-139.7
X242.57Y-142.24
X242.57Y-144.78
X245.11Y-22.86
X245.11Y-25.4
X245.11Y-27.94
X245.11Y-30.48
X245.11Y-33.02
X245.11Y-35.56
X245.11Y-38.1
X245.11Y-40.64
X246.126Y-116.88
X246.126Y-119.38
X246.38Y-121.92
X246.38Y-124.46
X246.38Y-127.0
X246.38Y-129.54
X246.38Y-132.08
X246.38Y-134.62
X246.38Y-137.16
X246.38Y-139.7
X246.38Y-142.24
X246.38Y-144.78
X246.888Y-52.07
X246.888Y-54.61
X246.888Y-57.15
X246.888Y-59.69
X246.888Y-62.23
X246.888Y-64.77
X246.888Y-67.31
X247.015Y-72.39
X247.015Y-74.93
X247.015Y-77.47
X247.015Y-80.01
X247.015Y-82.55
X247.015Y-85.09
X247.015Y-87.63
X247.65Y-49.53
X248.92Y-93.98
X248.92Y-96.52
X248.92Y-99.06
X248.92Y-101.6
X248.92Y-104.14
X248.92Y-106.68
X248.92Y-109.22
X248.92Y-111.76
X248.92Y-114.3
X248.92Y-116.84
X251.46Y-72.39
X251.46Y-74.93
X251.46Y-77.47
X251.46Y-80.01
X251.46Y-82.55
X251.46Y-85.09
X251.46Y-87.63
X251.475Y-52.07
X251.475Y-54.61
X251.475Y-57.15
X251.475Y-59.69
X251.475Y-62.23
X251.475Y-64.77
X251.475Y-67.31
X252.73Y-22.86
X252.73Y-25.4
X252.73Y-27.94
X252.73Y-30.48
X252.73Y-33.02
X252.73Y-35.56
X252.73Y-38.1
X252.73Y-40.64
X254.0Y-121.92
X254.0Y-124.46
X254.0Y-127.0
X254.0Y-129.54
X254.0Y-132.08
X254.0Y-134.62
X254.0Y-137.16
X254.0Y-139.7
X254.0Y-142.24
X254.0Y-144.78
X256.54Y-93.98
X256.54Y-96.52
X256.54Y-99.06
X256.54Y-101.6
X256.54Y-104.14
X256.54Y-106.68
X256.54Y-109.22
X256.54Y-111.76
X256.54Y-114.3
X256.54Y-116.84
X257.175Y-22.86
X257.175Y-25.4
X257.175Y-27.94
X257.175Y-30.48
X257.175Y-33.02
X257.175Y-35.56
X257.175Y-38.1
X257.175Y-40.64
X257.81Y-49.53
X257.81Y-121.92
X257.81Y-124.46
X257.81Y-127.0
X257.81Y-129.54
X257.81Y-132.08
X257.81Y-134.62
X257.81Y-137.16
X257.81Y-139.7
X257.81Y-142.24
X257.81Y-144.78
X259.08Y-72.39
X259.08Y-74.93
X259.08Y-77.47
X259.08Y-80.01
X259.08Y-82.55
X259.08Y-85.09
X259.08Y-87.63
X259.095Y-52.07
X259.095Y-54.61
X259.095Y-57.15
X259.095Y-59.69
X259.095Y-62.23
X259.095Y-64.77
X259.095Y-67.31
X259.842Y-91.988
X259.842Y-94.488
X264.795Y-22.86
X264.795Y-25.4
X264.795Y-27.94
X264.795Y-30.48
X264.795Y-33.02
X264.795Y-35.56
X264.795Y-38.1
X264.795Y-40.64
X265.43Y-121.92
X265.43Y-124.46
X265.43Y-127.0
X265.43Y-129.54
X265.43Y-132.08
X265.43Y-134.62
X265.43Y-137.16
X265.43Y-139.7
X265.43Y-142.24
X265.43Y-144.78
X267.462Y-74.676
X267.462Y-77.176
T6
X50.165Y-24.655
X50.165Y-27.195
X52.705Y-24.655
X52.705Y-27.195
X55.245Y-24.655
X55.245Y-27.195
X57.785Y-24.655
X57.785Y-27.195
X60.325Y-24.655
X60.325Y-27.195
X62.865Y-24.655
X62.865Y-27.195
X65.405Y-24.655
X65.405Y-27.195
X67.945Y-24.655
X67.945Y-27.195
X70.485Y-24.655
X70.485Y-27.195
X71.628Y-96.52
X71.628Y-99.06
X71.628Y-101.6
X73.025Y-24.655
X73.025Y-27.195
X74.168Y-96.52
X74.168Y-99.06
X74.168Y-101.6
X76.708Y-96.52
X76.708Y-99.06
X76.708Y-101.6
X80.645Y-64.77
X81.915Y-95.25
X83.185Y-64.77
X84.455Y-95.25
X84.455Y-142.24
X85.725Y-64.77
X86.995Y-95.25
X86.995Y-142.24
X88.265Y-24.765
X88.265Y-27.305
X88.265Y-29.845
X89.408Y-130.81
X89.408Y-133.35
X89.408Y-135.89
X89.535Y-95.25
X89.535Y-142.24
X90.805Y-24.765
X90.805Y-27.305
X90.805Y-29.845
X92.075Y-95.25
X93.345Y-24.765
X93.345Y-27.305
X93.345Y-29.845
X95.885Y-24.765
X95.885Y-27.305
X95.885Y-29.845
X98.425Y-24.765
X98.425Y-27.305
X98.425Y-29.845
X100.965Y-24.765
X100.965Y-27.305
X100.965Y-29.845
X103.505Y-24.765
X103.505Y-27.305
X103.505Y-29.845
X103.505Y-115.57
X103.505Y-118.11
X103.505Y-120.65
X103.505Y-123.19
X103.505Y-125.73
X103.505Y-128.27
X103.505Y-130.81
X103.505Y-133.35
X103.505Y-135.89
X106.045Y-115.57
X106.045Y-118.11
X106.045Y-120.65
X106.045Y-123.19
X106.045Y-125.73
X106.045Y-128.27
X106.045Y-130.81
X106.045Y-133.35
X106.045Y-135.89
X107.315Y-24.765
X107.315Y-27.305
X107.315Y-29.845
X109.855Y-24.765
X109.855Y-27.305
X109.855Y-29.845
X112.395Y-24.765
X112.395Y-27.305
X112.395Y-29.845
X114.935Y-24.765
X114.935Y-27.305
X114.935Y-29.845
X117.475Y-24.765
X117.475Y-27.305
X117.475Y-29.845
X120.015Y-24.765
X120.015Y-27.305
X120.015Y-29.845
X122.555Y-24.765
X122.555Y-27.305
X122.555Y-29.845
X126.365Y-24.765
X126.365Y-27.305
X126.365Y-29.845
X128.905Y-24.765
X128.905Y-27.305
X128.905Y-29.845
X131.445Y-24.765
X131.445Y-27.305
X131.445Y-29.845
X133.985Y-24.765
X133.985Y-27.305
X133.985Y-29.845
X136.525Y-24.765
X136.525Y-27.305
X136.525Y-29.845
X139.065Y-24.765
X139.065Y-27.305
X139.065Y-29.845
X140.335Y-91.44
X140.335Y-93.98
X141.605Y-24.765
X141.605Y-27.305
X141.605Y-29.845
X142.875Y-91.44
X142.875Y-93.98
X145.415Y-22.225
X145.415Y-24.765
X145.415Y-91.44
X145.415Y-93.98
X147.955Y-22.225
X147.955Y-24.765
X150.495Y-22.225
X150.495Y-24.765
X153.035Y-22.225
X153.035Y-24.765
X155.575Y-22.225
X155.575Y-24.765
X158.115Y-22.225
X158.115Y-24.765
X160.655Y-22.225
X160.655Y-24.765
X163.195Y-22.225
X163.195Y-24.765
X183.515Y-24.13
X186.055Y-24.13
X188.595Y-24.13
X192.532Y-22.352
X192.532Y-26.035
X192.532Y-28.575
X192.532Y-31.115
X195.072Y-22.352
X211.074Y-66.802
X239.268Y-30.48
X239.268Y-33.02
X239.268Y-35.56
X239.268Y-38.1
X239.268Y-40.64
X241.808Y-30.48
X241.808Y-33.02
X241.808Y-35.56
X241.808Y-38.1
X241.808Y-40.64
T7
X26.33Y-120.65
X26.33Y-123.19
X26.33Y-125.73
X33.95Y-104.14
X33.95Y-106.68
X33.95Y-109.22
X33.95Y-137.16
X33.95Y-139.7
X33.95Y-142.24
X72.73Y-120.945
X72.73Y-123.485
X72.73Y-126.025
T8
X48.495Y-149.86
X52.455Y-149.86
X56.415Y-149.86
X60.375Y-149.86
X64.335Y-149.86
X68.295Y-149.86
X72.255Y-149.86
X76.215Y-149.86
X80.175Y-149.86
X84.135Y-149.86
X88.095Y-149.86
X92.055Y-149.86
X96.015Y-149.86
X99.975Y-149.86
X103.935Y-149.86
X107.895Y-149.86
X111.855Y-149.86
X115.815Y-149.86
X119.775Y-149.86
X123.735Y-149.86
X127.695Y-149.86
X131.655Y-149.86
X135.615Y-149.86
X139.575Y-149.86
X143.535Y-149.86
X147.495Y-149.86
X151.455Y-149.86
X155.415Y-149.86
X159.375Y-149.86
X163.335Y-149.86
X167.295Y-149.86
X171.255Y-149.86
X175.215Y-149.86
X179.175Y-149.86
X183.135Y-149.86
X187.095Y-149.86
X191.055Y-149.86
X195.015Y-149.86
X198.975Y-149.86
X202.935Y-149.86
X206.895Y-149.86
X210.855Y-149.86
X214.815Y-149.86
X218.775Y-149.86
X222.735Y-149.86
X226.695Y-149.86
X230.655Y-149.86
X234.615Y-149.86
X238.575Y-149.86
X242.535Y-149.86
T9
X42.99Y-123.19
X50.61Y-106.68
X50.61Y-139.7
X56.07Y-123.485
M30
